<svg width="47" height="51" viewBox="0 0 47 51" fill="none" xmlns="http://www.w3.org/2000/svg">
<path d="M47 25.7944H0V28.0662H47V25.7944Z" fill="#420007"/>
<path d="M47 28.0662H0V30.3382H47V28.0662Z" fill="#420007"/>
<path d="M47 30.3359H0V32.6077H47V30.3359Z" fill="#420007"/>
<path d="M44.7297 32.6091H2.27071V34.881H44.7297V32.6091Z" fill="#420007"/>
<path d="M44.7297 34.8799H2.27071V37.1517H44.7297V34.8799Z" fill="#420007"/>
<path d="M42.6844 37.1519H4.08534V39.4238H42.6844V37.1519Z" fill="#420007"/>
<path d="M42.6844 39.4238H4.08534V41.6958H42.6844V39.4238Z" fill="#420007"/>
<path d="M40.6435 41.6959H6.35849V43.9678H40.6435V41.6959Z" fill="#420007"/>
<path d="M38.5978 43.9679H8.62676V46.2398H38.5978V43.9679Z" fill="#420007"/>
<path d="M34.0549 46.24H12.9389V48.5118H34.0549V46.24Z" fill="#420007"/>
<path d="M29.9736 48.5107H17.0316V50.7826H29.9736V48.5107Z" fill="#420007"/>
<path d="M47 25.7944H0V23.5225H47V25.7944Z" fill="#420007"/>
<path d="M47 23.5211H0V21.2493H47V23.5211Z" fill="#420007"/>
<path d="M47 21.2503H0V18.9785H47V21.2503Z" fill="#420007"/>
<path d="M44.7297 18.9771H2.27071V16.7053H44.7297V18.9771Z" fill="#420007"/>
<path d="M44.7297 16.7063H2.27071V14.4345H44.7297V16.7063Z" fill="#420007"/>
<path d="M42.6844 14.4343H4.08534V12.1625H42.6844V14.4343Z" fill="#420007"/>
<path d="M42.6844 12.1625H4.08534V9.89051H42.6844V12.1625Z" fill="#420007"/>
<path d="M40.6435 9.89032H6.35849V7.6185H40.6435V9.89032Z" fill="#420007"/>
<path d="M38.5978 7.61954H8.62676V5.34772H38.5978V7.61954Z" fill="#420007"/>
<path d="M34.0549 5.34631H12.9389V3.0745H34.0549V5.34631Z" fill="#420007"/>
<path d="M29.9736 3.07553H17.0316V0.803711H29.9736V3.07553Z" fill="#420007"/>
<path d="M44.7321 25.7931H2.27315V28.065H44.7321V25.7931Z" fill="#F9EA11"/>
<path d="M44.7321 28.0664H2.27315V30.3382H44.7321V28.0664Z" fill="#F9EA11"/>
<path d="M44.7321 30.3382H2.27315V32.6102H44.7321V30.3382Z" fill="#F9EA11"/>
<path d="M42.6892 32.6104H4.09021V34.8822H42.6892V32.6104Z" fill="#F9EA11"/>
<path d="M42.6892 34.8822H4.09021V37.1542H42.6892V34.8822Z" fill="#F9EA11"/>
<path d="M40.6435 37.1544H6.35849V39.4262H40.6435V37.1544Z" fill="#F9EA11"/>
<path d="M40.6435 39.4252H6.35849V41.697H40.6435V39.4252Z" fill="#F9EA11"/>
<path d="M38.6027 41.6984H8.63164V43.9702H38.6027V41.6984Z" fill="#F9EA11"/>
<path d="M34.0598 43.9679H12.9438V46.2398H34.0598V43.9679Z" fill="#F9EA11"/>
<path d="M29.9736 46.24H17.0316V48.5118H29.9736V46.24Z" fill="#F9EA11"/>
<path d="M44.7321 25.7931H2.27315V23.5213H44.7321L44.7321 25.7931Z" fill="#F9EA11"/>
<path d="M44.7321 23.5213H2.27315V21.2493H44.7321V23.5213Z" fill="#F9EA11"/>
<path d="M44.7321 21.2503H2.27315V18.9785H44.7321V21.2503Z" fill="#F9EA11"/>
<path d="M42.6892 18.9771H4.09021V16.7053H42.6892V18.9771Z" fill="#F9EA11"/>
<path d="M42.6892 16.7076H4.09021V14.4357H42.6892V16.7076Z" fill="#F9EA11"/>
<path d="M40.6435 14.4356H6.35849V12.1637H40.6435V14.4356Z" fill="#F9EA11"/>
<path d="M40.6435 12.1637H6.35849V9.89173H40.6435V12.1637Z" fill="#F9EA11"/>
<path d="M38.6027 9.89154H8.63164V7.61972H38.6027V9.89154Z" fill="#F9EA11"/>
<path d="M34.0598 7.61954H12.9438V5.34772H34.0598V7.61954Z" fill="#F9EA11"/>
<path d="M29.9736 5.34753H17.0316V3.07553H29.9736V5.34753Z" fill="#F9EA11"/>
<path d="M4.08958 25.7931H2.27315V28.065H4.08958V25.7931Z" fill="#F8F79F"/>
<path d="M4.08958 28.0664H2.27315V30.3382H4.08958V28.0664Z" fill="#F8F79F"/>
<path d="M4.08958 30.3382H2.27315V32.6102H4.08958V30.3382Z" fill="#F8F79F"/>
<path d="M6.36074 32.6104H4.09021V34.8822H6.36074V32.6104Z" fill="#F8F79F"/>
<path d="M6.36074 34.8822H4.09021V37.1542H6.36074V34.8822Z" fill="#F8F79F"/>
<path d="M4.08958 25.7931H2.27315V23.5213H4.08958V25.7931Z" fill="#F8F79F"/>
<path d="M4.08958 23.5213H2.27315V21.2493H4.08958V23.5213Z" fill="#F8F79F"/>
<path d="M6.36011 21.2503H2.27315V18.9785H6.36011V21.2503Z" fill="#F8F79F"/>
<path d="M6.36074 18.9771H4.09021V16.7053H6.36074V18.9771Z" fill="#F8F79F"/>
<path d="M8.63128 16.7076H4.09021V14.4357H8.63128V16.7076Z" fill="#F8F79F"/>
<path d="M8.62902 14.4356H6.35849V12.1637H8.62902V14.4356Z" fill="#F8F79F"/>
<path d="M11.5807 12.1635L6.35849 12.1637V9.89173H11.5807V12.1635Z" fill="#F8F79F"/>
<path d="M15.2162 9.89154H8.63164V7.61972H15.2162V9.89154Z" fill="#F8F79F"/>
<path d="M19.3013 7.61954H12.9438V5.34772H19.3013V7.61954Z" fill="#F8F79F"/>
<path d="M34.0598 7.61954H29.9729V5.34772H34.0598V7.61954Z" fill="#F8F79F"/>
<path d="M29.9736 5.34753H17.0316V3.07553H29.9736V5.34753Z" fill="#F8F79F"/>
<path d="M42.9125 25.8712H44.7289V23.5994H42.9125V25.8712Z" fill="#FBA812"/>
<path d="M42.9125 23.598H44.7289V21.3262H42.9125V23.598Z" fill="#FBA812"/>
<path d="M42.9125 21.3262H44.7289V19.0542H42.9125V21.3262Z" fill="#FBA812"/>
<path d="M42.9125 25.8712H44.7289V28.143H42.9125L42.9125 25.8712Z" fill="#FBA812"/>
<path d="M42.9125 28.142H44.7289V30.4138H42.9125V28.142Z" fill="#FBA812"/>
<path d="M40.642 30.414L44.7289 30.4138V32.6858H40.642V30.414Z" fill="#FBA812"/>
<path d="M40.6413 32.686H42.9119V34.9578H40.6413V32.686Z" fill="#FBA812"/>
<path d="M38.3708 34.9556H42.9119V37.2274H38.3708V34.9556Z" fill="#FBA812"/>
<path d="M38.3731 37.2288H40.6436V39.5006H38.3731V37.2288Z" fill="#FBA812"/>
<path d="M35.4214 39.4996H40.6436V41.7714H35.4214V39.4996Z" fill="#FBA812"/>
<path d="M31.7881 41.7728H38.5997V44.0446H31.7881V41.7728Z" fill="#FBA812"/>
<path d="M27.7008 44.0436H34.0583V46.3154H27.7008V44.0436Z" fill="#FBA812"/>
<path d="M12.9448 44.0436H19.3023V46.3154H12.9448V44.0436Z" fill="#FBA812"/>
<path d="M8.62817 41.7728H17.0291V44.0446H8.62817V41.7728Z" fill="#FBA812"/>
<path d="M17.0285 46.3168H29.9705V48.5886H17.0285V46.3168Z" fill="#FBA812"/>
<path d="M25.4334 13.0714H21.1194V34.4265H25.4334V13.0714Z" fill="#F9AB15"/>
<path d="M29.9738 34.426H16.8048V38.5153H29.9738V34.426Z" fill="#F9AB15"/>
<path d="M21.1189 17.6142H19.0755V15.3423H21.1189V17.6142Z" fill="#F9AB15"/>
<path d="M21.1188 19.8862H16.8048V17.6143H21.1188V19.8862Z" fill="#F9AB15"/>
</svg>
