<svg width="47" height="51" viewBox="0 0 47 51" fill="none" xmlns="http://www.w3.org/2000/svg">
<path d="M47 25.7439H0V28.0157H47V25.7439Z" fill="#16151F"/>
<path d="M47 28.0157H0V30.2877H47V28.0157Z" fill="#16151F"/>
<path d="M47 30.2877H0V32.5596H47V30.2877Z" fill="#16151F"/>
<path d="M44.7272 32.5598H2.26828V34.8315H44.7272V32.5598Z" fill="#16151F"/>
<path d="M44.7272 34.8293H2.26828V37.1011H44.7272V34.8293Z" fill="#16151F"/>
<path d="M42.6819 37.1012H4.0829V39.373H42.6819V37.1012Z" fill="#16151F"/>
<path d="M42.6819 39.373H4.0829V41.645H42.6819V39.373Z" fill="#16151F"/>
<path d="M40.6411 41.6451H6.35605V43.9169H40.6411V41.6451Z" fill="#16151F"/>
<path d="M38.6002 43.9171H8.6292V46.1889H38.6002V43.9171Z" fill="#16151F"/>
<path d="M34.0573 46.189H12.9414V48.4608H34.0573V46.189Z" fill="#16151F"/>
<path d="M29.9712 48.461H17.0291V50.7328H29.9712V48.461Z" fill="#16151F"/>
<path d="M47 25.7439H0V23.4722H47V25.7439Z" fill="#16151F"/>
<path d="M47 23.4708H0V21.199H47V23.4708Z" fill="#16151F"/>
<path d="M47 21.2H0V18.9283H47V21.2Z" fill="#16151F"/>
<path d="M44.7272 18.9269H2.26828V16.6551H44.7272V18.9269Z" fill="#16151F"/>
<path d="M44.7272 16.6561H2.26828V14.3844H44.7272V16.6561Z" fill="#16151F"/>
<path d="M42.6819 14.3842H4.0829V12.1124H42.6819V14.3842Z" fill="#16151F"/>
<path d="M42.6819 12.1124H4.0829V9.84048H42.6819V12.1124Z" fill="#16151F"/>
<path d="M40.6411 9.8403H6.35605V7.56853H40.6411V9.8403Z" fill="#16151F"/>
<path d="M38.6002 7.56957H8.6292V5.2978H38.6002V7.56957Z" fill="#16151F"/>
<path d="M34.0573 5.2964H12.9414V3.02464H34.0573V5.2964Z" fill="#16151F"/>
<path d="M29.9712 3.02567H17.0291V0.753906H29.9712V3.02567Z" fill="#16151F"/>
<path d="M44.7321 25.7403H2.27315V28.012H44.7321V25.7403Z" fill="#9B9DAA"/>
<path d="M44.7321 28.0134H2.27315V30.2852H44.7321V28.0134Z" fill="#9B9DAA"/>
<path d="M44.7321 30.2852H2.27315V32.5572H44.7321V30.2852Z" fill="#9B9DAA"/>
<path d="M42.6917 32.5573H4.09265V34.8291H42.6917V32.5573Z" fill="#9B9DAA"/>
<path d="M42.6917 34.8291H4.09265V37.1011H42.6917V34.8291Z" fill="#9B9DAA"/>
<path d="M40.6411 37.1012H6.35605V39.373H40.6411V37.1012Z" fill="#9B9DAA"/>
<path d="M40.6411 39.373H6.35605V41.6451H40.6411V39.373Z" fill="#9B9DAA"/>
<path d="M38.6002 41.6451H8.6292V43.9171H38.6002V41.6451Z" fill="#9B9DAA"/>
<path d="M34.0573 43.9146H12.9414V46.1864H34.0573V43.9146Z" fill="#9B9DAA"/>
<path d="M29.9712 46.1866H17.0291V48.4584H29.9712V46.1866Z" fill="#9B9DAA"/>
<path d="M44.7321 25.7403H2.27315V23.4685H44.7321L44.7321 25.7403Z" fill="#9B9DAA"/>
<path d="M44.7321 23.4695H2.27315V21.1978H44.7321V23.4695Z" fill="#9B9DAA"/>
<path d="M44.7321 21.1978H2.27315V18.9258H44.7321V21.1978Z" fill="#9B9DAA"/>
<path d="M42.6917 18.9257H4.09265V16.6539H42.6917V18.9257Z" fill="#9B9DAA"/>
<path d="M42.6917 16.6561H4.09265V14.3844H42.6917V16.6561Z" fill="#9B9DAA"/>
<path d="M40.6411 14.383H6.35605V12.1112H40.6411V14.383Z" fill="#9B9DAA"/>
<path d="M40.6411 12.1122H6.35605V9.8403H40.6411V12.1122Z" fill="#9B9DAA"/>
<path d="M38.6002 9.83908H8.6292V7.56731H38.6002V9.83908Z" fill="#9B9DAA"/>
<path d="M34.0573 7.56835H12.9414V5.2964H34.0573V7.56835Z" fill="#9B9DAA"/>
<path d="M29.9712 5.29518H17.0291V3.02342H29.9712V5.29518Z" fill="#9B9DAA"/>
<path d="M4.08958 25.7403H2.27315V28.012H4.08958V25.7403Z" fill="#FAFAFC"/>
<path d="M4.08958 28.0134H2.27315V30.2852H4.08958V28.0134Z" fill="#FAFAFC"/>
<path d="M4.08958 30.2852H2.27315V32.5572H4.08958V30.2852Z" fill="#FAFAFC"/>
<path d="M6.36318 32.5573H4.09265V34.8291H6.36318V32.5573Z" fill="#FAFAFC"/>
<path d="M6.36318 34.8291H4.09265V37.1011H6.36318V34.8291Z" fill="#FAFAFC"/>
<path d="M4.08958 25.7403H2.27315V23.4685H4.08958V25.7403Z" fill="#FAFAFC"/>
<path d="M4.08958 23.4695H2.27315V21.1978H4.08958V23.4695Z" fill="#FAFAFC"/>
<path d="M6.36011 21.1976L2.27315 21.1978V18.9258H6.36011V21.1976Z" fill="#FAFAFC"/>
<path d="M6.36318 18.9257H4.09265V16.6539H6.36318V18.9257Z" fill="#FAFAFC"/>
<path d="M8.63372 16.6561H4.09265V14.3844H8.63372V16.6561Z" fill="#FAFAFC"/>
<path d="M8.62658 14.383H6.35605V12.1112H8.62658V14.383Z" fill="#FAFAFC"/>
<path d="M11.5783 12.1122H6.35605V9.8403L11.5783 9.84048V12.1122Z" fill="#FAFAFC"/>
<path d="M15.2137 9.83908H8.6292V7.56731H15.2137V9.83908Z" fill="#FAFAFC"/>
<path d="M19.2989 7.56835H12.9414V5.2964L19.2989 5.29658V7.56835Z" fill="#FAFAFC"/>
<path d="M34.0623 7.56835H29.9754V5.29658H34.0623V7.56835Z" fill="#FAFAFC"/>
<path d="M29.9712 5.29518H17.0291V3.02342H29.9712V5.29518Z" fill="#FAFAFC"/>
<path d="M42.9125 25.822H44.7289V23.5503H42.9125V25.822Z" fill="#6B6D7C"/>
<path d="M42.9125 23.5489H44.7289V21.2771H42.9125V23.5489Z" fill="#6B6D7C"/>
<path d="M42.9125 21.2771H44.7289V19.0051H42.9125V21.2771Z" fill="#6B6D7C"/>
<path d="M42.9125 25.822H44.7289V28.0938H42.9125L42.9125 25.822Z" fill="#6B6D7C"/>
<path d="M42.9125 28.0928H44.7289V30.3645H42.9125V28.0928Z" fill="#6B6D7C"/>
<path d="M40.642 30.3647L44.7289 30.3645V32.6365H40.642V30.3647Z" fill="#6B6D7C"/>
<path d="M40.6389 32.6367H42.9094V34.9084H40.6389V32.6367Z" fill="#6B6D7C"/>
<path d="M38.3684 34.9062H42.9094V37.1779H38.3684V34.9062Z" fill="#6B6D7C"/>
<path d="M38.3755 37.1793H40.646V39.4511H38.3755V37.1793Z" fill="#6B6D7C"/>
<path d="M35.4238 39.4501H40.646V41.7218H35.4238V39.4501Z" fill="#6B6D7C"/>
<path d="M31.7857 41.7232H38.5973V43.995H31.7857V41.7232Z" fill="#6B6D7C"/>
<path d="M27.7032 43.994H34.0607V46.2657H27.7032V43.994Z" fill="#6B6D7C"/>
<path d="M12.9424 43.994H19.2999V46.2657H12.9424V43.994Z" fill="#6B6D7C"/>
<path d="M8.62573 41.7232H17.0267V43.995H8.62573V41.7232Z" fill="#6B6D7C"/>
<path d="M17.0309 46.2671H29.9729V48.5389H17.0309V46.2671Z" fill="#6B6D7C"/>
<path d="M29.7443 34.1509H16.8023V38.4672H29.7443V34.1509Z" fill="#6A6C7B"/>
<path d="M21.5704 30.2854H16.8023V34.1474H21.5704V30.2854Z" fill="#6A6C7B"/>
<path d="M23.3868 28.2428H19.2999V32.1048H23.3868V28.2428Z" fill="#6A6C7B"/>
<path d="M25.4307 25.7439H21.3437V30.0603H25.4307V25.7439Z" fill="#6A6C7B"/>
<path d="M27.6968 23.7014H23.3828V28.2449H27.6968V23.7014Z" fill="#6A6C7B"/>
<path d="M29.9699 15.292H25.6559V25.9693H29.9699V15.292Z" fill="#6A6C7B"/>
<path d="M21.3456 15.292H17.0316V19.3812H21.3456V15.292Z" fill="#6A6C7B"/>
<path d="M27.7008 13.2494H19.2999V17.3386H27.7008V13.2494Z" fill="#6A6C7B"/>
</svg>
