<svg width="47" height="51" viewBox="0 0 47 51" fill="none" xmlns="http://www.w3.org/2000/svg">
<path d="M47 25.7258H0V28.0207H47V25.7258Z" fill="#420009"/>
<path d="M47 28.0207H0V30.3156H47V28.0207Z" fill="#420009"/>
<path d="M47 30.3156H0V32.6106H47V30.3156Z" fill="#420009"/>
<path d="M44.9565 32.6106H2.29889V34.9055H44.9565V32.6106Z" fill="#420009"/>
<path d="M44.9565 34.9055H2.29889V37.2004H44.9565V34.9055Z" fill="#420009"/>
<path d="M42.6575 37.2004H4.08687V39.2404H42.6575V37.2004Z" fill="#420009"/>
<path d="M42.6575 39.2404H4.08687V41.5355H42.6575V39.2404Z" fill="#420009"/>
<path d="M40.614 41.5355H6.38576V43.8304H40.614V41.5355Z" fill="#420009"/>
<path d="M38.5705 43.8304H8.68465V46.1254H38.5705V43.8304Z" fill="#420009"/>
<path d="M34.2283 46.1253H13.0272V48.4203H34.2283V46.1253Z" fill="#420009"/>
<path d="M30.1413 48.4203H17.1141V50.7152H30.1413V48.4203Z" fill="#420009"/>
<path d="M47 25.7258H0V23.4308H47V25.7258Z" fill="#420009"/>
<path d="M47 23.4308H0V21.1359H47V23.4308Z" fill="#420009"/>
<path d="M47 21.1359H0V18.841H47V21.1359Z" fill="#420009"/>
<path d="M44.9565 18.841H2.29889V16.546H44.9565V18.841Z" fill="#420009"/>
<path d="M44.9565 16.546H2.29889V14.2511H44.9565V16.546Z" fill="#420009"/>
<path d="M42.6575 14.2511H4.08687V12.2112H42.6575V14.2511Z" fill="#420009"/>
<path d="M42.6575 12.2112H4.08687V9.91604H42.6575V12.2112Z" fill="#420009"/>
<path d="M40.614 9.91606H6.38576V7.62111H40.614V9.91606Z" fill="#420009"/>
<path d="M38.5705 7.62113H8.68465V5.32618H38.5705V7.62113Z" fill="#420009"/>
<path d="M34.2283 5.3262H13.0272V3.03126H34.2283V5.3262Z" fill="#420009"/>
<path d="M30.1413 3.03128H17.1141V0.736328H30.1413V3.03128Z" fill="#420009"/>
<path d="M44.9565 25.7258H2.29889V28.0207H44.9565V25.7258Z" fill="#D88946"/>
<path d="M44.9565 28.0207H2.29889V30.3156H44.9565V28.0207Z" fill="#D88946"/>
<path d="M44.9565 30.3156H2.29889V32.6106H44.9565V30.3156Z" fill="#D88946"/>
<path d="M42.913 32.6106H4.08687V34.9055H42.913V32.6106Z" fill="#D88946"/>
<path d="M42.913 34.9055H4.08687V37.2004L42.913 37.2004V34.9055Z" fill="#D88946"/>
<path d="M40.614 37.2004H6.38576V39.2404H40.614V37.2004Z" fill="#D88946"/>
<path d="M40.614 39.2404H6.38576V41.5355H40.614V39.2404Z" fill="#D88946"/>
<path d="M38.5705 41.5355H8.68465V43.8304H38.5705V41.5355Z" fill="#D88946"/>
<path d="M34.2283 43.8304H13.0272V46.1253H34.2283V43.8304Z" fill="#D88946"/>
<path d="M30.1413 46.1253H17.1141V48.4203H30.1413V46.1253Z" fill="#D88946"/>
<path d="M44.9565 25.7258H2.29889V23.4308H44.9565V25.7258Z" fill="#D88946"/>
<path d="M44.9565 23.4308H2.29889V21.1359H44.9565V23.4308Z" fill="#D88946"/>
<path d="M44.9565 21.1359H2.29889V18.841H44.9565V21.1359Z" fill="#D88946"/>
<path d="M42.913 18.841H4.08687V16.546H42.913V18.841Z" fill="#D88946"/>
<path d="M42.913 16.546H4.08687V14.2511L42.913 14.2511V16.546Z" fill="#D88946"/>
<path d="M40.614 14.2511H6.38576V12.2112H40.614V14.2511Z" fill="#D88946"/>
<path d="M40.614 12.2112H6.38576V9.91606H40.614V12.2112Z" fill="#D88946"/>
<path d="M38.5705 9.91606H8.68465V7.62113H38.5705V9.91606Z" fill="#D88946"/>
<path d="M34.2283 7.62113H13.0272V5.3262H34.2283V7.62113Z" fill="#D88946"/>
<path d="M30.1413 5.3262H17.1141V3.03128H30.1413V5.3262Z" fill="#D88946"/>
<path d="M4.08694 25.7258H2.29889V28.0207H4.08694V25.7258Z" fill="#F0DA9F"/>
<path d="M4.08694 28.0207H2.29889V30.3156H4.08694V28.0207Z" fill="#F0DA9F"/>
<path d="M4.08694 30.3156H2.29889V32.6106H4.08687L4.08694 30.3156Z" fill="#F0DA9F"/>
<path d="M6.38578 32.6106H4.08687V34.9055H6.38578V32.6106Z" fill="#F0DA9F"/>
<path d="M6.38578 34.9055H4.08687V37.2004H6.38576L6.38578 34.9055Z" fill="#F0DA9F"/>
<path d="M4.08694 25.7258H2.29889V23.4308H4.08694V25.7258Z" fill="#F0DA9F"/>
<path d="M4.08694 23.4308H2.29889V21.1359H4.08694V23.4308Z" fill="#F0DA9F"/>
<path d="M6.38585 21.1359L2.29889 21.1359V18.841L6.38585 18.841V21.1359Z" fill="#F0DA9F"/>
<path d="M6.38585 18.841L4.08687 18.841V16.546H6.38578L6.38585 18.841Z" fill="#F0DA9F"/>
<path d="M8.68469 16.5461L4.08687 16.546V14.2511L8.68469 14.2511V16.5461Z" fill="#F0DA9F"/>
<path d="M8.68469 14.2511L6.38576 14.2511V12.2112H8.68467L8.68469 14.2511Z" fill="#F0DA9F"/>
<path d="M11.4945 12.211L6.38576 12.2112V9.91606L11.4945 9.91604V12.211Z" fill="#F0DA9F"/>
<path d="M15.326 9.91606H8.68465V7.62113L15.326 7.62111V9.91606Z" fill="#F0DA9F"/>
<path d="M19.4131 7.62113H13.0272V5.3262L19.4131 5.32618V7.62113Z" fill="#F0DA9F"/>
<path d="M34.2283 7.62113H30.1413L30.1413 5.3262H34.2283V7.62113Z" fill="#F0DA9F"/>
<path d="M30.1413 5.3262H17.1141V3.03128H30.1413V5.3262Z" fill="#F0DA9F"/>
<path d="M40.6141 30.3156L44.9565 30.3156V32.6106L40.6141 32.6106V30.3156Z" fill="#B94228"/>
<path d="M42.913 18.841H44.9565V30.3156L42.913 30.3157L42.913 18.841Z" fill="#B94228"/>
<path d="M40.6141 32.6106L42.913 32.6106V34.9055H40.6139L40.6141 32.6106Z" fill="#B94228"/>
<path d="M38.5704 34.9055L42.913 34.9055V37.2004H38.5704V34.9055Z" fill="#B94228"/>
<path d="M38.5704 37.2004L40.614 37.2004V39.2404H38.5705L38.5704 37.2004Z" fill="#B94228"/>
<path d="M35.5052 39.2406L40.614 39.2404V41.5355L35.5052 41.5355V39.2406Z" fill="#B94228"/>
<path d="M31.9294 41.5355H38.5705V43.8304L31.9294 43.8304V41.5355Z" fill="#B94228"/>
<path d="M27.8423 43.8304H34.2283V46.1253L27.8423 46.1254V43.8304Z" fill="#B94228"/>
<path d="M13.0272 43.8304H19.413V46.1254L13.0272 46.1253V43.8304Z" fill="#B94228"/>
<path d="M8.68465 41.5355H17.1141V43.8304L8.68465 43.8304V41.5355Z" fill="#B94228"/>
<path d="M17.1141 46.1253H30.1413V48.4203H17.1141V46.1253Z" fill="#B94228"/>
<path d="M21.9674 15.271H17.1141V19.6059H21.9674V15.271Z" fill="#BD4024"/>
<path d="M27.8423 13.2311H19.413V17.566H27.8423V13.2311Z" fill="#BD4024"/>
<path d="M27.8425 23.6859H21.4567V28.0208H27.8425V23.6859Z" fill="#BD4024"/>
<path d="M30.1411 15.271H25.7987V23.6858H30.1411V15.271Z" fill="#BD4024"/>
<path d="M21.9674 36.4356H17.1141V32.1007H21.9674V36.4356Z" fill="#BD4024"/>
<path d="M27.8423 38.4755H19.413V34.1406H27.8423V38.4755Z" fill="#BD4024"/>
<path d="M30.1411 36.4356H25.7987V28.0208H30.1411V36.4356Z" fill="#BD4024"/>
</svg>
