<svg width="174" height="200" viewBox="0 0 174 200" fill="none" xmlns="http://www.w3.org/2000/svg">
<path d="M11.293 43.2435H16.6974V37.8377H11.293V43.2435Z" fill="#F9A717"/>
<path d="M43.7227 43.2435H49.1284V37.8377H43.7227V43.2435Z" fill="#231F20"/>
<path d="M59.9414 43.2435H65.3472V37.8377H59.9414V43.2435Z" fill="#231F20"/>
<path d="M38.3164 43.2435H43.7227V37.8377H38.3164V43.2435Z" fill="#E08420"/>
<path d="M54.5352 43.2435H59.9414V37.8377H54.5352V43.2435Z" fill="#E08420"/>
<path d="M49.1284 43.2435H54.5352V37.8377H49.1284V43.2435Z" fill="#E08420"/>
<path d="M27.508 43.2435H32.9137V37.8377H27.508V43.2435Z" fill="#E08420"/>
<path d="M16.6953 43.2435H22.1011V37.8377H16.6953V43.2435Z" fill="#F9A717"/>
<path d="M22.1011 43.2435L27.508 43.2435V37.8377L22.1011 37.8377V43.2435Z" fill="#F9A717"/>
<path d="M76.1562 43.2435H81.562V37.8377H76.1562V43.2435Z" fill="#E08420"/>
<path d="M65.3438 43.2435H70.7495V37.8377H65.3438V43.2435Z" fill="#E08420"/>
<path d="M70.7495 43.2435H76.1544V37.8377H70.7495V43.2435Z" fill="#E08420"/>
<path d="M5.88657 43.2435L11.293 43.2435V37.8377L5.88657 37.8377V43.2435Z" fill="#231F20"/>
<path d="M81.562 43.2435H86.9683V37.8377H81.562V43.2435Z" fill="#231F20"/>
<path d="M32.9137 43.2435H38.3185V37.8377H32.9137V43.2435Z" fill="#E08420"/>
<path d="M11.293 37.8377H16.6974V32.4316H11.293V37.8377Z" fill="#231F20"/>
<path d="M16.6953 37.8377H22.1011V32.4316H16.6953V37.8377Z" fill="#231F20"/>
<path d="M22.1011 37.8377L27.508 37.8377L27.5073 32.4316H22.1011V37.8377Z" fill="#231F20"/>
<path d="M27.508 37.8377H32.9137L32.9137 32.4316H27.5073L27.508 37.8377Z" fill="#F9A717"/>
<path d="M59.9414 37.8377H65.3472V32.4316H59.9414V37.8377Z" fill="#231F20"/>
<path d="M65.3438 37.8377H70.7495V32.4316H65.3438V37.8377Z" fill="#E08420"/>
<path d="M70.7495 37.8377H76.1544V32.4316H70.7495V37.8377Z" fill="#E08420"/>
<path d="M76.1562 37.8377H81.562V32.4316H76.1562V37.8377Z" fill="#E08420"/>
<path d="M38.3164 37.8377H43.7227L43.7222 32.4316H38.3164V37.8377Z" fill="#F9A717"/>
<path d="M43.7227 37.8377H49.1284V32.4316H43.7222L43.7227 37.8377Z" fill="#231F20"/>
<path d="M54.5352 37.8377H59.9414V32.4316H54.5352V37.8377Z" fill="#E08420"/>
<path d="M32.9137 37.8377H38.3185L38.3185 32.4316H32.9137L32.9137 37.8377Z" fill="#F9A717"/>
<path d="M49.1284 37.8377H54.5352V32.4316H49.1284V37.8377Z" fill="#E08420"/>
<path d="M81.562 37.8377H86.9683V32.4316H81.562V37.8377Z" fill="#231F20"/>
<path d="M141.02 145.947H146.425V140.541H141.02V145.947Z" fill="#231F20"/>
<path d="M141.02 151.353H146.425V145.947H141.02V151.353Z" fill="#F9A717"/>
<path d="M141.02 178.379H146.425V172.975H141.02V178.379Z" fill="#231F20"/>
<path d="M141.02 167.568H146.425V162.162H141.02V167.568Z" fill="#E08420"/>
<path d="M141.02 162.162H146.425V156.756H141.02V162.162Z" fill="#E08420"/>
<path d="M141.02 156.756H146.425V151.352H141.02V156.756Z" fill="#E08420"/>
<path d="M141.02 172.975H146.425V167.568H141.02V172.975Z" fill="#B8651B"/>
<path d="M81.5625 194.594H86.9683V189.189H81.5625V194.594Z" fill="#B8651B"/>
<path d="M76.1562 48.6499H81.562V43.2435H76.1562V48.6499Z" fill="#E08420"/>
<path d="M81.562 48.6499H86.9683V43.2435H81.562V48.6499Z" fill="#231F20"/>
<path d="M27.5079 48.6499H32.9137L32.9137 43.2435H27.508L27.5079 48.6499Z" fill="#E08420"/>
<path d="M70.75 48.6499H76.1544V43.2435H70.7495L70.75 48.6499Z" fill="#E08420"/>
<path d="M0.480469 48.6499H5.88624L5.88657 43.2435L0.480469 43.2441V48.6499Z" fill="#231F20"/>
<path d="M5.88624 48.6499H11.2924L11.293 43.2435L5.88657 43.2435L5.88624 48.6499Z" fill="#67111A"/>
<path d="M11.2924 48.6499H16.6974V43.2435H11.293L11.2924 48.6499Z" fill="#67111A"/>
<path d="M16.6953 48.6499H22.1011V43.2435H16.6953V48.6499Z" fill="#67111A"/>
<path d="M54.5352 48.6499H59.9409L59.9414 43.2435H54.5352V48.6499Z" fill="#E08420"/>
<path d="M49.1289 48.6499H54.5352V43.2435H49.1284L49.1289 48.6499Z" fill="#E08420"/>
<path d="M59.9409 48.6499H65.3472V43.2435H59.9414L59.9409 48.6499Z" fill="#F9A717"/>
<path d="M65.3438 48.6499H70.75L70.7495 43.2435H65.3438V48.6499Z" fill="#F9A717"/>
<path d="M32.9137 48.6499H38.3185L38.3185 43.2435H32.9137L32.9137 48.6499Z" fill="#E08420"/>
<path d="M22.1011 48.6499H27.5079L27.508 43.2435L22.1011 43.2435V48.6499Z" fill="#67111A"/>
<path d="M43.7227 48.6499H49.1289L49.1284 43.2435H43.7227V48.6499Z" fill="#F9A717"/>
<path d="M38.3164 48.6499H43.7227V43.2435H38.3164V48.6499Z" fill="#F9A717"/>
<path d="M54.5352 194.594H59.9409V189.189H54.5352V194.594Z" fill="#C38A21"/>
<path d="M59.9409 194.594H65.3472V189.189H59.9409V194.594Z" fill="#C38A21"/>
<path d="M65.3438 194.594H70.7495V189.189H65.3438V194.594Z" fill="#231F20"/>
<path d="M97.7772 194.594H103.183V189.189H97.7772V194.594Z" fill="#B8651B"/>
<path d="M38.3164 194.594H43.7222V189.189H38.3164V194.594Z" fill="#B8651B"/>
<path d="M43.7222 194.594H49.1284V189.189H43.7222V194.594Z" fill="#231F20"/>
<path d="M86.9683 194.594H92.3745V189.189H86.9683V194.594Z" fill="#231F20"/>
<path d="M92.3745 194.594H97.7794V189.189H92.3745V194.594Z" fill="#B8651B"/>
<path d="M70.7495 194.594H76.1544V189.189H70.7495V194.594Z" fill="#B8651B"/>
<path d="M76.1562 194.594H81.5625V189.189H76.1562V194.594Z" fill="#231F20"/>
<path d="M49.1284 194.594H54.5352V189.189H49.1284V194.594Z" fill="#C38A21"/>
<path d="M32.9141 194.594H38.3185V189.189H32.9141V194.594Z" fill="#B8651B"/>
<path d="M27.5079 194.594H32.9141V189.189H27.5079V194.594Z" fill="#231F20"/>
<path d="M22.1016 194.594H27.5079V189.189H22.1016V194.594Z" fill="#B8651B"/>
<path d="M16.6953 194.594H22.1016V189.189H16.6953V194.594Z" fill="#231F20"/>
<path d="M130.211 189.189H135.615V183.783H130.211V189.189Z" fill="#231F20"/>
<path d="M130.211 151.353H135.615V145.947H130.211V151.353Z" fill="#231F20"/>
<path d="M130.211 162.162H135.615V156.756H130.211V162.162Z" fill="#E08420"/>
<path d="M130.211 167.568H135.615L135.615 162.162H130.211L130.211 167.568Z" fill="#E08420"/>
<path d="M103.195 194.594H108.601V189.189H103.195V194.594Z" fill="#231F20"/>
<path d="M130.211 156.756H135.615V151.352H130.211V156.756Z" fill="#F9A717"/>
<path d="M119.398 194.594H124.804V189.189H119.398V194.594Z" fill="#231F20"/>
<path d="M113.996 194.594H119.401V189.189H113.996V194.594Z" fill="#B8651B"/>
<path d="M108.543 194.594H113.947V189.189H108.543V194.594Z" fill="#B8651B"/>
<path d="M124.804 194.594H130.211L130.211 189.189L124.804 189.189V194.594Z" fill="#231F20"/>
<path d="M130.211 172.974H135.615L135.615 167.568H130.211L130.211 172.974Z" fill="#E08420"/>
<path d="M130.211 183.785H135.615V178.379H130.211V183.785Z" fill="#B8651B"/>
<path d="M130.211 178.379H135.615V172.974H130.211V178.379Z" fill="#E08420"/>
<path d="M135.613 178.379H141.02V172.975H135.613V178.379Z" fill="#B8651B"/>
<path d="M135.613 172.975H141.02V167.568L135.613 167.568V172.975Z" fill="#E08420"/>
<path d="M135.613 183.785H141.019L141.02 178.379H135.613V183.785Z" fill="#231F20"/>
<path d="M135.613 167.568L141.02 167.568V162.162H135.613V167.568Z" fill="#E08420"/>
<path d="M135.613 151.353H141.02V145.947L135.613 145.947V151.353Z" fill="#231F20"/>
<path d="M86.9688 200H92.3745V194.596H86.9688V200Z" fill="#231F20"/>
<path d="M97.7773 200H103.183V194.596H97.7773V200Z" fill="#231F20"/>
<path d="M108.59 200H113.996V194.596H108.59V200Z" fill="#231F20"/>
<path d="M103.183 200H108.59V194.596H103.183V200Z" fill="#231F20"/>
<path d="M92.3745 200H97.7794V194.596H92.3745V200Z" fill="#231F20"/>
<path d="M113.996 200H119.401V194.596H113.996V200Z" fill="#231F20"/>
<path d="M135.613 162.162H141.02V156.756H135.613V162.162Z" fill="#E08420"/>
<path d="M135.613 156.756H141.02V151.352H135.613V156.756Z" fill="#E08420"/>
<path d="M54.5352 200H59.9409V194.596H54.5352V200Z" fill="#231F20"/>
<path d="M27.508 200H32.9137V194.596H27.508V200Z" fill="#231F20"/>
<path d="M81.5625 200H86.9688V194.596H81.5625V200Z" fill="#231F20"/>
<path d="M49.1289 200H54.5352V194.596H49.1289V200Z" fill="#231F20"/>
<path d="M38.3164 200H43.7222V194.596H38.3164V200Z" fill="#231F20"/>
<path d="M32.9137 200H38.3185V194.596H32.9137V200Z" fill="#231F20"/>
<path d="M43.7222 200H49.1289V194.596H43.7222V200Z" fill="#231F20"/>
<path d="M70.75 200H76.1544V194.596H70.75V200Z" fill="#231F20"/>
<path d="M76.1562 200H81.5625V194.596H76.1562V200Z" fill="#231F20"/>
<path d="M59.9409 200H65.3472V194.596H59.9409V200Z" fill="#231F20"/>
<path d="M65.3438 200H70.75V194.596H65.3438V200Z" fill="#231F20"/>
<path d="M16.6953 200H22.1011V194.596H16.6953V200Z" fill="#231F20"/>
<path d="M22.1011 200H27.508V194.596H22.1011V200Z" fill="#231F20"/>
<path d="M70.75 27.0269H76.1544V21.6211H70.75V27.0269Z" fill="#231F20"/>
<path d="M76.1562 27.0269H81.562V21.6211H76.1562V27.0269Z" fill="#E08420"/>
<path d="M65.3438 27.0269H70.75V21.6211H65.3438V27.0269Z" fill="#231F20"/>
<path d="M81.562 27.0269H86.9683V21.6211H81.562V27.0269Z" fill="#231F20"/>
<path d="M59.9414 27.0269H65.3472V21.6211H59.9414V27.0269Z" fill="#231F20"/>
<path d="M49.1289 27.0269H54.5347V21.6211H49.1289V27.0269Z" fill="#231F20"/>
<path d="M43.7227 27.0269H49.1289V21.6211H43.7227V27.0269Z" fill="#231F20"/>
<path d="M54.5347 27.0269H59.9414V21.6211H54.5347V27.0269Z" fill="#E08420"/>
<path d="M151.832 145.947H157.237V140.541H151.832V145.947Z" fill="#231F20"/>
<path d="M151.832 162.162H157.237V156.756H151.832V162.162Z" fill="#B8651B"/>
<path d="M151.832 151.353H157.237V145.947H151.832V151.353Z" fill="#F9A717"/>
<path d="M151.832 156.756H157.237V151.352H151.832V156.756Z" fill="#E08420"/>
<path d="M151.832 167.568H157.237L157.237 162.162H151.832L151.832 167.568Z" fill="#231F20"/>
<path d="M157.238 151.353H162.644V145.947H157.238V151.353Z" fill="#231F20"/>
<path d="M157.238 156.756H162.644V151.352H157.238V156.756Z" fill="#E08420"/>
<path d="M157.238 167.568H162.644V162.162H157.238V167.568Z" fill="#231F20"/>
<path d="M157.238 162.162H162.644V156.756H157.238V162.162Z" fill="#B8651B"/>
<path d="M146.425 145.947H151.832V140.541H146.425V145.947Z" fill="#231F20"/>
<path d="M146.425 151.353H151.832V145.947H146.425V151.353Z" fill="#F9A717"/>
<path d="M146.425 156.756H151.832V151.352H146.425V156.756Z" fill="#E08420"/>
<path d="M146.425 162.162L151.832 162.162V156.756H146.425V162.162Z" fill="#E08420"/>
<path d="M146.425 167.568H151.832L151.832 162.162L146.425 162.162V167.568Z" fill="#B8651B"/>
<path d="M146.425 172.975L151.832 172.974L151.832 167.568H146.425V172.975Z" fill="#231F20"/>
<path d="M27.5073 32.4316H32.9137L32.9137 27.0275H27.508L27.5073 32.4316Z" fill="#231F20"/>
<path d="M38.3164 32.4316H43.7222L43.7227 27.0269L38.3164 27.0275V32.4316Z" fill="#231F20"/>
<path d="M32.9137 32.4316H38.3185L38.3185 27.0275H32.9137L32.9137 32.4316Z" fill="#231F20"/>
<path d="M76.1562 32.4316H81.562V27.0269H76.1562V32.4316Z" fill="#E08420"/>
<path d="M81.562 32.4316H86.9683V27.0269H81.562V32.4316Z" fill="#231F20"/>
<path d="M43.7222 32.4316H49.1284L49.1289 27.0269H43.7227L43.7222 32.4316Z" fill="#F9A717"/>
<path d="M70.7495 32.4316H76.1544V27.0269H70.75L70.7495 32.4316Z" fill="#E08420"/>
<path d="M49.1284 32.4316H54.5352L54.5347 27.0269H49.1289L49.1284 32.4316Z" fill="#E08420"/>
<path d="M65.3438 32.4316H70.7495L70.75 27.0269H65.3438V32.4316Z" fill="#E08420"/>
<path d="M54.5352 32.4316H59.9414V27.0269H54.5347L54.5352 32.4316Z" fill="#E08420"/>
<path d="M59.9414 32.4316H65.3472V27.0269H59.9414V32.4316Z" fill="#E08420"/>
<path d="M59.9414 145.947H65.3472V140.541H59.9414V145.947Z" fill="#231F20"/>
<path d="M86.9688 81.0816H92.3745V75.6758H86.9688V81.0816Z" fill="#231F20"/>
<path d="M65.3438 81.0816H70.7495V75.6758H65.3438V81.0816Z" fill="#231F20"/>
<path d="M81.5625 81.0816H86.9688V75.6758H81.5625V81.0816Z" fill="#E08420"/>
<path d="M70.7495 81.0816H76.1558V75.6758H70.7495V81.0816Z" fill="#DAA437"/>
<path d="M92.375 86.4878H97.7794V81.082L92.3745 81.0816L92.375 86.4878Z" fill="#231F20"/>
<path d="M97.7772 113.514H103.183V108.109H97.7772V113.514Z" fill="#231F20"/>
<path d="M97.7773 140.541H103.183V135.135H97.7773V140.541Z" fill="#E08420"/>
<path d="M97.7773 135.135H103.183V129.73H97.7773V135.135Z" fill="#E08420"/>
<path d="M97.7772 145.947H103.183L103.183 140.541H97.7773L97.7772 145.947Z" fill="#E08420"/>
<path d="M97.7773 129.73H103.183L103.183 124.324H97.7772L97.7773 129.73Z" fill="#E08420"/>
<path d="M97.7772 151.353H103.183V145.947H97.7772V151.353Z" fill="#E08420"/>
<path d="M59.9414 81.0816H65.3472V75.6758H59.9414V81.0816Z" fill="#231F20"/>
<path d="M97.7772 124.324H103.183V118.918H97.7772V124.324Z" fill="#F9A717"/>
<path d="M97.7772 108.109H103.183L103.183 102.703H97.7773L97.7772 108.109Z" fill="#231F20"/>
<path d="M97.7772 118.919H103.183V113.514H97.7772V118.919Z" fill="#231F20"/>
<path d="M97.7772 156.756H103.183V151.352H97.7772V156.756Z" fill="#E08420"/>
<path d="M43.7227 81.0816H49.1284V75.6758H43.7227V81.0816Z" fill="#231F20"/>
<path d="M54.5352 81.0816H59.9414V75.6758H54.5352V81.0816Z" fill="#231F20"/>
<path d="M38.3164 81.0816H43.7227V75.6758H38.3164V81.0816Z" fill="#231F20"/>
<path d="M49.1284 81.0816H54.5352V75.6758H49.1284V81.0816Z" fill="#231F20"/>
<path d="M32.9141 81.0816H38.3185V75.6758H32.9141V81.0816Z" fill="#231F20"/>
<path d="M22.1016 156.756H27.5073V151.352H22.1016V156.756Z" fill="#231F20"/>
<path d="M70.75 86.4878H76.1558V81.0816H70.7495L70.75 86.4878Z" fill="#FBC956"/>
<path d="M97.7772 162.162H103.183V156.756H97.7772V162.162Z" fill="#231F20"/>
<path d="M86.9688 86.4878H92.375L92.3745 81.0816H86.9688V86.4878Z" fill="#F9A717"/>
<path d="M76.1558 86.4878H81.562L81.5625 81.0816H76.1558V86.4878Z" fill="#E08420"/>
<path d="M65.3438 86.4878H70.75L70.7495 81.0816H65.3438V86.4878Z" fill="#DAA437"/>
<path d="M59.9414 86.4878H65.3472V81.0816H59.9414V86.4878Z" fill="#231F20"/>
<path d="M81.562 86.4878H86.9688V81.0816H81.5625L81.562 86.4878Z" fill="#E08420"/>
<path d="M65.3438 162.162H70.7495V156.756H65.3438V162.162Z" fill="#FBC956"/>
<path d="M70.7495 162.162H76.1544V156.756H70.7495V162.162Z" fill="#231F20"/>
<path d="M43.7227 162.162H49.1284V156.756H43.7227V162.162Z" fill="#FBC956"/>
<path d="M49.1284 156.756V162.162H54.5333V156.756H49.1284Z" fill="#FBC956"/>
<path d="M54.5352 162.162H59.9409V156.756H54.5352V162.162Z" fill="#FBC956"/>
<path d="M92.375 162.162H97.7794V156.756H92.375V162.162Z" fill="#F9A717"/>
<path d="M76.1562 162.162H81.562V156.756H76.1562V162.162Z" fill="#F9A717"/>
<path d="M86.9688 162.162H92.375V156.756H86.9688V162.162Z" fill="#F9A717"/>
<path d="M81.562 162.162H86.9688V156.756H81.562V162.162Z" fill="#F9A717"/>
<path d="M59.9409 162.162H65.3472V156.756H59.9409V162.162Z" fill="#FBC956"/>
<path d="M27.5079 162.162H32.9137V156.756L27.5073 156.756L27.5079 162.162Z" fill="#231F20"/>
<path d="M32.9137 162.162H38.3185V156.756H32.9137V162.162Z" fill="#FBC956"/>
<path d="M38.3164 162.162H43.7227V156.756H38.3164V162.162Z" fill="#FBC956"/>
<path d="M27.5073 156.756L32.9137 156.756V151.352H27.5073V156.756Z" fill="#231F20"/>
<path d="M76.1558 81.0816H81.5625V75.6758H76.1558V81.0816Z" fill="#E08420"/>
<path d="M59.9414 75.6758H65.3472V70.2715H59.9414V75.6758Z" fill="#B8651B"/>
<path d="M43.7227 75.6758H49.1284V70.2715H43.7227V75.6758Z" fill="#B8651B"/>
<path d="M54.5352 75.6758H59.9414V70.2715H54.5352V75.6758Z" fill="#B8651B"/>
<path d="M49.1284 75.6758H54.5352V70.2715H49.1284V75.6758Z" fill="#B8651B"/>
<path d="M32.9141 75.6758H38.3185V70.2715H32.9141V75.6758Z" fill="#B8651B"/>
<path d="M27.5079 75.6759L32.9141 75.6758V70.2715H27.5079V75.6759Z" fill="#231F20"/>
<path d="M65.3472 75.6758L70.7521 75.6759V70.2715H65.3472V75.6758Z" fill="#B8651B"/>
<path d="M38.3164 75.6758H43.7227V70.2715H38.3164V75.6758Z" fill="#B8651B"/>
<path d="M16.6953 75.6759H22.1011V70.2715H16.6953V75.6759Z" fill="#231F20"/>
<path d="M22.1011 75.6759H27.5079V70.2715H22.1011V75.6759Z" fill="#231F20"/>
<path d="M49.1289 167.568V172.974H54.5333V167.568H49.1289Z" fill="#FBC956"/>
<path d="M43.7227 172.974H49.1289V167.568H43.7227V172.974Z" fill="#FBC956"/>
<path d="M38.3164 172.974H43.7227V167.568H38.3164V172.974Z" fill="#FBC956"/>
<path d="M54.5352 172.974H59.9409V167.568H54.5352V172.974Z" fill="#FBC956"/>
<path d="M27.5079 172.974H32.9137V167.568H27.5079V172.974Z" fill="#231F20"/>
<path d="M32.9137 172.974H38.3185V167.568H32.9137V172.974Z" fill="#DAA437"/>
<path d="M59.9409 172.974H65.3472V167.568H59.9409V172.974Z" fill="#FBC956"/>
<path d="M70.75 172.974H76.1544V167.568H70.75V172.974Z" fill="#B8651B"/>
<path d="M76.1562 172.974H81.562V167.568H76.1562V172.974Z" fill="#E08420"/>
<path d="M65.3438 172.974H70.75V167.568H65.3438V172.974Z" fill="#231F20"/>
<path d="M16.6953 172.974H22.1011V167.568H16.6953V172.974Z" fill="#231F20"/>
<path d="M22.1011 172.974H27.5079V167.568H22.1011V172.974Z" fill="#B8651B"/>
<path d="M16.6953 167.568H22.1011V162.162H16.6953V167.568Z" fill="#231F20"/>
<path d="M92.375 167.568H97.7794V162.162H92.375V167.568Z" fill="#E08420"/>
<path d="M59.9409 167.568H65.3472V162.162H59.9409V167.568Z" fill="#FBC956"/>
<path d="M76.1562 167.568H81.562V162.162H76.1562V167.568Z" fill="#E08420"/>
<path d="M86.9688 167.568H92.375V162.162H86.9688V167.568Z" fill="#E08420"/>
<path d="M65.3438 167.568H70.75L70.7495 162.162H65.3438V167.568Z" fill="#231F20"/>
<path d="M70.75 167.568H76.1544V162.162H70.7495L70.75 167.568Z" fill="#F9A717"/>
<path d="M81.562 167.568L86.9688 167.568V162.162H81.562V167.568Z" fill="#E08420"/>
<path d="M103.183 167.568H108.589V162.162L103.183 162.162L103.183 167.568Z" fill="#231F20"/>
<path d="M103.183 162.162L108.589 162.162L108.589 156.756L103.183 156.756V162.162Z" fill="#E08420"/>
<path d="M97.7773 167.568H103.183L103.183 162.162H97.7772L97.7773 167.568Z" fill="#F9A717"/>
<path d="M103.183 156.756L108.589 156.756V151.352H103.183V156.756Z" fill="#E08420"/>
<path d="M27.5079 167.568H32.9137V162.162H27.5079V167.568Z" fill="#231F20"/>
<path d="M22.1011 162.162L27.5079 162.162L27.5073 156.756H22.1016L22.1011 162.162Z" fill="#F9A717"/>
<path d="M22.1011 167.568H27.5079V162.162L22.1011 162.162V167.568Z" fill="#E08420"/>
<path d="M16.6953 162.162H22.1011L22.1016 156.756L16.6953 156.756V162.162Z" fill="#231F20"/>
<path d="M54.5352 167.568H59.9409V162.162H54.5352V167.568Z" fill="#FBC956"/>
<path d="M32.9137 167.568H38.3185V162.162H32.9137V167.568Z" fill="#FBC956"/>
<path d="M49.1284 162.162L49.1289 167.568H54.5333V162.162H49.1284Z" fill="#FBC956"/>
<path d="M43.7227 167.568H49.1289L49.1284 162.162H43.7227V167.568Z" fill="#FBC956"/>
<path d="M38.3164 167.568H43.7227V162.162H38.3164V167.568Z" fill="#FBC956"/>
<path d="M70.7495 75.6758L76.1544 75.6759V70.2715H70.75L70.7495 75.6758Z" fill="#231F20"/>
<path d="M103.183 151.353H108.589V145.947L103.183 145.947V151.353Z" fill="#E08420"/>
<path d="M76.1558 75.6758H81.5625L81.562 70.2715H76.1562L76.1558 75.6758Z" fill="#E08420"/>
<path d="M81.5625 75.6758H86.9688L86.9683 70.2715H81.562L81.5625 75.6758Z" fill="#E08420"/>
<path d="M86.9688 75.6758H92.3745V70.2715H86.9683L86.9688 75.6758Z" fill="#231F20"/>
<path d="M103.183 140.541H108.589V135.135H103.183V140.541Z" fill="#F9A717"/>
<path d="M103.183 135.135H108.589V129.73H103.183V135.135Z" fill="#231F20"/>
<path d="M103.183 145.947L108.589 145.947L108.589 140.541H103.183L103.183 145.947Z" fill="#E08420"/>
<path d="M103.183 129.73H108.589L108.589 124.324H103.183L103.183 129.73Z" fill="#231F20"/>
<path d="M103.183 124.324H108.589V118.918H103.183V124.324Z" fill="#231F20"/>
<path d="M65.3438 129.73H70.7495V124.324H65.3438V129.73Z" fill="#231F20"/>
<path d="M38.3164 140.541H43.7222V135.135H38.3164V140.541Z" fill="#B8651B"/>
<path d="M38.3164 129.73H43.7222V124.324H38.3164V129.73Z" fill="#F9A717"/>
<path d="M38.3164 135.135H43.7222V129.73H38.3164V135.135Z" fill="#E08420"/>
<path d="M38.3164 124.324H43.7222V118.918H38.3164V124.324Z" fill="#231F20"/>
<path d="M54.5352 102.703H59.9409V97.2969H54.5352V102.703Z" fill="#231F20"/>
<path d="M76.1562 118.919H81.562V113.514H76.1562V118.919Z" fill="#F9A717"/>
<path d="M59.9409 102.703H65.3472V97.2969H59.9409V102.703Z" fill="#FBC956"/>
<path d="M76.1562 124.324H81.562V118.918H76.1562V124.324Z" fill="#E08420"/>
<path d="M76.1562 135.135H81.562V129.73H76.1562V135.135Z" fill="#231F20"/>
<path d="M76.1562 129.73H81.562V124.324H76.1562V129.73Z" fill="#B8651B"/>
<path d="M76.1562 113.514H81.562V108.109H76.1562V113.514Z" fill="#E08420"/>
<path d="M65.3438 102.703H70.7495V97.2969H65.3438V102.703Z" fill="#FBC956"/>
<path d="M70.7495 102.703H76.1558V97.2969H70.7495V102.703Z" fill="#FBC956"/>
<path d="M76.1558 102.703H81.562V97.2969H76.1558V102.703Z" fill="#E08420"/>
<path d="M76.1562 108.109H81.562V102.703H76.1558L76.1562 108.109Z" fill="#E08420"/>
<path d="M81.562 129.73L86.9683 129.73V124.324L81.562 124.324V129.73Z" fill="#231F20"/>
<path d="M81.562 118.919H86.9683V113.514H81.562V118.919Z" fill="#E08420"/>
<path d="M81.562 113.514H86.9683V108.109H81.562V113.514Z" fill="#E08420"/>
<path d="M81.562 124.324L86.9683 124.324V118.918H81.562V124.324Z" fill="#B8651B"/>
<path d="M81.562 108.109H86.9683V102.703L81.562 102.703V108.109Z" fill="#E08420"/>
<path d="M76.1562 140.541H81.562V135.135H76.1562V140.541Z" fill="#B8651B"/>
<path d="M43.7222 140.541H49.1284V135.135H43.7222V140.541Z" fill="#B8651B"/>
<path d="M92.375 91.8908H97.7794V86.4863H92.375V91.8908Z" fill="#231F20"/>
<path d="M81.562 102.703L86.9683 102.703V97.2969H81.562V102.703Z" fill="#E08420"/>
<path d="M76.1558 97.2969H81.562V91.8927H76.1562L76.1558 97.2969Z" fill="#E08420"/>
<path d="M81.562 97.2969H86.9683V91.8927H81.562V97.2969Z" fill="#E08420"/>
<path d="M70.7495 97.2969H76.1558L76.1562 91.8927H70.75L70.7495 97.2969Z" fill="#FBC956"/>
<path d="M54.5352 145.947H59.9414V140.541H54.5352V145.947Z" fill="#DAA437"/>
<path d="M49.1284 140.541L49.1289 145.947H54.5333V140.541L49.1284 140.541Z" fill="#DAA437"/>
<path d="M43.7227 145.947H49.1289L49.1284 140.541H43.7222L43.7227 145.947Z" fill="#231F20"/>
<path d="M81.562 140.541H86.9683V135.135L81.562 135.135V140.541Z" fill="#E08420"/>
<path d="M76.1562 145.947H81.562V140.541H76.1562V145.947Z" fill="#E08420"/>
<path d="M81.562 145.947H86.9683V140.541H81.562V145.947Z" fill="#E08420"/>
<path d="M70.75 145.947H76.1544V140.541H70.75V145.947Z" fill="#DAA437"/>
<path d="M65.3438 145.947H70.75V140.541H65.3438V145.947Z" fill="#231F20"/>
<path d="M70.75 140.541H76.1544V135.135H70.75V140.541Z" fill="#231F20"/>
<path d="M49.1289 124.324H54.5347V118.918H49.1289V124.324Z" fill="#FBC956"/>
<path d="M49.1289 118.919H54.5347V113.514H49.1289V118.919Z" fill="#FEE87D"/>
<path d="M65.3438 97.2969H70.7495L70.75 91.8927H65.3438V97.2969Z" fill="#FBC956"/>
<path d="M49.1289 113.514H54.5347V108.109H49.1289V113.514Z" fill="#231F20"/>
<path d="M49.1289 129.73H54.5347V124.324H49.1289V129.73Z" fill="#FBC956"/>
<path d="M59.9414 113.514H65.3472V108.109H59.9414V113.514Z" fill="#FBC956"/>
<path d="M65.3438 135.135L70.75 135.135L70.7495 129.73H65.3438V135.135Z" fill="#E08420"/>
<path d="M70.75 135.135H76.1544V129.73L70.7495 129.73L70.75 135.135Z" fill="#B8651B"/>
<path d="M59.9414 135.135H65.3472V129.73H59.9414V135.135Z" fill="#F9A717"/>
<path d="M54.5352 135.135H59.9414V129.73L54.5347 129.73L54.5352 135.135Z" fill="#231F20"/>
<path d="M54.5347 129.73L59.9414 129.73L59.9409 124.324L54.5347 124.324V129.73Z" fill="#FBC956"/>
<path d="M59.9409 124.324L65.3472 124.324V118.918H59.9414L59.9409 124.324Z" fill="#FBC956"/>
<path d="M54.5347 124.324L59.9409 124.324L59.9414 118.918H54.5347V124.324Z" fill="#FBC956"/>
<path d="M54.5347 118.919H59.9409L59.9414 113.514L54.5347 113.514V118.919Z" fill="#FBC956"/>
<path d="M59.9409 118.919H65.3472V113.514H59.9414L59.9409 118.919Z" fill="#FBC956"/>
<path d="M65.3438 113.514H70.7495V108.109H65.3438V113.514Z" fill="#FBC956"/>
<path d="M65.3438 124.324H70.7495V118.918H65.3438V124.324Z" fill="#FBC956"/>
<path d="M59.9414 129.73H65.3472V124.324L59.9409 124.324L59.9414 129.73Z" fill="#231F20"/>
<path d="M65.3438 118.919H70.7495V113.514H65.3438V118.919Z" fill="#FBC956"/>
<path d="M81.562 172.974H86.9683L86.9688 167.568L81.562 167.568V172.974Z" fill="#E08420"/>
<path d="M54.5347 113.514L59.9414 113.514V108.109H54.5347V113.514Z" fill="#FBC956"/>
<path d="M43.7222 129.73H49.1289V124.324L43.7222 124.324V129.73Z" fill="#231F20"/>
<path d="M49.1284 135.135L54.5352 135.135L54.5347 129.73H49.1289L49.1284 135.135Z" fill="#231F20"/>
<path d="M43.7222 135.135H49.1284L49.1289 129.73H43.7222V135.135Z" fill="#F9A717"/>
<path d="M43.7222 124.324L49.1289 124.324V118.918H43.7222V124.324Z" fill="#231F20"/>
<path d="M43.7227 118.919H49.1289V113.514H43.7227V118.919Z" fill="#231F20"/>
<path d="M49.1284 140.541L54.5352 140.541V135.135L49.1284 135.135V140.541Z" fill="#231F20"/>
<path d="M59.9414 140.541H65.3472V135.135H59.9414V140.541Z" fill="#B8651B"/>
<path d="M65.3438 140.541H70.75V135.135L65.3438 135.135V140.541Z" fill="#B8651B"/>
<path d="M54.5352 140.541H59.9414V135.135H54.5352V140.541Z" fill="#231F20"/>
<path d="M59.9414 108.109H65.3472V102.703H59.9409L59.9414 108.109Z" fill="#FBC956"/>
<path d="M70.7495 108.109H76.1562L76.1558 102.703H70.7495V108.109Z" fill="#E08420"/>
<path d="M70.7495 118.919H76.1544V113.514L70.7495 113.514V118.919Z" fill="#231F20"/>
<path d="M70.7495 113.514L76.1544 113.514V108.109H70.7495V113.514Z" fill="#E08420"/>
<path d="M70.7495 124.324L76.1544 124.324V118.918H70.7495V124.324Z" fill="#231F20"/>
<path d="M54.5347 108.109H59.9414L59.9409 102.703H54.5352L54.5347 108.109Z" fill="#FEE87D"/>
<path d="M49.1289 108.109H54.5347L54.5352 102.703L49.1289 102.703V108.109Z" fill="#231F20"/>
<path d="M65.3438 108.109H70.7495V102.703H65.3438V108.109Z" fill="#FBC956"/>
<path d="M70.7495 129.73L76.1544 129.73V124.324L70.7495 124.324V129.73Z" fill="#F9A717"/>
<path d="M81.562 135.135L86.9683 135.135V129.73L81.562 129.73V135.135Z" fill="#B8651B"/>
<path d="M27.5079 145.947H32.9137V140.541H27.5079V145.947Z" fill="#231F20"/>
<path d="M32.9137 156.756H38.3185V151.352H32.9137V156.756Z" fill="#FBC956"/>
<path d="M27.5079 151.353H32.9137V145.947H27.5079V151.353Z" fill="#231F20"/>
<path d="M38.3164 156.756H43.7227L43.7222 151.352H38.3164V156.756Z" fill="#FBC956"/>
<path d="M32.9137 151.353H38.3185V145.947L32.9137 145.947V151.353Z" fill="#FBC956"/>
<path d="M43.7227 156.756H49.1284V151.352H43.7222L43.7227 156.756Z" fill="#FBC956"/>
<path d="M49.1284 151.352V156.756H54.5333V151.352H49.1284Z" fill="#FBC956"/>
<path d="M92.375 124.324H97.7794V118.918H92.375V124.324Z" fill="#E08420"/>
<path d="M92.375 118.919H97.7794V113.514H92.375V118.919Z" fill="#E08420"/>
<path d="M92.375 129.73H97.7794V124.324H92.375V129.73Z" fill="#E08420"/>
<path d="M92.375 135.135H97.7794V129.73H92.375V135.135Z" fill="#E08420"/>
<path d="M92.375 108.109H97.7794V102.703H92.375V108.109Z" fill="#F9A717"/>
<path d="M92.375 113.514H97.7794V108.109H92.375V113.514Z" fill="#E08420"/>
<path d="M92.375 102.703H97.7794V97.2969H92.375V102.703Z" fill="#231F20"/>
<path d="M92.375 97.2969H97.7794V91.8927H92.375V97.2969Z" fill="#231F20"/>
<path d="M92.375 145.947H97.7794V140.541H92.375V145.947Z" fill="#E08420"/>
<path d="M92.375 140.541H97.7794V135.135H92.375V140.541Z" fill="#E08420"/>
<path d="M65.3438 156.756H70.7495V151.352H65.3438V156.756Z" fill="#FBC956"/>
<path d="M59.9409 156.756H65.3472V151.352H59.9414L59.9409 156.756Z" fill="#FBC956"/>
<path d="M70.7495 156.756H76.1544V151.352H70.7495V156.756Z" fill="#FBC956"/>
<path d="M92.375 151.353H97.7794V145.947H92.375V151.353Z" fill="#E08420"/>
<path d="M54.5352 156.756H59.9409L59.9414 151.352H54.5352V156.756Z" fill="#FBC956"/>
<path d="M86.9688 156.756H92.375L92.3745 151.352H86.9688V156.756Z" fill="#231F20"/>
<path d="M92.375 156.756H97.7794V151.352H92.3745L92.375 156.756Z" fill="#231F20"/>
<path d="M76.1562 156.756H81.562V151.352H76.1562V156.756Z" fill="#231F20"/>
<path d="M81.562 156.756H86.9688V151.352H81.562V156.756Z" fill="#231F20"/>
<path d="M32.9137 140.541L38.3185 140.541V135.135H32.9141L32.9137 140.541Z" fill="#231F20"/>
<path d="M38.3164 145.947H43.7227L43.7222 140.541H38.3164V145.947Z" fill="#231F20"/>
<path d="M59.9414 91.8908H65.3472V86.4863H59.9414V91.8908Z" fill="#231F20"/>
<path d="M59.9409 97.2969H65.3472V91.8927H59.9414L59.9409 97.2969Z" fill="#FEE87D"/>
<path d="M32.9141 135.135H38.3185V129.73H32.9141V135.135Z" fill="#231F20"/>
<path d="M32.9141 129.73H38.3185L38.3185 124.324H32.9141L32.9141 129.73Z" fill="#231F20"/>
<path d="M43.7227 151.353H49.1284L49.1289 145.947H43.7227V151.353Z" fill="#DAA437"/>
<path d="M49.1289 145.947L49.1284 151.353H54.5333V145.947H49.1289Z" fill="#FBC956"/>
<path d="M54.5352 151.353H59.9409L59.9414 145.947H54.5352V151.353Z" fill="#FBC956"/>
<path d="M38.3164 151.353H43.7227V145.947H38.3164V151.353Z" fill="#DAA437"/>
<path d="M54.5352 97.2969H59.9409L59.9414 91.8927H54.5352V97.2969Z" fill="#231F20"/>
<path d="M59.9409 151.353H65.3472V145.947H59.9414L59.9409 151.353Z" fill="#DAA437"/>
<path d="M32.9137 145.947L38.3185 145.947L38.3185 140.541L32.9137 140.541V145.947Z" fill="#DAA437"/>
<path d="M86.9683 102.703H92.375V97.2969H86.9683V102.703Z" fill="#E08420"/>
<path d="M86.9683 97.2969H92.375V91.8927H86.9683V97.2969Z" fill="#E08420"/>
<path d="M86.9683 113.514H92.375V108.109L86.9683 108.109V113.514Z" fill="#E08420"/>
<path d="M86.9683 108.109L92.375 108.109V102.703H86.9683V108.109Z" fill="#E08420"/>
<path d="M86.9688 91.8908H92.375V86.4863H86.9688V91.8908Z" fill="#E08420"/>
<path d="M65.3438 151.353H70.7495L70.75 145.947H65.3438V151.353Z" fill="#DAA437"/>
<path d="M65.3438 91.8908H70.7495V86.4863H65.3438V91.8908Z" fill="#FBC956"/>
<path d="M70.7495 91.8908H76.1558V86.4863H70.7495V91.8908Z" fill="#FBC956"/>
<path d="M81.5625 91.8908H86.9688V86.4863H81.5625V91.8908Z" fill="#E08420"/>
<path d="M76.1558 91.8908H81.5625V86.4863H76.1558V91.8908Z" fill="#E08420"/>
<path d="M86.9683 118.919H92.375V113.514H86.9683V118.919Z" fill="#231F20"/>
<path d="M81.5625 151.353H86.9683V145.947H81.562L81.5625 151.353Z" fill="#E08420"/>
<path d="M76.1562 151.353H81.5625L81.562 145.947H76.1562V151.353Z" fill="#E08420"/>
<path d="M86.9683 151.353H92.375V145.947H86.9683V151.353Z" fill="#E08420"/>
<path d="M86.9683 124.324L92.375 124.324V118.918H86.9683V124.324Z" fill="#231F20"/>
<path d="M70.7495 151.353H76.1544V145.947H70.75L70.7495 151.353Z" fill="#FBC956"/>
<path d="M86.9683 135.135L92.375 135.135V129.73H86.9683V135.135Z" fill="#E08420"/>
<path d="M86.9683 145.947H92.375V140.541L86.9683 140.541V145.947Z" fill="#E08420"/>
<path d="M86.9683 129.73H92.375V124.324L86.9683 124.324V129.73Z" fill="#B8651B"/>
<path d="M86.9683 140.541L92.375 140.541V135.135L86.9683 135.135V140.541Z" fill="#E08420"/>
<path d="M76.1562 189.189H81.5625L81.562 183.783H76.1562V189.189Z" fill="#E08420"/>
<path d="M0.480469 59.4585H5.88624V54.0527H0.480469V59.4585Z" fill="#231F20"/>
<path d="M5.88624 59.4585H11.2924V54.0527H5.88624V59.4585Z" fill="#E08420"/>
<path d="M38.3164 189.189H43.7222V183.783H38.3164V189.189Z" fill="#231F20"/>
<path d="M27.5079 189.189H32.9141L32.9137 183.783H27.5079V189.189Z" fill="#E08420"/>
<path d="M22.1016 189.189H27.5079V183.783H22.1016V189.189Z" fill="#231F20"/>
<path d="M32.9141 189.189H38.3185V183.783H32.9137L32.9141 189.189Z" fill="#B8651B"/>
<path d="M49.1284 189.189H54.5352L54.5347 183.783H49.1289L49.1284 189.189Z" fill="#DAA437"/>
<path d="M65.3438 189.189H70.7495V183.783H65.3438V189.189Z" fill="#C38A21"/>
<path d="M54.5352 189.189H59.9409V183.783H54.5347L54.5352 189.189Z" fill="#DAA437"/>
<path d="M70.7495 189.189H76.1544V183.783H70.7495V189.189Z" fill="#231F20"/>
<path d="M59.9409 189.189H65.3472V183.783H59.9409V189.189Z" fill="#DAA437"/>
<path d="M43.7222 189.189H49.1284L49.1289 183.783H43.7222V189.189Z" fill="#C38A21"/>
<path d="M11.2924 59.4585H16.6987V54.0527H11.2924V59.4585Z" fill="#E08420"/>
<path d="M119.398 167.568H124.804V162.162H119.398V167.568Z" fill="#F9A717"/>
<path d="M119.398 162.162H124.804V156.756H119.398V162.162Z" fill="#231F20"/>
<path d="M119.398 172.974H124.804V167.568H119.398V172.974Z" fill="#231F20"/>
<path d="M86.9683 172.974H92.3745L92.375 167.568H86.9688L86.9683 172.974Z" fill="#E08420"/>
<path d="M81.5625 59.4585H86.9683V54.0527H81.5625V59.4585Z" fill="#231F20"/>
<path d="M43.7227 59.4585H49.1284V54.0527H43.7227V59.4585Z" fill="#E08420"/>
<path d="M70.75 59.4585H76.1544V54.0527H70.75V59.4585Z" fill="#E08420"/>
<path d="M49.1284 59.4585H54.5347V54.0527H49.1284V59.4585Z" fill="#E08420"/>
<path d="M59.9414 59.4585H65.3472V54.0527H59.9414V59.4585Z" fill="#E08420"/>
<path d="M65.3438 59.4585H70.75V54.0527H65.3438V59.4585Z" fill="#E08420"/>
<path d="M54.5347 59.4585H59.9414V54.0527H54.5347V59.4585Z" fill="#E08420"/>
<path d="M27.5079 59.4585H32.9137V54.0527H27.5079V59.4585Z" fill="#E08420"/>
<path d="M38.3164 59.4585H43.7227V54.0527H38.3164V59.4585Z" fill="#E08420"/>
<path d="M32.9137 59.4585H38.3185V54.0527H32.9137V59.4585Z" fill="#E08420"/>
<path d="M22.1016 59.4585H27.5079V54.0527H22.1016V59.4585Z" fill="#E08420"/>
<path d="M76.1562 59.4585H81.5625V54.0527H76.1562V59.4585Z" fill="#E08420"/>
<path d="M16.6987 59.4585H22.105V54.0527H16.6987V59.4585Z" fill="#E08420"/>
<path d="M5.88624 54.0527H11.2924V48.6484H5.8866L5.88624 54.0527Z" fill="#E08420"/>
<path d="M0.480469 54.0527H5.88624L5.8866 48.6484H0.480469V54.0527Z" fill="#231F20"/>
<path d="M16.6953 54.0529L22.1016 54.0527L22.1011 48.6484H16.6953V54.0529Z" fill="#67111A"/>
<path d="M11.2924 54.0527L16.6974 54.0529V48.6484H11.2924V54.0527Z" fill="#67111A"/>
<path d="M81.5625 189.189H86.9683V183.783H81.562L81.5625 189.189Z" fill="#E08420"/>
<path d="M54.5347 54.0527H59.9414L59.9409 48.6484H54.5352L54.5347 54.0527Z" fill="#E08420"/>
<path d="M59.9414 54.0527H65.3472V48.6484H59.9409L59.9414 54.0527Z" fill="#E08420"/>
<path d="M65.3438 54.0527H70.75L70.7495 48.6484H65.3438V54.0527Z" fill="#E08420"/>
<path d="M70.75 54.0527H76.1544V48.6484H70.7495L70.75 54.0527Z" fill="#E08420"/>
<path d="M49.1284 54.0527H54.5347L54.5352 48.6484H49.1289L49.1284 54.0527Z" fill="#E08420"/>
<path d="M27.5079 54.0527L32.9122 54.0529V48.6484H27.5078L27.5079 54.0527Z" fill="#E08420"/>
<path d="M32.9137 54.0527L38.3198 54.0529V48.6484H32.9141L32.9137 54.0527Z" fill="#E08420"/>
<path d="M38.3198 54.0529H43.7261V48.6484H38.3198V54.0529Z" fill="#E08420"/>
<path d="M43.7261 54.0529H49.131V48.6484H43.7261V54.0529Z" fill="#E08420"/>
<path d="M119.398 178.379H124.804V172.974H119.398V178.379Z" fill="#E08420"/>
<path d="M76.1562 54.0527H81.5625L81.562 48.6484H76.1562V54.0527Z" fill="#E08420"/>
<path d="M22.105 54.0527L27.5112 54.0529V48.6484H22.1055L22.105 54.0527Z" fill="#E08420"/>
<path d="M124.804 156.756H130.211V151.352H124.805L124.804 156.756Z" fill="#231F20"/>
<path d="M124.804 162.162L130.211 162.162V156.756H124.804V162.162Z" fill="#F9A717"/>
<path d="M124.804 172.974H130.211L130.211 167.568H124.804V172.974Z" fill="#E08420"/>
<path d="M124.804 167.568H130.211L130.211 162.162L124.804 162.162V167.568Z" fill="#E08420"/>
<path d="M124.804 178.379L130.211 178.379V172.974H124.804V178.379Z" fill="#E08420"/>
<path d="M103.183 189.189L108.589 189.189V183.783H103.183L103.183 189.189Z" fill="#231F20"/>
<path d="M92.3745 189.189H97.7794V183.783H92.375L92.3745 189.189Z" fill="#E08420"/>
<path d="M97.7772 189.189H103.183L103.183 183.783H97.7772V189.189Z" fill="#E08420"/>
<path d="M124.805 183.785H130.211V178.379L124.804 178.379L124.805 183.785Z" fill="#E08420"/>
<path d="M86.9683 189.189H92.3745L92.375 183.783H86.9683V189.189Z" fill="#E08420"/>
<path d="M81.5625 54.0527H86.9683V48.6484H81.562L81.5625 54.0527Z" fill="#231F20"/>
<path d="M124.804 189.189L130.211 189.189V183.783H124.805L124.804 189.189Z" fill="#B8651B"/>
<path d="M119.398 189.189H124.804L124.805 183.783H119.398V189.189Z" fill="#B8651B"/>
<path d="M113.996 189.189H119.401V183.783H113.996V189.189Z" fill="#E08420"/>
<path d="M108.589 189.189L113.996 189.189V183.783H108.589V189.189Z" fill="#E08420"/>
<path d="M92.375 178.379H97.7794V172.975L92.3745 172.974L92.375 178.379Z" fill="#E08420"/>
<path d="M86.9688 178.379H92.375L92.3745 172.974H86.9683L86.9688 178.379Z" fill="#E08420"/>
<path d="M81.5625 178.379H86.9688L86.9683 172.974H81.562L81.5625 178.379Z" fill="#E08420"/>
<path d="M97.7772 178.379H103.183V172.975H97.7772V178.379Z" fill="#E08420"/>
<path d="M76.1562 178.379H81.5625L81.562 172.974H76.1562V178.379Z" fill="#B8651B"/>
<path d="M5.88672 70.271H11.2911V64.8652H5.88672V70.271Z" fill="#231F20"/>
<path d="M113.996 172.974H119.401V167.568H113.996V172.974Z" fill="#E08420"/>
<path d="M70.75 178.379H76.1544V172.974H70.75V178.379Z" fill="#231F20"/>
<path d="M113.996 178.379H119.401V172.974H113.996V178.379Z" fill="#E08420"/>
<path d="M108.59 178.379H113.996V172.974L108.59 172.975V178.379Z" fill="#E08420"/>
<path d="M103.183 178.379H108.59V172.975H103.183V178.379Z" fill="#E08420"/>
<path d="M32.9141 178.379H38.3185V172.974H32.9137L32.9141 178.379Z" fill="#C38A21"/>
<path d="M27.5079 178.379H32.9141L32.9137 172.974H27.5079V178.379Z" fill="#231F20"/>
<path d="M22.1016 178.379H27.5079V172.974H22.1011L22.1016 178.379Z" fill="#231F20"/>
<path d="M38.3164 178.379H43.7222L43.7227 172.974H38.3164V178.379Z" fill="#DAA437"/>
<path d="M49.1289 178.379H54.5347L54.5352 172.974H49.1289V178.379Z" fill="#FBC956"/>
<path d="M54.5347 178.379H59.9409V172.974H54.5352L54.5347 178.379Z" fill="#FBC956"/>
<path d="M59.9409 178.379H65.3472V172.974H59.9409V178.379Z" fill="#FBC956"/>
<path d="M43.7222 178.379H49.1289V172.974H43.7227L43.7222 178.379Z" fill="#FBC956"/>
<path d="M65.3438 178.379H70.75V172.974H65.3438V178.379Z" fill="#DAA437"/>
<path d="M113.996 167.568H119.401V162.162H113.996V167.568Z" fill="#231F20"/>
<path d="M11.293 70.271H16.6974V64.8652H11.293V70.271Z" fill="#231F20"/>
<path d="M108.589 140.541H113.996V135.135H108.589V140.541Z" fill="#231F20"/>
<path d="M103.183 172.975H108.59L108.589 167.568H103.183L103.183 172.975Z" fill="#E08420"/>
<path d="M97.7772 172.975H103.183L103.183 167.568H97.7773L97.7772 172.975Z" fill="#E08420"/>
<path d="M108.59 172.975L113.996 172.974V167.568L108.589 167.568L108.59 172.975Z" fill="#E08420"/>
<path d="M92.3745 172.974L97.7794 172.975V167.568H92.375L92.3745 172.974Z" fill="#E08420"/>
<path d="M119.398 183.785H124.805L124.804 178.379H119.398V183.785Z" fill="#E08420"/>
<path d="M108.589 151.353H113.996V145.947H108.589V151.353Z" fill="#E08420"/>
<path d="M108.589 156.756L113.996 156.756V151.352H108.589V156.756Z" fill="#E08420"/>
<path d="M108.589 167.568L113.996 167.568V162.162H108.589V167.568Z" fill="#E08420"/>
<path d="M108.589 145.947H113.996V140.541H108.589L108.589 145.947Z" fill="#231F20"/>
<path d="M43.7227 70.2715H49.1284V64.8652H43.7227V70.2715Z" fill="#231F20"/>
<path d="M38.3164 70.2715H43.7227V64.8652H38.3164V70.2715Z" fill="#231F20"/>
<path d="M49.1284 70.2715H54.5352L54.5347 64.8652H49.1284V70.2715Z" fill="#231F20"/>
<path d="M65.3472 70.2715H70.7521V64.8652H65.3477L65.3472 70.2715Z" fill="#E08420"/>
<path d="M59.9414 70.2715H65.3472L65.3477 64.8652H59.9414V70.2715Z" fill="#E08420"/>
<path d="M54.5352 70.2715H59.9414V64.8652H54.5347L54.5352 70.2715Z" fill="#E08420"/>
<path d="M22.1011 70.2715H27.5079L27.5073 64.8652H22.1016L22.1011 70.2715Z" fill="#B8651B"/>
<path d="M32.9141 70.2715H38.3185L38.3185 64.8652H32.9141L32.9141 70.2715Z" fill="#E08420"/>
<path d="M16.6953 70.2715H22.1011L22.1016 64.8652H16.6953V70.2715Z" fill="#B8651B"/>
<path d="M27.5079 70.2715H32.9141L32.9141 64.8652L27.5073 64.8652L27.5079 70.2715Z" fill="#B8651B"/>
<path d="M76.1562 70.2715H81.562V64.8652H76.1562V70.2715Z" fill="#E08420"/>
<path d="M70.75 70.2715H76.1544V64.8652H70.75V70.2715Z" fill="#B8651B"/>
<path d="M81.562 70.2715H86.9683V64.8652H81.562V70.2715Z" fill="#E08420"/>
<path d="M86.9683 70.2715H92.3745V64.8652H86.9683V70.2715Z" fill="#231F20"/>
<path d="M108.589 162.162H113.996L113.996 156.756L108.589 156.756L108.589 162.162Z" fill="#E08420"/>
<path d="M92.375 183.785H97.7794V178.379H92.375V183.785Z" fill="#E08420"/>
<path d="M81.5625 183.785H86.9683L86.9688 178.379H81.5625V183.785Z" fill="#B8651B"/>
<path d="M86.9683 183.785H92.375V178.379H86.9688L86.9683 183.785Z" fill="#E08420"/>
<path d="M76.1562 183.785H81.5625V178.379H76.1562V183.785Z" fill="#231F20"/>
<path d="M70.75 183.785H76.1544V178.379H70.75V183.785Z" fill="#C38A21"/>
<path d="M108.59 183.785H113.996L113.996 178.379H108.59V183.785Z" fill="#E08420"/>
<path d="M113.996 183.785H119.401V178.379H113.996L113.996 183.785Z" fill="#E08420"/>
<path d="M65.3438 183.785H70.75V178.379H65.3438V183.785Z" fill="#DAA437"/>
<path d="M103.183 183.785H108.59V178.379H103.183L103.183 183.785Z" fill="#E08420"/>
<path d="M97.7772 183.785H103.183L103.183 178.379H97.7772V183.785Z" fill="#E08420"/>
<path d="M38.3164 183.785H43.7222V178.379H38.3164V183.785Z" fill="#C38A21"/>
<path d="M32.9141 183.785H38.3185V178.379H32.9141V183.785Z" fill="#231F20"/>
<path d="M27.5079 183.785H32.9141V178.379H27.5079V183.785Z" fill="#231F20"/>
<path d="M54.5352 183.785H59.9409V178.379H54.5347L54.5352 183.785Z" fill="#DAA437"/>
<path d="M49.1289 183.785H54.5352L54.5347 178.379H49.1289V183.785Z" fill="#DAA437"/>
<path d="M59.9409 183.785H65.3472V178.379H59.9409V183.785Z" fill="#DAA437"/>
<path d="M43.7222 183.785H49.1289V178.379H43.7222V183.785Z" fill="#DAA437"/>
<path d="M5.88672 64.8652H11.2911V59.459L5.88624 59.4585L5.88672 64.8652Z" fill="#B8651B"/>
<path d="M113.996 151.353H119.401V145.947H113.996V151.353Z" fill="#231F20"/>
<path d="M113.996 156.756H119.401V151.352H113.996V156.756Z" fill="#231F20"/>
<path d="M49.1284 64.8652H54.5347V59.4585H49.1284V64.8652Z" fill="#E08420"/>
<path d="M22.1016 64.8652H27.5073L27.5079 59.4585H22.1016V64.8652Z" fill="#E08420"/>
<path d="M27.5073 64.8652L32.9141 64.8652L32.9137 59.4585H27.5079L27.5073 64.8652Z" fill="#E08420"/>
<path d="M16.6953 64.8652H22.1016V59.4585L16.6953 59.459V64.8652Z" fill="#E08420"/>
<path d="M32.9141 64.8652H38.3185L38.3185 59.4585H32.9137L32.9141 64.8652Z" fill="#E08420"/>
<path d="M38.3164 64.8652H43.7227V59.4585H38.3164V64.8652Z" fill="#E08420"/>
<path d="M43.7227 64.8652H49.1284V59.4585H43.7227V64.8652Z" fill="#E08420"/>
<path d="M11.293 64.8652H16.6974V59.459L11.2924 59.4585L11.293 64.8652Z" fill="#B8651B"/>
<path d="M0.480469 64.8648L5.88672 64.8652L5.88624 59.4585H0.480469V64.8648Z" fill="#231F20"/>
<path d="M113.996 162.162H119.401V156.756H113.996L113.996 162.162Z" fill="#231F20"/>
<path d="M54.5347 64.8652H59.9414V59.4585H54.5347V64.8652Z" fill="#231F20"/>
<path d="M76.1562 64.8652H81.562L81.5625 59.4585H76.1562V64.8652Z" fill="#E08420"/>
<path d="M81.562 64.8652H86.9683V59.4585H81.5625L81.562 64.8652Z" fill="#F9A717"/>
<path d="M86.9683 64.8652H92.3745V59.459L86.9683 59.4585V64.8652Z" fill="#231F20"/>
<path d="M59.9414 64.8652H65.3477L65.3472 59.4585H59.9414V64.8652Z" fill="#E08420"/>
<path d="M65.3438 64.8648L70.75 64.8652V59.4585H65.3438V64.8648Z" fill="#E08420"/>
<path d="M70.75 64.8652H76.1544V59.4585H70.75V64.8652Z" fill="#E08420"/>
<path d="M81.5625 16.2183H86.9683V10.8125H81.5625V16.2183Z" fill="#E08420"/>
<path d="M86.9683 16.2183H92.3745V10.8125H86.9683V16.2183Z" fill="#231F20"/>
<path d="M76.1562 16.2183H81.5625V10.8125H76.1562V16.2183Z" fill="#F9A717"/>
<path d="M59.9414 16.2183H65.3472V10.8125H59.9414V16.2183Z" fill="#231F20"/>
<path d="M70.75 16.2183H76.1544V10.8125H70.75V16.2183Z" fill="#231F20"/>
<path d="M54.5352 16.2183H59.9414V10.8125H54.5352V16.2183Z" fill="#E08420"/>
<path d="M49.1289 16.2183H54.5352V10.8125H49.1289V16.2183Z" fill="#E08420"/>
<path d="M43.7227 16.2183H49.1289V10.8125H43.7227V16.2183Z" fill="#231F20"/>
<path d="M168.047 167.568H173.453V162.162H168.047V167.568Z" fill="#231F20"/>
<path d="M168.047 162.162H173.453V156.756H168.047V162.162Z" fill="#231F20"/>
<path d="M59.9414 21.6226H65.3472V16.2168H59.9414V21.6226Z" fill="#231F20"/>
<path d="M54.5352 21.6226H59.9414V16.2168H54.5352V21.6226Z" fill="#E08420"/>
<path d="M76.1562 21.6226H81.562V16.2168H76.1562V21.6226Z" fill="#E08420"/>
<path d="M70.75 21.6226H76.1544V16.2168H70.75V21.6226Z" fill="#231F20"/>
<path d="M49.1289 21.6226H54.5352V16.2168H49.1289V21.6226Z" fill="#231F20"/>
<path d="M81.562 21.6226H86.9683V16.2168H81.562V21.6226Z" fill="#E08420"/>
<path d="M86.9683 21.6226H92.3745V16.2168H86.9683V21.6226Z" fill="#231F20"/>
<path d="M162.641 167.568H168.047V162.162H162.641V167.568Z" fill="#B8651B"/>
<path d="M162.641 172.974H168.046L168.047 167.568H162.641V172.974Z" fill="#231F20"/>
<path d="M162.641 162.162H168.047V156.756H162.641V162.162Z" fill="#E08420"/>
<path d="M162.641 156.756H168.047L168.046 151.352H162.641V156.756Z" fill="#231F20"/>
<path d="M49.1289 5.40577H54.5347V0H49.1289V5.40577Z" fill="#231F20"/>
<path d="M81.5625 5.40577H86.9683V0H81.5625V5.40577Z" fill="#231F20"/>
<path d="M49.1289 10.8125H54.5352L54.5347 5.40577H49.1289V10.8125Z" fill="#F9A717"/>
<path d="M54.5352 10.8125H59.9414L59.9409 5.40625L54.5347 5.40577L54.5352 10.8125Z" fill="#231F20"/>
<path d="M43.7227 10.8125H49.1289V5.40577L43.7227 5.40625V10.8125Z" fill="#231F20"/>
<path d="M81.5625 10.8125H86.9683V5.40577H81.5625V10.8125Z" fill="#F9A717"/>
<path d="M76.1562 10.8125H81.5625V5.40577L76.1562 5.40625V10.8125Z" fill="#231F20"/>
<path d="M86.9683 10.8125H92.3745V5.40625L86.9683 5.40577V10.8125Z" fill="#231F20"/>
</svg>
