<svg width="154" height="43" viewBox="0 0 154 43" fill="none" xmlns="http://www.w3.org/2000/svg">
<g clip-path="url(#clip0_3737_31463)">
<path d="M145.975 11.8113V7.87517H142V3.9375L11.9746 3.93768V7.87536H8V11.8115H4.02637V31.4952H8V35.432H11.9746V39.3681L142 39.368V35.4318H145.975V31.4951H149.949V11.8113H145.975Z" fill="#008FC8"/>
<path d="M142 39.3678H145.975V35.4316H142V39.3678Z" fill="#3F3F3F"/>
<path d="M7.94824 35.4316V39.3678H11.9228V35.4316H7.94824Z" fill="#3F3F3F"/>
<path d="M137.273 39H12V43H142V39H137.273Z" fill="#3F3F3F"/>
<path d="M145.975 7.87517V3.9375H142V7.87517H145.975Z" fill="#3F3F3F"/>
<path d="M7.94824 7.875H3.97461V11.8111H7.94824V7.875Z" fill="#3F3F3F"/>
<path d="M11.9228 3.9375H7.94824V7.87517H11.9228V3.9375Z" fill="#3F3F3F"/>
<path d="M15.9736 11.9375H12V15.8736H15.9736V11.9375Z" fill="white"/>
<path d="M19.9482 8H15.9736V11.9377H19.9482V8Z" fill="white"/>
<path d="M16.7273 4H142V0H12V4H16.7273Z" fill="#3F3F3F"/>
<path d="M149.949 11.8125V31.4963H153.922V11.8125H149.949Z" fill="#3F3F3F"/>
<path d="M149.949 11.8111V7.875H145.975V11.8111H149.949Z" fill="#3F3F3F"/>
<path d="M145.975 35.4309H149.949V31.4941H145.975V35.4309Z" fill="#3F3F3F"/>
<path d="M3.97456 23.6224V11.8125H0V31.4963H3.97456V23.6224Z" fill="#3F3F3F"/>
<path d="M3.97461 31.4941V35.4309H7.94824V31.4941H3.97461Z" fill="#3F3F3F"/>
</g>
<defs>
<clipPath id="clip0_3737_31463">
<rect width="154" height="43" fill="white"/>
</clipPath>
</defs>
</svg>
