<svg width="1920" height="96" viewBox="0 0 1920 96" fill="none" xmlns="http://www.w3.org/2000/svg">
<g filter="url(#filter0_d_4812_68222)">
<rect width="1920" height="96" fill="#11215C"/>
<rect x="1831" y="9" width="1.68421" height="1.68421" fill="white"/>
<rect x="1910" y="69" width="1.68421" height="1.68421" fill="white"/>
<rect x="1884" y="47" width="1.68421" height="1.68421" fill="white"/>
<rect x="1733" y="30" width="1.68421" height="1.68421" fill="white"/>
<rect x="1713" y="24" width="1.68421" height="1.68421" fill="white"/>
<rect x="1668" y="3" width="1.68421" height="1.68421" fill="white"/>
<rect x="1630" y="27" width="1.68421" height="1.68421" fill="white"/>
<rect x="1572" y="18" width="1.68421" height="1.68421" fill="white"/>
<rect x="1477" y="28" width="1.68421" height="1.68421" fill="white"/>
<rect x="1452" y="7" width="1.68421" height="1.68421" fill="white"/>
<rect x="1392" y="31" width="1.68421" height="1.68421" fill="white"/>
<rect x="1358" y="5" width="1.68421" height="1.68421" fill="white"/>
<rect x="1347" y="10" width="1.68421" height="1.68421" fill="white"/>
<rect x="1279" y="22" width="1.68421" height="1.68421" fill="white"/>
<rect x="1227" y="30" width="1.68421" height="1.68421" fill="white"/>
<rect x="1207" y="24" width="1.68421" height="1.68421" fill="white"/>
<rect x="1119" y="4" width="1.68421" height="1.68421" fill="white"/>
<rect x="1090" y="29" width="1.68421" height="1.68421" fill="white"/>
<rect x="1045" y="2" width="1.68421" height="1.68421" fill="white"/>
<rect x="879" y="8" width="1.68421" height="1.68421" fill="white"/>
<rect x="733" y="6" width="1.68421" height="1.68421" fill="white"/>
<rect x="614" y="18" width="1.68421" height="1.68421" fill="white"/>
<rect x="622" y="25" width="1.68421" height="1.68421" fill="white"/>
<rect x="658" y="13" width="1.68421" height="1.68421" fill="white"/>
<rect x="519" y="5" width="1.68421" height="1.68421" fill="white"/>
<rect x="371" y="8" width="1.68421" height="1.68421" fill="white"/>
<rect x="380" y="14" width="1.68421" height="1.68421" fill="white"/>
<rect x="269" y="29" width="1.68421" height="1.68421" fill="white"/>
<rect x="218" y="7" width="1.68421" height="1.68421" fill="white"/>
<rect x="181" y="19" width="1.68421" height="1.68421" fill="white"/>
<rect x="164" y="29" width="1.68421" height="1.68421" fill="white"/>
<rect x="95" y="23" width="1.68421" height="1.68421" fill="white"/>
<rect x="85" y="18" width="1.68421" height="1.68421" fill="white"/>
<rect x="51" y="46" width="1.68421" height="1.68421" fill="white"/>
<rect x="9" y="55" width="1.68421" height="1.68421" fill="white"/>
<rect x="33" y="6" width="1.68421" height="1.68421" fill="white"/>
<rect x="446" y="31" width="1.68421" height="1.68421" fill="white"/>
<rect x="471" y="20" width="1.68421" height="1.68421" fill="white"/>
<rect x="762" y="30" width="1.68421" height="1.68421" fill="white"/>
<rect x="770" y="25" width="1.68421" height="1.68421" fill="white"/>
<rect x="692" y="33" width="1.68421" height="1.68421" fill="white"/>
<rect x="1779.33" y="26.667" width="1.66667" height="1.66667" fill="white"/>
<rect x="1777.67" y="26.667" width="1.66667" height="1.66667" fill="white"/>
<rect x="1777.67" y="28.333" width="1.66667" height="1.66667" fill="white"/>
<rect x="1776" y="26.667" width="1.66667" height="1.66667" fill="white"/>
<rect x="1777.67" y="25" width="1.66667" height="1.66667" fill="white"/>
<rect x="1911.33" y="8.66699" width="1.66667" height="1.66667" fill="white"/>
<rect x="1909.67" y="8.66699" width="1.66667" height="1.66667" fill="white"/>
<rect x="1909.67" y="10.333" width="1.66667" height="1.66667" fill="white"/>
<rect x="1908" y="8.66699" width="1.66667" height="1.66667" fill="white"/>
<rect x="1909.67" y="7" width="1.66667" height="1.66667" fill="white"/>
<rect x="1872.33" y="29.667" width="1.66667" height="1.66667" fill="white"/>
<rect x="1870.67" y="29.667" width="1.66667" height="1.66667" fill="white"/>
<rect x="1870.67" y="31.333" width="1.66667" height="1.66667" fill="white"/>
<rect x="1869" y="29.667" width="1.66667" height="1.66667" fill="white"/>
<rect x="1870.67" y="28" width="1.66667" height="1.66667" fill="white"/>
<rect x="1666.33" y="43.667" width="1.66667" height="1.66667" fill="white"/>
<rect x="1664.67" y="43.667" width="1.66667" height="1.66667" fill="white"/>
<rect x="1664.67" y="45.333" width="1.66667" height="1.66667" fill="white"/>
<rect x="1663" y="43.667" width="1.66667" height="1.66667" fill="white"/>
<rect x="1664.67" y="42" width="1.66667" height="1.66667" fill="white"/>
<rect x="1450.33" y="50.667" width="1.66667" height="1.66667" fill="white"/>
<rect x="1448.67" y="50.667" width="1.66667" height="1.66667" fill="white"/>
<rect x="1448.67" y="52.333" width="1.66667" height="1.66667" fill="white"/>
<rect x="1447" y="50.667" width="1.66667" height="1.66667" fill="white"/>
<rect x="1448.67" y="49" width="1.66667" height="1.66667" fill="white"/>
<rect x="1242.33" y="55.667" width="1.66667" height="1.66667" fill="white"/>
<rect x="1240.67" y="55.667" width="1.66667" height="1.66667" fill="white"/>
<rect x="1240.67" y="57.333" width="1.66667" height="1.66667" fill="white"/>
<rect x="1239" y="55.667" width="1.66667" height="1.66667" fill="white"/>
<rect x="1240.67" y="54" width="1.66667" height="1.66667" fill="white"/>
<rect x="1324.33" y="86.667" width="1.66667" height="1.66667" fill="white"/>
<rect x="1322.67" y="86.667" width="1.66667" height="1.66667" fill="white"/>
<rect x="1322.67" y="88.333" width="1.66667" height="1.66667" fill="white"/>
<rect x="1321" y="86.667" width="1.66667" height="1.66667" fill="white"/>
<rect x="1322.67" y="85" width="1.66667" height="1.66667" fill="white"/>
<rect x="994.333" y="60.667" width="1.66667" height="1.66667" fill="white"/>
<rect x="992.667" y="60.667" width="1.66667" height="1.66667" fill="white"/>
<rect x="992.667" y="62.333" width="1.66667" height="1.66667" fill="white"/>
<rect x="991" y="60.667" width="1.66667" height="1.66667" fill="white"/>
<rect x="992.667" y="59" width="1.66667" height="1.66667" fill="white"/>
<rect x="916.333" y="7.66699" width="1.66667" height="1.66667" fill="white"/>
<rect x="914.667" y="7.66699" width="1.66667" height="1.66667" fill="white"/>
<rect x="914.667" y="9.33301" width="1.66667" height="1.66667" fill="white"/>
<rect x="913" y="7.66699" width="1.66667" height="1.66667" fill="white"/>
<rect x="914.667" y="6" width="1.66667" height="1.66667" fill="white"/>
<rect x="847.333" y="72.667" width="1.66667" height="1.66667" fill="white"/>
<rect x="845.667" y="72.667" width="1.66667" height="1.66667" fill="white"/>
<rect x="845.667" y="74.333" width="1.66667" height="1.66667" fill="white"/>
<rect x="844" y="72.667" width="1.66667" height="1.66667" fill="white"/>
<rect x="845.667" y="71" width="1.66667" height="1.66667" fill="white"/>
<rect x="529.333" y="49.667" width="1.66667" height="1.66667" fill="white"/>
<rect x="527.667" y="49.667" width="1.66667" height="1.66667" fill="white"/>
<rect x="527.667" y="51.333" width="1.66667" height="1.66667" fill="white"/>
<rect x="526" y="49.667" width="1.66667" height="1.66667" fill="white"/>
<rect x="527.667" y="48" width="1.66667" height="1.66667" fill="white"/>
<rect x="641.333" y="77.667" width="1.66667" height="1.66667" fill="white"/>
<rect x="639.667" y="77.667" width="1.66667" height="1.66667" fill="white"/>
<rect x="639.667" y="79.333" width="1.66667" height="1.66667" fill="white"/>
<rect x="638" y="77.667" width="1.66667" height="1.66667" fill="white"/>
<rect x="639.667" y="76" width="1.66667" height="1.66667" fill="white"/>
<rect x="385.333" y="49.667" width="1.66667" height="1.66667" fill="white"/>
<rect x="383.667" y="49.667" width="1.66667" height="1.66667" fill="white"/>
<rect x="383.667" y="51.333" width="1.66667" height="1.66667" fill="white"/>
<rect x="382" y="49.667" width="1.66667" height="1.66667" fill="white"/>
<rect x="383.667" y="48" width="1.66667" height="1.66667" fill="white"/>
<rect x="209.333" y="86.667" width="1.66667" height="1.66667" fill="white"/>
<rect x="207.667" y="86.667" width="1.66667" height="1.66667" fill="white"/>
<rect x="207.667" y="88.333" width="1.66667" height="1.66667" fill="white"/>
<rect x="206" y="86.667" width="1.66667" height="1.66667" fill="white"/>
<rect x="207.667" y="85" width="1.66667" height="1.66667" fill="white"/>
<rect x="100.333" y="54.667" width="1.66667" height="1.66667" fill="white"/>
<rect x="98.667" y="54.667" width="1.66667" height="1.66667" fill="white"/>
<rect x="98.667" y="56.333" width="1.66667" height="1.66667" fill="white"/>
<rect x="97" y="54.667" width="1.66667" height="1.66667" fill="white"/>
<rect x="98.667" y="53" width="1.66667" height="1.66667" fill="white"/>
<rect x="1499.33" y="77.667" width="1.66667" height="1.66667" fill="white"/>
<rect x="1497.67" y="77.667" width="1.66667" height="1.66667" fill="white"/>
<rect x="1497.67" y="79.333" width="1.66667" height="1.66667" fill="white"/>
<rect x="1496" y="77.667" width="1.66667" height="1.66667" fill="white"/>
<rect x="1497.67" y="76" width="1.66667" height="1.66667" fill="white"/>
<rect x="1819.33" y="55.667" width="1.66667" height="1.66667" fill="white"/>
<rect x="1817.67" y="55.667" width="1.66667" height="1.66667" fill="white"/>
<rect x="1817.67" y="57.333" width="1.66667" height="1.66667" fill="white"/>
<rect x="1816" y="55.667" width="1.66667" height="1.66667" fill="white"/>
<rect x="1817.67" y="54" width="1.66667" height="1.66667" fill="white"/>
<rect x="1747.33" y="86.667" width="1.66667" height="1.66667" fill="white"/>
<rect x="1745.67" y="86.667" width="1.66667" height="1.66667" fill="white"/>
<rect x="1745.67" y="88.333" width="1.66667" height="1.66667" fill="white"/>
<rect x="1744" y="86.667" width="1.66667" height="1.66667" fill="white"/>
<rect x="1745.67" y="85" width="1.66667" height="1.66667" fill="white"/>
<rect x="1562.33" y="9.66699" width="1.66667" height="1.66667" fill="white"/>
<rect x="1560.67" y="9.66699" width="1.66667" height="1.66667" fill="white"/>
<rect x="1560.67" y="11.333" width="1.66667" height="1.66667" fill="white"/>
<rect x="1559" y="9.66699" width="1.66667" height="1.66667" fill="white"/>
<rect x="1560.67" y="8" width="1.66667" height="1.66667" fill="white"/>
<rect x="1528.33" y="24.667" width="1.66667" height="1.66667" fill="white"/>
<rect x="1526.67" y="24.667" width="1.66667" height="1.66667" fill="white"/>
<rect x="1526.67" y="26.333" width="1.66667" height="1.66667" fill="white"/>
<rect x="1525" y="24.667" width="1.66667" height="1.66667" fill="white"/>
<rect x="1526.67" y="23" width="1.66667" height="1.66667" fill="white"/>
<rect x="1417.33" y="1.66699" width="1.66667" height="1.66667" fill="white"/>
<rect x="1415.67" y="1.66699" width="1.66667" height="1.66667" fill="white"/>
<rect x="1415.67" y="3.33301" width="1.66667" height="1.66667" fill="white"/>
<rect x="1414" y="1.66699" width="1.66667" height="1.66667" fill="white"/>
<rect x="1415.67" width="1.66667" height="1.66667" fill="white"/>
<rect x="1309.33" y="24.667" width="1.66667" height="1.66667" fill="white"/>
<rect x="1307.67" y="24.667" width="1.66667" height="1.66667" fill="white"/>
<rect x="1307.67" y="26.333" width="1.66667" height="1.66667" fill="white"/>
<rect x="1306" y="24.667" width="1.66667" height="1.66667" fill="white"/>
<rect x="1307.67" y="23" width="1.66667" height="1.66667" fill="white"/>
<rect x="1257.33" y="10.667" width="1.66667" height="1.66667" fill="white"/>
<rect x="1255.67" y="10.667" width="1.66667" height="1.66667" fill="white"/>
<rect x="1255.67" y="12.333" width="1.66667" height="1.66667" fill="white"/>
<rect x="1254" y="10.667" width="1.66667" height="1.66667" fill="white"/>
<rect x="1255.67" y="9" width="1.66667" height="1.66667" fill="white"/>
<rect x="1165.33" y="34.667" width="1.66667" height="1.66667" fill="white"/>
<rect x="1163.67" y="34.667" width="1.66667" height="1.66667" fill="white"/>
<rect x="1163.67" y="36.333" width="1.66667" height="1.66667" fill="white"/>
<rect x="1162" y="34.667" width="1.66667" height="1.66667" fill="white"/>
<rect x="1163.67" y="33" width="1.66667" height="1.66667" fill="white"/>
<rect x="1033.33" y="7.66699" width="1.66667" height="1.66667" fill="white"/>
<rect x="1031.67" y="7.66699" width="1.66667" height="1.66667" fill="white"/>
<rect x="1031.67" y="9.33301" width="1.66667" height="1.66667" fill="white"/>
<rect x="1030" y="7.66699" width="1.66667" height="1.66667" fill="white"/>
<rect x="1031.67" y="6" width="1.66667" height="1.66667" fill="white"/>
<rect x="822.333" y="18.667" width="1.66667" height="1.66667" fill="white"/>
<rect x="820.667" y="18.667" width="1.66667" height="1.66667" fill="white"/>
<rect x="820.667" y="20.333" width="1.66667" height="1.66667" fill="white"/>
<rect x="819" y="18.667" width="1.66667" height="1.66667" fill="white"/>
<rect x="820.667" y="17" width="1.66667" height="1.66667" fill="white"/>
<rect x="697.333" y="1.66699" width="1.66667" height="1.66667" fill="white"/>
<rect x="695.667" y="1.66699" width="1.66667" height="1.66667" fill="white"/>
<rect x="695.667" y="3.33301" width="1.66667" height="1.66667" fill="white"/>
<rect x="694" y="1.66699" width="1.66667" height="1.66667" fill="white"/>
<rect x="695.667" width="1.66667" height="1.66667" fill="white"/>
<rect x="687.333" y="29.667" width="1.66667" height="1.66667" fill="white"/>
<rect x="685.667" y="29.667" width="1.66667" height="1.66667" fill="white"/>
<rect x="685.667" y="31.333" width="1.66667" height="1.66667" fill="white"/>
<rect x="684" y="29.667" width="1.66667" height="1.66667" fill="white"/>
<rect x="685.667" y="28" width="1.66667" height="1.66667" fill="white"/>
<rect x="573.333" y="21.667" width="1.66667" height="1.66667" fill="white"/>
<rect x="571.667" y="21.667" width="1.66667" height="1.66667" fill="white"/>
<rect x="571.667" y="23.333" width="1.66667" height="1.66667" fill="white"/>
<rect x="570" y="21.667" width="1.66667" height="1.66667" fill="white"/>
<rect x="571.667" y="20" width="1.66667" height="1.66667" fill="white"/>
<rect x="489.333" y="10.667" width="1.66667" height="1.66667" fill="white"/>
<rect x="487.667" y="10.667" width="1.66667" height="1.66667" fill="white"/>
<rect x="487.667" y="12.333" width="1.66667" height="1.66667" fill="white"/>
<rect x="486" y="10.667" width="1.66667" height="1.66667" fill="white"/>
<rect x="487.667" y="9" width="1.66667" height="1.66667" fill="white"/>
<rect x="340.333" y="29.667" width="1.66667" height="1.66667" fill="white"/>
<rect x="338.667" y="29.667" width="1.66667" height="1.66667" fill="white"/>
<rect x="338.667" y="31.333" width="1.66667" height="1.66667" fill="white"/>
<rect x="337" y="29.667" width="1.66667" height="1.66667" fill="white"/>
<rect x="338.667" y="28" width="1.66667" height="1.66667" fill="white"/>
<rect x="324.333" y="21.667" width="1.66667" height="1.66667" fill="white"/>
<rect x="322.667" y="21.667" width="1.66667" height="1.66667" fill="white"/>
<rect x="322.667" y="23.333" width="1.66667" height="1.66667" fill="white"/>
<rect x="321" y="21.667" width="1.66667" height="1.66667" fill="white"/>
<rect x="322.667" y="20" width="1.66667" height="1.66667" fill="white"/>
<rect x="155.333" y="4.66699" width="1.66667" height="1.66667" fill="white"/>
<rect x="153.667" y="4.66699" width="1.66667" height="1.66667" fill="white"/>
<rect x="153.667" y="6.33301" width="1.66667" height="1.66667" fill="white"/>
<rect x="152" y="4.66699" width="1.66667" height="1.66667" fill="white"/>
<rect x="153.667" y="3" width="1.66667" height="1.66667" fill="white"/>
<rect x="52.333" y="17.667" width="1.66667" height="1.66667" fill="white"/>
<rect x="50.667" y="17.667" width="1.66667" height="1.66667" fill="white"/>
<rect x="50.667" y="19.333" width="1.66667" height="1.66667" fill="white"/>
<rect x="49" y="17.667" width="1.66667" height="1.66667" fill="white"/>
<rect x="50.667" y="16" width="1.66667" height="1.66667" fill="white"/>
<rect x="23.333" y="57.667" width="1.66667" height="1.66667" fill="white"/>
<rect x="21.667" y="57.667" width="1.66667" height="1.66667" fill="white"/>
<rect x="21.667" y="59.333" width="1.66667" height="1.66667" fill="white"/>
<rect x="20" y="57.667" width="1.66667" height="1.66667" fill="white"/>
<rect x="21.667" y="56" width="1.66667" height="1.66667" fill="white"/>
</g>
<defs>
<filter id="filter0_d_4812_68222" x="-4" y="0" width="1928" height="104" filterUnits="userSpaceOnUse" color-interpolation-filters="sRGB">
<feFlood flood-opacity="0" result="BackgroundImageFix"/>
<feColorMatrix in="SourceAlpha" type="matrix" values="0 0 0 0 0 0 0 0 0 0 0 0 0 0 0 0 0 0 127 0" result="hardAlpha"/>
<feOffset dy="4"/>
<feGaussianBlur stdDeviation="2"/>
<feComposite in2="hardAlpha" operator="out"/>
<feColorMatrix type="matrix" values="0 0 0 0 0 0 0 0 0 0 0 0 0 0 0 0 0 0 0.25 0"/>
<feBlend mode="normal" in2="BackgroundImageFix" result="effect1_dropShadow_4812_68222"/>
<feBlend mode="normal" in="SourceGraphic" in2="effect1_dropShadow_4812_68222" result="shape"/>
</filter>
</defs>
</svg>
