<svg width="40" height="40" viewBox="0 0 40 40" fill="none" xmlns="http://www.w3.org/2000/svg">
<path d="M0 0H5.71429V5.71429H0V0ZM11.4286 11.4286H5.71429V5.71429H11.4286V11.4286ZM17.1429 17.1429H11.4286V11.4286H17.1429V17.1429ZM22.8571 17.1429H17.1429V22.8571H11.4286V28.5714H5.71429V34.2857H0V40H5.71429V34.2857H11.4286V28.5714H17.1429V22.8571H22.8571V28.5714H28.5714V34.2857H34.2857V40H40V34.2857H34.2857V28.5714H28.5714V22.8571H22.8571V17.1429ZM28.5714 11.4286V17.1429H22.8571V11.4286H28.5714ZM34.2857 5.71429V11.4286H28.5714V5.71429H34.2857ZM34.2857 5.71429V0H40V5.71429H34.2857Z" fill="#11A729"/>
</svg>
