<svg width="24" height="48" viewBox="0 0 24 48" fill="none" xmlns="http://www.w3.org/2000/svg">
<rect x="7.09961" width="9.59994" height="9.59994" fill="#11A729"/>
<rect x="3.90039" y="19.2002" width="6.40001" height="9.60001" fill="#11A729"/>
<rect x="10.2998" y="22.4004" width="9.60001" height="6.40001" fill="#11A729"/>
<rect x="3.90039" y="16" width="9.59994" height="3.19998" fill="#11A729"/>
<rect x="0.700195" y="6.39941" width="6.39996" height="3.19998" fill="#11A729"/>
<rect x="10.3018" y="12.8008" width="6.39996" height="3.19998" fill="#11A729"/>
<rect x="13.501" y="9.59961" width="3.19998" height="3.19998" fill="#11A729"/>
<rect x="0.700195" y="9.59961" width="3.19998" height="3.19998" fill="#11A729"/>
<rect x="19.9004" y="22.4004" width="3.19998" height="3.19998" fill="#11A729"/>
<rect x="13.501" y="32" width="3.2" height="6.40001" fill="#11A729"/>
<rect x="7.09961" y="35.1992" width="3.19998" height="3.19998" fill="#11A729"/>
<rect x="0.700195" y="41.6006" width="3.19998" height="3.19998" fill="#11A729"/>
<rect x="7.09961" y="41.6006" width="3.19998" height="6.39996" fill="#11A729"/>
<rect x="0.700195" y="20" width="3.2" height="8.80001" fill="#11A729"/>
<rect x="16.7012" y="3.2002" width="3.19998" height="6.39996" fill="#11A729"/>
<rect x="3.90039" y="28.7998" width="12.8" height="3.2" fill="#11A729"/>
<rect x="7.09961" y="32" width="3.2" height="3.2" fill="#11A729"/>
<rect x="3.90039" y="38.3984" width="9.59994" height="3.19998" fill="#11A729"/>
</svg>
