<svg width="31" height="45" viewBox="0 0 31 45" fill="none" xmlns="http://www.w3.org/2000/svg">
<rect x="12.1846" y="0.5" width="12.185" height="3.66663" fill="#11A729"/>
<rect x="15.2314" y="7.83398" width="9.13873" height="3.66663" fill="#11A729"/>
<rect x="3.0459" y="18.834" width="9.13873" height="3.66663" fill="#11A729"/>
<rect x="9.74902" y="37.165" width="8.52948" height="3.66663" fill="#11A729"/>
<rect y="40.834" width="6.09249" height="3.66663" fill="#11A729"/>
<rect x="9.13867" y="40.834" width="12.185" height="3.66663" fill="#11A729"/>
<rect x="21.3232" y="18.834" width="18.3331" height="3.04624" transform="rotate(90 21.3232 18.834)" fill="#11A729"/>
<rect x="18.2773" y="18.834" width="18.3331" height="3.04624" transform="rotate(90 18.2773 18.834)" fill="#11A729"/>
<rect x="9.74902" y="22.5" width="18.3331" height="3.04624" transform="rotate(90 9.74902 22.5)" fill="#11A729"/>
<rect x="6.70117" y="22.5" width="18.3331" height="3.65549" transform="rotate(90 6.70117 22.5)" fill="#11A729"/>
<rect x="6.09277" y="7.83398" width="6.09249" height="3.66663" fill="#11A729"/>
<rect x="9.13867" y="4.16602" width="3.04624" height="3.66663" fill="#11A729"/>
<rect x="12.1846" y="33.5" width="3.04624" height="3.66663" fill="#11A729"/>
<rect x="17.668" y="4.16602" width="12.7942" height="3.66663" fill="#11A729"/>
<rect x="6.09277" y="11.5" width="15.2312" height="3.66663" fill="#11A729"/>
<rect x="3.0459" y="15.166" width="18.2775" height="3.66663" fill="#11A729"/>
</svg>
