<svg width="32" height="32" viewBox="0 0 32 32" fill="none" xmlns="http://www.w3.org/2000/svg">
<g clip-path="url(#clip0_2282_5991)">
<path d="M24.8887 3.55577V7.11133H28.4442V3.55577H24.8887Z" fill="#3F3F3F"/>
<path d="M28.4434 0.000108242V3.55566H31.9989V0.000108242H28.4434Z" fill="#3F3F3F"/>
<path d="M24.8887 14.2228V17.7783H31.9998V14.2228H24.8887Z" fill="#3F3F3F"/>
<path d="M24.8887 24.8888V28.4443H28.4442V24.8888H24.8887Z" fill="#3F3F3F"/>
<path d="M28.4434 28.4444V32H31.9989V28.4444H28.4434Z" fill="#3F3F3F"/>
<path d="M10.6669 7.11133H7.11133V10.6669H10.6669V7.11133Z" fill="#3F3F3F"/>
<path d="M17.7791 10.6667V0H14.2235V3.55556H10.668V7.11111H14.2235V24.8889H10.668V28.4444H14.2235V32H17.7791V21.3333H21.3346V10.6667H17.7791Z" fill="#3F3F3F"/>
<path d="M3.55556 17.7771V14.2215H7.11102V10.666H0V21.3327H3.55547H3.55556H7.11102V17.7771H3.55556Z" fill="#3F3F3F"/>
<path d="M10.6669 21.334H7.11133V24.8895H10.6669V21.334Z" fill="#3F3F3F"/>
</g>
<defs>
<clipPath id="clip0_2282_5991">
<rect width="32" height="32" fill="white"/>
</clipPath>
</defs>
</svg>
