<svg width="194" height="287" viewBox="0 0 194 287" fill="none" xmlns="http://www.w3.org/2000/svg">
<path d="M81.4286 25H90.4762V34.0345H81.4286V25Z" fill="black"/>
<path d="M72.381 34.0345H81.4286V43.069H72.381V34.0345Z" fill="black"/>
<path d="M99.5238 34.0345H108.571V43.069H99.5238V34.0345Z" fill="#B25E00"/>
<path d="M72.381 43.069H81.4286V52.1034H72.381V43.069Z" fill="black"/>
<path d="M72.381 115.345H81.4286V124.379H72.381V115.345Z" fill="black"/>
<path d="M72.381 214.724H81.4286V223.759H72.381V214.724Z" fill="black"/>
<path d="M72.381 250.862H81.4286V259.897H72.381V250.862Z" fill="black"/>
<path d="M72.381 124.379H81.4286V133.414H72.381V124.379Z" fill="black"/>
<path d="M72.381 223.759H81.4286V232.793H72.381V223.759Z" fill="black"/>
<path d="M72.381 259.897H81.4286V268.931H72.381V259.897Z" fill="black"/>
<path d="M72.381 133.414H81.4286V142.448H72.381V133.414Z" fill="black"/>
<path d="M72.381 232.793H81.4286V241.828H72.381V232.793Z" fill="black"/>
<path d="M72.381 268.931H81.4286V277.966H72.381V268.931Z" fill="black"/>
<path d="M72.381 142.448H81.4286V151.483H72.381V142.448Z" fill="black"/>
<path d="M72.381 241.828H81.4286V250.862H72.381V241.828Z" fill="black"/>
<path d="M72.381 52.1034H81.4286V61.1379H72.381V52.1034Z" fill="black"/>
<path d="M72.381 61.1379H81.4286V70.1724H72.381V61.1379Z" fill="#B45A00"/>
<path d="M72.381 70.1724H81.4286V79.2069H72.381V70.1724Z" fill="#B45A00"/>
<path d="M72.381 79.2069H81.4286V88.2414H72.381V79.2069Z" fill="#D06300"/>
<path d="M72.381 88.2414H81.4286V97.2759H72.381V88.2414Z" fill="#B45A00"/>
<path d="M72.381 97.2759H81.4286V106.31H72.381V97.2759Z" fill="#B45A00"/>
<path d="M36.1905 61.1379H45.2381V70.1724H36.1905V61.1379Z" fill="#B45A00"/>
<path d="M36.1905 52.1034H45.2381V61.1379H36.1905V52.1034Z" fill="black"/>
<path d="M36.1905 79.2069H45.2381V88.2414H36.1905V79.2069Z" fill="#B45A00"/>
<path d="M27.1429 61.1379H36.1905V70.1724H27.1429V61.1379Z" fill="#B45A00"/>
<path d="M36.1905 70.1724H45.2381V79.2069H36.1905V70.1724Z" fill="#B45A00"/>
<path d="M27.1429 79.2069H36.1905V88.2414H27.1429V79.2069Z" fill="#B45A00"/>
<path d="M36.1905 88.2414H45.2381V97.2759H36.1905V88.2414Z" fill="#B45A00"/>
<path d="M36.1905 97.2759H45.2381V106.31H36.1905V97.2759Z" fill="#B45A00"/>
<path d="M27.1429 52.1034H36.1905V61.1379H27.1429V52.1034Z" fill="black"/>
<path d="M27.1429 70.1724H36.1905V79.2069H27.1429V70.1724Z" fill="#B45A00"/>
<path d="M27.1429 88.2414H36.1905V97.2759H27.1429V88.2414Z" fill="#B45A00"/>
<path d="M27.1429 97.2759H36.1905V106.31H27.1429V97.2759Z" fill="#B45A00"/>
<path d="M36.1905 106.31H45.2381V115.345H36.1905V106.31Z" fill="black"/>
<path d="M0 79.2069H9.04762V88.2414H0V79.2069Z" fill="black"/>
<path d="M63.3333 106.31H72.381V115.345H63.3333V106.31Z" fill="black"/>
<path d="M90.4762 106.31H99.5238V115.345H90.4762V106.31Z" fill="black"/>
<path d="M117.619 106.31H126.667V115.345H117.619V106.31Z" fill="black"/>
<path d="M144.762 106.31H153.81V115.345H144.762V106.31Z" fill="black"/>
<path d="M9.04762 61.1379H18.0952V70.1724H9.04762V61.1379Z" fill="black"/>
<path d="M0 70.1724H9.04762V79.2069H0V70.1724Z" fill="black"/>
<path d="M0 88.2414H9.04762V97.2759H0V88.2414Z" fill="black"/>
<path d="M9.04762 97.2759H18.0952V106.31H9.04762V97.2759Z" fill="black"/>
<path d="M99.5238 61.1379H108.571V70.1724H99.5238V61.1379Z" fill="#D06300"/>
<path d="M117.619 151.483H108.571V160.517H117.619V151.483Z" fill="black"/>
<path d="M117.619 160.517H108.571V169.552H117.619V160.517Z" fill="#D06300"/>
<path d="M99.5238 79.2069H108.571V88.2414H99.5238V79.2069Z" fill="#D06300"/>
<path d="M117.619 169.552H108.571V178.586H117.619V169.552Z" fill="#D06300"/>
<path d="M135.714 61.1379H144.762V70.1724H135.714V61.1379Z" fill="#D06300"/>
<path d="M135.714 79.2069H144.762V88.2414H135.714V79.2069Z" fill="#D06300"/>
<path d="M117.619 178.586H108.571V187.621H117.619V178.586Z" fill="#D06300"/>
<path d="M117.619 187.621H108.571V196.655H117.619V187.621Z" fill="#D06300"/>
<path d="M117.619 196.655H108.571V205.69H117.619V196.655Z" fill="#D06300"/>
<path d="M153.81 79.2069H162.857V88.2414H153.81V79.2069Z" fill="#D06300"/>
<path d="M153.81 61.1379H162.857V70.1724H153.81V61.1379Z" fill="#D06300"/>
<path d="M99.5238 52.1034H108.571V61.1379H99.5238V52.1034Z" fill="black"/>
<path d="M99.5238 88.2414H108.571V97.2759H99.5238V88.2414Z" fill="#D06300"/>
<path d="M162.857 79.2069H171.905V88.2414H162.857V79.2069Z" fill="black"/>
<path d="M99.5238 70.1724H108.571V79.2069H99.5238V70.1724Z" fill="#D06300"/>
<path d="M99.5238 97.2759H108.571V106.31H99.5238V97.2759Z" fill="#D06300"/>
<path d="M135.714 52.1034H144.762V61.1379H135.714V52.1034Z" fill="black"/>
<path d="M135.714 88.2414H144.762V97.2759H135.714V88.2414Z" fill="#D06300"/>
<path d="M135.714 70.1724H144.762V79.2069H135.714V70.1724Z" fill="#D06300"/>
<path d="M135.714 97.2759H144.762V106.31H135.714V97.2759Z" fill="#D06300"/>
<path d="M63.3333 79.2069H72.381V88.2414H63.3333V79.2069Z" fill="#B45A00"/>
<path d="M153.81 52.1034H162.857V61.1379H153.81V52.1034Z" fill="black"/>
<path d="M153.81 88.2414H162.857V97.2759H153.81V88.2414Z" fill="#D06300"/>
<path d="M153.81 70.1724H162.857V79.2069H153.81V70.1724Z" fill="#D06300"/>
<path d="M153.81 97.2759H162.857V106.31H153.81V97.2759Z" fill="#D06300"/>
<path d="M63.3333 61.1379H72.381V70.1724H63.3333V61.1379Z" fill="#B45A00"/>
<path d="M162.857 61.1379H171.905V70.1724H162.857V61.1379Z" fill="black"/>
<path d="M162.857 70.1724H171.905V79.2069H162.857V70.1724Z" fill="black"/>
<path d="M162.857 88.2414H171.905V97.2759H162.857V88.2414Z" fill="black"/>
<path d="M81.4286 61.1379H90.4762V70.1724H81.4286V61.1379Z" fill="#D06300"/>
<path d="M162.857 97.2759H171.905V106.31H162.857V97.2759Z" fill="black"/>
<path d="M153.81 160.517H144.762V169.552H153.81V160.517Z" fill="#D06300"/>
<path d="M117.619 61.1379H126.667V70.1724H117.619V61.1379Z" fill="#D06300"/>
<path d="M81.4286 79.2069H90.4762V88.2414H81.4286V79.2069Z" fill="#D06300"/>
<path d="M63.3333 52.1034H72.381V61.1379H63.3333V52.1034Z" fill="black"/>
<path d="M45.2381 61.1379H54.2857V70.1724H45.2381V61.1379Z" fill="#B45A00"/>
<path d="M63.3333 70.1724H72.381V79.2069H63.3333V70.1724Z" fill="#B45A00"/>
<path d="M153.81 151.483H144.762V160.517H153.81V151.483Z" fill="black"/>
<path d="M117.619 79.2069H126.667V88.2414H117.619V79.2069Z" fill="#D06300"/>
<path d="M63.3333 88.2414H72.381V97.2759H63.3333V88.2414Z" fill="#B45A00"/>
<path d="M153.81 178.586H144.762V187.621H153.81V178.586Z" fill="#D06300"/>
<path d="M162.857 160.517H153.81V169.552H162.857V160.517Z" fill="#D06300"/>
<path d="M153.81 169.552H144.762V178.586H153.81V169.552Z" fill="#D06300"/>
<path d="M63.3333 97.2759H72.381V106.31H63.3333V97.2759Z" fill="#B45A00"/>
<path d="M45.2381 79.2069H54.2857V88.2414H45.2381V79.2069Z" fill="#B45A00"/>
<path d="M162.857 178.586H153.81V187.621H162.857V178.586Z" fill="#D06300"/>
<path d="M153.81 187.621H144.762V196.655H153.81V187.621Z" fill="#D06300"/>
<path d="M153.81 196.655H144.762V205.69H153.81V196.655Z" fill="#D06300"/>
<path d="M18.0952 61.1379H27.1429V70.1724H18.0952V61.1379Z" fill="#B45A00"/>
<path d="M162.857 151.483H153.81V160.517H162.857V151.483Z" fill="black"/>
<path d="M162.857 169.552H153.81V178.586H162.857V169.552Z" fill="#D06300"/>
<path d="M18.0952 79.2069H27.1429V88.2414H18.0952V79.2069Z" fill="#B45A00"/>
<path d="M162.857 187.621H153.81V196.655H162.857V187.621Z" fill="#D06300"/>
<path d="M81.4286 52.1034H90.4762V61.1379H81.4286V52.1034Z" fill="black"/>
<path d="M9.04762 79.2069H18.0952V88.2414H9.04762V79.2069Z" fill="#B45A00"/>
<path d="M81.4286 88.2414H90.4762V97.2759H81.4286V88.2414Z" fill="#D06300"/>
<path d="M81.4286 70.1724H90.4762V79.2069H81.4286V70.1724Z" fill="#D06300"/>
<path d="M81.4286 97.2759H90.4762V106.31H81.4286V97.2759Z" fill="#B45A00"/>
<path d="M162.857 196.655H153.81V205.69H162.857V196.655Z" fill="#D06300"/>
<path d="M117.619 52.1034H126.667V61.1379H117.619V52.1034Z" fill="black"/>
<path d="M117.619 88.2414H126.667V97.2759H117.619V88.2414Z" fill="#D06300"/>
<path d="M117.619 70.1724H126.667V79.2069H117.619V70.1724Z" fill="#D06300"/>
<path d="M117.619 97.2759H126.667V106.31H117.619V97.2759Z" fill="#D06300"/>
<path d="M45.2381 52.1034H54.2857V61.1379H45.2381V52.1034Z" fill="black"/>
<path d="M90.4762 79.2069H99.5238V88.2414H90.4762V79.2069Z" fill="#D06300"/>
<path d="M90.4762 61.1379H99.5238V70.1724H90.4762V61.1379Z" fill="#D06300"/>
<path d="M153.81 205.69H144.762V214.724H153.81V205.69Z" fill="black"/>
<path d="M108.571 79.2069H117.619V88.2414H108.571V79.2069Z" fill="#D06300"/>
<path d="M45.2381 88.2414H54.2857V97.2759H45.2381V88.2414Z" fill="#B45A00"/>
<path d="M190 178.586H180.952V187.621H190V178.586Z" fill="black"/>
<path d="M45.2381 70.1724H54.2857V79.2069H45.2381V70.1724Z" fill="#B45A00"/>
<path d="M45.2381 97.2759H54.2857V106.31H45.2381V97.2759Z" fill="#B45A00"/>
<path d="M108.571 61.1379H117.619V70.1724H108.571V61.1379Z" fill="#D06300"/>
<path d="M126.667 205.69H117.619V214.724H126.667V205.69Z" fill="black"/>
<path d="M99.5238 205.69H90.4762V214.724H99.5238V205.69Z" fill="black"/>
<path d="M72.381 205.69H63.3333V214.724H72.381V205.69Z" fill="black"/>
<path d="M126.667 277.966H117.619V287H126.667V277.966Z" fill="black"/>
<path d="M99.5238 277.966H90.4762V287H99.5238V277.966Z" fill="black"/>
<path d="M72.381 277.966H63.3333V287H72.381V277.966Z" fill="black"/>
<path d="M18.0952 52.1034H27.1429V61.1379H18.0952V52.1034Z" fill="black"/>
<path d="M126.667 79.2069H135.714V88.2414H126.667V79.2069Z" fill="#D06300"/>
<path d="M18.0952 88.2414H27.1429V97.2759H18.0952V88.2414Z" fill="#B45A00"/>
<path d="M18.0952 70.1724H27.1429V79.2069H18.0952V70.1724Z" fill="#B45A00"/>
<path d="M144.762 79.2069H153.81V88.2414H144.762V79.2069Z" fill="#D06300"/>
<path d="M9.04762 88.2414H18.0952V97.2759H9.04762V88.2414Z" fill="#B45A00"/>
<path d="M9.04762 70.1724H18.0952V79.2069H9.04762V70.1724Z" fill="#B45A00"/>
<path d="M18.0952 97.2759H27.1429V106.31H18.0952V97.2759Z" fill="#B45A00"/>
<path d="M54.2857 79.2069H63.3333V88.2414H54.2857V79.2069Z" fill="#B45A00"/>
<path d="M45.2381 106.31H54.2857V115.345H45.2381V106.31Z" fill="black"/>
<path d="M72.381 106.31H81.4286V115.345H72.381V106.31Z" fill="black"/>
<path d="M99.5238 106.31H108.571V115.345H99.5238V106.31Z" fill="black"/>
<path d="M126.667 106.31H135.714V115.345H126.667V106.31Z" fill="black"/>
<path d="M126.667 61.1379H135.714V70.1724H126.667V61.1379Z" fill="#D06300"/>
<path d="M153.81 106.31H162.857V115.345H153.81V106.31Z" fill="black"/>
<path d="M144.762 61.1379H153.81V70.1724H144.762V61.1379Z" fill="#D06300"/>
<path d="M45.2381 205.69H36.1905V214.724H45.2381V205.69Z" fill="black"/>
<path d="M90.4762 52.1034H99.5238V61.1379H90.4762V52.1034Z" fill="black"/>
<path d="M90.4762 88.2414H99.5238V97.2759H90.4762V88.2414Z" fill="#D06300"/>
<path d="M54.2857 61.1379H63.3333V70.1724H54.2857V61.1379Z" fill="#B45A00"/>
<path d="M90.4762 70.1724H99.5238V79.2069H90.4762V70.1724Z" fill="#D06300"/>
<path d="M90.4762 97.2759H99.5238V106.31H90.4762V97.2759Z" fill="#D06300"/>
<path d="M108.571 88.2414H117.619V97.2759H108.571V88.2414Z" fill="#D06300"/>
<path d="M108.571 52.1034H117.619V61.1379H108.571V52.1034Z" fill="black"/>
<path d="M108.571 70.1724H117.619V79.2069H108.571V70.1724Z" fill="#D06300"/>
<path d="M108.571 97.2759H117.619V106.31H108.571V97.2759Z" fill="#D06300"/>
<path d="M27.1429 106.31H36.1905V115.345H27.1429V106.31Z" fill="black"/>
<path d="M18.0952 106.31H27.1429V115.345H18.0952V106.31Z" fill="black"/>
<path d="M54.2857 106.31H63.3333V115.345H54.2857V106.31Z" fill="black"/>
<path d="M81.4286 106.31H90.4762V115.345H81.4286V106.31Z" fill="black"/>
<path d="M108.571 106.31H117.619V115.345H108.571V106.31Z" fill="black"/>
<path d="M135.714 106.31H144.762V115.345H135.714V106.31Z" fill="black"/>
<path d="M126.667 88.2414H135.714V97.2759H126.667V88.2414Z" fill="#D06300"/>
<path d="M126.667 52.1034H135.714V61.1379H126.667V52.1034Z" fill="black"/>
<path d="M126.667 70.1724H135.714V79.2069H126.667V70.1724Z" fill="#D06300"/>
<path d="M126.667 97.2759H135.714V106.31H126.667V97.2759Z" fill="#D06300"/>
<path d="M144.762 52.1034H153.81V61.1379H144.762V52.1034Z" fill="black"/>
<path d="M144.762 88.2414H153.81V97.2759H144.762V88.2414Z" fill="#D06300"/>
<path d="M144.762 70.1724H153.81V79.2069H144.762V70.1724Z" fill="#D06300"/>
<path d="M144.762 97.2759H153.81V106.31H144.762V97.2759Z" fill="#D06300"/>
<path d="M180.952 160.517H171.905V169.552H180.952V160.517Z" fill="black"/>
<path d="M54.2857 52.1034H63.3333V61.1379H54.2857V52.1034Z" fill="black"/>
<path d="M54.2857 70.1724H63.3333V79.2069H54.2857V70.1724Z" fill="#B45A00"/>
<path d="M54.2857 88.2414H63.3333V97.2759H54.2857V88.2414Z" fill="#B45A00"/>
<path d="M54.2857 97.2759H63.3333V106.31H54.2857V97.2759Z" fill="#B45A00"/>
<path d="M190 169.552H180.952V178.586H190V169.552Z" fill="black"/>
<path d="M190 187.621H180.952V196.655H190V187.621Z" fill="black"/>
<path d="M180.952 196.655H171.905V205.69H180.952V196.655Z" fill="black"/>
<path d="M90.4762 160.517H81.4286V169.552H90.4762V160.517Z" fill="#D06300"/>
<path d="M81.4286 34.0345H90.4762V43.069H81.4286V34.0345Z" fill="#954A00"/>
<path d="M99.5238 43.069H108.571V52.1034H99.5238V43.069Z" fill="#B25E00"/>
<path d="M90.4762 178.586H81.4286V187.621H90.4762V178.586Z" fill="#D06300"/>
<path d="M99.5238 115.345H108.571V124.379H99.5238V115.345Z" fill="#B25E00"/>
<path d="M99.5238 214.724H108.571V223.759H99.5238V214.724Z" fill="#B25E00"/>
<path d="M99.5238 250.862H108.571V259.897H99.5238V250.862Z" fill="#B25E00"/>
<path d="M54.2857 160.517H45.2381V169.552H54.2857V160.517Z" fill="#B45A00"/>
<path d="M99.5238 124.379H108.571V133.414H99.5238V124.379Z" fill="#B25E00"/>
<path d="M99.5238 223.759H108.571V232.793H99.5238V223.759Z" fill="#B25E00"/>
<path d="M99.5238 259.897H108.571V268.931H99.5238V259.897Z" fill="#B25E00"/>
<path d="M54.2857 178.586H45.2381V187.621H54.2857V178.586Z" fill="#B45A00"/>
<path d="M99.5238 133.414H108.571V142.448H99.5238V133.414Z" fill="#B25E00"/>
<path d="M99.5238 232.793H108.571V241.828H99.5238V232.793Z" fill="#B25E00"/>
<path d="M99.5238 268.931H108.571V277.966H99.5238V268.931Z" fill="#954A00"/>
<path d="M99.5238 142.448H108.571V151.483H99.5238V142.448Z" fill="#B25E00"/>
<path d="M99.5238 241.828H108.571V250.862H99.5238V241.828Z" fill="#B25E00"/>
<path d="M36.1905 178.586H27.1429V187.621H36.1905V178.586Z" fill="#B45A00"/>
<path d="M36.1905 160.517H27.1429V169.552H36.1905V160.517Z" fill="#B45A00"/>
<path d="M90.4762 151.483H81.4286V160.517H90.4762V151.483Z" fill="black"/>
<path d="M90.4762 187.621H81.4286V196.655H90.4762V187.621Z" fill="#D06300"/>
<path d="M27.1429 178.586H18.0952V187.621H27.1429V178.586Z" fill="black"/>
<path d="M90.4762 169.552H81.4286V178.586H90.4762V169.552Z" fill="#D06300"/>
<path d="M90.4762 196.655H81.4286V205.69H90.4762V196.655Z" fill="#B45A00"/>
<path d="M54.2857 151.483H45.2381V160.517H54.2857V151.483Z" fill="black"/>
<path d="M54.2857 187.621H45.2381V196.655H54.2857V187.621Z" fill="#B45A00"/>
<path d="M54.2857 169.552H45.2381V178.586H54.2857V169.552Z" fill="#B45A00"/>
<path d="M54.2857 196.655H45.2381V205.69H54.2857V196.655Z" fill="#B45A00"/>
<path d="M126.667 178.586H117.619V187.621H126.667V178.586Z" fill="#D06300"/>
<path d="M36.1905 151.483H27.1429V160.517H36.1905V151.483Z" fill="black"/>
<path d="M36.1905 187.621H27.1429V196.655H36.1905V187.621Z" fill="#B45A00"/>
<path d="M36.1905 169.552H27.1429V178.586H36.1905V169.552Z" fill="#B45A00"/>
<path d="M36.1905 196.655H27.1429V205.69H36.1905V196.655Z" fill="#B45A00"/>
<path d="M126.667 160.517H117.619V169.552H126.667V160.517Z" fill="#D06300"/>
<path d="M27.1429 160.517H18.0952V169.552H27.1429V160.517Z" fill="black"/>
<path d="M27.1429 169.552H18.0952V178.586H27.1429V169.552Z" fill="black"/>
<path d="M27.1429 187.621H18.0952V196.655H27.1429V187.621Z" fill="black"/>
<path d="M108.571 160.517H99.5238V169.552H108.571V160.517Z" fill="#D06300"/>
<path d="M27.1429 196.655H18.0952V205.69H27.1429V196.655Z" fill="black"/>
<path d="M108.571 34.0345H117.619V43.069H108.571V34.0345Z" fill="black"/>
<path d="M72.381 160.517H63.3333V169.552H72.381V160.517Z" fill="#B45A00"/>
<path d="M108.571 178.586H99.5238V187.621H108.571V178.586Z" fill="#D06300"/>
<path d="M126.667 151.483H117.619V160.517H126.667V151.483Z" fill="black"/>
<path d="M144.762 160.517H135.714V169.552H144.762V160.517Z" fill="#D06300"/>
<path d="M126.667 169.552H117.619V178.586H126.667V169.552Z" fill="#D06300"/>
<path d="M81.4286 43.069H90.4762V52.1034H81.4286V43.069Z" fill="#954A00"/>
<path d="M72.381 178.586H63.3333V187.621H72.381V178.586Z" fill="#B45A00"/>
<path d="M126.667 187.621H117.619V196.655H126.667V187.621Z" fill="#D06300"/>
<path d="M81.4286 115.345H90.4762V124.379H81.4286V115.345Z" fill="#954A00"/>
<path d="M81.4286 214.724H90.4762V223.759H81.4286V214.724Z" fill="#954A00"/>
<path d="M81.4286 250.862H90.4762V259.897H81.4286V250.862Z" fill="#954A00"/>
<path d="M108.571 43.069H117.619V52.1034H108.571V43.069Z" fill="black"/>
<path d="M108.571 115.345H117.619V124.379H108.571V115.345Z" fill="black"/>
<path d="M108.571 214.724H117.619V223.759H108.571V214.724Z" fill="black"/>
<path d="M108.571 250.862H117.619V259.897H108.571V250.862Z" fill="black"/>
<path d="M126.667 196.655H117.619V205.69H126.667V196.655Z" fill="#D06300"/>
<path d="M144.762 178.586H135.714V187.621H144.762V178.586Z" fill="#D06300"/>
<path d="M81.4286 124.379H90.4762V133.414H81.4286V124.379Z" fill="#954A00"/>
<path d="M81.4286 223.759H90.4762V232.793H81.4286V223.759Z" fill="#954A00"/>
<path d="M81.4286 259.897H90.4762V268.931H81.4286V259.897Z" fill="#954A00"/>
<path d="M81.4286 133.414H90.4762V142.448H81.4286V133.414Z" fill="#954A00"/>
<path d="M81.4286 232.793H90.4762V241.828H81.4286V232.793Z" fill="#954A00"/>
<path d="M81.4286 268.931H90.4762V277.966H81.4286V268.931Z" fill="#954A00"/>
<path d="M81.4286 142.448H90.4762V151.483H81.4286V142.448Z" fill="#954A00"/>
<path d="M81.4286 241.828H90.4762V250.862H81.4286V241.828Z" fill="#954A00"/>
<path d="M171.905 160.517H162.857V169.552H171.905V160.517Z" fill="#D06300"/>
<path d="M108.571 124.379H117.619V133.414H108.571V124.379Z" fill="black"/>
<path d="M108.571 223.759H117.619V232.793H108.571V223.759Z" fill="black"/>
<path d="M108.571 259.897H117.619V268.931H108.571V259.897Z" fill="black"/>
<path d="M108.571 133.414H117.619V142.448H108.571V133.414Z" fill="black"/>
<path d="M108.571 232.793H117.619V241.828H108.571V232.793Z" fill="black"/>
<path d="M108.571 268.931H117.619V277.966H108.571V268.931Z" fill="black"/>
<path d="M171.905 178.586H162.857V187.621H171.905V178.586Z" fill="#D06300"/>
<path d="M108.571 142.448H117.619V151.483H108.571V142.448Z" fill="black"/>
<path d="M108.571 241.828H117.619V250.862H108.571V241.828Z" fill="black"/>
<path d="M180.952 178.586H171.905V187.621H180.952V178.586Z" fill="#D06300"/>
<path d="M108.571 151.483H99.5238V160.517H108.571V151.483Z" fill="black"/>
<path d="M108.571 187.621H99.5238V196.655H108.571V187.621Z" fill="#D06300"/>
<path d="M108.571 169.552H99.5238V178.586H108.571V169.552Z" fill="#D06300"/>
<path d="M108.571 196.655H99.5238V205.69H108.571V196.655Z" fill="#D06300"/>
<path d="M90.4762 34.0345H99.5238V43.069H90.4762V34.0345Z" fill="#954A00"/>
<path d="M72.381 151.483H63.3333V160.517H72.381V151.483Z" fill="black"/>
<path d="M72.381 187.621H63.3333V196.655H72.381V187.621Z" fill="#B45A00"/>
<path d="M72.381 169.552H63.3333V178.586H72.381V169.552Z" fill="#B45A00"/>
<path d="M72.381 196.655H63.3333V205.69H72.381V196.655Z" fill="#B45A00"/>
<path d="M144.762 151.483H135.714V160.517H144.762V151.483Z" fill="black"/>
<path d="M99.5238 178.586H90.4762V187.621H99.5238V178.586Z" fill="#D06300"/>
<path d="M99.5238 160.517H90.4762V169.552H99.5238V160.517Z" fill="#D06300"/>
<path d="M90.4762 43.069H99.5238V52.1034H90.4762V43.069Z" fill="#B25E00"/>
<path d="M81.4286 178.586H72.381V187.621H81.4286V178.586Z" fill="#B45A00"/>
<path d="M144.762 187.621H135.714V196.655H144.762V187.621Z" fill="#D06300"/>
<path d="M90.4762 115.345H99.5238V124.379H90.4762V115.345Z" fill="#B25E00"/>
<path d="M90.4762 214.724H99.5238V223.759H90.4762V214.724Z" fill="#B25E00"/>
<path d="M90.4762 250.862H99.5238V259.897H90.4762V250.862Z" fill="#B25E00"/>
<path d="M144.762 169.552H135.714V178.586H144.762V169.552Z" fill="#D06300"/>
<path d="M144.762 196.655H135.714V205.69H144.762V196.655Z" fill="#D06300"/>
<path d="M81.4286 160.517H72.381V169.552H81.4286V160.517Z" fill="#D06300"/>
<path d="M90.4762 124.379H99.5238V133.414H90.4762V124.379Z" fill="#B25E00"/>
<path d="M90.4762 223.759H99.5238V232.793H90.4762V223.759Z" fill="#B25E00"/>
<path d="M90.4762 259.897H99.5238V268.931H90.4762V259.897Z" fill="#954A00"/>
<path d="M90.4762 133.414H99.5238V142.448H90.4762V133.414Z" fill="#B25E00"/>
<path d="M90.4762 232.793H99.5238V241.828H90.4762V232.793Z" fill="#B25E00"/>
<path d="M90.4762 268.931H99.5238V277.966H90.4762V268.931Z" fill="#954A00"/>
<path d="M90.4762 142.448H99.5238V151.483H90.4762V142.448Z" fill="#B25E00"/>
<path d="M90.4762 241.828H99.5238V250.862H90.4762V241.828Z" fill="#B25E00"/>
<path d="M171.905 151.483H162.857V160.517H171.905V151.483Z" fill="black"/>
<path d="M63.3333 178.586H54.2857V187.621H63.3333V178.586Z" fill="#B45A00"/>
<path d="M171.905 187.621H162.857V196.655H171.905V187.621Z" fill="#D06300"/>
<path d="M171.905 169.552H162.857V178.586H171.905V169.552Z" fill="#D06300"/>
<path d="M45.2381 178.586H36.1905V187.621H45.2381V178.586Z" fill="#B45A00"/>
<path d="M180.952 187.621H171.905V196.655H180.952V187.621Z" fill="#D06300"/>
<path d="M144.762 205.69H135.714V214.724H144.762V205.69Z" fill="black"/>
<path d="M117.619 205.69H108.571V214.724H117.619V205.69Z" fill="black"/>
<path d="M90.4762 205.69H81.4286V214.724H90.4762V205.69Z" fill="black"/>
<path d="M63.3333 205.69H54.2857V214.724H63.3333V205.69Z" fill="black"/>
<path d="M180.952 169.552H171.905V178.586H180.952V169.552Z" fill="#D06300"/>
<path d="M171.905 196.655H162.857V205.69H171.905V196.655Z" fill="#D06300"/>
<path d="M135.714 178.586H126.667V187.621H135.714V178.586Z" fill="#D06300"/>
<path d="M144.762 277.966H135.714V287H144.762V277.966Z" fill="black"/>
<path d="M117.619 277.966H108.571V287H117.619V277.966Z" fill="black"/>
<path d="M90.4762 277.966H81.4286V287H90.4762V277.966Z" fill="black"/>
<path d="M63.3333 277.966H54.2857V287H63.3333V277.966Z" fill="black"/>
<path d="M63.3333 160.517H54.2857V169.552H63.3333V160.517Z" fill="#B45A00"/>
<path d="M36.1905 205.69H27.1429V214.724H36.1905V205.69Z" fill="black"/>
<path d="M45.2381 160.517H36.1905V169.552H45.2381V160.517Z" fill="#B45A00"/>
<path d="M90.4762 25H99.5238V34.0345H90.4762V25Z" fill="black"/>
<path d="M99.5238 151.483H90.4762V160.517H99.5238V151.483Z" fill="black"/>
<path d="M99.5238 187.621H90.4762V196.655H99.5238V187.621Z" fill="#D06300"/>
<path d="M135.714 160.517H126.667V169.552H135.714V160.517Z" fill="#D06300"/>
<path d="M99.5238 169.552H90.4762V178.586H99.5238V169.552Z" fill="#D06300"/>
<path d="M135.714 205.69H126.667V214.724H135.714V205.69Z" fill="black"/>
<path d="M108.571 205.69H99.5238V214.724H108.571V205.69Z" fill="black"/>
<path d="M81.4286 205.69H72.381V214.724H81.4286V205.69Z" fill="black"/>
<path d="M54.2857 205.69H45.2381V214.724H54.2857V205.69Z" fill="black"/>
<path d="M99.5238 196.655H90.4762V205.69H99.5238V196.655Z" fill="#B45A00"/>
<path d="M81.4286 187.621H72.381V196.655H81.4286V187.621Z" fill="#B45A00"/>
<path d="M81.4286 151.483H72.381V160.517H81.4286V151.483Z" fill="black"/>
<path d="M81.4286 169.552H72.381V178.586H81.4286V169.552Z" fill="#D06300"/>
<path d="M81.4286 196.655H72.381V205.69H81.4286V196.655Z" fill="#B45A00"/>
<path d="M162.857 205.69H153.81V214.724H162.857V205.69Z" fill="black"/>
<path d="M171.905 205.69H162.857V214.724H171.905V205.69Z" fill="black"/>
<path d="M135.714 277.966H126.667V287H135.714V277.966Z" fill="black"/>
<path d="M108.571 277.966H99.5238V287H108.571V277.966Z" fill="black"/>
<path d="M81.4286 277.966H72.381V287H81.4286V277.966Z" fill="black"/>
<path d="M54.2857 277.966H45.2381V287H54.2857V277.966Z" fill="black"/>
<path d="M63.3333 187.621H54.2857V196.655H63.3333V187.621Z" fill="#B45A00"/>
<path d="M63.3333 151.483H54.2857V160.517H63.3333V151.483Z" fill="black"/>
<path d="M63.3333 169.552H54.2857V178.586H63.3333V169.552Z" fill="#B45A00"/>
<path d="M63.3333 196.655H54.2857V205.69H63.3333V196.655Z" fill="#B45A00"/>
<path d="M45.2381 151.483H36.1905V160.517H45.2381V151.483Z" fill="black"/>
<path d="M45.2381 187.621H36.1905V196.655H45.2381V187.621Z" fill="#B45A00"/>
<path d="M45.2381 169.552H36.1905V178.586H45.2381V169.552Z" fill="#B45A00"/>
<path d="M45.2381 196.655H36.1905V205.69H45.2381V196.655Z" fill="#B45A00"/>
<path d="M99.5238 25H108.571V34.0345H99.5238V25Z" fill="black"/>
<path d="M135.714 151.483H126.667V160.517H135.714V151.483Z" fill="black"/>
<path d="M135.714 169.552H126.667V178.586H135.714V169.552Z" fill="#D06300"/>
<path d="M135.714 187.621H126.667V196.655H135.714V187.621Z" fill="#D06300"/>
<path d="M135.714 196.655H126.667V205.69H135.714V196.655Z" fill="#D06300"/>
<path d="M173.555 59.0264H175.666V56.9186H173.555V59.0264Z" fill="#BF5F22"/>
<path d="M171.443 59.0264H173.554V56.9186H171.443V59.0264Z" fill="#BF5F22"/>
<path d="M175.666 59.0264H177.777V56.9186H175.666V59.0264Z" fill="#231F20"/>
<path d="M165.111 59.0264H167.221V56.9186H165.111V59.0264Z" fill="#715E57"/>
<path d="M169.332 59.0264H171.443V56.9186H169.332V59.0264Z" fill="#231F20"/>
<path d="M177.777 59.0264H179.889V56.9186H177.777V59.0264Z" fill="#231F20"/>
<path d="M167.222 59.0271H169.333V56.9194H167.222V59.0271Z" fill="#715E57"/>
<path d="M150.334 59.0269H152.445V56.9186H150.334V59.0269Z" fill="#231F20"/>
<path d="M162.999 59.0264H165.111V56.9186H162.999V59.0264Z" fill="#231F20"/>
<path d="M152.444 56.9186V59.0269L154.555 59.0264V56.9186H152.444Z" fill="#BF5F22"/>
<path d="M154.555 59.0271H156.667V56.9194H154.555V59.0271Z" fill="#BF5F22"/>
<path d="M158.778 59.0264H160.889V56.9186H158.778V59.0264Z" fill="#231F20"/>
<path d="M160.888 59.0264H162.999V56.9186H160.888V59.0264Z" fill="#715E57"/>
<path d="M156.667 59.0271H158.778V56.9194H156.667V59.0271Z" fill="#BF5F22"/>
<path d="M165.111 54.811H167.221V52.7033H165.111V54.811Z" fill="#231F20"/>
<path d="M156.667 54.811H158.778V52.7033H156.667V54.811Z" fill="#231F20"/>
<path d="M158.778 54.811H160.889V52.7033H158.778V54.811Z" fill="#231F20"/>
<path d="M171.443 54.811H173.554V52.7033H171.443V54.811Z" fill="#730B0E"/>
<path d="M167.222 54.811H169.333V52.7033H167.222V54.811Z" fill="#231F20"/>
<path d="M169.332 54.811H171.443V52.7033H169.332V54.811Z" fill="#730B0E"/>
<path d="M160.888 54.811H162.999V52.7033H160.888V54.811Z" fill="#231F20"/>
<path d="M162.999 54.811H165.111V52.7033H162.999V54.811Z" fill="#730B0E"/>
<path d="M173.559 54.811H175.67V52.7033H173.559V54.811Z" fill="#730B0E"/>
<path d="M179.889 54.811H182V52.7033H179.889V54.811Z" fill="#231F20"/>
<path d="M177.777 54.811H179.889V52.7033H177.777V54.811Z" fill="#0D6AAA"/>
<path d="M175.648 54.811H177.759V52.7033H175.648V54.811Z" fill="#231F20"/>
<path d="M167.222 56.9194H169.333V54.811H167.222V56.9194Z" fill="#907A72"/>
<path d="M171.443 56.9192H173.554V54.811H171.443V56.9192Z" fill="#231F20"/>
<path d="M175.666 56.9192H177.777L177.777 54.811L175.666 54.811V56.9192Z" fill="#730B0E"/>
<path d="M173.555 56.9192H175.666V54.811H173.555V56.9192Z" fill="#231F20"/>
<path d="M169.332 56.9192H171.443V54.811H169.332V56.9192Z" fill="#231F20"/>
<path d="M179.889 56.9192H182V54.811H179.889V56.9192Z" fill="#231F20"/>
<path d="M177.777 56.9192H179.889V54.811H177.777L177.777 56.9192Z" fill="#231F20"/>
<path d="M154.555 56.9194H156.667L156.667 54.811L154.555 54.811V56.9194Z" fill="#231F20"/>
<path d="M165.111 56.9192H167.221V54.811H165.111V56.9192Z" fill="#907A72"/>
<path d="M152.444 56.9192L154.555 56.9194V54.811H152.444V56.9192Z" fill="#231F20"/>
<path d="M160.888 56.9192H162.999V54.811H160.888V56.9192Z" fill="#907A72"/>
<path d="M162.999 56.9192H165.111V54.811H162.999V56.9192Z" fill="#231F20"/>
<path d="M156.667 56.9194H158.778V54.811H156.667L156.667 56.9194Z" fill="#231F20"/>
<path d="M158.778 56.9194L160.889 56.9192V54.811H158.778V56.9194Z" fill="#231F20"/>
<path d="M165.111 65.3514H167.221V63.2432H165.111V65.3514Z" fill="#231F20"/>
<path d="M179.889 63.243H182V61.1347H179.889V63.243Z" fill="#231F20"/>
<path d="M177.777 65.3514H179.889L179.889 63.243L177.777 63.2432V65.3514Z" fill="#C5181D"/>
<path d="M175.666 65.3514H177.777V63.2432H175.666V65.3514Z" fill="#0994DC"/>
<path d="M173.555 65.3514H175.666V63.2432H173.555V65.3514Z" fill="#9C1116"/>
<path d="M171.443 65.3514H173.554V63.2432H171.443V65.3514Z" fill="#231F20"/>
<path d="M179.889 65.3514H182V63.243H179.889L179.889 65.3514Z" fill="#231F20"/>
<path d="M162.999 65.3514H165.111V63.2432H162.999V65.3514Z" fill="#BF5F22"/>
<path d="M160.888 65.3514H162.999V63.2432H160.888V65.3514Z" fill="#231F20"/>
<path d="M177.777 63.2432L179.889 63.243V61.1347H177.777V63.2432Z" fill="#9C1116"/>
<path d="M175.666 63.2432H177.777V61.1347H175.666V63.2432Z" fill="#0994DC"/>
<path d="M175.666 61.1353H177.777V59.0271H175.666V61.1353Z" fill="#0D6AAA"/>
<path d="M177.777 61.1353H179.889V59.0271H177.777V61.1353Z" fill="#730B0E"/>
<path d="M167.222 61.1353H169.333V59.0271H167.222V61.1353Z" fill="#231F20"/>
<path d="M169.332 61.1353H171.443V59.0271H169.332V61.1353Z" fill="#231F20"/>
<path d="M171.443 61.1353H173.554V59.0271H171.443V61.1353Z" fill="#231F20"/>
<path d="M179.889 61.1353H182V59.0271H179.889V61.1353Z" fill="#231F20"/>
<path d="M173.555 61.1353H175.666V59.0271H173.555V61.1353Z" fill="#231F20"/>
<path d="M154.555 61.1353H156.667V59.0271H154.555V61.1353Z" fill="#231F20"/>
<path d="M152.444 59.0276V61.1353H154.555V59.0271L152.444 59.0276Z" fill="#231F20"/>
<path d="M162.999 61.1353H165.111V59.0271H162.999V61.1353Z" fill="#8D4518"/>
<path d="M156.667 61.1353H158.778V59.0271H156.667V61.1353Z" fill="#231F20"/>
<path d="M160.888 61.1353H162.999V59.0271H160.888V61.1353Z" fill="#231F20"/>
<path d="M165.111 61.1353H167.221V59.0271H165.111V61.1353Z" fill="#231F20"/>
<path d="M158.778 61.1353H160.889V59.0271L158.778 59.0271V61.1353Z" fill="#231F20"/>
<path d="M160.888 63.2432H162.999L162.999 61.1347H160.888V63.2432Z" fill="#231F20"/>
<path d="M165.111 63.2432H167.221V61.1347H165.111V63.2432Z" fill="#231F20"/>
<path d="M162.999 63.2432H165.111V61.1347H162.999L162.999 63.2432Z" fill="#BF5F22"/>
<path d="M173.555 63.2432H175.666V61.1347H173.555V63.2432Z" fill="#730B0E"/>
<path d="M171.443 63.2432H173.554V61.1347H171.443V63.2432Z" fill="#231F20"/>
<path d="M156.667 35.8379H158.778V33.7296H156.667V35.8379Z" fill="#C5181D"/>
<path d="M171.443 16.865H173.554V14.7568H171.443V16.865Z" fill="#C5181D"/>
<path d="M171.443 10.5405H173.554V8.43222H171.443V10.5405Z" fill="#C5181D"/>
<path d="M167.222 10.5405H169.333V8.43222H167.222V10.5405Z" fill="white"/>
<path d="M171.443 12.6489H173.554V10.5405H171.443V12.6489Z" fill="#C5181D"/>
<path d="M171.443 14.7568H173.554V12.6483H171.443V14.7568Z" fill="#C5181D"/>
<path d="M169.332 10.5405H171.443V8.43222H169.332V10.5405Z" fill="#C5181D"/>
<path d="M158.778 10.5405H160.889V8.43222H158.778V10.5405Z" fill="#231F20"/>
<path d="M165.111 10.5405H167.221V8.43222H165.111V10.5405Z" fill="white"/>
<path d="M160.889 10.5405H163.001V8.43222H160.889V10.5405Z" fill="white"/>
<path d="M169.332 12.6489H171.443V10.5405H169.332V12.6489Z" fill="#C5181D"/>
<path d="M171.443 23.189H173.554V21.0813H171.443V23.189Z" fill="#C5181D"/>
<path d="M171.443 33.7302H173.554V31.622H171.443V33.7302Z" fill="#C5181D"/>
<path d="M171.443 31.622H173.554V29.5135H171.443V31.622Z" fill="#C5181D"/>
<path d="M171.443 18.9735H173.554V16.865H171.443V18.9735Z" fill="#C5181D"/>
<path d="M171.443 35.8379H173.554V33.7296H171.443V35.8379Z" fill="#C5181D"/>
<path d="M171.443 29.5135H173.554V27.4059H171.443V29.5135Z" fill="#F1511B"/>
<path d="M171.443 37.9458H173.554V35.8379H171.443V37.9458Z" fill="#C5181D"/>
<path d="M156.667 10.5405H158.778V8.43222H156.667V10.5405Z" fill="#FDDD04"/>
<path d="M171.443 27.4059H173.554V25.2974H171.443V27.4059Z" fill="#C5181D"/>
<path d="M171.443 21.0813H173.554V18.9729H171.443V21.0813Z" fill="#C5181D"/>
<path d="M171.443 25.2974H173.554V23.189H171.443V25.2974Z" fill="#C5181D"/>
<path d="M171.443 40.054H173.554V37.9458H171.443V40.054Z" fill="#FABC09"/>
<path d="M150.334 10.5405H152.445V8.43222H150.334V10.5405Z" fill="#FDDD04"/>
<path d="M154.555 10.5405H156.667V8.43222H154.555V10.5405Z" fill="#FDDD04"/>
<path d="M148.223 10.5405H150.334V8.43222H148.223V10.5405Z" fill="#FDDD04"/>
<path d="M148.223 8.43222H150.334L150.334 6.32455H148.223V8.43222Z" fill="#231F20"/>
<path d="M152.444 10.5405H154.555V8.43222H152.444V10.5405Z" fill="#FDDD04"/>
<path d="M146.111 12.649H148.223L148.223 10.5405L146.111 10.5407V12.649Z" fill="#FDDD04"/>
<path d="M146.111 10.5407L148.223 10.5405V8.43222H146.111L146.111 10.5407Z" fill="#231F20"/>
<path d="M148.223 12.649L150.334 12.6489L150.334 10.5405H148.223L148.223 12.649Z" fill="#FABC09"/>
<path d="M160.889 12.6489H163.001V10.5405H160.889V12.6489Z" fill="#231F20"/>
<path d="M171.443 42.1624H173.554V40.054H171.443V42.1624Z" fill="#FABC09"/>
<path d="M150.334 12.6489H152.445V10.5405H150.334L150.334 12.6489Z" fill="#FABC09"/>
<path d="M167.222 12.649H169.333L169.333 10.5405H167.222L167.222 12.649Z" fill="white"/>
<path d="M162.999 12.6489H165.111L165.111 10.5405L162.999 10.5407V12.6489Z" fill="white"/>
<path d="M158.778 12.6489H160.889V10.5405H158.778V12.6489Z" fill="#FDDD04"/>
<path d="M152.444 12.6489H154.555L154.555 10.5405H152.444V12.6489Z" fill="#FABC09"/>
<path d="M154.555 12.6489L156.667 12.649L156.667 10.5405H154.555L154.555 12.6489Z" fill="#FABC09"/>
<path d="M156.667 12.649L158.778 12.6489V10.5405H156.667L156.667 12.649Z" fill="#FABC09"/>
<path d="M165.111 12.6489H167.221V10.5405H165.111L165.111 12.6489Z" fill="white"/>
<path d="M158.778 42.1624H160.889V40.0542H158.778V42.1624Z" fill="#C5181D"/>
<path d="M160.888 42.1624H162.999V40.0542H160.888V42.1624Z" fill="#C5181D"/>
<path d="M150.334 42.1624H152.445V40.0542H150.334V42.1624Z" fill="#231F20"/>
<path d="M152.444 40.0542V42.1624H154.555V40.0542H152.444Z" fill="#9C1116"/>
<path d="M154.555 42.1624L156.667 42.1623V40.0541L154.555 40.0542V42.1624Z" fill="#C5181D"/>
<path d="M169.332 42.1624H171.443V40.054L169.332 40.0542V42.1624Z" fill="#FABC09"/>
<path d="M162.999 42.1624H165.111V40.0542H162.999V42.1624Z" fill="#C5181D"/>
<path d="M167.222 42.1623H169.333V40.0541H167.222V42.1623Z" fill="#231F20"/>
<path d="M165.111 42.1624H167.221V40.0542H165.111V42.1624Z" fill="#C5181D"/>
<path d="M156.667 42.1623L158.778 42.1624V40.0542L156.667 40.0541V42.1623Z" fill="#C5181D"/>
<path d="M162.999 10.5407L165.111 10.5405V8.43222H162.999V10.5407Z" fill="white"/>
<path d="M156.667 8.43222H158.778L158.778 6.32455H156.667V8.43222Z" fill="#231F20"/>
<path d="M150.334 8.43222H152.445V6.32455H150.334L150.334 8.43222Z" fill="#231F20"/>
<path d="M154.555 8.43222H156.667V6.32455H154.555V8.43222Z" fill="#231F20"/>
<path d="M152.444 8.43222H154.555V6.32455H152.444V8.43222Z" fill="#231F20"/>
<path d="M158.778 8.43222H160.889L160.889 6.32455H158.778L158.778 8.43222Z" fill="#231F20"/>
<path d="M152.444 44.2711V46.3788H154.555V44.2711H152.444Z" fill="#231F20"/>
<path d="M154.555 46.378H156.667V44.2703H154.555V46.378Z" fill="#9C1116"/>
<path d="M156.667 46.378H158.778V44.2703H156.667V46.378Z" fill="#C5181D"/>
<path d="M160.888 46.3788H162.999V44.2711H160.888V46.3788Z" fill="#C5181D"/>
<path d="M162.999 46.3788H165.111V44.2711H162.999V46.3788Z" fill="#C5181D"/>
<path d="M158.778 46.3788H160.889V44.2711H158.778V46.3788Z" fill="#C5181D"/>
<path d="M169.332 44.2709H171.443L171.443 42.1624H169.332V44.2709Z" fill="#0994DC"/>
<path d="M156.667 44.2709L158.778 44.2711V42.1624L156.667 42.1623L156.667 44.2709Z" fill="#C5181D"/>
<path d="M162.999 44.2711H165.111V42.1624H162.999V44.2711Z" fill="#C5181D"/>
<path d="M167.222 44.2709H169.333L169.333 42.1623H167.222L167.222 44.2709Z" fill="#231F20"/>
<path d="M158.778 44.2711H160.889V42.1624H158.778V44.2711Z" fill="#C5181D"/>
<path d="M160.888 44.2711H162.999V42.1624H160.888V44.2711Z" fill="#C5181D"/>
<path d="M165.111 44.2711L167.221 44.2709V42.1624H165.111V44.2711Z" fill="#C5181D"/>
<path d="M173.555 44.2709H175.666V42.1626H173.555V44.2709Z" fill="#0994DC"/>
<path d="M173.555 42.1626H175.666V40.0542H173.555V42.1626Z" fill="#FABC09"/>
<path d="M171.443 44.2709H173.554V42.1624H171.443L171.443 44.2709Z" fill="#FABC09"/>
<path d="M173.555 40.0542H175.666V37.9458H173.555V40.0542Z" fill="#FABC09"/>
<path d="M154.555 44.2711L156.667 44.2709L156.667 42.1623L154.555 42.1624V44.2711Z" fill="#9C1116"/>
<path d="M152.444 42.1624V44.2711H154.555V42.1624H152.444Z" fill="#730B0E"/>
<path d="M150.334 44.2709H152.445V42.1624H150.334V44.2709Z" fill="#231F20"/>
<path d="M160.888 8.43227L162.999 8.43222L162.999 6.32455H160.888V8.43227Z" fill="white"/>
<path d="M173.555 10.5405H175.666V8.43222H173.555V10.5405Z" fill="#231F20"/>
<path d="M171.443 8.43222H173.554V6.32455H171.443V8.43222Z" fill="#C5181D"/>
<path d="M173.555 8.43222H175.666V6.32455H173.555V8.43222Z" fill="#231F20"/>
<path d="M173.555 14.7566H175.666V12.6483H173.555V14.7566Z" fill="#231F20"/>
<path d="M173.555 37.9458H175.666V35.8381H173.555V37.9458Z" fill="#FABC09"/>
<path d="M162.999 8.43222H165.111L165.111 6.32455H162.999L162.999 8.43222Z" fill="#231F20"/>
<path d="M173.555 16.865H175.666V14.7566H173.555V16.865Z" fill="#231F20"/>
<path d="M165.111 8.43222H167.221V6.32455H165.111L165.111 8.43222Z" fill="white"/>
<path d="M167.222 8.43222H169.333V6.32455H167.222V8.43222Z" fill="white"/>
<path d="M169.332 8.43222H171.443V6.32455H169.332V8.43222Z" fill="#C5181D"/>
<path d="M173.555 12.6489H175.666V10.5405H173.555V12.6489Z" fill="#231F20"/>
<path d="M173.555 33.7302H175.666V31.622H173.555V33.7302Z" fill="#C5181D"/>
<path d="M173.555 31.622H175.666V29.5135H173.555V31.622Z" fill="#C5181D"/>
<path d="M173.555 35.8381H175.666V33.7296H173.555V35.8381Z" fill="#C5181D"/>
<path d="M173.555 18.9735H175.666V16.865H173.555V18.9735Z" fill="#F1511B"/>
<path d="M173.555 29.5135H175.666V27.4059H173.555V29.5135Z" fill="#C5181D"/>
<path d="M173.555 21.0811H175.666V18.9729H173.555V21.0811Z" fill="#C5181D"/>
<path d="M173.555 27.4059H175.666V25.2974H173.555V27.4059Z" fill="#C5181D"/>
<path d="M173.555 23.189H175.666V21.0811H173.555V23.189Z" fill="#C5181D"/>
<path d="M173.555 25.2974H175.666V23.189H173.555V25.2974Z" fill="#C5181D"/>
<path d="M158.778 29.5136H160.889V27.4059H158.778V29.5136Z" fill="#F36717"/>
<path d="M148.223 18.9735H150.334V16.8652H148.223V18.9735Z" fill="#FABC09"/>
<path d="M148.223 21.0811H150.334V18.9729H148.223V21.0811Z" fill="#231F20"/>
<path d="M150.334 18.9735H152.445V16.8652H150.334V18.9735Z" fill="#231F20"/>
<path d="M152.444 18.9735H154.555V16.8652H152.444V18.9735Z" fill="#231F20"/>
<path d="M154.555 18.9735H156.667V16.8652H154.555V18.9735Z" fill="#231F20"/>
<path d="M162.999 25.2972H165.111V23.189H162.999V25.2972Z" fill="#C5181D"/>
<path d="M156.667 18.9735H158.778V16.8652H156.667V18.9735Z" fill="#231F20"/>
<path d="M162.999 27.4057H165.111V25.2972H162.999V27.4057Z" fill="#C5181D"/>
<path d="M162.999 31.6218H165.111V29.5135H162.999V31.6218Z" fill="#C5181D"/>
<path d="M162.999 29.5135H165.111V27.4057H162.999V29.5135Z" fill="#F36717"/>
<path d="M162.999 23.189H165.111V21.0813H162.999V23.189Z" fill="#C5181D"/>
<path d="M158.778 18.9735H160.889V16.8652H158.778V18.9735Z" fill="#231F20"/>
<path d="M160.889 18.9735H163.001V16.8652H160.889V18.9735Z" fill="#231F20"/>
<path d="M162.999 18.9735H165.111V16.8652H162.999V18.9735Z" fill="#9C1116"/>
<path d="M162.999 21.0813H165.111V18.9729H162.999V21.0813Z" fill="#C5181D"/>
<path d="M165.111 29.5135L167.221 29.5136V27.4059L165.111 27.4057V29.5135Z" fill="#C5181D"/>
<path d="M165.111 25.2972H167.221V23.189H165.111V25.2972Z" fill="#C5181D"/>
<path d="M165.111 23.189H167.221V21.0813H165.111V23.189Z" fill="#C5181D"/>
<path d="M165.111 27.4057L167.221 27.4059V25.2972H165.111V27.4057Z" fill="#C5181D"/>
<path d="M165.111 21.0813H167.221V18.9729H165.111V21.0813Z" fill="#C5181D"/>
<path d="M162.999 33.7302H165.111V31.6218H162.999V33.7302Z" fill="#C5181D"/>
<path d="M150.334 33.7302H152.445V31.622H150.334V33.7302Z" fill="#231F20"/>
<path d="M169.332 14.7566L171.443 14.7568V12.6483H169.332V14.7566Z" fill="#C5181D"/>
<path d="M165.111 18.9735H167.221V16.8652H165.111V18.9735Z" fill="#C5181D"/>
<path d="M162.999 16.8652H165.111V14.7568H162.999V16.8652Z" fill="#231F20"/>
<path d="M165.111 16.8652H167.221V14.7568H165.111V16.8652Z" fill="white"/>
<path d="M160.889 16.8652H163.001V14.7568H160.889V16.8652Z" fill="#231F20"/>
<path d="M154.555 35.8379H156.667V33.7296H154.555V35.8379Z" fill="#C5181D"/>
<path d="M152.444 33.7296V35.8379H154.555V33.7296H152.444Z" fill="#C5181D"/>
<path d="M150.334 35.8379H152.445V33.7296H150.334V35.8379Z" fill="#231F20"/>
<path d="M165.111 33.7302H167.221V31.622L165.111 31.6218V33.7302Z" fill="#C5181D"/>
<path d="M162.999 35.8379H165.111V33.7296H162.999V35.8379Z" fill="#C5181D"/>
<path d="M165.111 35.8379H167.221V33.7296H165.111V35.8379Z" fill="#C5181D"/>
<path d="M160.888 35.8379H162.999V33.7296H160.888V35.8379Z" fill="#C5181D"/>
<path d="M158.778 35.8379H160.889V33.7296H158.778V35.8379Z" fill="#C5181D"/>
<path d="M160.888 33.7302H162.999V31.6218L160.888 31.622V33.7302Z" fill="#F36717"/>
<path d="M158.778 16.8652H160.889V14.7568H158.778L158.778 16.8652Z" fill="#231F20"/>
<path d="M152.444 23.189H154.555V21.0813H152.444V23.189Z" fill="#231F20"/>
<path d="M152.444 29.5136H154.555V27.4059H152.444V29.5136Z" fill="#231F20"/>
<path d="M156.667 23.189H158.778V21.0813H156.667V23.189Z" fill="#9C1116"/>
<path d="M158.778 31.6218H160.889V29.5136H158.778V31.6218Z" fill="#C5181D"/>
<path d="M160.888 31.622L162.999 31.6218V29.5135H160.888V31.622Z" fill="#F36717"/>
<path d="M156.667 31.6218H158.778V29.5136L156.667 29.5135V31.6218Z" fill="#F36717"/>
<path d="M154.555 31.6218H156.667V29.5135L154.555 29.5136L154.555 31.6218Z" fill="#F36717"/>
<path d="M154.555 29.5136L156.667 29.5135L156.667 27.4059H154.555V29.5136Z" fill="#F36717"/>
<path d="M156.667 27.4059H158.778L158.778 25.2974H156.667L156.667 27.4059Z" fill="#C5181D"/>
<path d="M154.555 27.4059H156.667L156.667 25.2974H154.555L154.555 27.4059Z" fill="#231F20"/>
<path d="M154.555 25.2974H156.667L156.667 23.189H154.555L154.555 25.2974Z" fill="#231F20"/>
<path d="M156.667 25.2974H158.778L158.778 23.189H156.667L156.667 25.2974Z" fill="#C5181D"/>
<path d="M158.778 23.189H160.889V21.0813H158.778V23.189Z" fill="#9C1116"/>
<path d="M158.778 27.4059H160.889V25.2974L158.778 25.2974L158.778 27.4059Z" fill="#C5181D"/>
<path d="M156.667 29.5135L158.778 29.5136V27.4059H156.667L156.667 29.5135Z" fill="#C5181D"/>
<path d="M158.778 25.2974L160.889 25.2974V23.189H158.778L158.778 25.2974Z" fill="#C5181D"/>
<path d="M165.111 46.3788H167.221V44.2709L165.111 44.2711V46.3788Z" fill="#C5181D"/>
<path d="M154.555 23.189H156.667V21.0813H154.555V23.189Z" fill="#9C1116"/>
<path d="M152.444 31.6218H154.555L154.555 29.5136H152.444V31.6218Z" fill="#F36717"/>
<path d="M150.334 31.622H152.445V29.5135H150.334V31.622Z" fill="#231F20"/>
<path d="M152.444 33.7302H154.555L154.555 31.6218H152.444V33.7302Z" fill="#F36717"/>
<path d="M156.667 33.7302H158.778L158.778 31.6218H156.667V33.7302Z" fill="#F36717"/>
<path d="M158.778 33.7302H160.889V31.6218H158.778L158.778 33.7302Z" fill="#C5181D"/>
<path d="M154.555 33.7302H156.667V31.6218H154.555L154.555 33.7302Z" fill="#C5181D"/>
<path d="M156.667 21.0813H158.778V18.9729H156.667V21.0813Z" fill="#231F20"/>
<path d="M160.889 21.0811H163.001V18.9729H160.889V21.0811Z" fill="#9C1116"/>
<path d="M160.888 25.2972H162.999V23.189H160.888V25.2972Z" fill="#C5181D"/>
<path d="M160.888 23.189H162.999V21.0813H160.888V23.189Z" fill="#C5181D"/>
<path d="M160.888 27.4057H162.999V25.2972H160.888V27.4057Z" fill="#C5181D"/>
<path d="M154.555 21.0813H156.667V18.9729H154.555L154.555 21.0813Z" fill="#231F20"/>
<path d="M152.444 21.0813H154.555L154.555 18.9729H152.444V21.0813Z" fill="#231F20"/>
<path d="M150.334 21.0811H152.445V18.9729H150.334V21.0811Z" fill="#231F20"/>
<path d="M158.778 21.0813H160.889V18.9729H158.778V21.0813Z" fill="#231F20"/>
<path d="M160.888 29.5135H162.999V27.4057H160.888V29.5135Z" fill="#C5181D"/>
<path d="M165.111 31.6218L167.221 31.622V29.5136L165.111 29.5135V31.6218Z" fill="#F36717"/>
<path d="M148.223 14.7566H150.334V12.6483H148.223V14.7566Z" fill="#FABC09"/>
<path d="M150.334 40.0542H152.445V37.9458H150.334V40.0542Z" fill="#231F20"/>
<path d="M150.334 14.7566H152.445V12.6483H150.334V14.7566Z" fill="#FABC09"/>
<path d="M152.444 14.7566H154.555V12.6483H152.444V14.7566Z" fill="#FABC09"/>
<path d="M146.111 14.7566H148.223V12.6483H146.111V14.7566Z" fill="#FABC09"/>
<path d="M144 16.8649H146.111L146.111 14.7566L144 14.7567V16.8649Z" fill="#231F20"/>
<path d="M144 14.7567L146.111 14.7566V12.6483H144L144 14.7567Z" fill="#231F20"/>
<path d="M144 12.649H146.111V10.5407H144V12.649Z" fill="#231F20"/>
<path d="M144 18.9735H146.111V16.8649H144L144 18.9735Z" fill="#231F20"/>
<path d="M144 21.0811H146.111V18.9729H144V21.0811Z" fill="#231F20"/>
<path d="M152.444 37.9458V40.0542H154.555V37.9458H152.444Z" fill="#C5181D"/>
<path d="M169.332 27.4057L171.443 27.4059V25.2974H169.332V27.4057Z" fill="#F1511B"/>
<path d="M169.332 25.2974H171.443V23.189L169.332 23.189V25.2974Z" fill="#C5181D"/>
<path d="M169.332 29.5136L171.443 29.5135V27.4059L169.332 27.4057V29.5136Z" fill="#231F20"/>
<path d="M169.332 31.6218L171.443 31.622V29.5135L169.332 29.5136V31.6218Z" fill="#F1511B"/>
<path d="M154.555 14.7566H156.667V12.6483H154.555V14.7566Z" fill="#FABC09"/>
<path d="M169.332 21.0811L171.443 21.0813V18.9729H169.332V21.0811Z" fill="#C5181D"/>
<path d="M169.332 23.189L171.443 23.189V21.0813L169.332 21.0811V23.189Z" fill="#C5181D"/>
<path d="M169.332 18.9735H171.443V16.865L169.332 16.8652V18.9735Z" fill="#C5181D"/>
<path d="M169.332 16.8652L171.443 16.865V14.7568L169.332 14.7566V16.8652Z" fill="#C5181D"/>
<path d="M169.332 35.8379H171.443V33.7296H169.332V35.8379Z" fill="#C5181D"/>
<path d="M169.332 33.7302H171.443V31.622L169.332 31.6218V33.7302Z" fill="#C5181D"/>
<path d="M158.778 40.0542H160.889V37.9458H158.778V40.0542Z" fill="#C5181D"/>
<path d="M156.667 40.0541L158.778 40.0542V37.9458H156.667L156.667 40.0541Z" fill="#C5181D"/>
<path d="M160.888 40.0542H162.999V37.9458H160.888V40.0542Z" fill="#C5181D"/>
<path d="M169.332 37.9458H171.443V35.8379H169.332V37.9458Z" fill="#FABC09"/>
<path d="M154.555 40.0542L156.667 40.0541L156.667 37.9458H154.555V40.0542Z" fill="#C5181D"/>
<path d="M167.222 40.0541H169.333L169.333 37.9458H167.222L167.222 40.0541Z" fill="#231F20"/>
<path d="M169.332 40.0542L171.443 40.054V37.9458H169.332V40.0542Z" fill="#FABC09"/>
<path d="M162.999 40.0542H165.111V37.9458H162.999V40.0542Z" fill="#C5181D"/>
<path d="M165.111 40.0542H167.221V37.9458H165.111V40.0542Z" fill="#C5181D"/>
<path d="M156.667 14.7566L158.778 14.7568L158.778 12.6483H156.667V14.7566Z" fill="#FABC09"/>
<path d="M156.667 16.8652H158.778L158.778 14.7568L156.667 14.7566V16.8652Z" fill="#FABC09"/>
<path d="M150.334 37.9458H152.445V35.8379H150.334V37.9458Z" fill="#231F20"/>
<path d="M152.444 35.8379V37.9458H154.555L154.555 35.8379H152.444Z" fill="#C5181D"/>
<path d="M154.555 37.9458H156.667V35.8379H154.555L154.555 37.9458Z" fill="#C5181D"/>
<path d="M146.111 23.189H148.223L148.223 21.0811H146.111L146.111 23.189Z" fill="#231F20"/>
<path d="M150.334 16.8652H152.445V14.7566H150.334V16.8652Z" fill="#FABC09"/>
<path d="M152.444 16.8652H154.555V14.7566H152.444V16.8652Z" fill="#FABC09"/>
<path d="M154.555 16.8652H156.667V14.7566H154.555V16.8652Z" fill="#FABC09"/>
<path d="M148.223 16.8652H150.334V14.7566H148.223V16.8652Z" fill="#FABC09"/>
<path d="M146.111 21.0811H148.223V18.9729H146.111V21.0811Z" fill="#FABC09"/>
<path d="M156.667 37.9458H158.778L158.778 35.8379H156.667V37.9458Z" fill="#C5181D"/>
<path d="M146.111 16.8649L148.223 16.8652V14.7566H146.111L146.111 16.8649Z" fill="#FABC09"/>
<path d="M146.111 18.9735H148.223V16.8652L146.111 16.8649V18.9735Z" fill="#FABC09"/>
<path d="M167.222 18.9735H169.333V16.8652H167.222V18.9735Z" fill="#C5181D"/>
<path d="M167.222 16.8652H169.333L169.333 14.7567H167.222L167.222 16.8652Z" fill="#C5181D"/>
<path d="M167.222 23.189H169.333V21.0813H167.222V23.189Z" fill="#C5181D"/>
<path d="M167.222 21.0813H169.333V18.9729H167.222V21.0813Z" fill="#C5181D"/>
<path d="M167.222 14.7567H169.333L169.333 12.6483H167.222L167.222 14.7567Z" fill="white"/>
<path d="M158.778 37.9458H160.889V35.8379H158.778L158.778 37.9458Z" fill="#C5181D"/>
<path d="M158.778 14.7568H160.889V12.6483H158.778L158.778 14.7568Z" fill="#FABC09"/>
<path d="M160.889 14.7568H163.001V12.6483H160.889V14.7568Z" fill="#231F20"/>
<path d="M165.111 14.7568H167.221V12.6483H165.111L165.111 14.7568Z" fill="white"/>
<path d="M162.999 14.7568H165.111L165.111 12.6483H162.999V14.7568Z" fill="#231F20"/>
<path d="M167.222 25.2972H169.333V23.189H167.222V25.2972Z" fill="#C5181D"/>
<path d="M165.111 37.9458H167.221V35.8379H165.111V37.9458Z" fill="#C5181D"/>
<path d="M162.999 37.9458H165.111V35.8379H162.999L162.999 37.9458Z" fill="#C5181D"/>
<path d="M167.222 37.9458H169.333L169.333 35.8381H167.222L167.222 37.9458Z" fill="#231F20"/>
<path d="M167.222 27.4057H169.333L169.333 25.2972H167.222L167.222 27.4057Z" fill="#C5181D"/>
<path d="M160.888 37.9458H162.999L162.999 35.8379H160.888V37.9458Z" fill="#C5181D"/>
<path d="M167.222 31.6218H169.333V29.5135H167.222V31.6218Z" fill="#231F20"/>
<path d="M167.222 35.8381H169.333L169.333 33.7296H167.222L167.222 35.8381Z" fill="#231F20"/>
<path d="M167.222 29.5135H169.333L169.333 27.4057H167.222L167.222 29.5135Z" fill="#C5181D"/>
<path d="M167.222 33.7302H169.333V31.6218H167.222V33.7302Z" fill="#231F20"/>
<path d="M162.999 52.7033H165.111L165.111 50.5949H162.999L162.999 52.7033Z" fill="#730B0E"/>
<path d="M158.778 52.7033H160.889V50.5949H158.778L158.778 52.7033Z" fill="#730B0E"/>
<path d="M154.555 52.7031L156.667 52.7033L156.667 50.5948H154.555V52.7031Z" fill="#231F20"/>
<path d="M160.888 52.7033H162.999L162.999 50.5949H160.888V52.7033Z" fill="#730B0E"/>
<path d="M156.667 52.7033H158.778L158.778 50.5949L156.667 50.5948L156.667 52.7033Z" fill="#730B0E"/>
<path d="M179.889 44.2709H182V42.1626H179.889V44.2709Z" fill="#231F20"/>
<path d="M179.889 42.1626H182V40.0542H179.889V42.1626Z" fill="#231F20"/>
<path d="M179.889 40.0542H182V37.9458H179.889V40.0542Z" fill="#231F20"/>
<path d="M179.889 46.3788H182V44.2709H179.889V46.3788Z" fill="#231F20"/>
<path d="M167.222 46.378H169.333V44.2703H167.222V46.378Z" fill="#9C1116"/>
<path d="M179.889 31.6218H182V29.5135H179.889V31.6218Z" fill="#231F20"/>
<path d="M179.889 33.7302H182V31.6218H179.889V33.7302Z" fill="#231F20"/>
<path d="M179.889 37.9458H182V35.8381H179.889V37.9458Z" fill="#231F20"/>
<path d="M165.111 2.10825H167.221V0H165.111V2.10825Z" fill="#231F20"/>
<path d="M160.888 2.10825H162.999V0H160.888V2.10825Z" fill="#231F20"/>
<path d="M156.667 2.10825H158.778V0H156.667V2.10825Z" fill="#231F20"/>
<path d="M158.778 2.10825H160.889V0H158.778V2.10825Z" fill="#231F20"/>
<path d="M162.999 2.10825H165.111V0H162.999V2.10825Z" fill="#231F20"/>
<path d="M167.222 2.10825H169.333V0H167.222V2.10825Z" fill="#231F20"/>
<path d="M169.332 2.10825H171.443V0H169.332V2.10825Z" fill="#231F20"/>
<path d="M165.111 52.7033H167.221V50.5949H165.111L165.111 52.7033Z" fill="#730B0E"/>
<path d="M179.889 48.4862H182V46.378H179.889V48.4862Z" fill="#231F20"/>
<path d="M173.555 52.7031H175.666V50.5949H173.555V52.7031Z" fill="#231F20"/>
<path d="M169.332 52.7033H171.443L171.443 50.5949H169.332V52.7033Z" fill="#730B0E"/>
<path d="M171.443 52.7033H173.554V50.5949H171.443L171.443 52.7033Z" fill="#730B0E"/>
<path d="M167.222 52.7033H169.333L169.333 50.5948H167.222L167.222 52.7033Z" fill="#730B0E"/>
<path d="M179.889 52.7033H182V50.5949H179.889V52.7033Z" fill="#231F20"/>
<path d="M177.777 52.7033H179.889V50.5949H177.777V52.7033Z" fill="#0994DC"/>
<path d="M175.666 52.7031L177.777 52.7033V50.5949H175.666V52.7031Z" fill="#0D6AAA"/>
<path d="M179.889 35.8381H182V33.7296H179.889V35.8381Z" fill="#231F20"/>
<path d="M169.332 48.4862H171.443V46.378H169.332V48.4862Z" fill="#231F20"/>
<path d="M167.222 48.4862H169.333V46.378H167.222V48.4862Z" fill="#9C1116"/>
<path d="M165.111 48.4862H167.221V46.378H165.111V48.4862Z" fill="#9C1116"/>
<path d="M171.443 48.4862H173.554V46.378H171.443V48.4862Z" fill="#0D6AAA"/>
<path d="M162.999 48.4862H165.111V46.378H162.999V48.4862Z" fill="#C5181D"/>
<path d="M177.777 46.3788H179.889V44.2709L177.777 44.2711V46.3788Z" fill="#0994DC"/>
<path d="M160.888 48.4862H162.999V46.378H160.888V48.4862Z" fill="#C5181D"/>
<path d="M177.777 48.4862H179.889V46.378H177.777V48.4862Z" fill="#0994DC"/>
<path d="M175.666 48.4862H177.777V46.378H175.666V48.4862Z" fill="#0994DC"/>
<path d="M173.555 48.4862H175.666V46.378H173.555V48.4862Z" fill="#0994DC"/>
<path d="M152.444 48.4862H154.555L154.555 46.378L152.444 46.378V48.4862Z" fill="#231F20"/>
<path d="M154.555 48.4862H156.667V46.378H154.555L154.555 48.4862Z" fill="#730B0E"/>
<path d="M156.667 48.4862H158.778V46.378H156.667V48.4862Z" fill="#9C1116"/>
<path d="M158.778 48.4862H160.889V46.378L158.778 46.378V48.4862Z" fill="#C5181D"/>
<path d="M175.666 23.189H177.777V21.0813L175.666 21.0811V23.189Z" fill="#F1511B"/>
<path d="M177.777 44.2711L179.889 44.2709V42.1626H177.777V44.2711Z" fill="#0994DC"/>
<path d="M175.666 27.4059L177.777 27.4057V25.2974H175.666V27.4059Z" fill="#C5181D"/>
<path d="M175.666 29.5135L177.777 29.5136V27.4057L175.666 27.4059V29.5135Z" fill="#C5181D"/>
<path d="M175.666 33.7302H177.777V31.622H175.666V33.7302Z" fill="#C5181D"/>
<path d="M175.666 31.622H177.777V29.5136L175.666 29.5135V31.622Z" fill="#C5181D"/>
<path d="M175.666 21.0811L177.777 21.0813V18.9729H175.666V21.0811Z" fill="#231F20"/>
<path d="M175.666 18.9735H177.777V16.8652L175.666 16.865V18.9735Z" fill="#231F20"/>
<path d="M173.555 46.3788H175.666V44.2709H173.555V46.3788Z" fill="#0994DC"/>
<path d="M171.443 46.3788H173.554V44.2709H171.443L171.443 46.3788Z" fill="#0994DC"/>
<path d="M175.666 46.3788H177.777V44.2711L175.666 44.2709V46.3788Z" fill="#0994DC"/>
<path d="M169.332 46.3788H171.443L171.443 44.2709H169.332V46.3788Z" fill="#231F20"/>
<path d="M179.889 50.5949H182V48.4862H179.889V50.5949Z" fill="#231F20"/>
<path d="M175.666 37.9458L177.777 37.9458V35.8381H175.666V37.9458Z" fill="#C5181D"/>
<path d="M175.666 40.0542L177.777 40.054V37.9458L175.666 37.9458V40.0542Z" fill="#FABC09"/>
<path d="M175.666 44.2709L177.777 44.2711V42.1626H175.666V44.2709Z" fill="#FABC09"/>
<path d="M175.666 35.8381H177.777V33.7296H175.666V35.8381Z" fill="#C5181D"/>
<path d="M175.666 25.2974H177.777V23.189H175.666V25.2974Z" fill="#231F20"/>
<path d="M152.444 6.32455H154.555L154.555 4.21687H152.444V6.32455Z" fill="#231F20"/>
<path d="M158.778 6.32455H160.889V4.21687H158.778L158.778 6.32455Z" fill="white"/>
<path d="M156.667 6.32383H158.778V4.21611H156.667V6.32383Z" fill="#231F20"/>
<path d="M154.555 6.32383H156.667V4.21611H154.555V6.32383Z" fill="#F1511B"/>
<path d="M162.999 6.32455H165.111V4.21687H162.999L162.999 6.32455Z" fill="#231F20"/>
<path d="M171.443 6.32455H173.554V4.21687H171.443V6.32455Z" fill="#F1511B"/>
<path d="M160.888 6.32455H162.999L162.999 4.21687H160.888V6.32455Z" fill="white"/>
<path d="M173.555 6.32455H175.666V4.21687H173.555V6.32455Z" fill="#231F20"/>
<path d="M169.332 6.32455H171.443V4.21687H169.332V6.32455Z" fill="#C5181D"/>
<path d="M165.111 6.32455H167.221V4.21687H165.111V6.32455Z" fill="white"/>
<path d="M167.222 6.32383H169.333V4.21611H167.222V6.32383Z" fill="#C5181D"/>
<path d="M175.666 42.1626H177.777L177.777 40.054L175.666 40.0542V42.1626Z" fill="#FABC09"/>
<path d="M169.332 50.5949H171.443V48.4862H169.332V50.5949Z" fill="#730B0E"/>
<path d="M165.111 50.5949H167.221V48.4862H165.111L165.111 50.5949Z" fill="#9C1116"/>
<path d="M167.222 50.5948H169.333L169.333 48.4862H167.222L167.222 50.5948Z" fill="#9C1116"/>
<path d="M162.999 50.5949H165.111L165.111 48.4862H162.999V50.5949Z" fill="#9C1116"/>
<path d="M160.888 50.5949H162.999V48.4862H160.888V50.5949Z" fill="#9C1116"/>
<path d="M175.666 50.5949H177.777V48.4862H175.666L175.666 50.5949Z" fill="#0994DC"/>
<path d="M177.777 50.5949H179.889V48.4862H177.777V50.5949Z" fill="#0994DC"/>
<path d="M158.778 50.5949H160.889V48.4862H158.778L158.778 50.5949Z" fill="#9C1116"/>
<path d="M173.555 50.5949H175.666L175.666 48.4862H173.555V50.5949Z" fill="#0D6AAA"/>
<path d="M171.443 50.5949H173.554V48.4862H171.443V50.5949Z" fill="#231F20"/>
<path d="M154.555 50.5948H156.667L156.667 48.4862H154.555L154.555 50.5948Z" fill="#231F20"/>
<path d="M156.667 50.5948L158.778 50.5949L158.778 48.4862H156.667L156.667 50.5948Z" fill="#9C1116"/>
<path d="M177.777 33.7302H179.889V31.6218L177.777 31.622V33.7302Z" fill="#C5181D"/>
<path d="M177.777 37.9458L179.889 37.9458V35.8381H177.777V37.9458Z" fill="#FABC09"/>
<path d="M177.777 35.8381H179.889V33.7296H177.777V35.8381Z" fill="#C5181D"/>
<path d="M177.777 40.054L179.889 40.0542V37.9458L177.777 37.9458V40.054Z" fill="#FABC09"/>
<path d="M177.777 27.4057H179.889V25.2974H177.777V27.4057Z" fill="#F1511B"/>
<path d="M177.777 25.2974H179.889V23.189L177.777 23.189V25.2974Z" fill="#231F20"/>
<path d="M177.777 23.189L179.889 23.189V21.0813H177.777V23.189Z" fill="#231F20"/>
<path d="M177.777 31.622L179.889 31.6218V29.5135L177.777 29.5136V31.622Z" fill="#C5181D"/>
<path d="M177.777 29.5136L179.889 29.5135L179.889 27.4057H177.777V29.5136Z" fill="#C5181D"/>
<path d="M179.889 27.4057H182V25.2974H179.889V27.4057Z" fill="#231F20"/>
<path d="M179.889 29.5135H182V27.4057H179.889L179.889 29.5135Z" fill="#231F20"/>
<path d="M177.777 42.1626H179.889V40.0542L177.777 40.054L177.777 42.1626Z" fill="#FABC09"/>
<path d="M154.555 4.21687L156.667 4.21668L156.667 2.10825L154.555 2.10844L154.555 4.21687Z" fill="#231F20"/>
<path d="M162.999 4.21687H165.111L165.111 2.10825H162.999L162.999 4.21687Z" fill="#F1511B"/>
<path d="M165.111 4.21687H167.221V2.10825H165.111L165.111 4.21687Z" fill="#F1511B"/>
<path d="M167.222 4.21668H169.333L169.333 2.10825H167.222L167.222 4.21668Z" fill="#F1511B"/>
<path d="M169.332 4.21687H171.443L171.443 2.10825H169.332V4.21687Z" fill="#F1511B"/>
<path d="M171.443 4.21687H173.554V2.10844L171.443 2.10825L171.443 4.21687Z" fill="#231F20"/>
<path d="M156.667 4.21668L158.778 4.21687L158.778 2.10825H156.667L156.667 4.21668Z" fill="#F1511B"/>
<path d="M158.778 4.21687L160.889 4.21668V2.10825H158.778L158.778 4.21687Z" fill="#F1511B"/>
<path d="M160.888 4.21687H162.999L162.999 2.10825H160.888V4.21687Z" fill="#F1511B"/>
<path d="M177.777 78H179.889V75.8923H177.777V78Z" fill="#231F20"/>
<path d="M173.555 78H175.666V75.8923H173.555V78Z" fill="#231F20"/>
<path d="M175.666 78H177.777V75.8923H175.666V78Z" fill="#231F20"/>
<path d="M160.888 78H162.999V75.8923H160.888V78Z" fill="#231F20"/>
<path d="M162.999 78H165.111V75.8923H162.999V78Z" fill="#BF5F22"/>
<path d="M165.111 78H167.221V75.8923H165.111V78Z" fill="#231F20"/>
<path d="M175.666 75.8923H177.777L177.777 73.7838H175.666L175.666 75.8923Z" fill="#C5181D"/>
<path d="M177.777 75.8923H179.889V73.7838H177.777L177.777 75.8923Z" fill="#C5181D"/>
<path d="M173.555 75.8923H175.666L175.666 73.7838H173.555V75.8923Z" fill="#C5181D"/>
<path d="M179.889 75.8923L182 75.8921V73.7838H179.889V75.8923Z" fill="#231F20"/>
<path d="M171.443 75.8921H173.554V73.7838H171.443V75.8921Z" fill="#231F20"/>
<path d="M162.999 75.8923H165.111V73.7838H162.999L162.999 75.8923Z" fill="#BF5F22"/>
<path d="M165.111 75.8923H167.221V73.7838H165.111V75.8923Z" fill="#231F20"/>
<path d="M160.888 75.8923H162.999L162.999 73.7838H160.888V75.8923Z" fill="#231F20"/>
<path d="M160.888 67.4593V69.5681L162.999 69.5675V67.4593H160.888Z" fill="#231F20"/>
<path d="M165.111 69.5675H167.221V67.4593H165.111V69.5675Z" fill="#231F20"/>
<path d="M162.999 69.5675L165.111 69.5675V67.4593H162.999V69.5675Z" fill="#BF5F22"/>
<path d="M171.443 69.5675H173.554V67.4593H171.443V69.5675Z" fill="#231F20"/>
<path d="M175.666 69.5675H177.777V67.4593H175.666V69.5675Z" fill="#0994DC"/>
<path d="M177.777 69.5675H179.889V67.4593H177.777V69.5675Z" fill="#C5181D"/>
<path d="M173.555 69.5675H175.666V67.4593H173.555V69.5675Z" fill="#C5181D"/>
<path d="M179.889 69.5675H182V67.4593H179.889V69.5675Z" fill="#231F20"/>
<path d="M175.666 67.4593H177.777L177.777 65.3514H175.666V67.4593Z" fill="#0994DC"/>
<path d="M173.555 67.4593H175.666V65.3514H173.555V67.4593Z" fill="#C5181D"/>
<path d="M171.443 67.4593H173.554V65.3514H171.443V67.4593Z" fill="#231F20"/>
<path d="M177.777 67.4593H179.889V65.3514H177.777L177.777 67.4593Z" fill="#C5181D"/>
<path d="M179.889 67.4593H182V65.3514H179.889V67.4593Z" fill="#231F20"/>
<path d="M165.111 67.4593H167.221V65.3514H165.111V67.4593Z" fill="#231F20"/>
<path d="M162.999 67.4593H165.111V65.3514H162.999L162.999 67.4593Z" fill="#BF5F22"/>
<path d="M160.888 67.4593H162.999L162.999 65.3514H160.888V67.4593Z" fill="#231F20"/>
<path d="M171.443 73.7844H173.554V71.6762H171.443V73.7844Z" fill="#231F20"/>
<path d="M160.888 73.7844H162.999V71.6762H160.888V73.7844Z" fill="#231F20"/>
<path d="M162.999 73.7844H165.111V71.6762H162.999V73.7844Z" fill="#BF5F22"/>
<path d="M165.111 73.7844H167.221V71.6762H165.111V73.7844Z" fill="#231F20"/>
<path d="M179.889 73.7844H182V71.6762H179.889V73.7844Z" fill="#231F20"/>
<path d="M173.555 73.7844H175.666V71.6762H173.555V73.7844Z" fill="#C5181D"/>
<path d="M175.666 73.7844H177.777V71.6762H175.666V73.7844Z" fill="#0994DC"/>
<path d="M177.777 73.7844H179.889V71.6762H177.777V73.7844Z" fill="#C5181D"/>
<path d="M165.111 71.6762H167.221V69.5675H165.111L165.111 71.6762Z" fill="#231F20"/>
<path d="M160.888 69.5681V71.6762H162.999V69.5675L160.888 69.5681Z" fill="#231F20"/>
<path d="M162.999 71.6762H165.111L165.111 69.5675L162.999 69.5675V71.6762Z" fill="#BF5F22"/>
<path d="M175.666 71.6762H177.777V69.5675H175.666L175.666 71.6762Z" fill="#0994DC"/>
<path d="M171.443 71.6762H173.554V69.5675H171.443V71.6762Z" fill="#231F20"/>
<path d="M177.777 71.6762H179.889L179.889 69.5675H177.777V71.6762Z" fill="#C5181D"/>
<path d="M179.889 71.6762H182V69.5675H179.889L179.889 71.6762Z" fill="#231F20"/>
<path d="M173.555 71.6762H175.666L175.666 69.5675H173.555V71.6762Z" fill="#C5181D"/>
<path d="M139.5 231H145V236.6H139.5V231Z" fill="#00874B"/>
<path d="M134 236.6H139.5V242.2H134V236.6Z" fill="#00874B"/>
<path d="M134 242.2H139.5V247.8H134V242.2Z" fill="#00874B"/>
<path d="M134 247.8H139.5V253.4H134V247.8Z" fill="#00874B"/>
<path d="M128.5 253.4H134V259H128.5V253.4Z" fill="#00874B"/>
<path d="M112 259H117.5V264.6H112V259Z" fill="#00874B"/>
<path d="M128.5 259H134V264.6H128.5V259Z" fill="#00874B"/>
<path d="M112 264.6H117.5V270.2H112V264.6Z" fill="#00874B"/>
<path d="M117.5 264.6H123V270.2H117.5V264.6Z" fill="#00874B"/>
<path d="M128.5 264.6H134V270.2H128.5V264.6Z" fill="#00695C"/>
<path d="M117.5 270.2H123V275.8H117.5V270.2Z" fill="#00874B"/>
<path d="M128.5 270.2H134V275.8H128.5V270.2Z" fill="#00695C"/>
<path d="M117.5 275.8H123V281.4H117.5V275.8Z" fill="#00695C"/>
<path d="M123 275.8H128.5V281.4H123V275.8Z" fill="#00695C"/>
<path d="M128.5 275.8H134V281.4H128.5V275.8Z" fill="#00695C"/>
<path d="M112 281.4H117.5V287H112V281.4Z" fill="#263238"/>
<path d="M117.5 281.4H123V287H117.5V281.4Z" fill="#263238"/>
<path d="M123 281.4H128.5V287H123V281.4Z" fill="#263238"/>
<path d="M128.5 281.4H134V287H128.5V281.4Z" fill="#263238"/>
<path d="M134 281.4H139.5V287H134V281.4Z" fill="#263238"/>
<path d="M37.889 234H43.7779V239.889H37.889V234Z" fill="#00874B"/>
<path d="M37.889 239.889H43.7779V245.778H37.889V239.889Z" fill="#00874B"/>
<path d="M43.7779 239.889L49.6669 239.889V245.778H43.7779V239.889Z" fill="#00874B"/>
<path d="M43.7779 245.778H49.6669V251.667H43.778L43.7779 245.778Z" fill="#00874B"/>
<path d="M49.6665 245.778H55.5554V251.667H49.6665V245.778Z" fill="#00874B"/>
<path d="M49.6665 251.667H55.5554V257.555H49.6665V251.667Z" fill="#00874B"/>
<path d="M73.2221 251.667H79.111V257.555H73.2221V251.667Z" fill="#00874B"/>
<path d="M32 257.556H37.8889V263.445H32V257.556Z" fill="#00874B"/>
<path d="M49.6665 257.555H55.5554V263.444H49.6665V257.555Z" fill="#00874B"/>
<path d="M67.3336 257.556H73.2225V263.444H67.3336V257.556Z" fill="#00874B"/>
<path d="M37.8889 263.445L43.7779 263.445V269.333H37.889L37.8889 263.445Z" fill="#00874B"/>
<path d="M49.6665 263.444H55.5554V269.333H49.6665V263.444Z" fill="#00874B"/>
<path d="M61.4445 263.445L67.3336 263.444L67.3334 269.333H61.4445V263.445Z" fill="#00874B"/>
<path d="M79.1111 263.445H85V269.333H79.1111V263.445Z" fill="#00874B"/>
<path d="M37.889 269.333H43.7779V275.222H37.889V269.333Z" fill="#00695C"/>
<path d="M49.6665 269.333H55.5554V275.222H49.6665V269.333Z" fill="#00695C"/>
<path d="M61.4445 269.333H67.3334L67.3335 275.222H61.4446L61.4445 269.333Z" fill="#00695C"/>
<path d="M73.2221 269.334L79.1111 269.333L79.111 275.222H73.2221V269.334Z" fill="#00874B"/>
<path d="M79.1111 269.333H85V275.222H79.111L79.1111 269.333Z" fill="#00874B"/>
<path d="M43.778 275.222H49.6669V281.111H43.778V275.222Z" fill="#00695C"/>
<path d="M49.6665 275.222H55.5554V281.111H49.6665V275.222Z" fill="#00695C"/>
<path d="M55.5554 275.222H61.4444V281.111H55.5554V275.222Z" fill="#00695C"/>
<path d="M61.4444 275.222H67.3335V281.111H61.4444V275.222Z" fill="#00695C"/>
<path d="M67.3335 275.222H73.2225V281.111H67.3335V275.222Z" fill="#00695C"/>
<path d="M73.2221 275.222H79.111V281.111H73.2221V275.222Z" fill="#00695C"/>
<path d="M32 281.111H37.8889V287H32V281.111Z" fill="#263238"/>
<path d="M37.8889 281.111L43.778 281.111L43.7779 287H37.8889V281.111Z" fill="#263238"/>
<path d="M43.778 281.111H49.6669V287H43.7779L43.778 281.111Z" fill="#263238"/>
<path d="M49.6665 281.111H55.5554V287H49.6665V281.111Z" fill="#263238"/>
<path d="M55.5554 281.111H61.4444V287H55.5554V281.111Z" fill="#263238"/>
<path d="M61.4444 281.111H67.3335V287H61.4444V281.111Z" fill="#263238"/>
<path d="M67.3335 281.111H73.2225V287H67.3335V281.111Z" fill="#263238"/>
<path d="M73.2221 281.111H79.111V287H73.2221V281.111Z" fill="#263238"/>
<path d="M79.111 281.111L85 281.111V287H79.111V281.111Z" fill="#263238"/>
<path d="M182 245H188V251H182V245Z" fill="#00874B"/>
<path d="M176 251H182V257H176V251Z" fill="#00874B"/>
<path d="M176 257H182V263H176V257Z" fill="#00874B"/>
<path d="M152 263H158V269H152V263Z" fill="#00874B"/>
<path d="M170 263H176V269H170V263Z" fill="#00874B"/>
<path d="M158 269H164V275H158V269Z" fill="#00874B"/>
<path d="M170 269H176V275H170V269Z" fill="#00695C"/>
<path d="M158 275H164V281H158V275Z" fill="#00695C"/>
<path d="M170 275H176V281H170V275Z" fill="#00695C"/>
<path d="M152 281H158V287H152V281Z" fill="#263238"/>
<path d="M158 281H164V287H158V281Z" fill="#263238"/>
<path d="M164 281H170V287H164V281Z" fill="#263238"/>
<path d="M170 281H176V287H170V281Z" fill="#263238"/>
<path d="M176 281H182V287H176V281Z" fill="#263238"/>
</svg>
