<svg width="378" height="103" viewBox="0 0 378 103" fill="none" xmlns="http://www.w3.org/2000/svg">
<path fill-rule="evenodd" clip-rule="evenodd" d="M359.084 59.4335L369.215 61.7994L369.696 61.2082C372.91 57.261 375.344 52.6694 376.733 47.5818C382.32 27.1178 368.912 6.33941 346.785 1.17211C324.658 -3.9952 302.191 8.40529 296.604 28.8694C291.017 49.3335 304.425 70.1118 326.552 75.2791C331.504 76.4354 336.475 76.7121 341.271 76.2144C341.892 76.1499 342.511 76.0724 343.126 75.9822L343.911 75.867L346.502 66.378L354.211 68.1784L351.733 77.2526L364.115 80.1446L367.242 68.6938L357.196 66.3473L359.084 59.4335ZM345.629 65.0249L345.627 65.0301L342.938 74.8817C342.34 74.9692 341.74 75.0445 341.137 75.1072C341.74 75.0446 342.34 74.9694 342.938 74.8817L345.627 65.0302L345.629 65.0249ZM355.708 67.2469L355.674 67.3708L355.708 67.2469ZM355.733 67.1549L355.674 67.3708L355.733 67.1549ZM337.246 52.0405L347.258 54.3792L349.797 45.0836L359.835 47.4285C360.351 46.3141 360.78 45.1475 361.111 43.9337C364.52 31.4489 356.34 18.7723 342.84 15.6198C329.341 12.4674 315.635 20.0327 312.226 32.5175C308.817 45.0023 316.997 57.6789 330.497 60.8314C331.89 61.1568 333.286 61.368 334.671 61.4714L337.246 52.0405ZM52.4042 10.4308L49.7509 1.16841L7.3617 11.5548L10.015 20.8172L0 23.2712L16.5369 80.9998L38.896 75.5212L33.5894 56.9964L63.6345 49.6346L60.9812 40.3722L70.9962 37.9182L62.4192 7.97691L52.4042 10.4308ZM17.3929 79.6372L17.393 79.6374L37.423 74.7296L32.1164 56.2047L62.1614 48.8429L59.5081 39.5805L69.5231 37.1266L61.5632 9.33927L61.563 9.33931L64.2163 18.6016L66.8696 27.864L69.5229 37.1264L59.5079 39.5804L62.1612 48.8428L52.1462 51.2967L42.1312 53.7506L32.1162 56.2046L34.7695 65.467L37.4228 74.7294L27.4078 77.1834L17.3929 79.6372ZM51.5481 11.793L48.8948 2.53077L48.8947 2.53081L51.548 11.7931L51.5481 11.793ZM108.399 24.4421L85.9053 19.4576L80.5158 40.2611L90.5912 42.4937L88.1771 51.812L98.2525 54.0446L96.3998 61.1958L86.3245 58.9632L83.9104 68.2814L73.8351 66.0488L68.4456 86.8523L90.9394 91.8368L95.7675 73.2003L105.843 75.433L108.257 66.1147L115.989 67.8281L113.575 77.1464L123.65 79.379L118.822 98.0155L141.316 103L146.706 82.1965L136.63 79.9639L139.044 70.6456L128.969 68.413L130.822 61.2618L140.897 63.4944L143.311 54.1762L153.386 56.4088L158.776 35.6053L136.282 30.6208L131.454 49.2573L121.379 47.0246L118.965 56.3429L111.232 54.6294L113.646 45.3112L103.571 43.0785L108.399 24.4421ZM90.0484 90.4935L92.4624 81.1753L94.8765 71.857L94.8766 71.8572L90.0486 90.4937L90.0484 90.4935ZM104.952 74.0897L107.366 64.7714L107.366 64.7716L104.952 74.0898L104.952 74.0897ZM140.425 101.657L140.425 101.657L142.839 92.3385L140.425 101.657ZM135.178 80.7878L137.592 71.4695L137.592 71.4694L135.178 80.7876L135.178 80.7878ZM145.253 83.0203L145.253 83.0204L142.839 92.3385L145.253 83.0203ZM129.931 59.9186L127.517 69.2369L127.517 69.2367L129.931 59.9185L129.931 59.9186ZM140.006 62.1511L142.42 52.8329L142.42 52.833L140.006 62.1513L140.006 62.1511ZM152.495 55.0655L152.496 55.0657L154.91 45.7473L157.324 36.4292L157.324 36.4291L154.91 45.7473L152.495 55.0655ZM109.78 55.4533L112.194 46.1351L112.194 46.135L109.78 55.4532L109.78 55.4533ZM102.119 43.9025L106.947 25.266L106.947 25.2658L104.533 34.5841L102.119 43.9023L102.119 43.9025ZM164.21 66.7873L165.897 77.6025L229.213 69.1522L226.851 54.0108L190.21 58.901L219.414 13.4813L217.739 2.74865L158.387 10.67L160.723 25.6434L193.309 21.2944L164.21 66.7873ZM227.848 68.2085L166.918 76.3405L166.918 76.3406L227.849 68.2086L227.848 68.2085ZM187.885 60.3369L218.161 13.2505L218.161 13.2503L187.885 60.3369L187.885 60.3369ZM161.743 24.3816L161.743 24.3814L195.627 19.8592L195.627 19.8594L161.743 24.3816ZM40.6771 15.6095L48.02 41.2427L30.319 45.5799L22.9762 19.9467L40.6771 15.6095ZM29.463 46.9421L21.5031 19.155L41.533 14.2472L41.5329 14.247L31.5179 16.7009L21.5029 19.1549L24.1562 28.4173L26.8095 37.6797L29.4629 46.9421L29.463 46.9421ZM265.543 96.3423C282.576 96.3423 296.384 83.5721 296.384 67.8192C296.384 52.0664 282.576 39.2961 265.543 39.2961C248.51 39.2961 234.703 52.0664 234.703 67.8192C234.703 83.5721 248.51 96.3423 265.543 96.3423ZM280.241 67.8192C280.241 75.3265 273.66 81.4123 265.543 81.4123C257.426 81.4123 250.846 75.3265 250.846 67.8192C250.846 60.312 257.426 54.2262 265.543 54.2262C273.66 54.2262 280.241 60.312 280.241 67.8192ZM256 56.0537C252.139 58.737 249.641 63.0082 249.641 67.8191C249.641 69.8498 250.086 71.7844 250.891 73.544C250.086 71.7844 249.641 69.8499 249.641 67.8192C249.641 63.0084 252.139 58.737 256 56.0537Z" fill="#FED001"/>
</svg>
