<svg width="125" height="200" viewBox="0 0 125 200" fill="none" xmlns="http://www.w3.org/2000/svg">
<path d="M53.7012 0H58.1456V4.44444H53.7012V0Z" fill="#263238"/>
<path d="M58.1445 0H62.589V4.44444H58.1445V0Z" fill="#263238"/>
<path d="M62.589 0H67.0343V4.44444H62.589V0Z" fill="#263238"/>
<path d="M67.0332 0H71.4776V4.44444H67.0332V0Z" fill="#263238"/>
<path d="M71.4776 0H75.9227V4.44444H71.4776V0Z" fill="#263238"/>
<path d="M49.2561 4.44444H53.7012L53.7005 8.88889H49.2561V4.44444Z" fill="#263238"/>
<path d="M53.7012 4.44444H58.1456V8.88878L53.7005 8.88889L53.7012 4.44444Z" fill="#13B26B"/>
<path d="M58.1445 4.44444H62.589V8.88878H58.1445V4.44444Z" fill="#13B26B"/>
<path d="M62.589 4.44444H67.0343V8.88878H62.589V4.44444Z" fill="#13B26B"/>
<path d="M67.0332 4.44444H71.4776V8.88878H67.0332V4.44444Z" fill="#13B26B"/>
<path d="M71.4776 4.44444H75.9227V8.88889L71.4776 8.88878V4.44444Z" fill="#13B26B"/>
<path d="M75.9227 4.44444L80.3663 4.44434V8.88878L75.9227 8.88889V4.44444Z" fill="#263238"/>
<path d="M44.8125 8.88867L49.2561 8.88889L49.2569 13.3331H44.8125V8.88867Z" fill="#263238"/>
<path d="M49.2561 8.88889H53.7005V13.3333L49.2569 13.3331L49.2561 8.88889Z" fill="#13B26B"/>
<path d="M53.7005 8.88889L58.1456 8.88878V13.3331L53.7005 13.3333V8.88889Z" fill="#13B26B"/>
<path d="M58.1445 8.88878H62.589V13.3331H58.1445V8.88878Z" fill="#00874B"/>
<path d="M62.589 8.88878H67.0343V13.3331H62.589V8.88878Z" fill="#00874B"/>
<path d="M67.0332 8.88878H71.4776V13.3331H67.0332V8.88878Z" fill="#00874B"/>
<path d="M71.4776 8.88878L75.9227 8.88889V13.3333L71.4776 13.3331V8.88878Z" fill="#13B26B"/>
<path d="M75.9227 8.88889L80.3663 8.88878V13.3331L75.9227 13.3333V8.88889Z" fill="#13B26B"/>
<path d="M80.3663 8.88878L84.8116 8.88889V13.3333L80.3663 13.3331V8.88878Z" fill="#263238"/>
<path d="M44.8125 13.3331H49.2569V17.7775H44.8125V13.3331Z" fill="#263238"/>
<path d="M49.2559 13.333L53.7005 13.3333L53.7003 17.7775H49.2559V13.333Z" fill="#13B26B"/>
<path d="M53.7005 13.3333L58.1456 13.3331V17.7775H53.7003L53.7005 13.3333Z" fill="#00874B"/>
<path d="M58.1445 13.3331H62.589V17.7775H58.1445V13.3331Z" fill="#13B26B"/>
<path d="M62.589 13.3331H67.0343V17.7775H62.589V13.3331Z" fill="#13B26B"/>
<path d="M67.0332 13.3331H71.4776V17.7775H67.0332V13.3331Z" fill="#00874B"/>
<path d="M71.4776 13.3331L75.9227 13.3333L75.923 17.7775H71.4776V13.3331Z" fill="#00874B"/>
<path d="M75.9227 13.3333L80.3663 13.3331V17.7775H75.9219L75.9227 13.3333Z" fill="#13B26B"/>
<path d="M80.3663 13.3331L84.8116 13.3333V17.7775H80.3663V13.3331Z" fill="#263238"/>
<path d="M44.8125 17.7775H49.2569V22.2218H44.8125V17.7775Z" fill="#263238"/>
<path d="M49.2559 17.7775H53.7003V22.2218H49.2559V17.7775Z" fill="#00874B"/>
<path d="M53.7003 17.7775H58.1456V22.2218H53.7003V17.7775Z" fill="#00874B"/>
<path d="M58.1445 17.7775H62.589V22.2218H58.1445V17.7775Z" fill="#00874B"/>
<path d="M62.589 17.7775H67.0343V22.2218H62.589V17.7775Z" fill="#00874B"/>
<path d="M67.0332 17.7775H71.4776V22.2218H67.0332V17.7775Z" fill="#00874B"/>
<path d="M71.4776 17.7775H75.923V22.2218H71.4776V17.7775Z" fill="#00874B"/>
<path d="M75.9219 17.7775H80.3663V22.2218H75.9219V17.7775Z" fill="#00874B"/>
<path d="M80.3663 17.7775H84.8116V22.2218H80.3663V17.7775Z" fill="#263238"/>
<path d="M44.8125 22.2218H49.2569V26.6671H44.8125V22.2218Z" fill="#263238"/>
<path d="M49.2559 22.2218H53.7003V26.6671H49.2559V22.2218Z" fill="#00695C"/>
<path d="M53.7012 22.2227L58.1456 22.2218V26.6671H53.7003L53.7012 22.2227Z" fill="#00874B"/>
<path d="M58.1445 22.2218H62.589V26.6671H58.1445V22.2218Z" fill="#00874B"/>
<path d="M62.5898 22.2227L67.0343 22.2218V26.6671H62.589L62.5898 22.2227Z" fill="#00874B"/>
<path d="M67.0332 22.2218H71.4776V26.6671H67.0332V22.2218Z" fill="#00874B"/>
<path d="M71.4785 22.2227L75.923 22.2218V26.6671H71.4776L71.4785 22.2227Z" fill="#00874B"/>
<path d="M75.9219 22.2218H80.3663V26.6671H75.9219V22.2218Z" fill="#00695C"/>
<path d="M80.3672 22.2227L84.8116 22.2218V26.6671H80.3663L80.3672 22.2227Z" fill="#263238"/>
<path d="M44.8125 26.6671H49.2569V31.1114H44.8125V26.6671Z" fill="#263238"/>
<path d="M49.2559 26.6671H53.7003V31.1114H49.2559V26.6671Z" fill="#00695C"/>
<path d="M53.7003 26.6671H58.1456V31.1114H53.7003V26.6671Z" fill="#00695C"/>
<path d="M58.1445 26.6671H62.589V31.1114H58.1445V26.6671Z" fill="#00874B"/>
<path d="M62.589 26.6671H67.0343V31.1114H62.589V26.6671Z" fill="#00874B"/>
<path d="M67.0332 26.6671H71.4776V31.1114H67.0332V26.6671Z" fill="#00874B"/>
<path d="M71.4776 26.6671H75.923V31.1114H71.4776V26.6671Z" fill="#00874B"/>
<path d="M75.9219 26.6671H80.3663V31.1114H75.9219V26.6671Z" fill="#00695C"/>
<path d="M80.3663 26.6671H84.8116V31.1114H80.3663V26.6671Z" fill="#263238"/>
<path d="M84.8116 26.6671L89.2569 26.667V31.1114H84.8116V26.6671Z" fill="#263238"/>
<path d="M89.2559 26.667H93.7003V31.1114H89.2559V26.667Z" fill="#263238"/>
<path d="M93.7003 26.667H98.1456V31.1114H93.7003V26.667Z" fill="#263238"/>
<path d="M98.1445 26.667H102.589V31.1114H98.1445V26.667Z" fill="#263238"/>
<path d="M102.589 26.667H107.034V31.1114H102.589V26.667Z" fill="#263238"/>
<path d="M35.9219 31.1113H40.3663V35.5558H35.9219V31.1113Z" fill="#263238"/>
<path d="M40.3663 31.1113L44.8125 31.1114L44.8116 35.5556L40.3663 35.5558V31.1113Z" fill="#263238"/>
<path d="M44.8125 31.1114H49.2569V35.5558L44.8116 35.5556L44.8125 31.1114Z" fill="#263238"/>
<path d="M49.2559 31.1114H53.7003L53.7005 35.5556L49.2569 35.5558L49.2559 31.1114Z" fill="#263238"/>
<path d="M53.7003 31.1114H58.1456V35.5558L53.7005 35.5556L53.7003 31.1114Z" fill="#00695C"/>
<path d="M58.1445 31.1114H62.589V35.5558H58.1445V31.1114Z" fill="#00695C"/>
<path d="M62.589 31.1114H67.0343V35.5558H62.589V31.1114Z" fill="#00874B"/>
<path d="M67.0332 31.1114H71.4776V35.5558H67.0332V31.1114Z" fill="#00695C"/>
<path d="M71.4776 31.1114H75.9219L75.9227 35.5556L71.4776 35.5558V31.1114Z" fill="#00695C"/>
<path d="M75.9219 31.1114H80.3663V35.5558L75.9227 35.5556L75.9219 31.1114Z" fill="#00695C"/>
<path d="M80.3663 31.1114H84.8116V35.5556L80.3663 35.5558V31.1114Z" fill="#13B26B"/>
<path d="M84.8116 31.1114H89.2569V35.5558L84.8116 35.5556V31.1114Z" fill="#13B26B"/>
<path d="M89.2559 31.1114H93.7003L93.7005 35.5556L89.2569 35.5558L89.2559 31.1114Z" fill="#13B26B"/>
<path d="M93.7003 31.1114H98.1456V35.5558L93.7005 35.5556L93.7003 31.1114Z" fill="#13B26B"/>
<path d="M98.1445 31.1114H102.589V35.5558H98.1445V31.1114Z" fill="#13B26B"/>
<path d="M102.589 31.1114H107.034V35.5558H102.589V31.1114Z" fill="#13B26B"/>
<path d="M107.033 31.1113H111.478V35.5558H107.033V31.1113Z" fill="#263238"/>
<path d="M31.4783 35.5556L35.9219 35.5558L35.9227 40H31.4783V35.5556Z" fill="#263238"/>
<path d="M35.9219 35.5558H40.3663V40.0001L35.9227 40L35.9219 35.5558Z" fill="#13B26B"/>
<path d="M40.3663 35.5558L44.8116 35.5556V40L40.3663 40.0001V35.5558Z" fill="#13B26B"/>
<path d="M44.8116 35.5556L49.2569 35.5558V40.0001L44.8116 40V35.5556Z" fill="#13B26B"/>
<path d="M49.2569 35.5558L53.7005 35.5556V40L49.2569 40.0001V35.5558Z" fill="#13B26B"/>
<path d="M53.7005 35.5556L58.1456 35.5558V40.0001L53.7005 40V35.5556Z" fill="#13B26B"/>
<path d="M58.1445 35.5558H62.589V40.0001H58.1445V35.5558Z" fill="#00695C"/>
<path d="M62.589 35.5558H67.0343V40.0001H62.589V35.5558Z" fill="#00695C"/>
<path d="M67.0332 35.5558H71.4776V40.0001H67.0332V35.5558Z" fill="#00695C"/>
<path d="M71.4776 35.5558L75.9227 35.5556V40L71.4776 40.0001V35.5558Z" fill="#00695C"/>
<path d="M75.9227 35.5556L80.3663 35.5558V40.0001L75.9227 40V35.5556Z" fill="#00695C"/>
<path d="M80.3663 35.5558L84.8116 35.5556V40L80.3663 40.0001V35.5558Z" fill="#13B26B"/>
<path d="M84.8116 35.5556L89.2569 35.5558V40.0001L84.8116 40V35.5556Z" fill="#13B26B"/>
<path d="M89.2569 35.5558L93.7005 35.5556V40L89.2569 40.0001V35.5558Z" fill="#00874B"/>
<path d="M93.7005 35.5556L98.1456 35.5558V40.0001L93.7005 40V35.5556Z" fill="#00874B"/>
<path d="M98.1445 35.5558H102.589V40.0001H98.1445V35.5558Z" fill="#00874B"/>
<path d="M102.589 35.5558H107.034V40.0001H102.589V35.5558Z" fill="#13B26B"/>
<path d="M107.033 35.5558H111.478V40.0001H107.033V35.5558Z" fill="#13B26B"/>
<path d="M111.478 35.5558L115.923 35.5556V40L111.478 40.0001V35.5558Z" fill="#263238"/>
<path d="M27.0332 40H31.4783L31.4776 44.4444H27.0332V40Z" fill="#263238"/>
<path d="M31.4783 40H35.9227V44.4444H31.4776L31.4783 40Z" fill="#13B26B"/>
<path d="M35.9227 40L40.3663 40.0001V44.4444H35.9227V40Z" fill="#13B26B"/>
<path d="M40.3663 40.0001L44.8116 40V44.4444H40.3663V40.0001Z" fill="#00874B"/>
<path d="M44.8116 40L49.2569 40.0001V44.4444H44.8116V40Z" fill="#00874B"/>
<path d="M49.2569 40.0001L53.7005 40V44.4444H49.2569V40.0001Z" fill="#00874B"/>
<path d="M53.7005 40L58.1456 40.0001V44.4444H53.7005V40Z" fill="#00874B"/>
<path d="M58.1445 40.0001H62.589V44.4444H58.1445V40.0001Z" fill="#13B26B"/>
<path d="M62.589 40.0001H67.0343V44.4444H62.589V40.0001Z" fill="#00695C"/>
<path d="M67.0332 40.0001H71.4776V44.4444H67.0332V40.0001Z" fill="#4E342E"/>
<path d="M71.4776 40.0001L75.9227 40V44.4444H71.4776V40.0001Z" fill="#263238"/>
<path d="M75.9227 40L80.3663 40.0001V44.4444H75.9227V40Z" fill="#13B26B"/>
<path d="M80.3663 40.0001L84.8116 40V44.4444H80.3663V40.0001Z" fill="#00695C"/>
<path d="M84.8116 40L89.2569 40.0001V44.4444H84.8116V40Z" fill="#00874B"/>
<path d="M89.2569 40.0001L93.7005 40V44.4444H89.2569V40.0001Z" fill="#00874B"/>
<path d="M93.7005 40L98.1456 40.0001V44.4444H93.7005V40Z" fill="#13B26B"/>
<path d="M98.1445 40.0001H102.589V44.4444H98.1445V40.0001Z" fill="#13B26B"/>
<path d="M102.589 40.0001H107.034V44.4444H102.589V40.0001Z" fill="#00874B"/>
<path d="M107.033 40.0001H111.478V44.4444H107.033V40.0001Z" fill="#13B26B"/>
<path d="M111.478 40.0001L115.923 40V44.4444H111.478V40.0001Z" fill="#263238"/>
<path d="M22.5898 44.4443H27.0343V48.8888H22.5898V44.4443Z" fill="#263238"/>
<path d="M27.0332 44.4444H31.4776V48.8888H27.0332V44.4444Z" fill="#13B26B"/>
<path d="M31.4776 44.4444H35.9227V48.8889L31.4776 48.8888V44.4444Z" fill="#13B26B"/>
<path d="M35.9227 44.4444H40.3663V48.8888L35.9227 48.8889V44.4444Z" fill="#00874B"/>
<path d="M40.3663 44.4444H44.8116V48.8889L40.3663 48.8888V44.4444Z" fill="#00874B"/>
<path d="M44.8116 44.4444H49.2569V48.8888L44.8116 48.8889V44.4444Z" fill="#13B26B"/>
<path d="M49.2569 44.4444H53.7005V48.8889L49.2569 48.8888V44.4444Z" fill="#13B26B"/>
<path d="M53.7005 44.4444H58.1456V48.8888L53.7005 48.8889V44.4444Z" fill="#00874B"/>
<path d="M58.1445 44.4444H62.589V48.8888H58.1445V44.4444Z" fill="#13B26B"/>
<path d="M62.589 44.4444H67.0343V48.8888H62.589V44.4444Z" fill="#00695C"/>
<path d="M67.0332 44.4444H71.4776V48.8888H67.0332V44.4444Z" fill="#4E342E"/>
<path d="M71.4776 44.4444H75.9227V48.8889L71.4776 48.8888V44.4444Z" fill="#263238"/>
<path d="M75.9227 44.4444H80.3663V48.8888L75.9227 48.8889V44.4444Z" fill="#00874B"/>
<path d="M80.3663 44.4444H84.8116V48.8889L80.3663 48.8888V44.4444Z" fill="#00874B"/>
<path d="M84.8116 44.4444H89.2569V48.8888L84.8116 48.8889V44.4444Z" fill="#00874B"/>
<path d="M89.2569 44.4444H93.7005V48.8889L89.2569 48.8888V44.4444Z" fill="#00874B"/>
<path d="M93.7005 44.4444H98.1456V48.8888L93.7005 48.8889V44.4444Z" fill="#00874B"/>
<path d="M98.1445 44.4444H102.589V48.8888H98.1445V44.4444Z" fill="#00874B"/>
<path d="M102.589 44.4444H107.034V48.8888H102.589V44.4444Z" fill="#00874B"/>
<path d="M107.033 44.4444H111.478V48.8888H107.033V44.4444Z" fill="#00695C"/>
<path d="M111.478 44.4444H115.923V48.8889L111.478 48.8888V44.4444Z" fill="#263238"/>
<path d="M22.5898 48.8888H27.0343V53.3331H22.5898V48.8888Z" fill="#263238"/>
<path d="M27.0332 48.8888H31.4776V53.3331H27.0332V48.8888Z" fill="#13B26B"/>
<path d="M31.4776 48.8888L35.9227 48.8889V53.3333L31.4776 53.3331V48.8888Z" fill="#00874B"/>
<path d="M35.9227 48.8889L40.3663 48.8888V53.3331L35.9227 53.3333V48.8889Z" fill="#00874B"/>
<path d="M40.3663 48.8888L44.8116 48.8889V53.3333L40.3663 53.3331V48.8888Z" fill="#00874B"/>
<path d="M44.8116 48.8889L49.2569 48.8888V53.3331L44.8116 53.3333V48.8889Z" fill="#00874B"/>
<path d="M49.2569 48.8888L53.7005 48.8889V53.3333L49.2569 53.3331V48.8888Z" fill="#00874B"/>
<path d="M53.7005 48.8889L58.1456 48.8888V53.3331L53.7005 53.3333V48.8889Z" fill="#00874B"/>
<path d="M58.1445 48.8888H62.589V53.3331H58.1445V48.8888Z" fill="#00874B"/>
<path d="M62.589 48.8888H67.0343V53.3331H62.589V48.8888Z" fill="#13B26B"/>
<path d="M67.0332 48.8888H71.4776V53.3331H67.0332V48.8888Z" fill="#6D4C41"/>
<path d="M71.4776 48.8888L75.9227 48.8889V53.3333L71.4776 53.3331V48.8888Z" fill="#263238"/>
<path d="M75.9227 48.8889L80.3663 48.8888V53.3331L75.9227 53.3333V48.8889Z" fill="#00695C"/>
<path d="M80.3663 48.8888L84.8116 48.8889V53.3333L80.3663 53.3331V48.8888Z" fill="#00874B"/>
<path d="M84.8116 48.8889L89.2569 48.8888V53.3331L84.8116 53.3333V48.8889Z" fill="#00874B"/>
<path d="M89.2569 48.8888L93.7005 48.8889V53.3333L89.2569 53.3331V48.8888Z" fill="#00874B"/>
<path d="M93.7005 48.8889L98.1456 48.8888V53.3331L93.7005 53.3333V48.8889Z" fill="#00874B"/>
<path d="M98.1445 48.8888H102.589V53.3331H98.1445V48.8888Z" fill="#00874B"/>
<path d="M102.589 48.8888H107.034V53.3331H102.589V48.8888Z" fill="#00874B"/>
<path d="M107.033 48.8888H111.478V53.3331H107.033V48.8888Z" fill="#00695C"/>
<path d="M111.478 48.8888L115.923 48.8889V53.3333L111.478 53.3331V48.8888Z" fill="#263238"/>
<path d="M22.5898 53.3331H27.0343V57.7775H22.5898V53.3331Z" fill="#263238"/>
<path d="M27.0332 53.3331H31.4776V57.7775H27.0332V53.3331Z" fill="#00695C"/>
<path d="M31.4776 53.3331L35.9227 53.3333L35.923 57.7775H31.4776V53.3331Z" fill="#00874B"/>
<path d="M35.9227 53.3333L40.3663 53.3331V57.7775H35.9219L35.9227 53.3333Z" fill="#00874B"/>
<path d="M40.3663 53.3331L44.8116 53.3333V57.7775H40.3663V53.3331Z" fill="#00874B"/>
<path d="M44.8116 53.3333L49.2569 53.3331V57.7775H44.8116V53.3333Z" fill="#00874B"/>
<path d="M49.2559 53.333L53.7005 53.3333L53.7003 57.7775H49.2559V53.333Z" fill="#00874B"/>
<path d="M53.7005 53.3333L58.1456 53.3331V57.7775H53.7003L53.7005 53.3333Z" fill="#00874B"/>
<path d="M58.1445 53.3331H62.589V57.7775H58.1445V53.3331Z" fill="#00695C"/>
<path d="M62.589 53.3331H67.0343V57.7775H62.589V53.3331Z" fill="#00695C"/>
<path d="M67.0332 53.3331H71.4776V57.7775H67.0332V53.3331Z" fill="#6D4C41"/>
<path d="M71.4776 53.3331L75.9227 53.3333L75.923 57.7775H71.4776V53.3331Z" fill="#263238"/>
<path d="M75.9227 53.3333L80.3663 53.3331V57.7775H75.9219L75.9227 53.3333Z" fill="#00695C"/>
<path d="M80.3663 53.3331L84.8116 53.3333V57.7775H80.3663V53.3331Z" fill="#00695C"/>
<path d="M84.8116 53.3333L89.2569 53.3331V57.7775H84.8116V53.3333Z" fill="#00874B"/>
<path d="M89.2559 53.333L93.7005 53.3333L93.7003 57.7775H89.2559V53.333Z" fill="#00874B"/>
<path d="M93.7005 53.3333L98.1456 53.3331V57.7775H93.7003L93.7005 53.3333Z" fill="#00874B"/>
<path d="M98.1445 53.3331H102.589V57.7775H98.1445V53.3331Z" fill="#00874B"/>
<path d="M102.589 53.3331H107.034V57.7775H102.589V53.3331Z" fill="#00695C"/>
<path d="M107.033 53.3331H111.478V57.7775H107.033V53.3331Z" fill="#00695C"/>
<path d="M111.478 53.3331L115.923 53.3333L115.923 57.7775H111.478V53.3331Z" fill="#263238"/>
<path d="M22.5898 57.7775H27.0343V62.2218H22.5898V57.7775Z" fill="#263238"/>
<path d="M27.0332 57.7775H31.4776V62.2218H27.0332V57.7775Z" fill="#00695C"/>
<path d="M31.4776 57.7775H35.923V62.2218H31.4776V57.7775Z" fill="#00874B"/>
<path d="M35.9219 57.7775H40.3663V62.2218H35.9219V57.7775Z" fill="#00874B"/>
<path d="M40.3663 57.7775H44.8116V62.2218H40.3663V57.7775Z" fill="#00874B"/>
<path d="M44.8116 57.7775H49.2569V62.2218H44.8116V57.7775Z" fill="#00874B"/>
<path d="M49.2559 57.7775H53.7003V62.2218H49.2559V57.7775Z" fill="#00874B"/>
<path d="M53.7003 57.7775H58.1456V62.2218H53.7003V57.7775Z" fill="#00874B"/>
<path d="M58.1445 57.7775H62.589V62.2218H58.1445V57.7775Z" fill="#00695C"/>
<path d="M62.589 57.7775H67.0343V62.2218H62.589V57.7775Z" fill="#263238"/>
<path d="M67.0332 57.7775H71.4776V62.2218H67.0332V57.7775Z" fill="#6D4C41"/>
<path d="M71.4776 57.7775H75.923V62.2218H71.4776V57.7775Z" fill="#263238"/>
<path d="M75.9219 57.7775H80.3663V62.2218H75.9219V57.7775Z" fill="#00695C"/>
<path d="M80.3663 57.7775H84.8116V62.2218H80.3663V57.7775Z" fill="#00695C"/>
<path d="M84.8116 57.7775H89.2569V62.2218H84.8116V57.7775Z" fill="#00695C"/>
<path d="M89.2559 57.7775H93.7003V62.2218H89.2559V57.7775Z" fill="#00874B"/>
<path d="M93.7003 57.7775H98.1456V62.2218H93.7003V57.7775Z" fill="#00695C"/>
<path d="M98.1445 57.7775H102.589V62.2218H98.1445V57.7775Z" fill="#00695C"/>
<path d="M102.589 57.7775H107.034V62.2218H102.589V57.7775Z" fill="#00695C"/>
<path d="M107.033 57.7775H111.478V62.2218H107.033V57.7775Z" fill="#00695C"/>
<path d="M111.478 57.7775H115.923V62.2218H111.478V57.7775Z" fill="#263238"/>
<path d="M22.5898 62.2218H27.0343V66.6671H22.5898V62.2218Z" fill="#263238"/>
<path d="M27.0332 62.2218H31.4776V66.6671H27.0332V62.2218Z" fill="#00695C"/>
<path d="M31.4785 62.2227L35.923 62.2218V66.6671H31.4776L31.4785 62.2227Z" fill="#00695C"/>
<path d="M35.9219 62.2218H40.3663V66.6671H35.9219V62.2218Z" fill="#00695C"/>
<path d="M40.3672 62.2227L44.8116 62.2218V66.6671H40.3663L40.3672 62.2227Z" fill="#00874B"/>
<path d="M44.8125 62.2227L49.2569 62.2218V66.6671H44.8116L44.8125 62.2227Z" fill="#00874B"/>
<path d="M49.2559 62.2218H53.7003V66.6671H49.2559V62.2218Z" fill="#00874B"/>
<path d="M53.7012 62.2227L58.1456 62.2218V66.6671H53.7003L53.7012 62.2227Z" fill="#00695C"/>
<path d="M58.1445 62.2218H62.589V66.6671H58.1445V62.2218Z" fill="#00695C"/>
<path d="M62.5898 62.2227L67.0343 62.2218V66.6671H62.589L62.5898 62.2227Z" fill="#263238"/>
<path d="M67.0332 62.2218H71.4776V66.6671H67.0332V62.2218Z" fill="#13B26B"/>
<path d="M71.4785 62.2227L75.923 62.2218V66.6671H71.4776L71.4785 62.2227Z" fill="#13B26B"/>
<path d="M75.9219 62.2218H80.3663V66.6671H75.9219V62.2218Z" fill="#13B26B"/>
<path d="M80.3672 62.2227L84.8116 62.2218V66.6671H80.3663L80.3672 62.2227Z" fill="#13B26B"/>
<path d="M84.8125 62.2227L89.2569 62.2218V66.6671H84.8116L84.8125 62.2227Z" fill="#00695C"/>
<path d="M89.2559 62.2218H93.7003V66.6671H89.2559V62.2218Z" fill="#00695C"/>
<path d="M93.7012 62.2227L98.1456 62.2218V66.6671H93.7003L93.7012 62.2227Z" fill="#00695C"/>
<path d="M98.1445 62.2218H102.589V66.6671H98.1445V62.2218Z" fill="#00695C"/>
<path d="M102.59 62.2227L107.034 62.2218V66.6671H102.589L102.59 62.2227Z" fill="#00695C"/>
<path d="M107.033 62.2218H111.478V66.6671H107.033V62.2218Z" fill="#263238"/>
<path d="M27.0332 66.6671H31.4776V71.1114H27.0332V66.6671Z" fill="#263238"/>
<path d="M31.4776 66.6671H35.923V71.1114H31.4776V66.6671Z" fill="#00695C"/>
<path d="M35.9219 66.6671H40.3663V71.1114H35.9219V66.6671Z" fill="#00695C"/>
<path d="M40.3663 66.6671H44.8116V71.1114H40.3663V66.6671Z" fill="#00695C"/>
<path d="M44.8116 66.6671H49.2569V71.1114H44.8116V66.6671Z" fill="#00874B"/>
<path d="M49.2559 66.6671H53.7003V71.1114H49.2559V66.6671Z" fill="#00695C"/>
<path d="M53.7003 66.6671H58.1456V71.1114H53.7003V66.6671Z" fill="#00695C"/>
<path d="M58.1445 66.6671H62.589V71.1114H58.1445V66.6671Z" fill="#263238"/>
<path d="M62.589 66.6671H67.0343V71.1114H62.589V66.6671Z" fill="#13B26B"/>
<path d="M67.0332 66.6671H71.4776V71.1114H67.0332V66.6671Z" fill="#13B26B"/>
<path d="M71.4776 66.6671H75.923V71.1114H71.4776V66.6671Z" fill="#13B26B"/>
<path d="M75.9219 66.6671H80.3663V71.1114H75.9219V66.6671Z" fill="#00874B"/>
<path d="M80.3663 66.6671H84.8116V71.1114H80.3663V66.6671Z" fill="#13B26B"/>
<path d="M84.8116 66.6671H89.2569V71.1114H84.8116V66.6671Z" fill="#13B26B"/>
<path d="M89.2559 66.6671H93.7003V71.1114H89.2559V66.6671Z" fill="#4E342E"/>
<path d="M93.7003 66.6671H98.1456V71.1114H93.7003V66.6671Z" fill="#263238"/>
<path d="M98.1445 66.6671H102.589V71.1114H98.1445V66.6671Z" fill="#263238"/>
<path d="M102.589 66.6671H107.034V71.1114H102.589V66.6671Z" fill="#263238"/>
<path d="M22.5898 71.1113H27.0343V75.5558H22.5898V71.1113Z" fill="#263238"/>
<path d="M27.0332 71.1114H31.4776V75.5558H27.0332V71.1114Z" fill="#263238"/>
<path d="M31.4776 71.1114H35.9219L35.9227 75.5556L31.4776 75.5558V71.1114Z" fill="#263238"/>
<path d="M35.9219 71.1114H40.3663V75.5558L35.9227 75.5556L35.9219 71.1114Z" fill="#00695C"/>
<path d="M40.3663 71.1114H44.8116V75.5556L40.3663 75.5558V71.1114Z" fill="#00695C"/>
<path d="M44.8116 71.1114H49.2569V75.5558L44.8116 75.5556V71.1114Z" fill="#00695C"/>
<path d="M49.2559 71.1114H53.7003L53.7005 75.5556L49.2569 75.5558L49.2559 71.1114Z" fill="#00695C"/>
<path d="M53.7003 71.1114H58.1456V75.5558L53.7005 75.5556L53.7003 71.1114Z" fill="#263238"/>
<path d="M58.1445 71.1114H62.589V75.5558H58.1445V71.1114Z" fill="#13B26B"/>
<path d="M62.589 71.1114H67.0343V75.5558H62.589V71.1114Z" fill="#00874B"/>
<path d="M67.0332 71.1114H71.4776V75.5558H67.0332V71.1114Z" fill="#00874B"/>
<path d="M71.4776 71.1114H75.9219L75.9227 75.5556L71.4776 75.5558V71.1114Z" fill="#00874B"/>
<path d="M75.9219 71.1114H80.3663V75.5558L75.9227 75.5556L75.9219 71.1114Z" fill="#00874B"/>
<path d="M80.3663 71.1114H84.8116V75.5556L80.3663 75.5558V71.1114Z" fill="#00874B"/>
<path d="M84.8116 71.1114H89.2569V75.5558L84.8116 75.5556V71.1114Z" fill="#00874B"/>
<path d="M89.2559 71.1114H93.7003L93.7005 75.5556L89.2569 75.5558L89.2559 71.1114Z" fill="#6D4C41"/>
<path d="M93.7003 71.1114H98.1456V75.5558L93.7005 75.5556L93.7003 71.1114Z" fill="#263238"/>
<path d="M18.1445 75.5557L22.5898 75.5558L22.589 80.0001H18.1445V75.5557Z" fill="#263238"/>
<path d="M22.5898 75.5558H27.0343V80.0001H22.589L22.5898 75.5558Z" fill="#13B26B"/>
<path d="M27.0332 75.5558H31.4776V80.0001H27.0332V75.5558Z" fill="#13B26B"/>
<path d="M31.4776 75.5558L35.9227 75.5556V80L31.4776 80.0001V75.5558Z" fill="#13B26B"/>
<path d="M35.9227 75.5556L40.3663 75.5558V80.0001L35.9227 80V75.5556Z" fill="#13B26B"/>
<path d="M40.3663 75.5558L44.8116 75.5556V80L40.3663 80.0001V75.5558Z" fill="#263238"/>
<path d="M44.8116 75.5556L49.2569 75.5558V80.0001L44.8116 80V75.5556Z" fill="#4E342E"/>
<path d="M49.2569 75.5558L53.7005 75.5556V80L49.2569 80.0001V75.5558Z" fill="#4E342E"/>
<path d="M53.7005 75.5556L58.1456 75.5558V80.0001L53.7005 80V75.5556Z" fill="#00695C"/>
<path d="M58.1445 75.5558H62.589V80.0001H58.1445V75.5558Z" fill="#13B26B"/>
<path d="M62.589 75.5558H67.0343V80.0001H62.589V75.5558Z" fill="#00874B"/>
<path d="M67.0332 75.5558H71.4776V80.0001H67.0332V75.5558Z" fill="#00874B"/>
<path d="M71.4776 75.5558L75.9227 75.5556V80L71.4776 80.0001V75.5558Z" fill="#00874B"/>
<path d="M75.9227 75.5556L80.3663 75.5558V80.0001L75.9227 80V75.5556Z" fill="#00874B"/>
<path d="M80.3663 75.5558L84.8116 75.5556V80L80.3663 80.0001V75.5558Z" fill="#00874B"/>
<path d="M84.8116 75.5556L89.2569 75.5558V80.0001L84.8116 80V75.5556Z" fill="#13B26B"/>
<path d="M89.2569 75.5558L93.7005 75.5556V80L89.2569 80.0001V75.5558Z" fill="#00695C"/>
<path d="M93.7005 75.5556L98.1456 75.5558V80.0001L93.7005 80V75.5556Z" fill="#263238"/>
<path d="M13.7012 80H18.1456V84.4444H13.7012V80Z" fill="#263238"/>
<path d="M18.1445 80.0001H22.589V84.4444H18.1445V80.0001Z" fill="#13B26B"/>
<path d="M22.589 80.0001H27.0343V84.4444H22.589V80.0001Z" fill="#13B26B"/>
<path d="M27.0332 80.0001H31.4776V84.4444H27.0332V80.0001Z" fill="#13B26B"/>
<path d="M31.4776 80.0001L35.9227 80V84.4444H31.4776V80.0001Z" fill="#00874B"/>
<path d="M35.9227 80L40.3663 80.0001V84.4444H35.9227V80Z" fill="#13B26B"/>
<path d="M40.3663 80.0001L44.8116 80V84.4444H40.3663V80.0001Z" fill="#13B26B"/>
<path d="M44.8116 80L49.2569 80.0001V84.4444H44.8116V80Z" fill="#13B26B"/>
<path d="M49.2569 80.0001L53.7005 80V84.4444H49.2569V80.0001Z" fill="#6D4C41"/>
<path d="M53.7005 80L58.1456 80.0001V84.4444H53.7005V80Z" fill="#13B26B"/>
<path d="M58.1445 80.0001H62.589V84.4444H58.1445V80.0001Z" fill="#00874B"/>
<path d="M62.589 80.0001H67.0343V84.4444H62.589V80.0001Z" fill="#00874B"/>
<path d="M67.0332 80.0001H71.4776V84.4444H67.0332V80.0001Z" fill="#00874B"/>
<path d="M71.4776 80.0001L75.9227 80V84.4444H71.4776V80.0001Z" fill="#00874B"/>
<path d="M75.9227 80L80.3663 80.0001V84.4444H75.9227V80Z" fill="#00874B"/>
<path d="M80.3663 80.0001L84.8116 80V84.4444H80.3663V80.0001Z" fill="#00874B"/>
<path d="M84.8116 80L89.2569 80.0001V84.4444H84.8116V80Z" fill="#00874B"/>
<path d="M89.2569 80.0001L93.7005 80V84.4444H89.2569V80.0001Z" fill="#00695C"/>
<path d="M93.7005 80L98.1456 80.0001V84.4444H93.7005V80Z" fill="#263238"/>
<path d="M98.1445 80H102.589V84.4444H98.1445V80Z" fill="#263238"/>
<path d="M102.589 80H107.034V84.4444H102.589V80Z" fill="#263238"/>
<path d="M107.033 80H111.478V84.4444H107.033V80Z" fill="#263238"/>
<path d="M9.25608 84.4444H13.7012L13.7005 88.8889H9.25608V84.4444Z" fill="#263238"/>
<path d="M13.7012 84.4444H18.1456V88.8888L13.7005 88.8889L13.7012 84.4444Z" fill="#00695C"/>
<path d="M18.1445 84.4444H22.589V88.8888H18.1445V84.4444Z" fill="#13B26B"/>
<path d="M22.589 84.4444H27.0343V88.8888H22.589V84.4444Z" fill="#00874B"/>
<path d="M27.0332 84.4444H31.4776V88.8888H27.0332V84.4444Z" fill="#00874B"/>
<path d="M31.4776 84.4444H35.9227V88.8889L31.4776 88.8888V84.4444Z" fill="#00874B"/>
<path d="M35.9227 84.4444H40.3663V88.8888L35.9227 88.8889V84.4444Z" fill="#00874B"/>
<path d="M40.3663 84.4444H44.8116V88.8889L40.3663 88.8888V84.4444Z" fill="#00874B"/>
<path d="M44.8116 84.4444H49.2569V88.8888L44.8116 88.8889V84.4444Z" fill="#13B26B"/>
<path d="M49.2569 84.4444H53.7005V88.8889L49.2569 88.8888V84.4444Z" fill="#13B26B"/>
<path d="M53.7005 84.4444H58.1456V88.8888L53.7005 88.8889V84.4444Z" fill="#00695C"/>
<path d="M58.1445 84.4444H62.589V88.8888H58.1445V84.4444Z" fill="#00695C"/>
<path d="M62.589 84.4444H67.0343V88.8888H62.589V84.4444Z" fill="#00874B"/>
<path d="M67.0332 84.4444H71.4776V88.8888H67.0332V84.4444Z" fill="#00874B"/>
<path d="M71.4776 84.4444H75.9227V88.8889L71.4776 88.8888V84.4444Z" fill="#00874B"/>
<path d="M75.9227 84.4444H80.3663V88.8888L75.9227 88.8889V84.4444Z" fill="#00874B"/>
<path d="M80.3663 84.4444H84.8116V88.8889L80.3663 88.8888V84.4444Z" fill="#00874B"/>
<path d="M84.8116 84.4444H89.2569V88.8888L84.8116 88.8889V84.4444Z" fill="#00874B"/>
<path d="M89.2569 84.4444H93.7005V88.8889L89.2569 88.8888V84.4444Z" fill="#13B26B"/>
<path d="M93.7005 84.4444H98.1456V88.8888L93.7005 88.8889V84.4444Z" fill="#13B26B"/>
<path d="M98.1445 84.4444H102.589V88.8888H98.1445V84.4444Z" fill="#13B26B"/>
<path d="M102.589 84.4444H107.034V88.8888H102.589V84.4444Z" fill="#13B26B"/>
<path d="M107.033 84.4444H111.478V88.8888H107.033V84.4444Z" fill="#13B26B"/>
<path d="M111.478 84.4444H115.923V88.8889L111.478 88.8888V84.4444Z" fill="#263238"/>
<path d="M9.25608 88.8889H13.7005V93.3333H9.25608V88.8889Z" fill="#263238"/>
<path d="M13.7005 88.8889L18.1456 88.8888V93.3331L13.7005 93.3333V88.8889Z" fill="#13B26B"/>
<path d="M18.1445 88.8888H22.589V93.3331H18.1445V88.8888Z" fill="#00874B"/>
<path d="M22.589 88.8888H27.0343V93.3331H22.589V88.8888Z" fill="#00874B"/>
<path d="M27.0332 88.8888H31.4776V93.3331H27.0332V88.8888Z" fill="#00874B"/>
<path d="M31.4776 88.8888L35.9227 88.8889V93.3333L31.4776 93.3331V88.8888Z" fill="#00874B"/>
<path d="M35.9227 88.8889L40.3663 88.8888V93.3331L35.9227 93.3333V88.8889Z" fill="#00874B"/>
<path d="M40.3663 88.8888L44.8116 88.8889V93.3333L40.3663 93.3331V88.8888Z" fill="#00874B"/>
<path d="M44.8116 88.8889L49.2569 88.8888V93.3331L44.8116 93.3333V88.8889Z" fill="#00874B"/>
<path d="M49.2569 88.8888L53.7005 88.8889V93.3333L49.2569 93.3331V88.8888Z" fill="#00874B"/>
<path d="M53.7005 88.8889L58.1456 88.8888V93.3331L53.7005 93.3333V88.8889Z" fill="#00695C"/>
<path d="M58.1445 88.8888H62.589V93.3331H58.1445V88.8888Z" fill="#00695C"/>
<path d="M62.589 88.8888H67.0343V93.3331H62.589V88.8888Z" fill="#00695C"/>
<path d="M67.0332 88.8888H71.4776V93.3331H67.0332V88.8888Z" fill="#00695C"/>
<path d="M71.4776 88.8888L75.9227 88.8889V93.3333L71.4776 93.3331V88.8888Z" fill="#00874B"/>
<path d="M75.9227 88.8889L80.3663 88.8888V93.3331L75.9227 93.3333V88.8889Z" fill="#00874B"/>
<path d="M80.3663 88.8888L84.8116 88.8889V93.3333L80.3663 93.3331V88.8888Z" fill="#00874B"/>
<path d="M84.8116 88.8889L89.2569 88.8888V93.3331L84.8116 93.3333V88.8889Z" fill="#00695C"/>
<path d="M89.2569 88.8888L93.7005 88.8889V93.3333L89.2569 93.3331V88.8888Z" fill="#13B26B"/>
<path d="M93.7005 88.8889L98.1456 88.8888V93.3331L93.7005 93.3333V88.8889Z" fill="#13B26B"/>
<path d="M98.1445 88.8888H102.589V93.3331H98.1445V88.8888Z" fill="#00874B"/>
<path d="M102.589 88.8888H107.034V93.3331H102.589V88.8888Z" fill="#00874B"/>
<path d="M107.033 88.8888H111.478V93.3331H107.033V88.8888Z" fill="#13B26B"/>
<path d="M111.478 88.8888L115.923 88.8889V93.3333L111.478 93.3331V88.8888Z" fill="#13B26B"/>
<path d="M115.923 88.8889L120.366 88.8887V93.3331L115.923 93.3333V88.8889Z" fill="#263238"/>
<path d="M9.25608 93.3333H13.7005L13.7003 97.7775H9.25586L9.25608 93.3333Z" fill="#263238"/>
<path d="M13.7005 93.3333L18.1456 93.3331V97.7775H13.7003L13.7005 93.3333Z" fill="#00695C"/>
<path d="M18.1445 93.3331H22.589V97.7775H18.1445V93.3331Z" fill="#00874B"/>
<path d="M22.589 93.3331H27.0343V97.7775H22.589V93.3331Z" fill="#00874B"/>
<path d="M27.0332 93.3331H31.4776V97.7775H27.0332V93.3331Z" fill="#00874B"/>
<path d="M31.4776 93.3331L35.9227 93.3333L35.923 97.7775H31.4776V93.3331Z" fill="#00874B"/>
<path d="M35.9227 93.3333L40.3663 93.3331V97.7775H35.9219L35.9227 93.3333Z" fill="#00874B"/>
<path d="M40.3663 93.3331L44.8116 93.3333V97.7775H40.3663V93.3331Z" fill="#00874B"/>
<path d="M44.8116 93.3333L49.2569 93.3331V97.7775H44.8116V93.3333Z" fill="#00874B"/>
<path d="M49.2559 93.333L53.7005 93.3333L53.7003 97.7775H49.2559V93.333Z" fill="#00695C"/>
<path d="M53.7005 93.3333L58.1456 93.3331V97.7775H53.7003L53.7005 93.3333Z" fill="#263238"/>
<path d="M58.1445 93.3331H62.589V97.7775H58.1445V93.3331Z" fill="#00695C"/>
<path d="M62.589 93.3331H67.0343V97.7775H62.589V93.3331Z" fill="#00695C"/>
<path d="M67.0332 93.3331H71.4776V97.7775H67.0332V93.3331Z" fill="#00695C"/>
<path d="M71.4776 93.3331L75.9227 93.3333L75.923 97.7775H71.4776V93.3331Z" fill="#00695C"/>
<path d="M75.9227 93.3333L80.3663 93.3331V97.7775H75.9219L75.9227 93.3333Z" fill="#00695C"/>
<path d="M80.3663 93.3331L84.8116 93.3333V97.7775H80.3663V93.3331Z" fill="#00695C"/>
<path d="M84.8116 93.3333L89.2569 93.3331V97.7775H84.8116V93.3333Z" fill="#00695C"/>
<path d="M89.2559 93.333L93.7005 93.3333L93.7003 97.7775H89.2559V93.333Z" fill="#13B26B"/>
<path d="M93.7005 93.3333L98.1456 93.3331V97.7775H93.7003L93.7005 93.3333Z" fill="#00874B"/>
<path d="M98.1445 93.3331H102.589V97.7775H98.1445V93.3331Z" fill="#00874B"/>
<path d="M102.589 93.3331H107.034V97.7775H102.589V93.3331Z" fill="#00874B"/>
<path d="M107.033 93.3331H111.478V97.7775H107.033V93.3331Z" fill="#13B26B"/>
<path d="M111.478 93.3331L115.923 93.3333L115.923 97.7775H111.478V93.3331Z" fill="#00874B"/>
<path d="M115.923 93.3333L120.366 93.3331V97.7775H115.922L115.923 93.3333Z" fill="#13B26B"/>
<path d="M120.366 93.3331L124.812 93.333V97.7775H120.366V93.3331Z" fill="#263238"/>
<path d="M9.25586 97.7775H13.7003V102.222H9.25586V97.7775Z" fill="#263238"/>
<path d="M13.7003 97.7775H18.1456V102.222H13.7003V97.7775Z" fill="#00695C"/>
<path d="M18.1445 97.7775H22.589V102.222H18.1445V97.7775Z" fill="#00695C"/>
<path d="M22.589 97.7775H27.0343V102.222H22.589V97.7775Z" fill="#00874B"/>
<path d="M27.0332 97.7775H31.4776V102.222H27.0332V97.7775Z" fill="#00874B"/>
<path d="M31.4776 97.7775H35.923V102.222H31.4776V97.7775Z" fill="#00874B"/>
<path d="M35.9219 97.7775H40.3663V102.222H35.9219V97.7775Z" fill="#00874B"/>
<path d="M40.3663 97.7775H44.8116V102.222H40.3663V97.7775Z" fill="#00874B"/>
<path d="M44.8116 97.7775H49.2569V102.222H44.8116V97.7775Z" fill="#00695C"/>
<path d="M49.2559 97.7775H53.7003V102.222H49.2559V97.7775Z" fill="#00695C"/>
<path d="M53.7003 97.7775H58.1456V102.222H53.7003V97.7775Z" fill="#263238"/>
<path d="M58.1445 97.7775H62.589V102.222H58.1445V97.7775Z" fill="#263238"/>
<path d="M62.589 97.7775H67.0343V102.222H62.589V97.7775Z" fill="#00695C"/>
<path d="M67.0332 97.7775H71.4776V102.222H67.0332V97.7775Z" fill="#00695C"/>
<path d="M71.4776 97.7775H75.923V102.222H71.4776V97.7775Z" fill="#00695C"/>
<path d="M75.9219 97.7775H80.3663V102.222H75.9219V97.7775Z" fill="#00695C"/>
<path d="M80.3663 97.7775H84.8116V102.222H80.3663V97.7775Z" fill="#13B26B"/>
<path d="M84.8116 97.7775H89.2569V102.222H84.8116V97.7775Z" fill="#13B26B"/>
<path d="M89.2559 97.7775H93.7003V102.222H89.2559V97.7775Z" fill="#00874B"/>
<path d="M93.7003 97.7775H98.1456V102.222H93.7003V97.7775Z" fill="#13B26B"/>
<path d="M98.1445 97.7775H102.589V102.222H98.1445V97.7775Z" fill="#00874B"/>
<path d="M102.589 97.7775H107.034V102.222H102.589V97.7775Z" fill="#00874B"/>
<path d="M107.033 97.7775H111.478V102.222H107.033V97.7775Z" fill="#00874B"/>
<path d="M111.478 97.7775H115.923V102.222H111.478V97.7775Z" fill="#13B26B"/>
<path d="M115.922 97.7775H120.366V102.222H115.922V97.7775Z" fill="#13B26B"/>
<path d="M120.366 97.7775H124.812V102.222H120.366V97.7775Z" fill="#263238"/>
<path d="M13.7012 102.223L18.1456 102.222V106.667H13.7012V102.223Z" fill="#263238"/>
<path d="M18.1445 102.222H22.589V106.667H18.1445V102.222Z" fill="#00695C"/>
<path d="M22.5898 102.223L27.0343 102.222V106.667H22.589L22.5898 102.223Z" fill="#00695C"/>
<path d="M27.0332 102.222H31.4776V106.667H27.0332V102.222Z" fill="#00874B"/>
<path d="M31.4785 102.223L35.923 102.222V106.667H31.4776L31.4785 102.223Z" fill="#00695C"/>
<path d="M35.9219 102.222H40.3663V106.667H35.9219V102.222Z" fill="#00695C"/>
<path d="M40.3672 102.223L44.8116 102.222V106.667H40.3663L40.3672 102.223Z" fill="#00695C"/>
<path d="M44.8125 102.223L49.2569 102.222V106.667H44.8116L44.8125 102.223Z" fill="#00695C"/>
<path d="M49.2559 102.222H53.7003V106.667H49.2559V102.222Z" fill="#263238"/>
<path d="M53.7012 102.223L58.1456 102.222V106.667H53.7003L53.7012 102.223Z" fill="#263238"/>
<path d="M58.1445 102.222H62.589V106.667H58.1445V102.222Z" fill="#263238"/>
<path d="M62.5898 102.223L67.0343 102.222V106.667H62.589L62.5898 102.223Z" fill="#4E342E"/>
<path d="M67.0332 102.222H71.4776V106.667H67.0332V102.222Z" fill="#4E342E"/>
<path d="M71.4785 102.223L75.923 102.222V106.667H71.4776L71.4785 102.223Z" fill="#263238"/>
<path d="M75.9219 102.222H80.3663V106.667H75.9219V102.222Z" fill="#13B26B"/>
<path d="M80.3672 102.223L84.8116 102.222V106.667H80.3663L80.3672 102.223Z" fill="#00874B"/>
<path d="M84.8125 102.223L89.2569 102.222V106.667H84.8116L84.8125 102.223Z" fill="#00874B"/>
<path d="M89.2559 102.222H93.7003V106.667H89.2559V102.222Z" fill="#00874B"/>
<path d="M93.7012 102.223L98.1456 102.222V106.667H93.7003L93.7012 102.223Z" fill="#00874B"/>
<path d="M98.1445 102.222H102.589V106.667H98.1445V102.222Z" fill="#00874B"/>
<path d="M102.59 102.223L107.034 102.222V106.667H102.589L102.59 102.223Z" fill="#00874B"/>
<path d="M107.033 102.222H111.478V106.667H107.033V102.222Z" fill="#00874B"/>
<path d="M111.479 102.223L115.923 102.222V106.667H111.478L111.479 102.223Z" fill="#00874B"/>
<path d="M115.922 102.222H120.366V106.667H115.922V102.222Z" fill="#13B26B"/>
<path d="M120.367 102.223L124.812 102.222V106.667H120.366L120.367 102.223Z" fill="#263238"/>
<path d="M18.1445 106.667H22.589V111.111H18.1445V106.667Z" fill="#263238"/>
<path d="M22.589 106.667H27.0343V111.111H22.589V106.667Z" fill="#00695C"/>
<path d="M27.0332 106.667H31.4776V111.111H27.0332V106.667Z" fill="#00695C"/>
<path d="M31.4776 106.667H35.923V111.111H31.4776V106.667Z" fill="#00695C"/>
<path d="M35.9219 106.667H40.3663V111.111H35.9219V106.667Z" fill="#00695C"/>
<path d="M40.3663 106.667H44.8116V111.111H40.3663V106.667Z" fill="#13B26B"/>
<path d="M44.8116 106.667H49.2569V111.111H44.8116V106.667Z" fill="#13B26B"/>
<path d="M49.2559 106.667H53.7003V111.111H49.2559V106.667Z" fill="#13B26B"/>
<path d="M53.7003 106.667H58.1456V111.111H53.7003V106.667Z" fill="#13B26B"/>
<path d="M58.1445 106.667H62.589V111.111H58.1445V106.667Z" fill="#13B26B"/>
<path d="M62.589 106.667H67.0343V111.111H62.589V106.667Z" fill="#13B26B"/>
<path d="M67.0332 106.667H71.4776V111.111H67.0332V106.667Z" fill="#13B26B"/>
<path d="M71.4776 106.667H75.923V111.111H71.4776V106.667Z" fill="#13B26B"/>
<path d="M75.9219 106.667H80.3663V111.111H75.9219V106.667Z" fill="#00874B"/>
<path d="M80.3663 106.667H84.8116V111.111H80.3663V106.667Z" fill="#00874B"/>
<path d="M84.8116 106.667H89.2569V111.111H84.8116V106.667Z" fill="#00695C"/>
<path d="M89.2559 106.667H93.7003V111.111H89.2559V106.667Z" fill="#00874B"/>
<path d="M93.7003 106.667H98.1456V111.111H93.7003V106.667Z" fill="#00874B"/>
<path d="M98.1445 106.667H102.589V111.111H98.1445V106.667Z" fill="#00874B"/>
<path d="M102.589 106.667H107.034V111.111H102.589V106.667Z" fill="#00874B"/>
<path d="M107.033 106.667H111.478V111.111H107.033V106.667Z" fill="#00874B"/>
<path d="M111.478 106.667H115.923V111.111H111.478V106.667Z" fill="#00874B"/>
<path d="M115.922 106.667H120.366V111.111H115.922V106.667Z" fill="#00695C"/>
<path d="M120.366 106.667H124.812V111.111H120.366V106.667Z" fill="#263238"/>
<path d="M22.589 111.111H27.0343V115.556H22.5898L22.589 111.111Z" fill="#263238"/>
<path d="M27.0332 111.111H31.4776V115.556H27.0332V111.111Z" fill="#263238"/>
<path d="M31.4776 111.111H35.9219L35.9227 115.556L31.4776 115.556V111.111Z" fill="#263238"/>
<path d="M35.9219 111.111H40.3663V115.556L35.9227 115.556L35.9219 111.111Z" fill="#13B26B"/>
<path d="M40.3663 111.111H44.8116V115.556L40.3663 115.556V111.111Z" fill="#13B26B"/>
<path d="M44.8116 111.111H49.2569V115.556L44.8116 115.556V111.111Z" fill="#00874B"/>
<path d="M49.2559 111.111H53.7003L53.7005 115.556L49.2569 115.556L49.2559 111.111Z" fill="#00874B"/>
<path d="M53.7003 111.111H58.1456V115.556L53.7005 115.556L53.7003 111.111Z" fill="#00874B"/>
<path d="M58.1445 111.111H62.589V115.556H58.1445V111.111Z" fill="#00874B"/>
<path d="M62.589 111.111H67.0343V115.556H62.589V111.111Z" fill="#13B26B"/>
<path d="M67.0332 111.111H71.4776V115.556H67.0332V111.111Z" fill="#00874B"/>
<path d="M71.4776 111.111H75.9219L75.9227 115.556L71.4776 115.556V111.111Z" fill="#13B26B"/>
<path d="M75.9219 111.111H80.3663V115.556L75.9227 115.556L75.9219 111.111Z" fill="#13B26B"/>
<path d="M80.3663 111.111H84.8116V115.556L80.3663 115.556V111.111Z" fill="#00695C"/>
<path d="M84.8116 111.111H89.2569V115.556L84.8116 115.556V111.111Z" fill="#00874B"/>
<path d="M89.2559 111.111H93.7003L93.7005 115.556L89.2569 115.556L89.2559 111.111Z" fill="#00695C"/>
<path d="M93.7003 111.111H98.1456V115.556L93.7005 115.556L93.7003 111.111Z" fill="#00874B"/>
<path d="M98.1445 111.111H102.589V115.556H98.1445V111.111Z" fill="#00874B"/>
<path d="M102.589 111.111H107.034V115.556H102.589V111.111Z" fill="#00874B"/>
<path d="M107.033 111.111H111.478V115.556H107.033V111.111Z" fill="#00874B"/>
<path d="M111.478 111.111H115.922L115.923 115.556L111.478 115.556V111.111Z" fill="#00874B"/>
<path d="M115.922 111.111H120.366V115.556L115.923 115.556L115.922 111.111Z" fill="#00695C"/>
<path d="M120.366 111.111H124.812V115.556L120.366 115.556V111.111Z" fill="#263238"/>
<path d="M18.1445 115.556L22.5898 115.556L22.589 120H18.1445V115.556Z" fill="#263238"/>
<path d="M22.5898 115.556H27.0343V120H22.589L22.5898 115.556Z" fill="#263238"/>
<path d="M27.0332 115.556H31.4776V120H27.0332V115.556Z" fill="#263238"/>
<path d="M31.4776 115.556L35.9227 115.556V120L31.4776 120V115.556Z" fill="#263238"/>
<path d="M35.9227 115.556L40.3663 115.556V120L35.9227 120V115.556Z" fill="#00695C"/>
<path d="M40.3663 115.556L44.8116 115.556V120L40.3663 120V115.556Z" fill="#00874B"/>
<path d="M44.8116 115.556L49.2569 115.556V120L44.8116 120V115.556Z" fill="#00874B"/>
<path d="M49.2569 115.556L53.7005 115.556V120L49.2569 120V115.556Z" fill="#00874B"/>
<path d="M53.7005 115.556L58.1456 115.556V120L53.7005 120V115.556Z" fill="#00874B"/>
<path d="M58.1445 115.556H62.589V120H58.1445V115.556Z" fill="#00874B"/>
<path d="M62.589 115.556H67.0343V120H62.589V115.556Z" fill="#00874B"/>
<path d="M67.0332 115.556H71.4776V120H67.0332V115.556Z" fill="#13B26B"/>
<path d="M71.4776 115.556L75.9227 115.556V120L71.4776 120V115.556Z" fill="#00874B"/>
<path d="M75.9227 115.556L80.3663 115.556V120L75.9227 120V115.556Z" fill="#13B26B"/>
<path d="M80.3663 115.556L84.8116 115.556V120L80.3663 120V115.556Z" fill="#00695C"/>
<path d="M84.8116 115.556L89.2569 115.556V120L84.8116 120V115.556Z" fill="#00874B"/>
<path d="M89.2569 115.556L93.7005 115.556V120L89.2569 120V115.556Z" fill="#00874B"/>
<path d="M93.7005 115.556L98.1456 115.556V120L93.7005 120V115.556Z" fill="#00695C"/>
<path d="M98.1445 115.556H102.589V120H98.1445V115.556Z" fill="#00695C"/>
<path d="M102.589 115.556H107.034V120H102.589V115.556Z" fill="#00695C"/>
<path d="M107.033 115.556H111.478V120H107.033V115.556Z" fill="#00695C"/>
<path d="M111.478 115.556L115.923 115.556V120L111.478 120V115.556Z" fill="#00695C"/>
<path d="M115.923 115.556L120.366 115.556V120L115.923 120V115.556Z" fill="#00695C"/>
<path d="M120.366 115.556L124.812 115.556V120L120.366 120V115.556Z" fill="#263238"/>
<path d="M9.25608 120H13.7005V124.444H9.25608V120Z" fill="#263238"/>
<path d="M13.7005 120H18.1456V124.444H13.7005V120Z" fill="#263238"/>
<path d="M18.1445 120H22.589V124.444H18.1445V120Z" fill="#13B26B"/>
<path d="M22.589 120H27.0343V124.444H22.589V120Z" fill="#13B26B"/>
<path d="M27.0332 120H31.4776V124.444H27.0332V120Z" fill="#13B26B"/>
<path d="M31.4776 120L35.9227 120V124.444H31.4776V120Z" fill="#13B26B"/>
<path d="M35.9227 120L40.3663 120V124.444H35.9227V120Z" fill="#00695C"/>
<path d="M40.3663 120L44.8116 120V124.444H40.3663V120Z" fill="#00874B"/>
<path d="M44.8116 120L49.2569 120V124.444H44.8116V120Z" fill="#00874B"/>
<path d="M49.2569 120L53.7005 120V124.444H49.2569V120Z" fill="#00874B"/>
<path d="M53.7005 120L58.1456 120V124.444H53.7005V120Z" fill="#00874B"/>
<path d="M58.1445 120H62.589V124.444H58.1445V120Z" fill="#00874B"/>
<path d="M62.589 120H67.0343V124.444H62.589V120Z" fill="#00874B"/>
<path d="M67.0332 120H71.4776V124.444H67.0332V120Z" fill="#00874B"/>
<path d="M71.4776 120L75.9227 120V124.444H71.4776V120Z" fill="#13B26B"/>
<path d="M75.9227 120L80.3663 120V124.444H75.9227V120Z" fill="#00695C"/>
<path d="M80.3663 120L84.8116 120V124.444H80.3663V120Z" fill="#00695C"/>
<path d="M84.8116 120L89.2569 120V124.444H84.8116V120Z" fill="#00695C"/>
<path d="M89.2569 120L93.7005 120V124.444H89.2569V120Z" fill="#00874B"/>
<path d="M93.7005 120L98.1456 120V124.444H93.7005V120Z" fill="#00874B"/>
<path d="M98.1445 120H102.589V124.444H98.1445V120Z" fill="#00874B"/>
<path d="M102.589 120H107.034V124.444H102.589V120Z" fill="#00874B"/>
<path d="M107.033 120H111.478V124.444H107.033V120Z" fill="#00695C"/>
<path d="M111.478 120L115.923 120V124.444H111.478V120Z" fill="#00695C"/>
<path d="M115.923 120L120.366 120V124.444H115.923V120Z" fill="#00695C"/>
<path d="M120.366 120L124.812 120V124.444H120.366V120Z" fill="#263238"/>
<path d="M4.8125 124.444L9.25608 124.444L9.25694 128.889H4.8125V124.444Z" fill="#263238"/>
<path d="M9.25608 124.444H13.7005V128.889L9.25694 128.889L9.25608 124.444Z" fill="#13B26B"/>
<path d="M13.7005 124.444H18.1456V128.889L13.7005 128.889V124.444Z" fill="#13B26B"/>
<path d="M18.1445 124.444H22.589V128.889H18.1445V124.444Z" fill="#00874B"/>
<path d="M22.589 124.444H27.0343V128.889H22.589V124.444Z" fill="#00874B"/>
<path d="M27.0332 124.444H31.4776V128.889H27.0332V124.444Z" fill="#00874B"/>
<path d="M31.4776 124.444H35.9227V128.889L31.4776 128.889V124.444Z" fill="#13B26B"/>
<path d="M35.9227 124.444H40.3663V128.889L35.9227 128.889V124.444Z" fill="#00695C"/>
<path d="M40.3663 124.444H44.8116V128.889L40.3663 128.889V124.444Z" fill="#00695C"/>
<path d="M44.8116 124.444H49.2569V128.889L44.8116 128.889V124.444Z" fill="#00874B"/>
<path d="M49.2569 124.444H53.7005V128.889L49.2569 128.889V124.444Z" fill="#00874B"/>
<path d="M53.7005 124.444H58.1456V128.889L53.7005 128.889V124.444Z" fill="#00874B"/>
<path d="M58.1445 124.444H62.589V128.889H58.1445V124.444Z" fill="#00874B"/>
<path d="M62.589 124.444H67.0343V128.889H62.589V124.444Z" fill="#00874B"/>
<path d="M67.0332 124.444H71.4776V128.889H67.0332V124.444Z" fill="#00874B"/>
<path d="M71.4776 124.444H75.9227V128.889L71.4776 128.889V124.444Z" fill="#00695C"/>
<path d="M75.9227 124.444H80.3663V128.889L75.9227 128.889V124.444Z" fill="#263238"/>
<path d="M80.3663 124.444H84.8116V128.889L80.3663 128.889V124.444Z" fill="#263238"/>
<path d="M84.8116 124.444H89.2569V128.889L84.8116 128.889V124.444Z" fill="#00695C"/>
<path d="M89.2569 124.444H93.7005V128.889L89.2569 128.889V124.444Z" fill="#00695C"/>
<path d="M93.7005 124.444H98.1456V128.889L93.7005 128.889V124.444Z" fill="#00695C"/>
<path d="M98.1445 124.444H102.589V128.889H98.1445V124.444Z" fill="#00695C"/>
<path d="M102.589 124.444H107.034V128.889H102.589V124.444Z" fill="#00695C"/>
<path d="M107.033 124.444H111.478V128.889H107.033V124.444Z" fill="#00695C"/>
<path d="M111.478 124.444H115.923V128.889L111.478 128.889V124.444Z" fill="#00695C"/>
<path d="M115.923 124.444H120.366V128.889L115.923 128.889V124.444Z" fill="#263238"/>
<path d="M0.367188 128.889L4.8125 128.889L4.81163 133.333H0.367188V128.889Z" fill="#263238"/>
<path d="M4.8125 128.889H9.25694V133.333L4.81163 133.333L4.8125 128.889Z" fill="#13B26B"/>
<path d="M9.25694 128.889L13.7005 128.889V133.333L9.25694 133.333V128.889Z" fill="#00874B"/>
<path d="M13.7005 128.889L18.1456 128.889V133.333L13.7005 133.333V128.889Z" fill="#00874B"/>
<path d="M18.1445 128.889H22.589V133.333H18.1445V128.889Z" fill="#00874B"/>
<path d="M22.589 128.889H27.0343V133.333H22.589V128.889Z" fill="#00874B"/>
<path d="M27.0332 128.889H31.4776V133.333H27.0332V128.889Z" fill="#00874B"/>
<path d="M31.4776 128.889L35.9227 128.889V133.333L31.4776 133.333V128.889Z" fill="#00874B"/>
<path d="M35.9227 128.889L40.3663 128.889V133.333L35.9227 133.333V128.889Z" fill="#13B26B"/>
<path d="M40.3663 128.889L44.8116 128.889V133.333L40.3663 133.333V128.889Z" fill="#00695C"/>
<path d="M44.8116 128.889L49.2569 128.889V133.333L44.8116 133.333V128.889Z" fill="#00695C"/>
<path d="M49.2569 128.889L53.7005 128.889V133.333L49.2569 133.333V128.889Z" fill="#00695C"/>
<path d="M53.7005 128.889L58.1456 128.889V133.333L53.7005 133.333V128.889Z" fill="#00695C"/>
<path d="M58.1445 128.889H62.589V133.333H58.1445V128.889Z" fill="#00695C"/>
<path d="M62.589 128.889H67.0343V133.333H62.589V128.889Z" fill="#00695C"/>
<path d="M67.0332 128.889H71.4776V133.333H67.0332V128.889Z" fill="#00695C"/>
<path d="M71.4776 128.889L75.9227 128.889V133.333L71.4776 133.333V128.889Z" fill="#00695C"/>
<path d="M75.9227 128.889L80.3663 128.889V133.333L75.9227 133.333V128.889Z" fill="#263238"/>
<path d="M80.3663 128.889L84.8116 128.889V133.333L80.3663 133.333V128.889Z" fill="#263238"/>
<path d="M84.8116 128.889L89.2569 128.889V133.333L84.8116 133.333V128.889Z" fill="#263238"/>
<path d="M89.2569 128.889L93.7005 128.889V133.333L89.2569 133.333V128.889Z" fill="#00695C"/>
<path d="M93.7005 128.889L98.1456 128.889V133.333L93.7005 133.333V128.889Z" fill="#00695C"/>
<path d="M98.1445 128.889H102.589V133.333H98.1445V128.889Z" fill="#00695C"/>
<path d="M102.589 128.889H107.034V133.333H102.589V128.889Z" fill="#00695C"/>
<path d="M107.033 128.889H111.478V133.333H107.033V128.889Z" fill="#00695C"/>
<path d="M111.478 128.889L115.923 128.889V133.333L111.478 133.333V128.889Z" fill="#263238"/>
<path d="M0.367188 133.333H4.81163V137.777H0.367188V133.333Z" fill="#263238"/>
<path d="M4.81163 133.333L9.25694 133.333V137.777H4.81163V133.333Z" fill="#00695C"/>
<path d="M9.25586 133.333L13.7005 133.333L13.7003 137.777H9.25586V133.333Z" fill="#00874B"/>
<path d="M13.7005 133.333L18.1456 133.333V137.777H13.7003L13.7005 133.333Z" fill="#00874B"/>
<path d="M18.1445 133.333H22.589V137.777H18.1445V133.333Z" fill="#00874B"/>
<path d="M22.589 133.333H27.0343V137.777H22.589V133.333Z" fill="#00874B"/>
<path d="M27.0332 133.333H31.4776V137.777H27.0332V133.333Z" fill="#00874B"/>
<path d="M31.4776 133.333L35.9227 133.333L35.923 137.777H31.4776V133.333Z" fill="#00874B"/>
<path d="M35.9227 133.333L40.3663 133.333V137.777H35.9219L35.9227 133.333Z" fill="#00874B"/>
<path d="M40.3663 133.333L44.8116 133.333V137.777H40.3663V133.333Z" fill="#00695C"/>
<path d="M44.8116 133.333L49.2569 133.333V137.777H44.8116V133.333Z" fill="#00695C"/>
<path d="M49.2559 133.333L53.7005 133.333L53.7003 137.777H49.2559V133.333Z" fill="#00695C"/>
<path d="M53.7005 133.333L58.1456 133.333V137.777H53.7003L53.7005 133.333Z" fill="#00695C"/>
<path d="M58.1445 133.333H62.589V137.777H58.1445V133.333Z" fill="#00695C"/>
<path d="M62.589 133.333H67.0343V137.777H62.589V133.333Z" fill="#00695C"/>
<path d="M67.0332 133.333H71.4776V137.777H67.0332V133.333Z" fill="#263238"/>
<path d="M71.4776 133.333L75.9227 133.333L75.923 137.777H71.4776V133.333Z" fill="#13B26B"/>
<path d="M75.9227 133.333L80.3663 133.333V137.777H75.9219L75.9227 133.333Z" fill="#13B26B"/>
<path d="M80.3663 133.333L84.8116 133.333V137.777H80.3663V133.333Z" fill="#13B26B"/>
<path d="M84.8116 133.333L89.2569 133.333V137.777H84.8116V133.333Z" fill="#13B26B"/>
<path d="M89.2559 133.333L93.7005 133.333L93.7003 137.777H89.2559V133.333Z" fill="#4E342E"/>
<path d="M93.7005 133.333L98.1456 133.333V137.777H93.7003L93.7005 133.333Z" fill="#4E342E"/>
<path d="M98.1445 133.333H102.589V137.777H98.1445V133.333Z" fill="#263238"/>
<path d="M102.589 133.333H107.034V137.777H102.589V133.333Z" fill="#263238"/>
<path d="M107.033 133.333H111.478V137.777H107.033V133.333Z" fill="#263238"/>
<path d="M0.367188 137.777H4.81163V142.222H0.367188V137.777Z" fill="#263238"/>
<path d="M4.81163 137.777H9.25694V142.222H4.81163V137.777Z" fill="#00695C"/>
<path d="M9.25586 137.777H13.7003V142.222H9.25586V137.777Z" fill="#00874B"/>
<path d="M13.7003 137.777H18.1456V142.222H13.7003V137.777Z" fill="#00874B"/>
<path d="M18.1445 137.777H22.589V142.222H18.1445V137.777Z" fill="#00874B"/>
<path d="M22.589 137.777H27.0343V142.222H22.589V137.777Z" fill="#00874B"/>
<path d="M27.0332 137.777H31.4776V142.222H27.0332V137.777Z" fill="#00874B"/>
<path d="M31.4776 137.777H35.923V142.222H31.4776V137.777Z" fill="#00874B"/>
<path d="M35.9219 137.777H40.3663V142.222H35.9219V137.777Z" fill="#00695C"/>
<path d="M40.3663 137.777H44.8116V142.222H40.3663V137.777Z" fill="#00695C"/>
<path d="M44.8116 137.777H49.2569V142.222H44.8116V137.777Z" fill="#263238"/>
<path d="M49.2559 137.777H53.7003V142.222H49.2559V137.777Z" fill="#263238"/>
<path d="M53.7003 137.777H58.1456V142.222H53.7003V137.777Z" fill="#263238"/>
<path d="M58.1445 137.777H62.589V142.222H58.1445V137.777Z" fill="#13B26B"/>
<path d="M62.589 137.777H67.0343V142.222H62.589V137.777Z" fill="#13B26B"/>
<path d="M67.0332 137.777H71.4776V142.222H67.0332V137.777Z" fill="#13B26B"/>
<path d="M71.4776 137.777H75.923V142.222H71.4776V137.777Z" fill="#13B26B"/>
<path d="M75.9219 137.777H80.3663V142.222H75.9219V137.777Z" fill="#00874B"/>
<path d="M80.3663 137.777H84.8116V142.222H80.3663V137.777Z" fill="#13B26B"/>
<path d="M84.8116 137.777H89.2569V142.222H84.8116V137.777Z" fill="#13B26B"/>
<path d="M89.2559 137.777H93.7003V142.222H89.2559V137.777Z" fill="#6D4C41"/>
<path d="M93.7003 137.777H98.1456V142.222H93.7003V137.777Z" fill="#263238"/>
<path d="M0.367188 142.222H4.81163V146.667H0.367188V142.222Z" fill="#263238"/>
<path d="M4.8125 142.223L9.25694 142.222V146.667H4.81163L4.8125 142.223Z" fill="#00695C"/>
<path d="M9.25586 142.222H13.7003V146.667H9.25586V142.222Z" fill="#00695C"/>
<path d="M13.7012 142.223L18.1456 142.222V146.667H13.7003L13.7012 142.223Z" fill="#00695C"/>
<path d="M18.1445 142.222H22.589V146.667H18.1445V142.222Z" fill="#00874B"/>
<path d="M22.5898 142.223L27.0343 142.222V146.667H22.589L22.5898 142.223Z" fill="#00695C"/>
<path d="M27.0332 142.222H31.4776V146.667H27.0332V142.222Z" fill="#00695C"/>
<path d="M31.4785 142.223L35.923 142.222V146.667H31.4776L31.4785 142.223Z" fill="#00695C"/>
<path d="M35.9219 142.222H40.3663V146.667H35.9219V142.222Z" fill="#00695C"/>
<path d="M40.3672 142.223L44.8116 142.222V146.667H40.3663L40.3672 142.223Z" fill="#00695C"/>
<path d="M44.8125 142.223L49.2569 142.222V146.667H44.8116L44.8125 142.223Z" fill="#263238"/>
<path d="M49.2559 142.222H53.7003V146.667H49.2559V142.222Z" fill="#13B26B"/>
<path d="M53.7012 142.223L58.1456 142.222V146.667H53.7003L53.7012 142.223Z" fill="#13B26B"/>
<path d="M58.1445 142.222H62.589V146.667H58.1445V142.222Z" fill="#13B26B"/>
<path d="M62.5898 142.223L67.0343 142.222V146.667H62.589L62.5898 142.223Z" fill="#00874B"/>
<path d="M67.0332 142.222H71.4776V146.667H67.0332V142.222Z" fill="#00874B"/>
<path d="M71.4785 142.223L75.923 142.222V146.667H71.4776L71.4785 142.223Z" fill="#00874B"/>
<path d="M75.9219 142.222H80.3663V146.667H75.9219V142.222Z" fill="#00874B"/>
<path d="M80.3672 142.223L84.8116 142.222V146.667H80.3663L80.3672 142.223Z" fill="#00874B"/>
<path d="M84.8125 142.223L89.2569 142.222V146.667H84.8116L84.8125 142.223Z" fill="#13B26B"/>
<path d="M89.2559 142.222H93.7003V146.667H89.2559V142.222Z" fill="#13B26B"/>
<path d="M93.7012 142.223L98.1456 142.222V146.667H93.7003L93.7012 142.223Z" fill="#263238"/>
<path d="M4.81163 146.667H9.25694V151.111H4.8125L4.81163 146.667Z" fill="#263238"/>
<path d="M9.25586 146.667H13.7003V151.111H9.25586V146.667Z" fill="#00695C"/>
<path d="M13.7003 146.667H18.1456V151.111H13.7003V146.667Z" fill="#00695C"/>
<path d="M18.1445 146.667H22.589V151.111H18.1445V146.667Z" fill="#00695C"/>
<path d="M22.589 146.667H27.0343V151.111H22.589V146.667Z" fill="#00874B"/>
<path d="M27.0332 146.667H31.4776V151.111H27.0332V146.667Z" fill="#00695C"/>
<path d="M31.4776 146.667H35.923V151.111H31.4776V146.667Z" fill="#00695C"/>
<path d="M35.9219 146.667H40.3663V151.111H35.9219V146.667Z" fill="#00695C"/>
<path d="M40.3663 146.667H44.8116V151.111H40.3663V146.667Z" fill="#00695C"/>
<path d="M44.8116 146.667H49.2569V151.111H44.8116V146.667Z" fill="#13B26B"/>
<path d="M49.2559 146.667H53.7003V151.111H49.2559V146.667Z" fill="#00695C"/>
<path d="M53.7003 146.667H58.1456V151.111H53.7003V146.667Z" fill="#13B26B"/>
<path d="M58.1445 146.667H62.589V151.111H58.1445V146.667Z" fill="#00874B"/>
<path d="M62.589 146.667H67.0343V151.111H62.589V146.667Z" fill="#00874B"/>
<path d="M67.0332 146.667H71.4776V151.111H67.0332V146.667Z" fill="#00874B"/>
<path d="M71.4776 146.667H75.923V151.111H71.4776V146.667Z" fill="#00874B"/>
<path d="M75.9219 146.667H80.3663V151.111H75.9219V146.667Z" fill="#00874B"/>
<path d="M80.3663 146.667H84.8116V151.111H80.3663V146.667Z" fill="#00874B"/>
<path d="M84.8116 146.667H89.2569V151.111H84.8116V146.667Z" fill="#00874B"/>
<path d="M89.2559 146.667H93.7003V151.111H89.2559V146.667Z" fill="#13B26B"/>
<path d="M93.7003 146.667H98.1456V151.111H93.7003V146.667Z" fill="#263238"/>
<path d="M9.25586 151.111H13.7003L13.7005 155.556H9.25608L9.25586 151.111Z" fill="#263238"/>
<path d="M13.7003 151.111H18.1456V155.556L13.7005 155.556L13.7003 151.111Z" fill="#00695C"/>
<path d="M18.1445 151.111H22.589V155.556H18.1445V151.111Z" fill="#00695C"/>
<path d="M22.589 151.111H27.0343V155.556H22.589V151.111Z" fill="#00695C"/>
<path d="M27.0332 151.111H31.4776V155.556H27.0332V151.111Z" fill="#00695C"/>
<path d="M31.4776 151.111H35.9219L35.9227 155.556L31.4776 155.556V151.111Z" fill="#00695C"/>
<path d="M35.9219 151.111H40.3663V155.556L35.9227 155.556L35.9219 151.111Z" fill="#263238"/>
<path d="M40.3663 151.111H44.8116V155.556L40.3663 155.556V151.111Z" fill="#263238"/>
<path d="M44.8116 151.111H49.2569V155.556L44.8116 155.556V151.111Z" fill="#00874B"/>
<path d="M49.2559 151.111H53.7003L53.7005 155.556L49.2569 155.556L49.2559 151.111Z" fill="#00695C"/>
<path d="M53.7003 151.111H58.1456V155.556L53.7005 155.556L53.7003 151.111Z" fill="#00695C"/>
<path d="M58.1445 151.111H62.589V155.556H58.1445V151.111Z" fill="#00874B"/>
<path d="M62.589 151.111H67.0343V155.556H62.589V151.111Z" fill="#00874B"/>
<path d="M67.0332 151.111H71.4776V155.556H67.0332V151.111Z" fill="#00874B"/>
<path d="M71.4776 151.111H75.9219L75.9227 155.556L71.4776 155.556V151.111Z" fill="#00874B"/>
<path d="M75.9219 151.111H80.3663V155.556L75.9227 155.556L75.9219 151.111Z" fill="#00874B"/>
<path d="M80.3663 151.111H84.8116V155.556L80.3663 155.556V151.111Z" fill="#00874B"/>
<path d="M84.8116 151.111H89.2569V155.556L84.8116 155.556V151.111Z" fill="#00874B"/>
<path d="M89.2559 151.111H93.7003L93.7005 155.556L89.2569 155.556L89.2559 151.111Z" fill="#00695C"/>
<path d="M93.7003 151.111H98.1456V155.556L93.7005 155.556L93.7003 151.111Z" fill="#263238"/>
<path d="M13.7005 155.556L18.1456 155.556V160H13.7012L13.7005 155.556Z" fill="#263238"/>
<path d="M18.1445 155.556H22.589V160H18.1445V155.556Z" fill="#263238"/>
<path d="M22.589 155.556H27.0343V160H22.589V155.556Z" fill="#263238"/>
<path d="M27.0332 155.556H31.4776V160H27.0332V155.556Z" fill="#263238"/>
<path d="M31.4776 155.556L35.9227 155.556V160L31.4776 160V155.556Z" fill="#263238"/>
<path d="M40.3663 155.556L44.8116 155.556V160H40.3672L40.3663 155.556Z" fill="#263238"/>
<path d="M44.8116 155.556L49.2569 155.556V160L44.8116 160V155.556Z" fill="#00695C"/>
<path d="M49.2569 155.556L53.7005 155.556V160L49.2569 160V155.556Z" fill="#00874B"/>
<path d="M53.7005 155.556L58.1456 155.556V160L53.7005 160V155.556Z" fill="#00695C"/>
<path d="M58.1445 155.556H62.589V160H58.1445V155.556Z" fill="#00695C"/>
<path d="M62.589 155.556H67.0343V160H62.589V155.556Z" fill="#00695C"/>
<path d="M67.0332 155.556H71.4776V160H67.0332V155.556Z" fill="#00874B"/>
<path d="M71.4776 155.556L75.9227 155.556V160L71.4776 160V155.556Z" fill="#00874B"/>
<path d="M75.9227 155.556L80.3663 155.556V160L75.9227 160V155.556Z" fill="#00874B"/>
<path d="M80.3663 155.556L84.8116 155.556V160L80.3663 160V155.556Z" fill="#00874B"/>
<path d="M84.8116 155.556L89.2569 155.556V160L84.8116 160V155.556Z" fill="#00695C"/>
<path d="M89.2569 155.556L93.7005 155.556V160L89.2569 160V155.556Z" fill="#00695C"/>
<path d="M93.7005 155.556L98.1456 155.556V160L93.7005 160V155.556Z" fill="#263238"/>
<path d="M40.3672 160H44.8116V164.444H40.3672V160Z" fill="#263238"/>
<path d="M44.8116 160L49.2569 160V164.444H44.8116V160Z" fill="#00695C"/>
<path d="M49.2569 160L53.7005 160V164.444H49.2569V160Z" fill="#00695C"/>
<path d="M53.7005 160L58.1456 160V164.444H53.7005V160Z" fill="#00695C"/>
<path d="M58.1445 160H62.589V164.444H58.1445V160Z" fill="#00695C"/>
<path d="M62.589 160H67.0343V164.444H62.589V160Z" fill="#00695C"/>
<path d="M67.0332 160H71.4776V164.444H67.0332V160Z" fill="#00695C"/>
<path d="M71.4776 160L75.9227 160V164.444H71.4776V160Z" fill="#00695C"/>
<path d="M75.9227 160L80.3663 160V164.444H75.9227V160Z" fill="#00695C"/>
<path d="M80.3663 160L84.8116 160V164.444H80.3663V160Z" fill="#00695C"/>
<path d="M84.8116 160L89.2569 160V164.444H84.8116V160Z" fill="#00695C"/>
<path d="M89.2569 160L93.7005 160V164.444H89.2569V160Z" fill="#263238"/>
<path d="M40.3672 164.444H44.8116V168.889H40.3672V164.444Z" fill="#263238"/>
<path d="M44.8116 164.444H49.2569V168.889L44.8116 168.889V164.444Z" fill="#00695C"/>
<path d="M49.2569 164.444H53.7005V168.889L49.2569 168.889V164.444Z" fill="#00695C"/>
<path d="M53.7005 164.444H58.1456V168.889L53.7005 168.889V164.444Z" fill="#00695C"/>
<path d="M58.1445 164.444H62.589V168.889H58.1445V164.444Z" fill="#00695C"/>
<path d="M62.589 164.444H67.0343V168.889H62.589V164.444Z" fill="#00695C"/>
<path d="M67.0332 164.444H71.4776V168.889H67.0332V164.444Z" fill="#00695C"/>
<path d="M71.4776 164.444H75.9227V168.889L71.4776 168.889V164.444Z" fill="#00695C"/>
<path d="M75.9227 164.444H80.3663V168.889L75.9227 168.889V164.444Z" fill="#00695C"/>
<path d="M80.3663 164.444H84.8116V168.889L80.3663 168.889V164.444Z" fill="#00695C"/>
<path d="M84.8116 164.444H89.2569V168.889L84.8116 168.889V164.444Z" fill="#00695C"/>
<path d="M89.2569 164.444H93.7005V168.889L89.2569 168.889V164.444Z" fill="#263238"/>
<path d="M44.8116 168.889L49.2569 168.889V173.333H44.8125L44.8116 168.889Z" fill="#263238"/>
<path d="M49.2569 168.889L53.7005 168.889V173.333L49.2569 173.333V168.889Z" fill="#00695C"/>
<path d="M53.7005 168.889L58.1456 168.889V173.333L53.7005 173.333V168.889Z" fill="#00695C"/>
<path d="M58.1445 168.889H62.589V173.333H58.1445V168.889Z" fill="#00695C"/>
<path d="M62.589 168.889H67.0343V173.333H62.589V168.889Z" fill="#00695C"/>
<path d="M67.0332 168.889H71.4776V173.333H67.0332V168.889Z" fill="#00695C"/>
<path d="M71.4776 168.889L75.9227 168.889V173.333L71.4776 173.333V168.889Z" fill="#00695C"/>
<path d="M75.9227 168.889L80.3663 168.889V173.333L75.9227 173.333V168.889Z" fill="#00695C"/>
<path d="M80.3663 168.889L84.8116 168.889V173.333L80.3663 173.333V168.889Z" fill="#00695C"/>
<path d="M84.8116 168.889L89.2569 168.889V173.333L84.8116 173.333V168.889Z" fill="#263238"/>
<path d="M49.2559 173.333L53.7005 173.333L53.7003 177.777H49.2559V173.333Z" fill="#263238"/>
<path d="M53.7005 173.333L58.1456 173.333V177.777H53.7003L53.7005 173.333Z" fill="#263238"/>
<path d="M58.1445 173.333H62.589V177.777H58.1445V173.333Z" fill="#263238"/>
<path d="M62.589 173.333H67.0343V177.777H62.589V173.333Z" fill="#4E342E"/>
<path d="M67.0332 173.333H71.4776V177.777H67.0332V173.333Z" fill="#4E342E"/>
<path d="M71.4776 173.333L75.9227 173.333L75.923 177.777H71.4776V173.333Z" fill="#263238"/>
<path d="M75.9227 173.333L80.3663 173.333V177.777H75.9219L75.9227 173.333Z" fill="#263238"/>
<path d="M80.3663 173.333L84.8116 173.333V177.777H80.3663V173.333Z" fill="#263238"/>
<path d="M58.1445 177.777H62.589V182.222H58.1445V177.777Z" fill="#263238"/>
<path d="M62.589 177.777H67.0343V182.222H62.589V177.777Z" fill="#8D6E63"/>
<path d="M67.0332 177.777H71.4776V182.222H67.0332V177.777Z" fill="#6D4C41"/>
<path d="M71.4776 177.777H75.923V182.222H71.4776V177.777Z" fill="#263238"/>
<path d="M58.1445 182.222H62.589V186.667H58.1445V182.222Z" fill="#263238"/>
<path d="M62.5898 182.223L67.0343 182.222V186.667H62.589L62.5898 182.223Z" fill="#795548"/>
<path d="M67.0332 182.222H71.4776V186.667H67.0332V182.222Z" fill="#6D4C41"/>
<path d="M71.4785 182.223L75.923 182.222V186.667H71.4776L71.4785 182.223Z" fill="#263238"/>
<path d="M80.3672 182.223H84.8116V186.667H80.3672V182.223Z" fill="#263238"/>
<path d="M44.8125 186.667H49.2569V191.111H44.8125V186.667Z" fill="#263238"/>
<path d="M49.2559 186.667H53.7003V191.111H49.2559V186.667Z" fill="#263238"/>
<path d="M53.7003 186.667H58.1456V191.111H53.7003V186.667Z" fill="#263238"/>
<path d="M58.1445 186.667H62.589V191.111H58.1445V186.667Z" fill="#00874B"/>
<path d="M62.589 186.667H67.0343V191.111H62.589V186.667Z" fill="#6D4C41"/>
<path d="M67.0332 186.667H71.4776V191.111H67.0332V186.667Z" fill="#6D4C41"/>
<path d="M71.4776 186.667H75.923V191.111H71.4776V186.667Z" fill="#263238"/>
<path d="M75.9219 186.667L80.3672 186.667L80.3663 191.111H75.9219V186.667Z" fill="#263238"/>
<path d="M80.3672 186.667H84.8116V191.111H80.3663L80.3672 186.667Z" fill="#13B26B"/>
<path d="M84.8116 186.667L89.2569 186.667V191.111H84.8116V186.667Z" fill="#263238"/>
<path d="M40.3672 191.111L44.8125 191.111L44.8116 195.556H40.3672V191.111Z" fill="#263238"/>
<path d="M44.8125 191.111H49.2569V195.556L44.8116 195.556L44.8125 191.111Z" fill="#00874B"/>
<path d="M49.2559 191.111H53.7003L53.7005 195.556L49.2569 195.556L49.2559 191.111Z" fill="#00874B"/>
<path d="M53.7003 191.111H58.1456V195.556L53.7005 195.556L53.7003 191.111Z" fill="#00695C"/>
<path d="M58.1445 191.111H62.589V195.556H58.1445V191.111Z" fill="#00695C"/>
<path d="M62.589 191.111H67.0343V195.556H62.589V191.111Z" fill="#00695C"/>
<path d="M67.0332 191.111H71.4776V195.556H67.0332V191.111Z" fill="#00695C"/>
<path d="M71.4776 191.111H75.9219L75.9227 195.556L71.4776 195.556V191.111Z" fill="#00695C"/>
<path d="M75.9219 191.111H80.3663V195.556L75.9227 195.556L75.9219 191.111Z" fill="#00695C"/>
<path d="M80.3663 191.111H84.8116V195.556L80.3663 195.556V191.111Z" fill="#00874B"/>
<path d="M84.8116 191.111H89.2569V195.556L84.8116 195.556V191.111Z" fill="#00874B"/>
<path d="M89.2569 191.111L93.7005 191.111V195.556L89.2569 195.556V191.111Z" fill="#263238"/>
<path d="M44.8116 195.556L49.2569 195.556V200H44.8125L44.8116 195.556Z" fill="#263238"/>
<path d="M49.2569 195.556L53.7005 195.556V200L49.2569 200V195.556Z" fill="#263238"/>
<path d="M53.7005 195.556L58.1456 195.556V200L53.7005 200V195.556Z" fill="#263238"/>
<path d="M58.1445 195.556H62.589V200H58.1445V195.556Z" fill="#263238"/>
<path d="M62.589 195.556H67.0343V200H62.589V195.556Z" fill="#263238"/>
<path d="M67.0332 195.556H71.4776V200H67.0332V195.556Z" fill="#263238"/>
<path d="M71.4776 195.556L75.9227 195.556V200L71.4776 200V195.556Z" fill="#263238"/>
<path d="M75.9227 195.556L80.3663 195.556V200L75.9227 200V195.556Z" fill="#263238"/>
<path d="M80.3663 195.556L84.8116 195.556V200L80.3663 200V195.556Z" fill="#263238"/>
<path d="M84.8116 195.556L89.2569 195.556V200L84.8116 200V195.556Z" fill="#263238"/>
</svg>
