<svg width="388" height="200" viewBox="0 0 388 200" fill="none" xmlns="http://www.w3.org/2000/svg">
<path d="M134.205 0H147.541V13.3363H134.205V0Z" fill="#263238"/>
<path d="M147.543 0H160.879V13.3363H147.543V0Z" fill="#263238"/>
<path d="M160.877 0H174.213V13.3363H160.877V0Z" fill="#263238"/>
<path d="M174.215 0H187.54V13.3363H174.215V0Z" fill="#263238"/>
<path d="M120.879 13.3359L134.205 13.3363L134.204 26.6649H120.879V13.3359Z" fill="#263238"/>
<path d="M134.205 13.3363H147.541V26.6649H134.204L134.205 13.3363Z" fill="#13B26B"/>
<path d="M147.543 13.3363H160.879V26.6649H147.543V13.3363Z" fill="#13B26B"/>
<path d="M160.877 13.3363H174.213V26.6649H160.877V13.3363Z" fill="#13B26B"/>
<path d="M174.215 13.3363H187.54V26.6649H174.215V13.3363Z" fill="#13B26B"/>
<path d="M187.54 13.3363L200.877 13.3359V26.6649H187.54V13.3363Z" fill="#263238"/>
<path d="M107.545 26.666H120.881V39.9986H107.545V26.666Z" fill="#263238"/>
<path d="M120.879 26.666H134.204V39.9986H120.879V26.666Z" fill="#13B26B"/>
<path d="M134.204 26.666H147.541V39.9986H134.204V26.666Z" fill="#13B26B"/>
<path d="M147.543 26.666H160.879V39.9986H147.543V26.666Z" fill="#13B26B"/>
<path d="M160.877 26.666H174.213V39.9986H160.877V26.666Z" fill="#13B26B"/>
<path d="M174.215 26.666H187.54V39.9986H174.215V26.666Z" fill="#13B26B"/>
<path d="M187.54 26.666H200.877V39.9986H187.54V26.666Z" fill="#13B26B"/>
<path d="M200.875 26.666H214.211V39.9986H200.875V26.666Z" fill="#263238"/>
<path d="M94.207 39.998H107.543V53.3343H94.207V39.998Z" fill="#263238"/>
<path d="M107.545 39.9986H120.881V53.3343H107.545V39.9986Z" fill="#13B26B"/>
<path d="M120.879 39.9986H134.204V53.3343H120.879V39.9986Z" fill="#13B26B"/>
<path d="M134.205 39.998L147.541 39.9986V53.3343H134.204L134.205 39.998Z" fill="#13B26B"/>
<path d="M147.543 39.9986H160.879V53.3343H147.543V39.9986Z" fill="#13B26B"/>
<path d="M160.877 39.9986H174.213V53.3343H160.877V39.9986Z" fill="#13B26B"/>
<path d="M174.215 39.9986H187.54V53.3343H174.215V39.9986Z" fill="#13B26B"/>
<path d="M187.541 39.998L200.877 39.9986V53.3343H187.54L187.541 39.998Z" fill="#13B26B"/>
<path d="M200.875 39.9986H214.211V53.3343H200.875V39.9986Z" fill="#13B26B"/>
<path d="M214.213 39.998H227.549V53.3343H214.213V39.998Z" fill="#263238"/>
<path d="M94.207 53.3343H107.543V66.6703H94.207V53.3343Z" fill="#263238"/>
<path d="M107.545 53.3343H120.881V66.6703H107.545V53.3343Z" fill="#13B26B"/>
<path d="M120.879 53.3343H134.204V66.6703H120.879V53.3343Z" fill="#00874B"/>
<path d="M134.204 53.3343H147.541V66.6703H134.204V53.3343Z" fill="#00874B"/>
<path d="M147.543 53.3343H160.879V66.6703H147.543V53.3343Z" fill="#00874B"/>
<path d="M160.877 53.3343H174.213V66.6703H160.877V53.3343Z" fill="#00874B"/>
<path d="M174.215 53.3343H187.54V66.6703H174.215V53.3343Z" fill="#00874B"/>
<path d="M187.54 53.3343H200.877V66.6703H187.54V53.3343Z" fill="#13B26B"/>
<path d="M200.875 53.3343H214.211V66.6703H200.875V53.3343Z" fill="#13B26B"/>
<path d="M214.213 53.3343H227.549V66.6703H214.213V53.3343Z" fill="#263238"/>
<path d="M227.549 53.3343L240.874 53.334V66.6703H227.549V53.3343Z" fill="#263238"/>
<path d="M240.873 53.334H254.209V66.6703H240.873V53.334Z" fill="#263238"/>
<path d="M254.211 53.334H267.547V66.6703H254.211V53.334Z" fill="#263238"/>
<path d="M267.547 53.334H280.883V66.6703H267.547V53.334Z" fill="#263238"/>
<path d="M280.883 53.334H294.215V66.6703H280.883V53.334Z" fill="#263238"/>
<path d="M294.215 53.334H307.544V66.6703H294.215V53.334Z" fill="#263238"/>
<path d="M307.545 53.334H320.881V66.6703H307.545V53.334Z" fill="#263238"/>
<path d="M40.8729 66.67H54.2092V80.0063H40.8729V66.67Z" fill="#263238"/>
<path d="M54.2092 66.67L67.5453 66.6699V80.0062L54.2092 80.0063V66.67Z" fill="#263238"/>
<path d="M67.5469 66.6699H80.8722V80.0062H67.5469V66.6699Z" fill="#263238"/>
<path d="M80.8711 66.6699L94.207 66.6703L94.2074 80.0062H80.8711V66.6699Z" fill="#263238"/>
<path d="M94.207 66.6703H107.543V80.0062H94.2074L94.207 66.6703Z" fill="#13B26B"/>
<path d="M107.545 66.6703H120.881V80.0062H107.545V66.6703Z" fill="#00874B"/>
<path d="M120.879 66.6703H134.204V80.0062H120.879V66.6703Z" fill="#00874B"/>
<path d="M134.204 66.6703H147.541V80.0062H134.204V66.6703Z" fill="#00874B"/>
<path d="M147.543 66.6703H160.879V80.0062H147.543V66.6703Z" fill="#00874B"/>
<path d="M160.877 66.6703H174.213V80.0062H160.877V66.6703Z" fill="#00874B"/>
<path d="M174.215 66.6703H187.54V80.0062H174.215V66.6703Z" fill="#00874B"/>
<path d="M187.54 66.6703H200.877V80.0062H187.54V66.6703Z" fill="#00874B"/>
<path d="M200.875 66.6703H214.211V80.0062H200.875V66.6703Z" fill="#13B26B"/>
<path d="M214.213 66.6703H227.549V80.0062H214.213V66.6703Z" fill="#263238"/>
<path d="M227.549 66.6703H240.874L240.874 80.0063L227.549 80.0062V66.6703Z" fill="#13B26B"/>
<path d="M240.873 66.6703H254.209V80.0062H240.873V66.6703Z" fill="#13B26B"/>
<path d="M254.211 66.6703H267.547V80.0062H254.211V66.6703Z" fill="#13B26B"/>
<path d="M267.547 66.6703H280.883L280.883 80.0063L267.547 80.0062V66.6703Z" fill="#13B26B"/>
<path d="M280.883 66.6703H294.215V80.0062L280.883 80.0063L280.883 66.6703Z" fill="#13B26B"/>
<path d="M294.215 66.6703H307.544V80.0063L294.215 80.0062V66.6703Z" fill="#13B26B"/>
<path d="M307.544 66.6703H320.881L320.881 80.0063H307.544V66.6703Z" fill="#13B26B"/>
<path d="M320.881 66.6703L334.217 66.6699V80.0062L320.881 80.0063L320.881 66.6703Z" fill="#263238"/>
<path d="M27.5371 80.0059L40.8729 80.0063L40.8734 93.3312H27.5371V80.0059Z" fill="#263238"/>
<path d="M40.8729 80.0063H54.2092L54.2093 93.3312H40.8734L40.8729 80.0063Z" fill="#13B26B"/>
<path d="M54.2092 80.0063L67.5453 80.0062V93.3312H54.2093L54.2092 80.0063Z" fill="#13B26B"/>
<path d="M67.5469 80.0062H80.8722V93.3312H67.5469V80.0062Z" fill="#13B26B"/>
<path d="M80.8711 80.0062H94.2074V93.3312H80.8711V80.0062Z" fill="#13B26B"/>
<path d="M94.2074 80.0062H107.543V93.3312H94.2074V80.0062Z" fill="#00695C"/>
<path d="M107.545 80.0062H120.881V93.3312H107.545V80.0062Z" fill="#00874B"/>
<path d="M120.879 80.0062H134.204V93.3312H120.879V80.0062Z" fill="#00874B"/>
<path d="M134.204 80.0062H147.541V93.3312H134.204V80.0062Z" fill="#00874B"/>
<path d="M147.543 80.0062H160.879V93.3312H147.543V80.0062Z" fill="#00874B"/>
<path d="M160.877 80.0062H174.213V93.3312H160.877V80.0062Z" fill="#00874B"/>
<path d="M174.215 80.0062H187.54V93.3312H174.215V80.0062Z" fill="#00874B"/>
<path d="M187.54 80.0062H200.877V93.3312H187.54V80.0062Z" fill="#00874B"/>
<path d="M200.875 80.0062H214.211V93.3312H200.875V80.0062Z" fill="#00695C"/>
<path d="M214.213 80.0062H227.549V93.3312H214.213V80.0062Z" fill="#13B26B"/>
<path d="M227.549 80.0062L240.874 80.0063L240.874 93.3312H227.549V80.0062Z" fill="#00874B"/>
<path d="M240.873 80.0062H254.209V93.3312H240.873V80.0062Z" fill="#13B26B"/>
<path d="M254.211 80.0062H267.547V93.3312H254.211V80.0062Z" fill="#00874B"/>
<path d="M267.547 80.0062L280.883 80.0063L280.883 93.3312H267.547V80.0062Z" fill="#00874B"/>
<path d="M280.883 80.0063L294.215 80.0062V93.3312H280.883L280.883 80.0063Z" fill="#00874B"/>
<path d="M294.215 80.0062L307.544 80.0063V93.3312H294.215V80.0062Z" fill="#13B26B"/>
<path d="M307.545 80.0059L320.881 80.0063L320.881 93.3312H307.545V80.0059Z" fill="#13B26B"/>
<path d="M320.881 80.0063L334.217 80.0062V93.3312H320.881L320.881 80.0063Z" fill="#13B26B"/>
<path d="M334.217 80.0062L347.549 80.0059V93.3312H334.217V80.0062Z" fill="#263238"/>
<path d="M14.2012 93.332L27.5371 93.3312L27.5375 106.668H14.2012V93.332Z" fill="#263238"/>
<path d="M27.5371 93.3312H40.8734V106.668H27.5375L27.5371 93.3312Z" fill="#13B26B"/>
<path d="M40.8734 93.3312H54.2093V106.668H40.8734V93.3312Z" fill="#13B26B"/>
<path d="M54.2093 93.3312H67.5453V106.668H54.2093V93.3312Z" fill="#00874B"/>
<path d="M67.5469 93.3312H80.8722V106.668H67.5469V93.3312Z" fill="#13B26B"/>
<path d="M80.8711 93.3312H94.2074V106.668H80.8711V93.3312Z" fill="#13B26B"/>
<path d="M94.2074 93.3312H107.543V106.668H94.2074V93.3312Z" fill="#00695C"/>
<path d="M107.545 93.3312H120.881V106.668H107.545V93.3312Z" fill="#00695C"/>
<path d="M120.879 93.3312H134.204V106.668H120.879V93.3312Z" fill="#00874B"/>
<path d="M134.205 93.332L147.541 93.3312V106.668H134.204L134.205 93.332Z" fill="#00874B"/>
<path d="M147.543 93.3312H160.879V106.668H147.543V93.3312Z" fill="#00874B"/>
<path d="M160.877 93.3312H174.213V106.668H160.877V93.3312Z" fill="#00874B"/>
<path d="M174.215 93.3312H187.54V106.668H174.215V93.3312Z" fill="#00874B"/>
<path d="M187.541 93.332L200.877 93.3312V106.668H187.54L187.541 93.332Z" fill="#00695C"/>
<path d="M200.875 93.3312H214.211V106.668H200.875V93.3312Z" fill="#00695C"/>
<path d="M214.213 93.3312H227.549V106.668H214.213V93.3312Z" fill="#00874B"/>
<path d="M227.549 93.3312H240.874V106.668H227.549V93.3312Z" fill="#00874B"/>
<path d="M240.873 93.3312H254.209V106.668H240.873V93.3312Z" fill="#00874B"/>
<path d="M254.211 93.3312H267.547V106.668H254.211V93.3312Z" fill="#00874B"/>
<path d="M267.547 93.3312H280.883V106.668H267.547V93.3312Z" fill="#00874B"/>
<path d="M280.883 93.3312H294.215V106.668H280.883V93.3312Z" fill="#00874B"/>
<path d="M294.215 93.332L307.544 93.3312V106.668H294.215L294.215 93.332Z" fill="#00874B"/>
<path d="M307.545 93.3312H320.881V106.668H307.545V93.3312Z" fill="#00874B"/>
<path d="M320.881 93.3312H334.217V106.668H320.881V93.3312Z" fill="#13B26B"/>
<path d="M334.217 93.3312H347.549V106.668H334.217V93.3312Z" fill="#263238"/>
<path d="M347.549 93.332H360.878V106.668H347.549L347.549 93.332Z" fill="#263238"/>
<path d="M14.2012 106.668H27.5375V120.004H14.2012V106.668Z" fill="#263238"/>
<path d="M27.5375 106.668H40.8734V120.004H27.5375V106.668Z" fill="#13B26B"/>
<path d="M40.8734 106.668H54.2093L54.2092 120.004L40.8734 120.004V106.668Z" fill="#00874B"/>
<path d="M54.2093 106.668H67.5453V120.004L54.2092 120.004L54.2093 106.668Z" fill="#00874B"/>
<path d="M67.5469 106.668H80.8722V120.004H67.5469V106.668Z" fill="#00874B"/>
<path d="M80.8711 106.668H94.2074V120.004H80.8711V106.668Z" fill="#00874B"/>
<path d="M94.2074 106.668H107.543V120.004H94.2074V106.668Z" fill="#13B26B"/>
<path d="M107.545 106.668H120.881V120.004H107.545V106.668Z" fill="#00695C"/>
<path d="M120.879 106.668H134.204V120.004H120.879V106.668Z" fill="#00695C"/>
<path d="M134.204 106.668H147.541V120.004H134.204V106.668Z" fill="#00695C"/>
<path d="M147.543 106.668H160.879V120.004H147.543V106.668Z" fill="#00874B"/>
<path d="M160.877 106.668H174.213V120.004H160.877V106.668Z" fill="#00695C"/>
<path d="M174.215 106.668H187.54V120.004H174.215V106.668Z" fill="#00695C"/>
<path d="M187.54 106.668H200.877V120.004H187.54V106.668Z" fill="#00695C"/>
<path d="M200.875 106.668H214.211V120.004H200.875V106.668Z" fill="#00695C"/>
<path d="M214.213 106.668H227.549V120.004H214.213V106.668Z" fill="#00695C"/>
<path d="M227.549 106.668H240.874L240.874 120.004L227.549 120.004V106.668Z" fill="#00874B"/>
<path d="M240.873 106.668H254.209V120.004H240.873V106.668Z" fill="#00874B"/>
<path d="M254.211 106.668H267.547V120.004H254.211V106.668Z" fill="#00874B"/>
<path d="M267.547 106.668H280.883L280.883 120.004L267.547 120.004V106.668Z" fill="#00874B"/>
<path d="M280.883 106.668H294.215V120.004L280.883 120.004L280.883 106.668Z" fill="#00874B"/>
<path d="M294.215 106.668H307.544V120.004L294.215 120.004V106.668Z" fill="#00695C"/>
<path d="M307.545 106.668H320.881L320.881 120.004H307.544L307.545 106.668Z" fill="#00874B"/>
<path d="M320.881 106.668H334.217V120.004L320.881 120.004L320.881 106.668Z" fill="#00695C"/>
<path d="M334.217 106.668H347.549L347.549 120.004L334.217 120.004V106.668Z" fill="#13B26B"/>
<path d="M347.549 106.668H360.878V120.004L347.549 120.004L347.549 106.668Z" fill="#13B26B"/>
<path d="M360.879 106.668H374.215V120.004H360.879V106.668Z" fill="#263238"/>
<path d="M0.875 120.004L14.2012 120.004L14.2003 133.34H0.875V120.004Z" fill="#263238"/>
<path d="M14.2012 120.004H27.5375V133.34H14.2003L14.2012 120.004Z" fill="#13B26B"/>
<path d="M27.5375 120.004H40.8734V133.34H27.5375V120.004Z" fill="#00874B"/>
<path d="M40.8734 120.004L54.2092 120.004L54.2093 133.34H40.8734V120.004Z" fill="#13B26B"/>
<path d="M54.2092 120.004L67.5453 120.004V133.34H54.2093L54.2092 120.004Z" fill="#00874B"/>
<path d="M67.5469 120.004H80.8722V133.34H67.5469V120.004Z" fill="#00874B"/>
<path d="M80.8711 120.004H94.2074V133.34H80.8711V120.004Z" fill="#00874B"/>
<path d="M94.2074 120.004H107.543V133.34H94.2074V120.004Z" fill="#00874B"/>
<path d="M107.545 120.004H120.881V133.34H107.545V120.004Z" fill="#00874B"/>
<path d="M120.879 120.004H134.204V133.34H120.879V120.004Z" fill="#00695C"/>
<path d="M134.204 120.004H147.541V133.34H134.204V120.004Z" fill="#00695C"/>
<path d="M147.543 120.004H160.879V133.34H147.543V120.004Z" fill="#00695C"/>
<path d="M160.877 120.004H174.213V133.34H160.877V120.004Z" fill="#00695C"/>
<path d="M174.215 120.004H187.54V133.34H174.215V120.004Z" fill="#00695C"/>
<path d="M187.54 120.004H200.877V133.34H187.54V120.004Z" fill="#00695C"/>
<path d="M200.875 120.004H214.211V133.34H200.875V120.004Z" fill="#00695C"/>
<path d="M214.213 120.004H227.549V133.34H214.213V120.004Z" fill="#00695C"/>
<path d="M227.549 120.004L240.874 120.004L240.874 133.34H227.549V120.004Z" fill="#00695C"/>
<path d="M240.873 120.004H254.209V133.34H240.873V120.004Z" fill="#00695C"/>
<path d="M254.211 120.004H267.547V133.34H254.211V120.004Z" fill="#00695C"/>
<path d="M267.547 120.004L280.883 120.004L280.883 133.34H267.547V120.004Z" fill="#00695C"/>
<path d="M280.883 120.004L294.215 120.004V133.34H280.883L280.883 120.004Z" fill="#00695C"/>
<path d="M294.215 120.004L307.544 120.004V133.34H294.215V120.004Z" fill="#00695C"/>
<path d="M307.545 120.004L320.881 120.004L320.881 133.34H307.545V120.004Z" fill="#13B26B"/>
<path d="M320.881 120.004L334.217 120.004V133.34H320.881L320.881 120.004Z" fill="#00874B"/>
<path d="M334.217 120.004L347.549 120.004L347.549 133.34H334.217V120.004Z" fill="#13B26B"/>
<path d="M347.549 120.004L360.878 120.004V133.34H347.549L347.549 120.004Z" fill="#13B26B"/>
<path d="M360.879 120.004H374.215V133.34H360.879V120.004Z" fill="#13B26B"/>
<path d="M374.215 120.004L387.551 120.004V133.34H374.215V120.004Z" fill="#263238"/>
<path d="M0.875 133.342H14.2003V146.667H0.875V133.342Z" fill="#263238"/>
<path d="M14.2003 133.342H27.5375V146.667H14.2003V133.342Z" fill="#00695C"/>
<path d="M27.5375 133.342H40.8734V146.667H27.5375V133.342Z" fill="#00695C"/>
<path d="M40.8734 133.342H54.2093V146.667H40.8734V133.342Z" fill="#00874B"/>
<path d="M54.2093 133.342H67.5453V146.667H54.2093V133.342Z" fill="#00874B"/>
<path d="M67.5469 133.342H80.8722V146.667H67.5469V133.342Z" fill="#00874B"/>
<path d="M80.8711 133.342H94.2074V146.667H80.8711V133.342Z" fill="#00874B"/>
<path d="M94.2074 133.342H107.543V146.667H94.2074V133.342Z" fill="#00874B"/>
<path d="M107.545 133.342H120.881V146.667H107.545V133.342Z" fill="#00695C"/>
<path d="M120.879 133.342H134.204V146.667H120.879V133.342Z" fill="#00695C"/>
<path d="M134.204 133.342H147.541V146.667H134.204V133.342Z" fill="#00695C"/>
<path d="M147.543 133.342H160.879V146.667H147.543V133.342Z" fill="#00874B"/>
<path d="M160.877 133.342H174.213V146.667H160.877V133.342Z" fill="#00874B"/>
<path d="M174.215 133.342H187.54V146.667H174.215V133.342Z" fill="#13B26B"/>
<path d="M187.54 133.342H200.877V146.667H187.54V133.342Z" fill="#13B26B"/>
<path d="M200.875 133.342H214.211V146.667H200.875V133.342Z" fill="#00695C"/>
<path d="M214.213 133.342H227.549V146.667H214.213V133.342Z" fill="#00695C"/>
<path d="M227.549 133.342H240.874V146.667H227.549V133.342Z" fill="#00874B"/>
<path d="M240.873 133.342H254.209V146.667H240.873V133.342Z" fill="#00874B"/>
<path d="M254.211 133.342H267.547V146.667H254.211V133.342Z" fill="#13B26B"/>
<path d="M267.547 133.342H280.883V146.667H267.547V133.342Z" fill="#13B26B"/>
<path d="M280.883 133.342H294.215V146.667H280.883V133.342Z" fill="#00695C"/>
<path d="M294.215 133.342H307.544V146.667H294.215V133.342Z" fill="#00874B"/>
<path d="M307.545 133.342H320.881V146.667H307.545V133.342Z" fill="#00874B"/>
<path d="M320.881 133.342H334.217V146.667H320.881V133.342Z" fill="#00874B"/>
<path d="M334.217 133.342H347.549V146.667H334.217V133.342Z" fill="#00874B"/>
<path d="M347.549 133.342H360.878V146.667H347.549V133.342Z" fill="#00874B"/>
<path d="M360.879 133.342H374.215V146.667H360.879V133.342Z" fill="#13B26B"/>
<path d="M374.215 133.342H387.551V146.667H374.215V133.342Z" fill="#263238"/>
<path d="M14.2012 146.666H27.5375V160.002H14.2012V146.666Z" fill="#263238"/>
<path d="M27.5375 146.666H40.8734V160.002H27.5375V146.666Z" fill="#00695C"/>
<path d="M40.8734 146.666L54.2092 146.666V160.002L40.8734 160.002V146.666Z" fill="#00695C"/>
<path d="M54.2092 146.666L67.5453 146.666V160.002L54.2092 160.002V146.666Z" fill="#00874B"/>
<path d="M67.5469 146.666H80.8722V160.002H67.5469V146.666Z" fill="#00874B"/>
<path d="M80.8711 146.666H94.2074V160.002H80.8711V146.666Z" fill="#00695C"/>
<path d="M94.2074 146.666H107.543V160.002H94.2074V146.666Z" fill="#00695C"/>
<path d="M107.545 146.666H120.881V160.002H107.545V146.666Z" fill="#00695C"/>
<path d="M120.879 146.666H134.204V160.002H120.879V146.666Z" fill="#00695C"/>
<path d="M134.204 146.666H147.541V160.002H134.204V146.666Z" fill="#00874B"/>
<path d="M147.543 146.666H160.879V160.002H147.543V146.666Z" fill="#00874B"/>
<path d="M160.877 146.666H174.213V160.002H160.877V146.666Z" fill="#00874B"/>
<path d="M174.215 146.666H187.54V160.002H174.215V146.666Z" fill="#00874B"/>
<path d="M187.54 146.666H200.877V160.002H187.54V146.666Z" fill="#00874B"/>
<path d="M200.875 146.666H214.211V160.002H200.875V146.666Z" fill="#00695C"/>
<path d="M214.213 146.666H227.549V160.002H214.213V146.666Z" fill="#00874B"/>
<path d="M227.549 146.666L240.874 146.666V160.002L227.549 160.002V146.666Z" fill="#00874B"/>
<path d="M240.873 146.666H254.209V160.002H240.873V146.666Z" fill="#00874B"/>
<path d="M254.211 146.666H267.547V160.002H254.211V146.666Z" fill="#00874B"/>
<path d="M267.547 146.666L280.883 146.666V160.002L267.547 160.002V146.666Z" fill="#00874B"/>
<path d="M280.883 146.666L294.215 146.666V160.002L280.883 160.002V146.666Z" fill="#00695C"/>
<path d="M294.215 146.666L307.544 146.666V160.002L294.215 160.002V146.666Z" fill="#00874B"/>
<path d="M307.544 146.666H320.881V160.002H307.544V146.666Z" fill="#00874B"/>
<path d="M320.881 146.666L334.217 146.666V160.002L320.881 160.002V146.666Z" fill="#00874B"/>
<path d="M334.217 146.666L347.549 146.666V160.002L334.217 160.002V146.666Z" fill="#00874B"/>
<path d="M347.549 146.666L360.878 146.666V160.002L347.549 160.002V146.666Z" fill="#00874B"/>
<path d="M360.879 146.666H374.215V160.002H360.879V146.666Z" fill="#00695C"/>
<path d="M374.215 146.666L387.551 146.666V160.002L374.215 160.002V146.666Z" fill="#263238"/>
<path d="M14.2012 160.002H27.5375V173.338H14.2012V160.002Z" fill="#263238"/>
<path d="M27.5375 160.002H40.8734V173.338H27.5375V160.002Z" fill="#00695C"/>
<path d="M40.8734 160.002L54.2092 160.002L54.2093 173.338H40.8734V160.002Z" fill="#00695C"/>
<path d="M54.2092 160.002L67.5453 160.002V173.338H54.2093L54.2092 160.002Z" fill="#00695C"/>
<path d="M67.5469 160.002H80.8722V173.338H67.5469V160.002Z" fill="#00695C"/>
<path d="M80.8711 160.002H94.2074V173.338H80.8711V160.002Z" fill="#00695C"/>
<path d="M94.2074 160.002H107.543V173.338H94.2074V160.002Z" fill="#00695C"/>
<path d="M107.545 160.002H120.881V173.338H107.545V160.002Z" fill="#00695C"/>
<path d="M120.879 160.002H134.204V173.338H120.879V160.002Z" fill="#00695C"/>
<path d="M134.204 160.002H147.541V173.338H134.204V160.002Z" fill="#00695C"/>
<path d="M147.543 160.002H160.879V173.338H147.543V160.002Z" fill="#00874B"/>
<path d="M160.877 160.002H174.213V173.338H160.877V160.002Z" fill="#00874B"/>
<path d="M174.215 160.002H187.54V173.338H174.215V160.002Z" fill="#00874B"/>
<path d="M187.54 160.002H200.877V173.338H187.54V160.002Z" fill="#00695C"/>
<path d="M200.875 160.002H214.211V173.338H200.875V160.002Z" fill="#00695C"/>
<path d="M214.213 160.002H227.549V173.338H214.213V160.002Z" fill="#00695C"/>
<path d="M227.549 160.002L240.874 160.002L240.874 173.338H227.549V160.002Z" fill="#00695C"/>
<path d="M240.873 160.002H254.209V173.338H240.873V160.002Z" fill="#00874B"/>
<path d="M254.211 160.002H267.547V173.338H254.211V160.002Z" fill="#00874B"/>
<path d="M267.547 160.002L280.883 160.002L280.883 173.338H267.547V160.002Z" fill="#00695C"/>
<path d="M280.883 160.002L294.215 160.002V173.338H280.883L280.883 160.002Z" fill="#00695C"/>
<path d="M294.215 160.002L307.544 160.002V173.338H294.215V160.002Z" fill="#00695C"/>
<path d="M307.545 160.002L320.881 160.002L320.881 173.338H307.545V160.002Z" fill="#00695C"/>
<path d="M320.881 160.002L334.217 160.002V173.338H320.881L320.881 160.002Z" fill="#00695C"/>
<path d="M334.217 160.002L347.549 160.002L347.549 173.338H334.217V160.002Z" fill="#00695C"/>
<path d="M347.549 160.002L360.878 160.002V173.338H347.549L347.549 160.002Z" fill="#00695C"/>
<path d="M360.879 160.002H374.215V173.338H360.879V160.002Z" fill="#00695C"/>
<path d="M374.215 160.002L387.551 160.002L387.551 173.338H374.215V160.002Z" fill="#263238"/>
<path d="M27.5371 173.34H40.8734V186.676H27.5371V173.34Z" fill="#263238"/>
<path d="M40.8734 173.34H54.2093V186.676H40.8734V173.34Z" fill="#00695C"/>
<path d="M54.2093 173.34H67.5453V186.676H54.2093V173.34Z" fill="#00695C"/>
<path d="M67.5469 173.34H80.8722V186.676H67.5469V173.34Z" fill="#00695C"/>
<path d="M80.8711 173.34H94.2074V186.676H80.8711V173.34Z" fill="#00695C"/>
<path d="M94.2074 173.34H107.543V186.676H94.2074V173.34Z" fill="#00695C"/>
<path d="M107.545 173.34H120.881V186.676H107.545V173.34Z" fill="#00695C"/>
<path d="M120.879 173.34H134.204V186.676H120.879V173.34Z" fill="#00695C"/>
<path d="M134.204 173.34H147.541V186.676H134.204V173.34Z" fill="#00695C"/>
<path d="M147.543 173.34H160.879V186.676H147.543V173.34Z" fill="#00695C"/>
<path d="M160.877 173.34H174.213V186.676H160.877V173.34Z" fill="#00695C"/>
<path d="M174.215 173.34H187.54V186.676H174.215V173.34Z" fill="#00695C"/>
<path d="M187.54 173.34H200.877V186.676H187.54V173.34Z" fill="#00695C"/>
<path d="M200.875 173.34H214.211V186.676H200.875V173.34Z" fill="#00695C"/>
<path d="M214.213 173.34H227.549V186.676H214.213V173.34Z" fill="#00695C"/>
<path d="M227.549 173.34H240.874V186.676H227.549V173.34Z" fill="#00695C"/>
<path d="M240.873 173.34H254.209V186.676H240.873V173.34Z" fill="#00695C"/>
<path d="M254.211 173.34H267.547V186.676H254.211V173.34Z" fill="#00695C"/>
<path d="M267.547 173.34H280.883V186.676H267.547V173.34Z" fill="#00695C"/>
<path d="M280.883 173.34H294.215V186.676H280.883V173.34Z" fill="#00695C"/>
<path d="M294.215 173.34H307.544V186.676H294.215V173.34Z" fill="#00695C"/>
<path d="M307.545 173.34H320.881V186.676H307.545V173.34Z" fill="#00695C"/>
<path d="M320.881 173.34H334.217V186.676H320.881V173.34Z" fill="#00695C"/>
<path d="M334.217 173.34H347.549V186.676H334.217V173.34Z" fill="#00695C"/>
<path d="M347.549 173.34H360.878V186.676H347.549V173.34Z" fill="#00695C"/>
<path d="M360.879 173.34H374.215V186.676H360.879V173.34Z" fill="#263238"/>
<path d="M40.873 186.674H54.2093V199.999H40.873V186.674Z" fill="#263238"/>
<path d="M54.2093 186.674H67.5453V199.999H54.2093V186.674Z" fill="#263238"/>
<path d="M67.5469 186.674H80.8722V199.999H67.5469V186.674Z" fill="#263238"/>
<path d="M80.8711 186.674H94.2074V199.999H80.8711V186.674Z" fill="#263238"/>
<path d="M94.2074 186.674H107.543V199.999H94.2074V186.674Z" fill="#263238"/>
<path d="M107.545 186.674H120.881V199.999H107.545V186.674Z" fill="#263238"/>
<path d="M120.879 186.674H134.204V199.999H120.879V186.674Z" fill="#263238"/>
<path d="M134.204 186.674H147.541V199.999H134.204V186.674Z" fill="#263238"/>
<path d="M147.543 186.674H160.879V199.999H147.543V186.674Z" fill="#263238"/>
<path d="M160.877 186.674H174.213V199.999H160.877V186.674Z" fill="#263238"/>
<path d="M174.215 186.674H187.54V199.999H174.215V186.674Z" fill="#263238"/>
<path d="M187.54 186.674H200.877V199.999H187.54V186.674Z" fill="#263238"/>
<path d="M200.875 186.674H214.211V199.999H200.875V186.674Z" fill="#263238"/>
<path d="M214.213 186.674H227.549V199.999H214.213V186.674Z" fill="#263238"/>
<path d="M227.549 186.674H240.874V199.999H227.549V186.674Z" fill="#263238"/>
<path d="M240.873 186.674H254.209V199.999H240.873V186.674Z" fill="#263238"/>
<path d="M254.211 186.674H267.547V199.999H254.211V186.674Z" fill="#263238"/>
<path d="M267.547 186.674H280.883V199.999H267.547V186.674Z" fill="#263238"/>
<path d="M280.883 186.674H294.215V199.999H280.883V186.674Z" fill="#263238"/>
<path d="M294.215 186.674H307.544V199.999H294.215V186.674Z" fill="#263238"/>
<path d="M307.545 186.674H320.881V199.999H307.545V186.674Z" fill="#263238"/>
<path d="M320.881 186.674H334.217V199.999H320.881V186.674Z" fill="#263238"/>
<path d="M334.217 186.674H347.549V199.999H334.217V186.674Z" fill="#263238"/>
<path d="M347.549 186.674H360.878V199.999H347.549V186.674Z" fill="#263238"/>
</svg>
