<svg width="455" height="200" viewBox="0 0 455 200" fill="none" xmlns="http://www.w3.org/2000/svg">
<path d="M454.572 145.459V154.548H445.467V145.459H454.572Z" fill="#CEE0E0"/>
<path d="M454.572 136.355V145.46H445.467V136.355H454.572Z" fill="#CEE0E0"/>
<path d="M454.572 127.266V136.354H445.467V127.266H454.572Z" fill="#F2F2F2"/>
<path d="M454.572 118.184V127.264H445.467V118.184H454.572Z" fill="white"/>
<path d="M445.468 154.549V163.638H436.379V154.549H445.468Z" fill="#CEE0E0"/>
<path d="M445.467 145.459V154.548H436.379V145.459H445.467Z" fill="#CEE0E0"/>
<path d="M445.467 136.355V145.46H436.379V136.355H445.467Z" fill="#F2F2F2"/>
<path d="M445.467 127.266V136.354H436.379V127.266H445.467Z" fill="#F2F2F2"/>
<path d="M445.467 118.184V127.264H436.379V118.184H445.467Z" fill="white"/>
<path d="M445.468 109.098V118.186H436.379V109.098H445.468Z" fill="white"/>
<path d="M436.382 154.549V163.638H427.293V154.549H436.382Z" fill="#CEE0E0"/>
<path d="M436.382 145.459V154.548H427.293V145.459H436.382Z" fill="#CEE0E0"/>
<path d="M436.382 136.355V145.46H427.293V136.355H436.382Z" fill="#F2F2F2"/>
<path d="M436.382 127.266V136.354H427.293V127.266H436.382Z" fill="#F2F2F2"/>
<path d="M436.382 118.184V127.264H427.293V118.184H436.382Z" fill="#F2F2F2"/>
<path d="M436.382 109.098V118.186H427.293V109.098H436.382Z" fill="white"/>
<path d="M436.382 100.008V109.097H427.293V100.008H436.382Z" fill="white"/>
<path d="M427.293 154.549V163.638H418.213V154.549H427.293Z" fill="#CEE0E0"/>
<path d="M427.293 145.459V154.548H418.213V145.459H427.293Z" fill="#CEE0E0"/>
<path d="M427.293 136.355V145.46H418.213V136.355H427.293Z" fill="#F2F2F2"/>
<path d="M427.293 127.266V136.354H418.213V127.266H427.293Z" fill="#F2F2F2"/>
<path d="M427.293 118.184V127.264H418.213V118.184H427.293Z" fill="#CEE0E0"/>
<path d="M427.293 109.098V118.186H418.213V109.098H427.293Z" fill="#F2F2F2"/>
<path d="M427.293 100.008V109.097H418.213V100.008H427.293Z" fill="white"/>
<path d="M427.294 90.9023L427.293 100.008H418.213V90.9023H427.294Z" fill="white"/>
<path d="M418.208 154.549V163.638H409.119V154.549H418.208Z" fill="#CEE0E0"/>
<path d="M418.208 145.459V154.548H409.119V145.459H418.208Z" fill="#CEE0E0"/>
<path d="M418.208 136.355V145.46H409.119V136.355H418.208Z" fill="#CEE0E0"/>
<path d="M418.208 127.266V136.354H409.119V127.266H418.208Z" fill="#F2F2F2"/>
<path d="M418.208 118.184V127.264H409.119V118.184H418.208Z" fill="#CEE0E0"/>
<path d="M418.208 109.098V118.186H409.119V109.098H418.208Z" fill="#F2F2F2"/>
<path d="M418.208 100.008V109.098H409.119V100.008H418.208Z" fill="white"/>
<path d="M418.208 90.9023L418.208 100.008H409.119L409.119 90.9023H418.208Z" fill="white"/>
<path d="M409.118 163.637V172.725H400.014V163.637H409.118Z" fill="#CEE0E0"/>
<path d="M409.119 154.549L409.118 163.637H400.014V154.549H409.119Z" fill="#CEE0E0"/>
<path d="M409.119 145.459V154.548H400.014V145.459H409.119Z" fill="#CEE0E0"/>
<path d="M409.119 136.355V145.46H400.014V136.355H409.119Z" fill="#CEE0E0"/>
<path d="M409.119 127.266V136.354H400.014V127.266H409.119Z" fill="#CEE0E0"/>
<path d="M409.119 118.184V127.264H400.014V118.184H409.119Z" fill="#CEE0E0"/>
<path d="M409.119 109.098V118.186L400.014 118.186V109.098L409.119 109.098Z" fill="#F2F2F2"/>
<path d="M409.119 100.008L409.118 109.097H400.014V100.008L409.119 100.008Z" fill="white"/>
<path d="M409.119 90.9023L409.118 100.007L400.014 100.008V90.9023H409.119Z" fill="white"/>
<path d="M400.016 163.637V172.725H390.928V163.637H400.016Z" fill="#CEE0E0"/>
<path d="M400.016 154.549V163.637H390.928V154.549H400.016Z" fill="#CEE0E0"/>
<path d="M400.016 145.459V154.548H390.928V145.459H400.016Z" fill="#CEE0E0"/>
<path d="M400.016 136.355V145.46H390.928V136.355H400.016Z" fill="#CEE0E0"/>
<path d="M400.016 127.266V136.354H390.928V127.266H400.016Z" fill="#F2F2F2"/>
<path d="M400.016 118.184V127.264H390.928V118.184H400.016Z" fill="#CEE0E0"/>
<path d="M400.017 109.098V118.186H390.928V109.098H400.017Z" fill="#F2F2F2"/>
<path d="M400.017 100.008V109.098H390.928V100.008H400.017Z" fill="#F2F2F2"/>
<path d="M400.016 90.9023L400.017 100.008H390.928L390.928 90.9023H400.016Z" fill="white"/>
<path d="M400.016 81.8145V90.9023H390.928V81.8145H400.016Z" fill="white"/>
<path d="M390.931 163.637V172.725H381.842V163.637H390.931Z" fill="#CEE0E0"/>
<path d="M390.931 154.549V163.637H381.842V154.549H390.931Z" fill="#CEE0E0"/>
<path d="M390.931 145.459V154.548H381.842V145.459H390.931Z" fill="#CEE0E0"/>
<path d="M390.931 136.355V145.46H381.842V136.355H390.931Z" fill="#F2F2F2"/>
<path d="M390.931 127.266V136.354H381.842V127.266H390.931Z" fill="#F2F2F2"/>
<path d="M390.931 118.184V127.264H381.842V118.184H390.931Z" fill="#CEE0E0"/>
<path d="M390.931 109.098V118.186H381.842V109.098H390.931Z" fill="#CEE0E0"/>
<path d="M390.931 100.008V109.097H381.842V100.008H390.931Z" fill="#F2F2F2"/>
<path d="M390.931 90.9023V100.008H381.842V90.9023H390.931Z" fill="#F2F2F2"/>
<path d="M390.931 81.8145V90.9023H381.842V81.8145H390.931Z" fill="white"/>
<path d="M381.837 154.549V163.638H372.748V154.549H381.837Z" fill="#CEE0E0"/>
<path d="M381.837 145.459V154.548H372.748V145.459H381.837Z" fill="#CEE0E0"/>
<path d="M381.837 136.355V145.46H372.748V136.355H381.837Z" fill="#F2F2F2"/>
<path d="M381.837 127.266V136.354H372.748V127.266H381.837Z" fill="#F2F2F2"/>
<path d="M381.837 118.184V127.264H372.748V118.184H381.837Z" fill="#F2F2F2"/>
<path d="M381.837 109.098V118.186H372.748V109.098H381.837Z" fill="#F2F2F2"/>
<path d="M381.837 100.008V109.097H372.748V100.008H381.837Z" fill="white"/>
<path d="M381.837 90.9023V100.008H372.748V90.9023H381.837Z" fill="white"/>
<path d="M381.837 81.8145V90.9023H372.748V81.8145H381.837Z" fill="white"/>
<path d="M381.837 72.7324V81.8131H372.748V72.7324H381.837Z" fill="white"/>
<path d="M372.749 163.637V172.725H363.668V163.637H372.749Z" fill="#CEE0E0"/>
<path d="M372.748 154.549L372.749 163.637H363.668V154.549H372.748Z" fill="#CEE0E0"/>
<path d="M372.748 145.459V154.548H363.668V145.459H372.748Z" fill="#F2F2F2"/>
<path d="M372.748 136.355V145.46H363.668V136.355H372.748Z" fill="#F2F2F2"/>
<path d="M372.748 127.266V136.354H363.668V127.266H372.748Z" fill="#F2F2F2"/>
<path d="M372.748 118.184V127.264H363.668V118.184H372.748Z" fill="#F2F2F2"/>
<path d="M372.748 109.098V118.186H363.668V109.098H372.748Z" fill="#F2F2F2"/>
<path d="M372.748 100.008V109.097H363.668V100.008H372.748Z" fill="white"/>
<path d="M372.748 90.9023V100.008H363.668V90.9023H372.748Z" fill="#F2F2F2"/>
<path d="M372.748 81.8145L372.749 90.9032L363.668 90.9023V81.8145H372.748Z" fill="#F2F2F2"/>
<path d="M372.748 72.7324V81.8131H363.668V72.7324H372.748Z" fill="white"/>
<path d="M363.668 163.637V172.725H354.562V163.637H363.668Z" fill="#CEE0E0"/>
<path d="M363.668 154.549L363.667 163.638L354.562 163.637V154.549H363.668Z" fill="#CEE0E0"/>
<path d="M363.668 145.459V154.548H354.562V145.459H363.668Z" fill="#F2F2F2"/>
<path d="M363.668 136.355V145.46H354.562V136.355H363.668Z" fill="#F2F2F2"/>
<path d="M363.668 127.266V136.354H354.562V127.266H363.668Z" fill="#F2F2F2"/>
<path d="M363.668 118.184V127.264H354.562V118.184H363.668Z" fill="#F2F2F2"/>
<path d="M363.668 109.098V118.186H354.562V109.098H363.668Z" fill="#F2F2F2"/>
<path d="M363.668 100.008V109.097H354.562V100.008H363.668Z" fill="#F2F2F2"/>
<path d="M363.668 90.9023V100.008H354.562V90.9023H363.668Z" fill="#F2F2F2"/>
<path d="M363.668 81.8145L363.667 90.9032L354.562 90.9023V81.8145H363.668Z" fill="#F2F2F2"/>
<path d="M363.668 72.7324V81.8131H354.562V72.7324H363.668Z" fill="white"/>
<path d="M354.565 163.637V172.725H345.477V163.637H354.565Z" fill="#CEE0E0"/>
<path d="M354.565 154.549V163.637H345.477V154.549H354.565Z" fill="#CEE0E0"/>
<path d="M354.565 145.459V154.548H345.477V145.459H354.565Z" fill="#F2F2F2"/>
<path d="M354.565 136.355V145.46H345.477V136.355H354.565Z" fill="#F2F2F2"/>
<path d="M354.565 127.266V136.354H345.477V127.266H354.565Z" fill="#F2F2F2"/>
<path d="M354.565 118.184V127.264H345.477V118.184H354.565Z" fill="#F2F2F2"/>
<path d="M354.565 109.098V118.186H345.477V109.098H354.565Z" fill="#F2F2F2"/>
<path d="M354.565 100.008V109.097H345.477V100.008H354.565Z" fill="#F2F2F2"/>
<path d="M354.565 90.9023V100.008H345.477V90.9023H354.565Z" fill="#F2F2F2"/>
<path d="M354.565 81.8145V90.9023H345.477V81.8145H354.565Z" fill="#F2F2F2"/>
<path d="M354.565 72.7324V81.8131H345.477V72.7324H354.565Z" fill="white"/>
<path d="M345.477 163.637V172.725H336.389V163.637H345.477Z" fill="#CEE0E0"/>
<path d="M345.477 154.549L345.477 163.638L336.389 163.637V154.549H345.477Z" fill="#CEE0E0"/>
<path d="M345.477 145.459V154.548H336.389V145.459H345.477Z" fill="#F2F2F2"/>
<path d="M345.477 136.355V145.46H336.389V136.355H345.477Z" fill="#F2F2F2"/>
<path d="M345.477 127.266V136.354H336.389V127.266H345.477Z" fill="#F2F2F2"/>
<path d="M345.477 118.184V127.264H336.389V118.184H345.477Z" fill="#F2F2F2"/>
<path d="M345.477 109.098V118.186H336.389V109.098H345.477Z" fill="#F2F2F2"/>
<path d="M345.477 100.008V109.097H336.389V100.008H345.477Z" fill="#F2F2F2"/>
<path d="M345.477 90.9023L345.477 100.007L336.389 100.008V90.9023H345.477Z" fill="#F2F2F2"/>
<path d="M345.477 81.8145L345.477 90.9032L336.389 90.9023V81.8145H345.477Z" fill="#F2F2F2"/>
<path d="M345.477 72.7324V81.8131H336.389V72.7324H345.477Z" fill="white"/>
<path d="M336.389 163.637V172.725H327.309V163.637H336.389Z" fill="#CEE0E0"/>
<path d="M336.389 154.549L336.389 163.638L327.309 163.637V154.549H336.389Z" fill="#CEE0E0"/>
<path d="M336.389 145.459V154.548H327.309V145.459H336.389Z" fill="#CEE0E0"/>
<path d="M336.389 136.355V145.46H327.309V136.355H336.389Z" fill="#F2F2F2"/>
<path d="M336.389 127.266V136.354H327.309V127.266H336.389Z" fill="#F2F2F2"/>
<path d="M336.389 118.184V127.264H327.309V118.184H336.389Z" fill="#F2F2F2"/>
<path d="M336.389 109.098V118.186H327.309V109.098H336.389Z" fill="#CEE0E0"/>
<path d="M336.389 100.008V109.097H327.309V100.008H336.389Z" fill="#CEE0E0"/>
<path d="M336.389 90.9023V100.008H327.309V90.9023H336.389Z" fill="#F2F2F2"/>
<path d="M336.389 81.8145L336.389 90.9032L327.309 90.9023V81.8145H336.389Z" fill="#F2F2F2"/>
<path d="M336.389 72.7324V81.8131H327.309V72.7324H336.389Z" fill="white"/>
<path d="M336.389 63.6465V72.7352H327.309V63.6465H336.389Z" fill="white"/>
<path d="M327.306 163.637V172.725H318.217V163.637H327.306Z" fill="#CEE0E0"/>
<path d="M327.306 154.549V163.637H318.217V154.549H327.306Z" fill="#CEE0E0"/>
<path d="M327.306 145.459V154.548H318.217V145.459H327.306Z" fill="#CEE0E0"/>
<path d="M327.306 136.355V145.46H318.217V136.355H327.306Z" fill="#CEE0E0"/>
<path d="M327.306 127.266V136.354H318.217V127.266H327.306Z" fill="#CEE0E0"/>
<path d="M327.306 118.184V127.264H318.217V118.184H327.306Z" fill="#F2F2F2"/>
<path d="M327.306 109.098V118.186H318.217V109.098H327.306Z" fill="#CEE0E0"/>
<path d="M327.306 100.008V109.097H318.217V100.008H327.306Z" fill="#F2F2F2"/>
<path d="M327.306 90.9023V100.008H318.217V90.9023H327.306Z" fill="#F2F2F2"/>
<path d="M327.306 81.8145V90.9023H318.217V81.8145H327.306Z" fill="#F2F2F2"/>
<path d="M327.306 72.7324V81.8131H318.217V72.7324H327.306Z" fill="#F2F2F2"/>
<path d="M327.306 63.6465V72.7352H318.217V63.6465H327.306Z" fill="white"/>
<path d="M327.306 54.5566V63.6454H318.217V54.5566H327.306Z" fill="white"/>
<path d="M327.306 45.4512V54.5566H318.217V45.4512H327.306Z" fill="white"/>
<path d="M318.217 154.549L318.216 163.638H309.111V154.549H318.217Z" fill="#CEE0E0"/>
<path d="M318.217 145.459V154.548H309.111V145.459H318.217Z" fill="#CEE0E0"/>
<path d="M318.217 136.355V145.46H309.111V136.355H318.217Z" fill="#CEE0E0"/>
<path d="M318.217 127.266V136.354H309.111V127.266H318.217Z" fill="#CEE0E0"/>
<path d="M318.217 118.184V127.264H309.111V118.184H318.217Z" fill="#CEE0E0"/>
<path d="M318.217 109.098V118.186L309.111 118.186V109.098L318.217 109.098Z" fill="#CEE0E0"/>
<path d="M318.217 100.008V109.097L309.111 109.098V100.008L318.217 100.008Z" fill="#F2F2F2"/>
<path d="M318.217 90.9023V100.008L309.111 100.008V90.9023H318.217Z" fill="#F2F2F2"/>
<path d="M318.217 81.8145L318.216 90.9032L309.111 90.9023V81.8145H318.217Z" fill="#F2F2F2"/>
<path d="M318.217 72.7324V81.8131H309.111V72.7324H318.217Z" fill="#F2F2F2"/>
<path d="M318.217 63.6465V72.7352H309.111V63.6465H318.217Z" fill="#F2F2F2"/>
<path d="M318.217 54.5566V63.6454H309.111V54.5566H318.217Z" fill="#F2F2F2"/>
<path d="M318.217 45.4512V54.5566H309.111V45.4512H318.217Z" fill="white"/>
<path d="M309.114 172.727V181.807H300.025V172.727H309.114Z" fill="#CEE0E0"/>
<path d="M309.114 163.637V172.725H300.025V163.637H309.114Z" fill="#CEE0E0"/>
<path d="M309.114 154.549V163.637H300.025V154.549H309.114Z" fill="#CEE0E0"/>
<path d="M309.114 145.459V154.548H300.025V145.459H309.114Z" fill="#CEE0E0"/>
<path d="M309.114 136.355V145.46H300.025V136.355H309.114Z" fill="#F2F2F2"/>
<path d="M309.114 127.266V136.354H300.025V127.266H309.114Z" fill="#F2F2F2"/>
<path d="M309.114 118.184V127.264H300.025V118.184H309.114Z" fill="#F2F2F2"/>
<path d="M309.114 109.098V118.186H300.025V109.098H309.114Z" fill="#CEE0E0"/>
<path d="M309.114 100.008V109.097H300.025V100.008H309.114Z" fill="#F2F2F2"/>
<path d="M309.114 90.9023V100.008H300.025V90.9023H309.114Z" fill="#F2F2F2"/>
<path d="M309.114 81.8145V90.9023H300.025V81.8145H309.114Z" fill="#F2F2F2"/>
<path d="M309.114 72.7324V81.8131H300.025V72.7324H309.114Z" fill="#F2F2F2"/>
<path d="M309.114 63.6465V72.7352H300.025V63.6465H309.114Z" fill="#F2F2F2"/>
<path d="M309.114 54.5566V63.6454H300.025V54.5566H309.114Z" fill="#F2F2F2"/>
<path d="M309.114 45.4512V54.5566H300.025V45.4512H309.114Z" fill="white"/>
<path d="M300.026 181.807V190.911H290.938V181.807H300.026Z" fill="#CEE0E0"/>
<path d="M300.025 172.727L300.026 181.807H290.938V172.727H300.025Z" fill="#CEE0E0"/>
<path d="M300.025 163.637V172.725H290.938V163.637H300.025Z" fill="#CEE0E0"/>
<path d="M300.025 154.549L300.026 163.638L290.938 163.637V154.549H300.025Z" fill="#CEE0E0"/>
<path d="M300.025 145.459V154.548H290.938V145.459H300.025Z" fill="#F2F2F2"/>
<path d="M300.025 136.355V145.46H290.938V136.355H300.025Z" fill="#F2F2F2"/>
<path d="M300.025 127.266V136.354H290.938V127.266H300.025Z" fill="#F2F2F2"/>
<path d="M300.025 118.184V127.264H290.938V118.184H300.025Z" fill="#F2F2F2"/>
<path d="M300.025 109.098V118.186H290.938V109.098H300.025Z" fill="#F2F2F2"/>
<path d="M300.025 100.008V109.097H290.938V100.008H300.025Z" fill="#CEE0E0"/>
<path d="M300.025 90.9023L300.026 100.007L290.938 100.008V90.9023H300.025Z" fill="#F2F2F2"/>
<path d="M300.025 81.8145L300.026 90.9032L290.938 90.9023V81.8145H300.025Z" fill="#F2F2F2"/>
<path d="M300.025 72.7324V81.8131H290.938V72.7324H300.025Z" fill="#F2F2F2"/>
<path d="M300.025 63.6465V72.7352H290.938V63.6465H300.025Z" fill="#F2F2F2"/>
<path d="M300.025 54.5566V63.6454H290.938V54.5566H300.025Z" fill="#F2F2F2"/>
<path d="M300.025 45.4512L300.026 54.5559L290.938 54.5566V45.4512H300.025Z" fill="white"/>
<path d="M290.934 181.807V190.911H281.846V181.807H290.934Z" fill="#CEE0E0"/>
<path d="M290.934 172.727V181.807H281.846V172.727H290.934Z" fill="#CEE0E0"/>
<path d="M290.934 163.637V172.725H281.846V163.637H290.934Z" fill="#CEE0E0"/>
<path d="M290.934 154.549V163.637H281.846V154.549H290.934Z" fill="#F2F2F2"/>
<path d="M290.934 145.459V154.548H281.846V145.459H290.934Z" fill="#F2F2F2"/>
<path d="M290.934 136.355V145.46H281.846V136.355H290.934Z" fill="#F2F2F2"/>
<path d="M290.934 127.266V136.354H281.846V127.266H290.934Z" fill="#F2F2F2"/>
<path d="M290.934 118.184V127.264H281.846V118.184H290.934Z" fill="#F2F2F2"/>
<path d="M290.934 109.098V118.186H281.846V109.098H290.934Z" fill="#F2F2F2"/>
<path d="M290.934 100.008V109.097H281.846V100.008H290.934Z" fill="#F2F2F2"/>
<path d="M290.934 90.9023V100.008H281.846V90.9023H290.934Z" fill="#F2F2F2"/>
<path d="M290.934 81.8145V90.9023H281.846V81.8145H290.934Z" fill="#F2F2F2"/>
<path d="M290.934 72.7324V81.8131H281.846V72.7324H290.934Z" fill="#F2F2F2"/>
<path d="M290.934 63.6465V72.7352H281.846V63.6465H290.934Z" fill="#F2F2F2"/>
<path d="M290.934 54.5566V63.6454H281.846V54.5566H290.934Z" fill="white"/>
<path d="M290.934 45.4512V54.5566H281.846V45.4512H290.934Z" fill="white"/>
<path d="M290.934 36.3613V45.45H281.846V36.3613H290.934Z" fill="white"/>
<path d="M290.934 27.2754V36.3641H281.846V27.2754H290.934Z" fill="white"/>
<path d="M290.934 18.1953V27.2754H281.846V18.1953H290.934Z" fill="white"/>
<path d="M281.844 190.912V200.001H272.764V190.912H281.844Z" fill="#CEE0E0"/>
<path d="M281.844 181.807V190.912H272.764V181.807H281.844Z" fill="#CEE0E0"/>
<path d="M281.844 172.727V181.807H272.764V172.727H281.844Z" fill="#CEE0E0"/>
<path d="M281.844 163.637V172.725H272.764V163.637H281.844Z" fill="#F2F2F2"/>
<path d="M281.844 154.549V163.637H272.764V154.549H281.844Z" fill="#F2F2F2"/>
<path d="M281.844 145.459V154.548H272.764V145.459H281.844Z" fill="#F2F2F2"/>
<path d="M281.844 136.355V145.46H272.764V136.355H281.844Z" fill="#F2F2F2"/>
<path d="M281.844 127.266V136.354H272.764V127.266H281.844Z" fill="white"/>
<path d="M281.844 118.184V127.264H272.764V118.184H281.844Z" fill="white"/>
<path d="M281.844 109.098V118.186H272.764V109.098H281.844Z" fill="#F2F2F2"/>
<path d="M281.844 100.008V109.097H272.764V100.008H281.844Z" fill="#F2F2F2"/>
<path d="M281.844 90.9023V100.008H272.764V90.9023H281.844Z" fill="#F2F2F2"/>
<path d="M281.844 81.8145V90.9023H272.764V81.8145H281.844Z" fill="#F2F2F2"/>
<path d="M281.844 72.7324V81.8131H272.764V72.7324H281.844Z" fill="#F2F2F2"/>
<path d="M281.844 63.6465V72.7352H272.764V63.6465H281.844Z" fill="white"/>
<path d="M281.844 54.5566V63.6454H272.764V54.5566H281.844Z" fill="#F2F2F2"/>
<path d="M281.844 45.4512V54.5566H272.764V45.4512H281.844Z" fill="#F2F2F2"/>
<path d="M281.844 36.3613V45.45H272.764V36.3613H281.844Z" fill="#F2F2F2"/>
<path d="M281.844 27.2754V36.3641H272.764V27.2754H281.844Z" fill="#F2F2F2"/>
<path d="M281.844 18.1953V27.2754H272.764V18.1953H281.844Z" fill="white"/>
<path d="M272.767 190.912V200.001H263.654V190.912H272.767Z" fill="#CEE0E0"/>
<path d="M272.767 181.807V190.912H263.654V181.807H272.767Z" fill="#CEE0E0"/>
<path d="M272.767 172.727V181.807H263.654V172.727H272.767Z" fill="#CEE0E0"/>
<path d="M272.767 163.637V172.725H263.654V163.637H272.767Z" fill="#F2F2F2"/>
<path d="M272.767 154.549V163.637H263.654V154.549H272.767Z" fill="#F2F2F2"/>
<path d="M272.767 145.459V154.548H263.654V145.459H272.767Z" fill="#F2F2F2"/>
<path d="M272.767 136.355V145.46H263.654V136.355H272.767Z" fill="white"/>
<path d="M272.767 127.266V136.354H263.654V127.266H272.767Z" fill="#F2F2F2"/>
<path d="M272.767 118.184V127.264H263.654V118.184H272.767Z" fill="white"/>
<path d="M272.767 109.098V118.186H263.654V109.098H272.767Z" fill="white"/>
<path d="M272.767 100.008V109.097H263.654V100.008H272.767Z" fill="#F2F2F2"/>
<path d="M272.767 90.9023V100.008H263.654V90.9023H272.767Z" fill="#F2F2F2"/>
<path d="M272.767 81.8145V90.9023H263.654V81.8145H272.767Z" fill="#F2F2F2"/>
<path d="M272.767 72.7324V81.8131H263.654V72.7324H272.767Z" fill="#F2F2F2"/>
<path d="M272.767 63.6465V72.7352H263.654V63.6465H272.767Z" fill="#F2F2F2"/>
<path d="M272.767 54.5566V63.6454H263.654V54.5566H272.767Z" fill="#F2F2F2"/>
<path d="M272.767 45.4512V54.5566H263.654V45.4512H272.767Z" fill="#F2F2F2"/>
<path d="M272.767 36.3613V45.45H263.654V36.3613H272.767Z" fill="#F2F2F2"/>
<path d="M272.767 27.2754V36.3641H263.654V27.2754H272.767Z" fill="#F2F2F2"/>
<path d="M272.767 18.1953V27.2754H263.654V18.1953H272.767Z" fill="white"/>
<path d="M272.767 9.10547V18.1942H263.654V9.10547H272.767Z" fill="white"/>
<path d="M263.653 190.912V200.001H254.572V190.912H263.653Z" fill="#CEE0E0"/>
<path d="M263.653 181.807V190.912H254.572V181.807H263.653Z" fill="#CEE0E0"/>
<path d="M263.653 172.727V181.807H254.572V172.727H263.653Z" fill="#CEE0E0"/>
<path d="M263.653 163.637V172.725H254.572V163.637H263.653Z" fill="#F2F2F2"/>
<path d="M263.653 154.549V163.637H254.572V154.549H263.653Z" fill="#F2F2F2"/>
<path d="M263.653 145.459V154.548H254.572V145.459H263.653Z" fill="#F2F2F2"/>
<path d="M263.653 136.355V145.46H254.572V136.355H263.653Z" fill="white"/>
<path d="M263.653 127.266V136.354H254.572V127.266H263.653Z" fill="white"/>
<path d="M263.653 118.184V127.264H254.572V118.184H263.653Z" fill="white"/>
<path d="M263.653 109.098V118.186H254.572V109.098H263.653Z" fill="#F2F2F2"/>
<path d="M263.653 100.008V109.097H254.572V100.008H263.653Z" fill="#F2F2F2"/>
<path d="M263.653 90.9023V100.008H254.572V90.9023H263.653Z" fill="#F2F2F2"/>
<path d="M263.653 81.8145V90.9023H254.572V81.8145H263.653Z" fill="#F2F2F2"/>
<path d="M263.653 72.7324V81.8131H254.572V72.7324H263.653Z" fill="#F2F2F2"/>
<path d="M263.653 63.6465V72.7352H254.572V63.6465H263.653Z" fill="#F2F2F2"/>
<path d="M263.653 54.5566V63.6454H254.572V54.5566H263.653Z" fill="#F2F2F2"/>
<path d="M263.653 45.4512V54.5566H254.572V45.4512H263.653Z" fill="#F2F2F2"/>
<path d="M263.653 36.3613V45.45H254.572V36.3613H263.653Z" fill="#F2F2F2"/>
<path d="M263.653 27.2754V36.3641H254.572V27.2754H263.653Z" fill="#F2F2F2"/>
<path d="M263.653 18.1953V27.2754H254.572V18.1953H263.653Z" fill="#F2F2F2"/>
<path d="M263.653 9.10547V18.1942H254.572V9.10547H263.653Z" fill="white"/>
<path d="M263.653 0V9.10547H254.572V0H263.653Z" fill="white"/>
<path d="M254.575 190.912V200.001H245.486V190.912H254.575Z" fill="#CEE0E0"/>
<path d="M254.575 181.806L254.575 190.912H245.486L245.486 181.806H254.575Z" fill="#CEE0E0"/>
<path d="M254.575 172.727L254.575 181.806H245.486L245.486 172.727H254.575Z" fill="#CEE0E0"/>
<path d="M254.575 163.637V172.725H245.486V163.637H254.575Z" fill="#CEE0E0"/>
<path d="M254.575 154.549V163.637H245.486V154.549H254.575Z" fill="#F2F2F2"/>
<path d="M254.575 145.459V154.548H245.486V145.459H254.575Z" fill="#F2F2F2"/>
<path d="M254.575 136.355V145.46H245.486V136.355H254.575Z" fill="#F2F2F2"/>
<path d="M254.575 127.266V136.354H245.486V127.266H254.575Z" fill="white"/>
<path d="M254.575 118.184V127.264H245.486V118.184H254.575Z" fill="white"/>
<path d="M254.575 109.098V118.186H245.486V109.098H254.575Z" fill="#F2F2F2"/>
<path d="M254.575 100.008V109.098H245.486V100.008H254.575Z" fill="#F2F2F2"/>
<path d="M254.575 90.9023L254.575 100.008H245.486L245.486 90.9023H254.575Z" fill="#CEE0E0"/>
<path d="M254.575 81.8145V90.9023H245.486V81.8145H254.575Z" fill="#F2F2F2"/>
<path d="M254.575 72.7324V81.8131H245.486V72.7324H254.575Z" fill="#F2F2F2"/>
<path d="M254.575 63.6465V72.7352H245.486V63.6465H254.575Z" fill="#F2F2F2"/>
<path d="M254.575 54.5566V63.6454H245.486V54.5566H254.575Z" fill="#F2F2F2"/>
<path d="M254.575 45.4512V54.5566H245.486V45.4512H254.575Z" fill="#F2F2F2"/>
<path d="M254.575 36.3613V45.45H245.486V36.3613H254.575Z" fill="#F2F2F2"/>
<path d="M254.575 27.2752V36.3639H245.486V27.2752H254.575Z" fill="#F2F2F2"/>
<path d="M254.575 18.1953L254.575 27.2752H245.486L245.486 18.1953H254.575Z" fill="#F2F2F2"/>
<path d="M254.575 9.10547V18.1942H245.486V9.10547H254.575Z" fill="#F2F2F2"/>
<path d="M254.575 0L254.575 9.10547H245.486L245.486 0H254.575Z" fill="white"/>
<path d="M245.483 190.912V200.001H236.395V190.912H245.483Z" fill="#CEE0E0"/>
<path d="M245.483 181.807V190.912H236.395V181.807H245.483Z" fill="#CEE0E0"/>
<path d="M245.483 172.727V181.807H236.395V172.727H245.483Z" fill="#CEE0E0"/>
<path d="M245.483 163.637V172.725H236.395V163.637H245.483Z" fill="#CEE0E0"/>
<path d="M245.483 154.549V163.637H236.395V154.549H245.483Z" fill="#F2F2F2"/>
<path d="M245.483 145.459V154.548H236.395V145.459H245.483Z" fill="#F2F2F2"/>
<path d="M245.483 136.355V145.46H236.395V136.355H245.483Z" fill="#F2F2F2"/>
<path d="M245.483 127.266V136.354H236.395V127.266H245.483Z" fill="#F2F2F2"/>
<path d="M245.483 118.184V127.264H236.395V118.184H245.483Z" fill="#F2F2F2"/>
<path d="M245.483 109.098V118.186H236.395V109.098H245.483Z" fill="#F2F2F2"/>
<path d="M245.483 100.008V109.097H236.395V100.008H245.483Z" fill="#CEE0E0"/>
<path d="M245.483 90.9023V100.008H236.395V90.9023H245.483Z" fill="#CEE0E0"/>
<path d="M245.483 81.8145V90.9023H236.395V81.8145H245.483Z" fill="#F2F2F2"/>
<path d="M245.483 72.7324V81.8131H236.395V72.7324H245.483Z" fill="#F2F2F2"/>
<path d="M245.483 63.6465V72.7352H236.395V63.6465H245.483Z" fill="white"/>
<path d="M245.483 54.5566V63.6454H236.395V54.5566H245.483Z" fill="white"/>
<path d="M245.483 45.4512V54.5566H236.395V45.4512H245.483Z" fill="white"/>
<path d="M245.483 36.3613V45.45H236.395V36.3613H245.483Z" fill="white"/>
<path d="M245.483 27.2754V36.3641H236.395V27.2754H245.483Z" fill="#F2F2F2"/>
<path d="M245.483 18.1953V27.2754H236.395V18.1953H245.483Z" fill="#F2F2F2"/>
<path d="M245.483 9.10547V18.1942H236.395V9.10547H245.483Z" fill="#F2F2F2"/>
<path d="M245.483 0V9.10547H236.395V0H245.483Z" fill="white"/>
<path d="M236.395 190.912V200.001H227.307V190.912H236.395Z" fill="#CEE0E0"/>
<path d="M236.396 181.806V190.911L227.307 190.912L227.307 181.806H236.396Z" fill="#CEE0E0"/>
<path d="M236.395 172.727L236.396 181.806H227.307L227.307 172.727H236.395Z" fill="#CEE0E0"/>
<path d="M236.395 163.637V172.725H227.307V163.637H236.395Z" fill="#CEE0E0"/>
<path d="M236.395 154.549L236.395 163.638L227.307 163.637V154.549H236.395Z" fill="#CEE0E0"/>
<path d="M236.395 145.459V154.548H227.307V145.459H236.395Z" fill="#F2F2F2"/>
<path d="M236.395 136.355V145.46H227.307V136.355H236.395Z" fill="#F2F2F2"/>
<path d="M236.395 127.266V136.354H227.307V127.266H236.395Z" fill="#F2F2F2"/>
<path d="M236.395 118.184V127.264H227.307V118.184H236.395Z" fill="#F2F2F2"/>
<path d="M236.396 109.098V118.186H227.307V109.098H236.396Z" fill="#CEE0E0"/>
<path d="M236.396 100.008V109.098H227.307V100.008H236.396Z" fill="#CEE0E0"/>
<path d="M236.395 90.9023L236.396 100.008H227.307L227.307 90.9023H236.395Z" fill="#F2F2F2"/>
<path d="M236.395 81.8145L236.395 90.9032L227.307 90.9023V81.8145H236.395Z" fill="#F2F2F2"/>
<path d="M236.395 72.7324V81.8131H227.307V72.7324H236.395Z" fill="white"/>
<path d="M236.395 63.6465V72.7352H227.307V63.6465H236.395Z" fill="white"/>
<path d="M236.395 54.5566V63.6454H227.307V54.5566H236.395Z" fill="white"/>
<path d="M236.395 45.4512L236.395 54.5559L227.307 54.5566V45.4512H236.395Z" fill="white"/>
<path d="M236.395 36.3613V45.45H227.307V36.3613H236.395Z" fill="white"/>
<path d="M236.396 27.2752V36.3639H227.307V27.2752H236.396Z" fill="#F2F2F2"/>
<path d="M236.395 18.1953L236.396 27.2752H227.307L227.307 18.1953H236.395Z" fill="#F2F2F2"/>
<path d="M236.395 9.10547V18.1942H227.307V9.10547H236.395Z" fill="#F2F2F2"/>
<path d="M236.396 0V9.10477L227.307 9.10547L227.307 0H236.396Z" fill="white"/>
<path d="M227.307 181.806L227.307 190.912L218.201 190.911V181.807L227.307 181.806Z" fill="#CEE0E0"/>
<path d="M227.307 172.727L227.306 181.807L218.201 181.807V172.727H227.307Z" fill="#CEE0E0"/>
<path d="M227.307 163.637V172.725H218.201V163.637H227.307Z" fill="#CEE0E0"/>
<path d="M227.307 154.549L227.306 163.638L218.201 163.637V154.549H227.307Z" fill="#CEE0E0"/>
<path d="M227.307 145.459V154.548H218.201V145.459H227.307Z" fill="#CEE0E0"/>
<path d="M227.307 136.355V145.46H218.201V136.355H227.307Z" fill="#CEE0E0"/>
<path d="M227.307 127.266V136.354H218.201V127.266H227.307Z" fill="#F2F2F2"/>
<path d="M227.307 118.184V127.264H218.201V118.184H227.307Z" fill="#F2F2F2"/>
<path d="M227.307 109.098V118.186L218.201 118.186V109.098L227.307 109.098Z" fill="#CEE0E0"/>
<path d="M227.307 100.008L227.306 109.097H218.201V100.008L227.307 100.008Z" fill="#F2F2F2"/>
<path d="M227.307 90.9023L227.306 100.007L218.201 100.008V90.9023H227.307Z" fill="#F2F2F2"/>
<path d="M227.307 81.8145L227.306 90.9032L218.201 90.9023V81.8145H227.307Z" fill="#F2F2F2"/>
<path d="M227.307 72.7324V81.8131H218.201V72.7324H227.307Z" fill="white"/>
<path d="M227.307 63.6465V72.7352H218.201V63.6465H227.307Z" fill="white"/>
<path d="M227.307 54.5566V63.6454H218.201V54.5566H227.307Z" fill="white"/>
<path d="M227.307 45.4512V54.5566H218.201V45.4512H227.307Z" fill="white"/>
<path d="M227.307 36.3613V45.45H218.201V36.3613H227.307Z" fill="white"/>
<path d="M227.307 27.2752V36.3639L218.201 36.3641V27.2754L227.307 27.2752Z" fill="white"/>
<path d="M227.307 18.1953L227.306 27.276L218.201 27.2754V18.1953H227.307Z" fill="#F2F2F2"/>
<path d="M227.307 9.10547V18.1942H218.201V9.10547H227.307Z" fill="#F2F2F2"/>
<path d="M227.307 0L227.307 9.10547H218.201V0H227.307Z" fill="white"/>
<path d="M218.201 172.727V181.807L209.121 181.807V172.727H218.201Z" fill="#CEE0E0"/>
<path d="M218.201 163.637V172.725H209.121V163.637H218.201Z" fill="#CEE0E0"/>
<path d="M218.201 154.549L218.202 163.638L209.121 163.637V154.549H218.201Z" fill="#CEE0E0"/>
<path d="M218.201 145.459V154.548H209.121V145.459H218.201Z" fill="#CEE0E0"/>
<path d="M218.201 136.355V145.46H209.121V136.355H218.201Z" fill="#CEE0E0"/>
<path d="M218.201 127.266V136.354H209.121V127.266H218.201Z" fill="#CEE0E0"/>
<path d="M218.201 118.184V127.264H209.121V118.184H218.201Z" fill="#CEE0E0"/>
<path d="M218.201 109.098V118.186H209.121V109.098H218.201Z" fill="#CEE0E0"/>
<path d="M218.201 100.008V109.097H209.121V100.008H218.201Z" fill="#F2F2F2"/>
<path d="M218.201 90.9023V100.008H209.121V90.9023H218.201Z" fill="#F2F2F2"/>
<path d="M218.201 81.8145L218.202 90.9032L209.121 90.9023V81.8145H218.201Z" fill="white"/>
<path d="M218.201 72.7324V81.8131H209.121V72.7324H218.201Z" fill="white"/>
<path d="M218.201 63.6465V72.7352H209.121V63.6465H218.201Z" fill="white"/>
<path d="M218.201 54.5566V63.6454H209.121V54.5566H218.201Z" fill="white"/>
<path d="M218.201 45.4512V54.5566H209.121V45.4512H218.201Z" fill="white"/>
<path d="M218.201 36.3613V45.45H209.121V36.3613H218.201Z" fill="white"/>
<path d="M218.201 27.2754V36.3641H209.121V27.2754H218.201Z" fill="#F2F2F2"/>
<path d="M218.201 18.1953V27.2754H209.121V18.1953H218.201Z" fill="#F2F2F2"/>
<path d="M218.201 9.10547V18.1942H209.121V9.10547H218.201Z" fill="white"/>
<path d="M218.201 0V9.10547H209.121V0H218.201Z" fill="white"/>
<path d="M209.124 163.637V172.725H200.035V163.637H209.124Z" fill="#CEE0E0"/>
<path d="M209.124 154.549V163.637H200.035V154.549H209.124Z" fill="#CEE0E0"/>
<path d="M209.124 145.459V154.548H200.035V145.459H209.124Z" fill="#CEE0E0"/>
<path d="M209.124 136.355V145.46H200.035V136.355H209.124Z" fill="#CEE0E0"/>
<path d="M209.124 127.266V136.354H200.035V127.266H209.124Z" fill="#F2F2F2"/>
<path d="M209.124 118.184V127.264H200.035V118.184H209.124Z" fill="#F2F2F2"/>
<path d="M209.124 109.098V118.186H200.035V109.098H209.124Z" fill="#CEE0E0"/>
<path d="M209.124 100.008V109.097H200.035V100.008H209.124Z" fill="#F2F2F2"/>
<path d="M209.124 90.9023V100.008H200.035V90.9023H209.124Z" fill="#F2F2F2"/>
<path d="M209.124 81.8145V90.9023H200.035V81.8145H209.124Z" fill="#F2F2F2"/>
<path d="M209.124 72.7324V81.8131H200.035V72.7324H209.124Z" fill="white"/>
<path d="M209.124 63.6465V72.7352H200.035V63.6465H209.124Z" fill="white"/>
<path d="M209.124 54.5566V63.6454H200.035V54.5566H209.124Z" fill="white"/>
<path d="M209.124 45.4512V54.5566H200.035V45.4512H209.124Z" fill="white"/>
<path d="M209.124 36.3613V45.45H200.035V36.3613H209.124Z" fill="#F2F2F2"/>
<path d="M209.124 27.2754V36.3641H200.035V27.2754H209.124Z" fill="#F2F2F2"/>
<path d="M209.124 18.1953V27.2754H200.035V18.1953H209.124Z" fill="#F2F2F2"/>
<path d="M209.124 9.10547V18.1942H200.035V9.10547H209.124Z" fill="white"/>
<path d="M200.03 172.727V181.807H190.941V172.727H200.03Z" fill="#CEE0E0"/>
<path d="M200.03 163.637V172.725H190.941V163.637H200.03Z" fill="#CEE0E0"/>
<path d="M200.03 154.549V163.637H190.941V154.549H200.03Z" fill="#CEE0E0"/>
<path d="M200.03 145.459V154.548H190.941V145.459H200.03Z" fill="#CEE0E0"/>
<path d="M200.03 136.355V145.46H190.941V136.355H200.03Z" fill="#F2F2F2"/>
<path d="M200.03 127.266V136.354H190.941V127.266H200.03Z" fill="#F2F2F2"/>
<path d="M200.03 118.184V127.264H190.941V118.184H200.03Z" fill="#F2F2F2"/>
<path d="M200.03 109.098V118.186H190.941V109.098H200.03Z" fill="#CEE0E0"/>
<path d="M200.03 100.008V109.097H190.941V100.008H200.03Z" fill="#CEE0E0"/>
<path d="M200.03 90.9023V100.008H190.941V90.9023H200.03Z" fill="#F2F2F2"/>
<path d="M200.03 81.8145V90.9023H190.941V81.8145H200.03Z" fill="#F2F2F2"/>
<path d="M200.03 72.7324V81.8131H190.941V72.7324H200.03Z" fill="#F2F2F2"/>
<path d="M200.03 63.6465V72.7352H190.941V63.6465H200.03Z" fill="white"/>
<path d="M200.03 54.5566V63.6454H190.941V54.5566H200.03Z" fill="white"/>
<path d="M200.03 45.4512V54.5566H190.941V45.4512H200.03Z" fill="#F2F2F2"/>
<path d="M200.03 36.3613V45.45H190.941V36.3613H200.03Z" fill="#F2F2F2"/>
<path d="M200.03 27.2754V36.3641H190.941V27.2754H200.03Z" fill="#F2F2F2"/>
<path d="M200.03 18.1953V27.2754H190.941V18.1953H200.03Z" fill="white"/>
<path d="M190.944 172.727V181.807H181.855V172.727H190.944Z" fill="#CEE0E0"/>
<path d="M190.944 163.637V172.725H181.855V163.637H190.944Z" fill="#CEE0E0"/>
<path d="M190.944 154.549V163.637H181.855V154.549H190.944Z" fill="#CEE0E0"/>
<path d="M190.944 145.459V154.548H181.855V145.459H190.944Z" fill="#CEE0E0"/>
<path d="M190.944 136.355V145.46H181.855V136.355H190.944Z" fill="#F2F2F2"/>
<path d="M190.944 127.266V136.354H181.855V127.266H190.944Z" fill="#F2F2F2"/>
<path d="M190.944 118.184V127.264H181.855V118.184H190.944Z" fill="#F2F2F2"/>
<path d="M190.944 109.098V118.186H181.855V109.098H190.944Z" fill="#F2F2F2"/>
<path d="M190.944 100.008V109.098H181.855V100.008H190.944Z" fill="#CEE0E0"/>
<path d="M190.944 90.9023L190.944 100.008H181.855L181.855 90.9023H190.944Z" fill="#F2F2F2"/>
<path d="M190.944 81.8145V90.9023H181.855V81.8145H190.944Z" fill="#F2F2F2"/>
<path d="M190.944 72.7324V81.8131H181.855V72.7324H190.944Z" fill="#F2F2F2"/>
<path d="M190.944 63.6465V72.7352H181.855V63.6465H190.944Z" fill="#F2F2F2"/>
<path d="M190.944 54.5566V63.6454H181.855V54.5566H190.944Z" fill="#F2F2F2"/>
<path d="M190.944 45.4512V54.5566H181.855V45.4512H190.944Z" fill="#F2F2F2"/>
<path d="M190.944 36.3613V45.45H181.855V36.3613H190.944Z" fill="#F2F2F2"/>
<path d="M190.944 27.2752V36.3639H181.855V27.2752H190.944Z" fill="white"/>
<path d="M190.944 18.1953L190.944 27.2752H181.855L181.855 18.1953H190.944Z" fill="white"/>
<path d="M181.855 181.807L181.855 190.911H172.75V181.807L181.855 181.807Z" fill="#CEE0E0"/>
<path d="M181.855 172.727V181.807L172.75 181.807V172.727H181.855Z" fill="#CEE0E0"/>
<path d="M181.855 163.637V172.725H172.75V163.637H181.855Z" fill="#CEE0E0"/>
<path d="M181.855 154.549L181.855 163.638L172.75 163.637V154.549H181.855Z" fill="#CEE0E0"/>
<path d="M181.855 145.459V154.548H172.75V145.459H181.855Z" fill="#F2F2F2"/>
<path d="M181.855 136.355V145.46H172.75V136.355H181.855Z" fill="#F2F2F2"/>
<path d="M181.855 127.266V136.354H172.75V127.266H181.855Z" fill="#F2F2F2"/>
<path d="M181.855 118.184V127.264H172.75V118.184H181.855Z" fill="#F2F2F2"/>
<path d="M181.855 109.098V118.186L172.75 118.186V109.098L181.855 109.098Z" fill="#F2F2F2"/>
<path d="M181.855 100.008L181.855 109.097H172.75V100.008L181.855 100.008Z" fill="#F2F2F2"/>
<path d="M181.855 90.9023L181.855 100.008L172.75 100.008V90.9023H181.855Z" fill="#F2F2F2"/>
<path d="M181.855 81.8145L181.855 90.9032L172.75 90.9023V81.8145H181.855Z" fill="#F2F2F2"/>
<path d="M181.855 72.7324V81.8131H172.75V72.7324H181.855Z" fill="#F2F2F2"/>
<path d="M181.855 63.6465V72.7352H172.75V63.6465H181.855Z" fill="#F2F2F2"/>
<path d="M181.855 54.5566V63.6454H172.75V54.5566H181.855Z" fill="#F2F2F2"/>
<path d="M181.855 45.4512V54.5566H172.75V45.4512H181.855Z" fill="#F2F2F2"/>
<path d="M181.855 36.3613V45.45H172.75V36.3613H181.855Z" fill="white"/>
<path d="M181.855 27.2752V36.3639L172.75 36.3641V27.2754L181.855 27.2752Z" fill="white"/>
<path d="M172.75 181.807V190.911L163.67 190.911V181.806L172.75 181.807Z" fill="#CEE0E0"/>
<path d="M172.75 172.727V181.807L163.67 181.806L163.67 172.727H172.75Z" fill="#CEE0E0"/>
<path d="M172.75 163.637V172.725H163.67V163.637H172.75Z" fill="#CEE0E0"/>
<path d="M172.75 154.549L172.751 163.638L163.67 163.637V154.549H172.75Z" fill="#CEE0E0"/>
<path d="M172.75 145.459V154.548H163.67V145.459H172.75Z" fill="#CEE0E0"/>
<path d="M172.75 136.355V145.46H163.67V136.355H172.75Z" fill="#F2F2F2"/>
<path d="M172.75 127.266V136.354H163.67V127.266H172.75Z" fill="#F2F2F2"/>
<path d="M172.75 118.184V127.264H163.67V118.184H172.75Z" fill="#F2F2F2"/>
<path d="M172.75 109.098V118.186L163.67 118.186V109.098L172.75 109.098Z" fill="#CEE0E0"/>
<path d="M172.75 100.008V109.097L163.67 109.098V100.008L172.75 100.008Z" fill="#F2F2F2"/>
<path d="M172.75 90.9023V100.008L163.67 100.008L163.67 90.9023H172.75Z" fill="#F2F2F2"/>
<path d="M172.75 81.8145L172.751 90.9032L163.67 90.9023V81.8145H172.75Z" fill="#F2F2F2"/>
<path d="M172.75 72.7324V81.8131H163.67V72.7324H172.75Z" fill="#F2F2F2"/>
<path d="M172.75 63.6465V72.7352H163.67V63.6465H172.75Z" fill="#F2F2F2"/>
<path d="M172.75 54.5566V63.6454H163.67V54.5566H172.75Z" fill="#F2F2F2"/>
<path d="M172.75 45.4512V54.5566H163.67V45.4512H172.75Z" fill="white"/>
<path d="M163.673 172.727V181.807H154.584V172.727H163.673Z" fill="#CEE0E0"/>
<path d="M163.673 163.637V172.725H154.584V163.637H163.673Z" fill="#CEE0E0"/>
<path d="M163.673 154.549V163.637H154.584V154.549H163.673Z" fill="#CEE0E0"/>
<path d="M163.673 145.459V154.548H154.584V145.459H163.673Z" fill="#CEE0E0"/>
<path d="M163.673 136.355V145.46H154.584V136.355H163.673Z" fill="#F2F2F2"/>
<path d="M163.673 127.266V136.354H154.584V127.266H163.673Z" fill="#F2F2F2"/>
<path d="M163.673 118.184V127.264H154.584V118.184H163.673Z" fill="#CEE0E0"/>
<path d="M163.673 109.098V118.186H154.584V109.098H163.673Z" fill="#CEE0E0"/>
<path d="M163.673 100.008V109.097H154.584V100.008H163.673Z" fill="#F2F2F2"/>
<path d="M163.673 90.9023V100.008H154.584V90.9023H163.673Z" fill="#F2F2F2"/>
<path d="M163.673 81.8145V90.9023H154.584V81.8145H163.673Z" fill="#F2F2F2"/>
<path d="M163.673 72.7324V81.8131H154.584V72.7324H163.673Z" fill="#F2F2F2"/>
<path d="M163.673 63.6465V72.7352H154.584V63.6465H163.673Z" fill="#F2F2F2"/>
<path d="M163.673 54.5566V63.6454H154.584V54.5566H163.673Z" fill="white"/>
<path d="M163.673 45.4512V54.5566H154.584V45.4512H163.673Z" fill="white"/>
<path d="M154.579 163.637V172.725H145.49V163.637H154.579Z" fill="#CEE0E0"/>
<path d="M154.579 154.549V163.637H145.49V154.549H154.579Z" fill="#CEE0E0"/>
<path d="M154.579 145.459V154.548H145.49V145.459H154.579Z" fill="#CEE0E0"/>
<path d="M154.579 136.355V145.46H145.49V136.355H154.579Z" fill="#CEE0E0"/>
<path d="M154.579 127.266V136.354H145.49V127.266H154.579Z" fill="#CEE0E0"/>
<path d="M154.579 118.184V127.264H145.49V118.184H154.579Z" fill="#CEE0E0"/>
<path d="M154.579 109.098V118.186H145.49V109.098H154.579Z" fill="#CEE0E0"/>
<path d="M154.579 100.008V109.098H145.49V100.008H154.579Z" fill="#F2F2F2"/>
<path d="M154.579 90.9023L154.579 100.008H145.49L145.49 90.9023H154.579Z" fill="#F2F2F2"/>
<path d="M154.579 81.8145V90.9023H145.49V81.8145H154.579Z" fill="#F2F2F2"/>
<path d="M154.579 72.7324V81.8131H145.49V72.7324H154.579Z" fill="white"/>
<path d="M154.579 63.6465V72.7352H145.49V63.6465H154.579Z" fill="white"/>
<path d="M154.579 54.5566V63.6454H145.49V54.5566H154.579Z" fill="white"/>
<path d="M145.493 163.637V172.725H136.404V163.637H145.493Z" fill="#CEE0E0"/>
<path d="M145.493 154.549V163.637H136.404V154.549H145.493Z" fill="#CEE0E0"/>
<path d="M145.493 145.459V154.548H136.404V145.459H145.493Z" fill="#CEE0E0"/>
<path d="M145.493 136.355V145.46H136.404V136.355H145.493Z" fill="#CEE0E0"/>
<path d="M145.493 127.266V136.354H136.404V127.266H145.493Z" fill="#CEE0E0"/>
<path d="M145.493 118.184V127.264H136.404V118.184H145.493Z" fill="#CEE0E0"/>
<path d="M145.493 109.098V118.186H136.404V109.098H145.493Z" fill="#CEE0E0"/>
<path d="M145.493 100.008V109.097H136.404V100.008H145.493Z" fill="#F2F2F2"/>
<path d="M145.493 90.9023V100.008H136.404V90.9023H145.493Z" fill="#F2F2F2"/>
<path d="M145.493 81.8145V90.9023H136.404V81.8145H145.493Z" fill="#F2F2F2"/>
<path d="M145.493 72.7324V81.8131H136.404V72.7324H145.493Z" fill="white"/>
<path d="M145.493 63.6465V72.7352H136.404V63.6465H145.493Z" fill="white"/>
<path d="M145.493 54.5566V63.6454H136.404V54.5566H145.493Z" fill="white"/>
<path d="M136.404 163.637V172.725H127.299V163.637H136.404Z" fill="#CEE0E0"/>
<path d="M136.404 154.549L136.404 163.638L127.299 163.637V154.549H136.404Z" fill="#CEE0E0"/>
<path d="M136.404 145.459V154.548H127.299V145.459H136.404Z" fill="#CEE0E0"/>
<path d="M136.404 136.355V145.46H127.299V136.355H136.404Z" fill="#CEE0E0"/>
<path d="M136.404 127.266V136.354H127.299V127.266H136.404Z" fill="#CEE0E0"/>
<path d="M136.404 118.184V127.264H127.299V118.184H136.404Z" fill="#F2F2F2"/>
<path d="M136.404 109.098V118.186L127.299 118.186V109.098L136.404 109.098Z" fill="#CEE0E0"/>
<path d="M136.404 100.008V109.097L127.299 109.098V100.008L136.404 100.008Z" fill="#F2F2F2"/>
<path d="M136.404 90.9023V100.008L127.299 100.008L127.299 90.9023H136.404Z" fill="#F2F2F2"/>
<path d="M136.404 81.8145L136.404 90.9032L127.299 90.9023V81.8145H136.404Z" fill="#F2F2F2"/>
<path d="M136.404 72.7324V81.8131H127.299V72.7324H136.404Z" fill="white"/>
<path d="M127.299 163.637V172.725H118.219V163.637H127.299Z" fill="#CEE0E0"/>
<path d="M127.299 154.549L127.299 163.638L118.219 163.637V154.549H127.299Z" fill="#CEE0E0"/>
<path d="M127.299 145.459V154.548H118.219V145.459H127.299Z" fill="#CEE0E0"/>
<path d="M127.299 136.355V145.46H118.219V136.355H127.299Z" fill="#CEE0E0"/>
<path d="M127.299 127.266V136.354H118.219V127.266H127.299Z" fill="#F2F2F2"/>
<path d="M127.299 118.184V127.264H118.219V118.184H127.299Z" fill="#F2F2F2"/>
<path d="M127.299 109.098V118.186L118.219 118.186V109.098L127.299 109.098Z" fill="#F2F2F2"/>
<path d="M127.299 100.008L127.299 109.097H118.219V100.008L127.299 100.008Z" fill="#F2F2F2"/>
<path d="M127.299 90.9023L127.299 100.007L118.219 100.008V90.9023H127.299Z" fill="#F2F2F2"/>
<path d="M127.299 81.8145L127.299 90.9032L118.219 90.9023V81.8145H127.299Z" fill="#F2F2F2"/>
<path d="M127.299 72.7324V81.8131H118.219V72.7324H127.299Z" fill="white"/>
<path d="M118.219 163.637V172.725H109.131V163.637H118.219Z" fill="#CEE0E0"/>
<path d="M118.219 154.549L118.22 163.638L109.131 163.637V154.549H118.219Z" fill="#CEE0E0"/>
<path d="M118.219 145.459V154.548H109.131V145.459H118.219Z" fill="#CEE0E0"/>
<path d="M118.219 136.355V145.46H109.131V136.355H118.219Z" fill="#CEE0E0"/>
<path d="M118.219 127.266V136.354H109.131V127.266H118.219Z" fill="#F2F2F2"/>
<path d="M118.219 118.184V127.264H109.131V118.184H118.219Z" fill="#F2F2F2"/>
<path d="M118.219 109.098V118.186H109.131V109.098H118.219Z" fill="#F2F2F2"/>
<path d="M118.219 100.008V109.097H109.131V100.008H118.219Z" fill="#F2F2F2"/>
<path d="M118.219 90.9023L118.22 100.007L109.131 100.008V90.9023H118.219Z" fill="white"/>
<path d="M118.219 81.8145L118.22 90.9032L109.131 90.9023V81.8145H118.219Z" fill="#F2F2F2"/>
<path d="M118.219 72.7324V81.8131H109.131V72.7324H118.219Z" fill="white"/>
<path d="M109.128 154.549V163.638H100.039V154.549H109.128Z" fill="#CEE0E0"/>
<path d="M109.128 145.459V154.548H100.039V145.459H109.128Z" fill="#CEE0E0"/>
<path d="M109.128 136.355V145.46H100.039V136.355H109.128Z" fill="#CEE0E0"/>
<path d="M109.128 127.266V136.354H100.039V127.266H109.128Z" fill="#F2F2F2"/>
<path d="M109.128 118.184V127.264H100.039V118.184H109.128Z" fill="#F2F2F2"/>
<path d="M109.128 109.098V118.186H100.039V109.098H109.128Z" fill="#F2F2F2"/>
<path d="M109.128 100.008V109.097H100.039V100.008H109.128Z" fill="#F2F2F2"/>
<path d="M109.128 90.9023V100.008H100.039V90.9023H109.128Z" fill="white"/>
<path d="M109.128 81.8145V90.9023H100.039V81.8145H109.128Z" fill="white"/>
<path d="M100.04 163.637V172.725H90.9512V163.637H100.04Z" fill="#CEE0E0"/>
<path d="M100.039 154.549L100.04 163.637H90.9512V154.549H100.039Z" fill="#CEE0E0"/>
<path d="M100.039 145.459V154.548H90.9512V145.459H100.039Z" fill="#CEE0E0"/>
<path d="M100.039 136.355V145.46H90.9512V136.355H100.039Z" fill="#CEE0E0"/>
<path d="M100.039 127.266V136.354H90.9512V127.266H100.039Z" fill="#CEE0E0"/>
<path d="M100.039 118.184V127.264H90.9512V118.184H100.039Z" fill="#F2F2F2"/>
<path d="M100.039 109.098V118.186H90.9512V109.098H100.039Z" fill="#F2F2F2"/>
<path d="M100.039 100.008V109.097H90.9512V100.008H100.039Z" fill="#F2F2F2"/>
<path d="M100.039 90.9023L100.04 100.007L90.9512 100.008V90.9023H100.039Z" fill="#F2F2F2"/>
<path d="M100.039 81.8145L100.04 90.9032L90.9512 90.9023V81.8145H100.039Z" fill="white"/>
<path d="M90.9524 163.637V172.725H81.8477V163.637H90.9524Z" fill="#CEE0E0"/>
<path d="M90.9524 154.549V163.637H81.8477V154.549H90.9524Z" fill="#CEE0E0"/>
<path d="M90.9524 145.459V154.548H81.8477V145.459H90.9524Z" fill="#CEE0E0"/>
<path d="M90.9524 136.355V145.46H81.8477V136.355H90.9524Z" fill="#CEE0E0"/>
<path d="M90.9524 127.266V136.354H81.8477V127.266H90.9524Z" fill="#CEE0E0"/>
<path d="M90.9524 118.184V127.264H81.8477V118.184H90.9524Z" fill="#CEE0E0"/>
<path d="M90.9524 109.098V118.186H81.8477V109.098H90.9524Z" fill="#F2F2F2"/>
<path d="M90.9524 100.008V109.097H81.8477V100.008H90.9524Z" fill="#F2F2F2"/>
<path d="M90.9524 90.9023V100.008H81.8477V90.9023H90.9524Z" fill="#F2F2F2"/>
<path d="M90.9524 81.8145V90.9023H81.8477V81.8145H90.9524Z" fill="white"/>
<path d="M81.8477 163.637V172.725H72.7598V163.637H81.8477Z" fill="#CEE0E0"/>
<path d="M81.8477 154.549L81.8485 163.638L72.7598 163.637V154.549H81.8477Z" fill="#CEE0E0"/>
<path d="M81.8477 145.459V154.548H72.7598V145.459H81.8477Z" fill="#CEE0E0"/>
<path d="M81.8477 136.355V145.46H72.7598V136.355H81.8477Z" fill="#CEE0E0"/>
<path d="M81.8477 127.266V136.354H72.7598V127.266H81.8477Z" fill="#CEE0E0"/>
<path d="M81.8477 118.184V127.264H72.7598V118.184H81.8477Z" fill="#CEE0E0"/>
<path d="M81.8477 109.098V118.186H72.7598V109.098H81.8477Z" fill="#CEE0E0"/>
<path d="M81.8477 100.008V109.097H72.7598V100.008H81.8477Z" fill="#F2F2F2"/>
<path d="M81.8477 90.9023L81.8485 100.007L72.7598 100.008V90.9023H81.8477Z" fill="#F2F2F2"/>
<path d="M81.8477 81.8145L81.8485 90.9032L72.7598 90.9023V81.8145H81.8477Z" fill="#F2F2F2"/>
<path d="M72.7598 154.549L72.7604 163.638H63.6797V154.549H72.7598Z" fill="#CEE0E0"/>
<path d="M72.7598 145.459V154.548H63.6797V145.459H72.7598Z" fill="#CEE0E0"/>
<path d="M72.7598 136.355V145.46H63.6797V136.355H72.7598Z" fill="#CEE0E0"/>
<path d="M72.7598 127.266V136.354H63.6797V127.266H72.7598Z" fill="#CEE0E0"/>
<path d="M72.7598 118.184V127.264H63.6797V118.184H72.7598Z" fill="#CEE0E0"/>
<path d="M72.7598 109.098V118.186L63.6799 118.186V109.098L72.7598 109.098Z" fill="#F2F2F2"/>
<path d="M72.7598 100.008V109.097L63.6799 109.098V100.008L72.7598 100.008Z" fill="#F2F2F2"/>
<path d="M72.7598 90.9023V100.008L63.6799 100.008L63.6797 90.9023H72.7598Z" fill="#F2F2F2"/>
<path d="M63.6766 145.459V154.548H54.5879V145.459H63.6766Z" fill="#CEE0E0"/>
<path d="M63.6766 136.355V145.46H54.5879V136.355H63.6766Z" fill="#CEE0E0"/>
<path d="M63.6766 127.266V136.354H54.5879V127.266H63.6766Z" fill="#CEE0E0"/>
<path d="M63.6766 118.184V127.264H54.5879V118.184H63.6766Z" fill="#F2F2F2"/>
<path d="M63.6766 109.098V118.186H54.5879V109.098H63.6766Z" fill="#F2F2F2"/>
<path d="M63.6766 100.008V109.097H54.5879V100.008H63.6766Z" fill="#F2F2F2"/>
<path d="M54.5879 145.459V154.548H45.5V145.459H54.5879Z" fill="#CEE0E0"/>
<path d="M54.5879 136.355V145.46H45.5V136.355H54.5879Z" fill="#CEE0E0"/>
<path d="M54.5879 127.266V136.354H45.5V127.266H54.5879Z" fill="#F2F2F2"/>
<path d="M54.5879 118.184V127.264H45.5V118.184H54.5879Z" fill="#F2F2F2"/>
<path d="M54.5879 109.098V118.186H45.5V109.098H54.5879Z" fill="#F2F2F2"/>
<path d="M54.5879 100.008V109.097H45.5V100.008H54.5879Z" fill="#F2F2F2"/>
<path d="M45.5028 154.549V163.638H36.4141V154.549H45.5028Z" fill="#CEE0E0"/>
<path d="M45.5028 145.459V154.548H36.4141V145.459H45.5028Z" fill="#CEE0E0"/>
<path d="M45.5028 136.355V145.46H36.4141V136.355H45.5028Z" fill="#CEE0E0"/>
<path d="M45.5028 127.266V136.354H36.4141V127.266H45.5028Z" fill="#F2F2F2"/>
<path d="M45.5028 118.184V127.264H36.4141V118.184H45.5028Z" fill="#F2F2F2"/>
<path d="M45.5028 109.098V118.186H36.4141V109.098H45.5028Z" fill="#F2F2F2"/>
<path d="M45.5028 100.008V109.097H36.4141V100.008H45.5028Z" fill="#F2F2F2"/>
<path d="M36.4141 154.549V163.638H27.3086V154.549H36.4141Z" fill="#CEE0E0"/>
<path d="M36.4141 145.459V154.548H27.3086V145.459H36.4141Z" fill="#CEE0E0"/>
<path d="M36.4141 136.355V145.46H27.3086V136.355H36.4141Z" fill="#F2F2F2"/>
<path d="M36.4141 127.266V136.354H27.3086V127.266H36.4141Z" fill="#F2F2F2"/>
<path d="M36.4141 118.184V127.264H27.3086V118.184H36.4141Z" fill="#F2F2F2"/>
<path d="M36.4141 109.098V118.186H27.3086V109.098H36.4141Z" fill="#F2F2F2"/>
<path d="M36.4141 100.008V109.097H27.3086V100.008H36.4141Z" fill="#F2F2F2"/>
<path d="M27.3086 154.549V163.638H18.2285V154.549H27.3086Z" fill="#CEE0E0"/>
<path d="M27.3086 145.459V154.548H18.2285V145.459H27.3086Z" fill="#CEE0E0"/>
<path d="M27.3086 136.355V145.46H18.2285V136.355H27.3086Z" fill="#F2F2F2"/>
<path d="M27.3086 127.266V136.354H18.2285V127.266H27.3086Z" fill="#F2F2F2"/>
<path d="M27.3086 118.184V127.264H18.2285V118.184H27.3086Z" fill="#F2F2F2"/>
<path d="M27.3086 109.098V118.186H18.2285V109.098H27.3086Z" fill="#F2F2F2"/>
<path d="M18.2235 154.549V163.638H9.13477V154.549H18.2235Z" fill="#CEE0E0"/>
<path d="M18.2235 145.459V154.548H9.13477V145.459H18.2235Z" fill="#CEE0E0"/>
<path d="M18.2235 136.355V145.46H9.13477V136.355H18.2235Z" fill="#CEE0E0"/>
<path d="M18.2235 127.266V136.354H9.13477V127.266H18.2235Z" fill="#F2F2F2"/>
<path d="M18.2235 118.184V127.264H9.13477V118.184H18.2235Z" fill="#F2F2F2"/>
<path d="M18.2235 109.098V118.186H9.13477V109.098H18.2235Z" fill="#F2F2F2"/>
<path d="M9.13754 145.459V154.548H0.0488281V145.459H9.13754Z" fill="#CEE0E0"/>
<path d="M9.13754 136.355V145.46H0.0488281V136.355H9.13754Z" fill="#CEE0E0"/>
<path d="M9.13754 127.266V136.354H0.0488281V127.266H9.13754Z" fill="#CEE0E0"/>
<path d="M9.13754 118.184V127.264H0.0488281V118.184H9.13754Z" fill="#F2F2F2"/>
</svg>
