<svg width="201" height="200" viewBox="0 0 201 200" fill="none" xmlns="http://www.w3.org/2000/svg">
<path d="M125.555 0H138.058V12.4994H125.555V0Z" fill="#263238"/>
<path d="M138.058 0H150.561V12.4994H138.058V0Z" fill="#263238"/>
<path d="M150.561 0H163.053V12.4994H150.561V0Z" fill="#263238"/>
<path d="M163.053 0H175.556V12.4994H163.053V0Z" fill="#263238"/>
<path d="M113.055 12.5H125.554V25.0028H113.055V12.5Z" fill="#263238"/>
<path d="M125.554 12.5L138.058 12.4994L138.057 25.0028H125.554V12.5Z" fill="#13B26B"/>
<path d="M138.059 12.5L150.561 12.4994V25.0028H138.059V12.5Z" fill="#13B26B"/>
<path d="M150.561 12.5L163.053 12.4994V25.0028H150.561L150.561 12.5Z" fill="#13B26B"/>
<path d="M163.053 12.4994H175.556V25.0028H163.053V12.4994Z" fill="#13B26B"/>
<path d="M175.557 12.5H188.059V25.0028H175.557V12.5Z" fill="#263238"/>
<path d="M100.561 25.002H113.056V37.4979H100.561V25.002Z" fill="#263238"/>
<path d="M113.055 25.0028H125.554V37.4979H113.055V25.0028Z" fill="#13B26B"/>
<path d="M125.555 25.002L138.057 25.0028V37.4979H125.554L125.555 25.002Z" fill="#13B26B"/>
<path d="M138.059 25.0028H150.561V37.4979H138.059V25.0028Z" fill="#00874B"/>
<path d="M150.561 25.002L163.053 25.0028V37.4979H150.561L150.561 25.002Z" fill="#13B26B"/>
<path d="M163.053 25.0028H175.556V37.4979H163.053V25.0028Z" fill="#13B26B"/>
<path d="M175.557 25.0028H188.059V37.4979H175.557V25.0028Z" fill="#13B26B"/>
<path d="M188.059 25.002H200.561V37.4979H188.059L188.059 25.002Z" fill="#263238"/>
<path d="M25.5527 37.498H38.0555V49.9974H25.5527V37.498Z" fill="#263238"/>
<path d="M38.0555 37.498H50.5506V49.9974H38.0555V37.498Z" fill="#263238"/>
<path d="M50.5527 37.498H63.0555V49.9974H50.5527V37.498Z" fill="#263238"/>
<path d="M88.0568 37.4981L100.561 37.4979L100.56 49.9975H88.0568V37.4981Z" fill="#263238"/>
<path d="M100.561 37.4979H113.056V49.9974L100.56 49.9975L100.561 37.4979Z" fill="#13B26B"/>
<path d="M113.055 37.4979H125.554V49.9974H113.055V37.4979Z" fill="#13B26B"/>
<path d="M125.554 37.4979H138.057L138.058 49.9975L125.554 49.9974V37.4979Z" fill="#13B26B"/>
<path d="M138.059 37.4979H150.561V49.9974L138.058 49.9975L138.059 37.4979Z" fill="#00874B"/>
<path d="M150.561 37.4979H163.053V49.9974H150.561V37.4979Z" fill="#00874B"/>
<path d="M163.053 37.4979H175.556V49.9974H163.053V37.4979Z" fill="#00874B"/>
<path d="M175.557 37.4979H188.059V49.9974H175.557V37.4979Z" fill="#13B26B"/>
<path d="M188.059 37.4979H200.561V49.9974H188.059V37.4979Z" fill="#263238"/>
<path d="M13.0547 49.998H25.5541V62.5009H13.0547V49.998Z" fill="#263238"/>
<path d="M25.5527 49.9974H38.0555V62.5009H25.5527V49.9974Z" fill="#13B26B"/>
<path d="M38.0547 49.998L50.5506 49.9974V62.5009H38.0555L38.0547 49.998Z" fill="#13B26B"/>
<path d="M50.5527 49.9974H63.0555V62.5009H50.5527V49.9974Z" fill="#13B26B"/>
<path d="M63.0547 49.998H75.5541V62.5009H63.0555L63.0547 49.998Z" fill="#263238"/>
<path d="M88.0568 49.9975H100.56L100.559 62.5009H88.0566L88.0568 49.9975Z" fill="#263238"/>
<path d="M100.561 49.998L113.056 49.9974V62.5009H100.561V49.998Z" fill="#13B26B"/>
<path d="M113.055 49.9974H125.554V62.5009H113.055V49.9974Z" fill="#00874B"/>
<path d="M125.554 49.9974L138.058 49.9975L138.057 62.5009H125.554V49.9974Z" fill="#00874B"/>
<path d="M138.059 49.998L150.561 49.9974V62.5009H138.059V49.998Z" fill="#00874B"/>
<path d="M150.561 49.998L163.053 49.9974V62.5009H150.561L150.561 49.998Z" fill="#00874B"/>
<path d="M163.053 49.9974H175.556V62.5009H163.053V49.9974Z" fill="#00874B"/>
<path d="M175.557 49.9974H188.059V62.5009H175.557V49.9974Z" fill="#13B26B"/>
<path d="M188.059 49.998L200.561 49.9974V62.5009H188.059L188.059 49.998Z" fill="#263238"/>
<path d="M0.550781 62.5H13.0536V75.0028H0.550781V62.5Z" fill="#263238"/>
<path d="M13.0547 62.5009H25.5541V75.0028H13.0547V62.5009Z" fill="#13B26B"/>
<path d="M25.5527 62.5009H38.0555V75.0028H25.5527V62.5009Z" fill="#00874B"/>
<path d="M38.0547 62.5L50.5506 62.5009V75.0028H38.0555L38.0547 62.5Z" fill="#00874B"/>
<path d="M50.5527 62.5009H63.0555V75.0028H50.5527V62.5009Z" fill="#00874B"/>
<path d="M63.0547 62.5L75.5541 62.5009V75.0028H63.0555L63.0547 62.5Z" fill="#13B26B"/>
<path d="M75.5527 62.5H88.0555V75.0028H75.5527V62.5Z" fill="#263238"/>
<path d="M88.0566 62.5009H100.559V75.0028H88.0566V62.5009Z" fill="#263238"/>
<path d="M100.561 62.5009H113.056V75.0028H100.561V62.5009Z" fill="#00695C"/>
<path d="M113.055 62.5009H125.554V75.0028H113.055V62.5009Z" fill="#00874B"/>
<path d="M125.555 62.5L138.057 62.5009V75.0028H125.554L125.555 62.5Z" fill="#00874B"/>
<path d="M138.059 62.5009H150.561V75.0028H138.059V62.5009Z" fill="#00874B"/>
<path d="M150.561 62.5L163.053 62.5009V75.0028H150.561L150.561 62.5Z" fill="#00874B"/>
<path d="M163.053 62.5009H175.556V75.0028H163.053V62.5009Z" fill="#00874B"/>
<path d="M175.557 62.5009H188.059V75.0028H175.557V62.5009Z" fill="#13B26B"/>
<path d="M188.059 62.5L200.561 62.5009V75.0028H188.059L188.059 62.5Z" fill="#263238"/>
<path d="M0.550781 75.0028H13.0536V87.5048H0.550781V75.0028Z" fill="#263238"/>
<path d="M13.0547 75.0028H25.5541V87.5048H13.0547V75.0028Z" fill="#00695C"/>
<path d="M25.5527 75.0028H38.0555V87.5048H25.5527V75.0028Z" fill="#00874B"/>
<path d="M38.0547 75.002L50.5506 75.0028V87.5048H38.0555L38.0547 75.002Z" fill="#00874B"/>
<path d="M50.5527 75.0028H63.0555V87.5048H50.5527V75.0028Z" fill="#00874B"/>
<path d="M63.0547 75.002L75.5541 75.0028V87.5048H63.0555L63.0547 75.002Z" fill="#00874B"/>
<path d="M75.5527 75.0028H88.0555V87.5048H75.5527V75.0028Z" fill="#13B26B"/>
<path d="M88.0566 75.0028H100.559V87.5048H88.0566V75.0028Z" fill="#13B26B"/>
<path d="M100.561 75.0028H113.056V87.5048H100.561V75.0028Z" fill="#00695C"/>
<path d="M113.055 75.0028H125.554V87.5048H113.055V75.0028Z" fill="#00874B"/>
<path d="M125.555 75.002L138.057 75.0028V87.5048H125.554L125.555 75.002Z" fill="#00874B"/>
<path d="M138.059 75.0028H150.561V87.5048H138.059V75.0028Z" fill="#00874B"/>
<path d="M150.561 75.002L163.053 75.0028V87.5048H150.561L150.561 75.002Z" fill="#00874B"/>
<path d="M163.053 75.0028H175.556V87.5048H163.053V75.0028Z" fill="#00695C"/>
<path d="M175.557 75.0028H188.059V87.5048H175.557V75.0028Z" fill="#00695C"/>
<path d="M188.059 75.002L200.561 75.0028V87.5048H188.059L188.059 75.002Z" fill="#263238"/>
<path d="M0.550781 87.506H13.0536V99.9985H0.550781V87.506Z" fill="#263238"/>
<path d="M13.0547 87.5059H25.5541V99.9984H13.0547V87.5059Z" fill="#00695C"/>
<path d="M25.5527 87.5059H38.0555V99.9984H25.5527V87.5059Z" fill="#00695C"/>
<path d="M38.0555 87.5059H50.5506V99.9984H38.0555V87.5059Z" fill="#00695C"/>
<path d="M50.5527 87.5059H63.0555V99.9984H50.5527V87.5059Z" fill="#00874B"/>
<path d="M63.0555 87.5059H75.5541V99.9984H63.0555V87.5059Z" fill="#00874B"/>
<path d="M75.5527 87.5059H88.0555V99.9984H75.5527V87.5059Z" fill="#00695C"/>
<path d="M88.0568 87.506H100.56V99.9985H88.0568V87.506Z" fill="#13B26B"/>
<path d="M100.56 87.506L113.056 87.5059V99.9984L100.56 99.9985V87.506Z" fill="#00695C"/>
<path d="M113.055 87.5059H125.554V99.9984H113.055V87.5059Z" fill="#00695C"/>
<path d="M125.554 87.5059L138.058 87.506V99.9985L125.554 99.9984V87.5059Z" fill="#00695C"/>
<path d="M138.058 87.506L150.561 87.5059V99.9984L138.058 99.9985V87.506Z" fill="#00695C"/>
<path d="M150.561 87.5059H163.053V99.9984H150.561V87.5059Z" fill="#00695C"/>
<path d="M163.053 87.5059H175.556V99.9984H163.053V87.5059Z" fill="#00695C"/>
<path d="M175.557 87.5059H188.059V99.9984H175.557V87.5059Z" fill="#263238"/>
<path d="M13.0547 99.9984H25.5541V112.501H13.0547V99.9984Z" fill="#263238"/>
<path d="M25.5527 99.9984H38.0555V112.501H25.5527V99.9984Z" fill="#263238"/>
<path d="M38.0555 99.9984H50.5506V112.501H38.0555V99.9984Z" fill="#00695C"/>
<path d="M50.5527 99.9984H63.0555V112.501H50.5527V99.9984Z" fill="#00695C"/>
<path d="M63.0555 99.9984H75.5541V112.501H63.0555V99.9984Z" fill="#00695C"/>
<path d="M75.5527 99.9984H88.0555V112.501H75.5527V99.9984Z" fill="#00695C"/>
<path d="M88.0568 99.9985H100.56L100.559 112.501H88.0566L88.0568 99.9985Z" fill="#13B26B"/>
<path d="M100.561 99.998L113.056 99.9984V112.501H100.561V99.998Z" fill="#13B26B"/>
<path d="M113.055 99.9984H125.554V112.501H113.055V99.9984Z" fill="#00695C"/>
<path d="M125.554 99.9984L138.058 99.9985L138.057 112.501H125.554V99.9984Z" fill="#00695C"/>
<path d="M138.058 99.9985L150.561 99.9984V112.501H138.059L138.058 99.9985Z" fill="#00695C"/>
<path d="M150.561 99.9984H163.053V112.501H150.561V99.9984Z" fill="#00695C"/>
<path d="M163.053 99.9984H175.556V112.501H163.053V99.9984Z" fill="#00874B"/>
<path d="M175.557 99.9984H188.059V112.501H175.557V99.9984Z" fill="#263238"/>
<path d="M38.0547 112.5L50.5506 112.501V125.003H38.0547V112.5Z" fill="#263238"/>
<path d="M50.5527 112.501H63.0555V125.003H50.5527V112.501Z" fill="#263238"/>
<path d="M63.0547 112.5L75.5541 112.501V125.003H63.0555L63.0547 112.5Z" fill="#00695C"/>
<path d="M75.5527 112.501H88.0555V125.003H75.5527V112.501Z" fill="#13B26B"/>
<path d="M88.0566 112.501H100.559V125.003H88.0566V112.501Z" fill="#00874B"/>
<path d="M100.561 112.501H113.056V125.003H100.561V112.501Z" fill="#00874B"/>
<path d="M113.055 112.501H125.554V125.003H113.055V112.501Z" fill="#13B26B"/>
<path d="M125.555 112.5L138.057 112.501V125.003H125.554L125.555 112.5Z" fill="#00874B"/>
<path d="M138.059 112.501H150.561V125.003H138.059V112.501Z" fill="#00874B"/>
<path d="M150.561 112.5L163.053 112.501V125.003H150.561L150.561 112.5Z" fill="#13B26B"/>
<path d="M163.053 112.501H175.556V125.003H163.053V112.501Z" fill="#00695C"/>
<path d="M175.557 112.501H188.059V125.003H175.557V112.501Z" fill="#263238"/>
<path d="M50.5527 125.004H63.0555V137.507H50.5527V125.004Z" fill="#263238"/>
<path d="M63.0555 125.004H75.5541V137.507H63.0555V125.004Z" fill="#00695C"/>
<path d="M75.5527 125.004H88.0555V137.507H75.5527V125.004Z" fill="#00695C"/>
<path d="M88.0568 125.004H100.56V137.507H88.0568V125.004Z" fill="#00874B"/>
<path d="M100.56 125.004L113.056 125.004V137.507L100.56 137.507V125.004Z" fill="#00874B"/>
<path d="M113.055 125.004H125.554V137.507H113.055V125.004Z" fill="#00874B"/>
<path d="M125.554 125.004L138.058 125.004V137.507L125.554 137.507V125.004Z" fill="#00874B"/>
<path d="M138.058 125.004L150.561 125.004V137.507L138.058 137.507V125.004Z" fill="#00874B"/>
<path d="M150.561 125.004H163.053V137.507H150.561V125.004Z" fill="#00874B"/>
<path d="M163.053 125.004H175.556V137.507H163.053V125.004Z" fill="#00695C"/>
<path d="M175.557 125.004H188.059V137.507H175.557V125.004Z" fill="#263238"/>
<path d="M50.5527 137.508H63.0555V150H50.5527V137.508Z" fill="#263238"/>
<path d="M63.0555 137.508H75.5541V150H63.0555V137.508Z" fill="#00695C"/>
<path d="M75.5527 137.508H88.0555V150H75.5527V137.508Z" fill="#00695C"/>
<path d="M88.0568 137.507H100.56L100.559 150H88.0566L88.0568 137.507Z" fill="#00874B"/>
<path d="M100.561 137.508H113.056V150H100.561V137.508Z" fill="#00874B"/>
<path d="M113.055 137.508H125.554V150H113.055V137.508Z" fill="#00874B"/>
<path d="M125.554 137.508L138.058 137.507L138.057 150H125.554V137.508Z" fill="#00874B"/>
<path d="M138.059 137.508H150.561V150H138.059V137.508Z" fill="#00874B"/>
<path d="M150.561 137.508H163.053V150H150.561V137.508Z" fill="#00874B"/>
<path d="M163.053 137.508H175.556V150H163.053V137.508Z" fill="#00695C"/>
<path d="M175.557 137.508H188.059V150H175.557V137.508Z" fill="#263238"/>
<path d="M50.5527 150H63.0555V162.503H50.5527V150Z" fill="#263238"/>
<path d="M63.0555 150H75.5541V162.503H63.0555V150Z" fill="#00695C"/>
<path d="M75.5527 150H88.0555V162.503H75.5527V150Z" fill="#00695C"/>
<path d="M88.0566 150H100.559V162.503H88.0566V150Z" fill="#00695C"/>
<path d="M100.561 150H113.056V162.503H100.561V150Z" fill="#00695C"/>
<path d="M113.055 150H125.554V162.503H113.055V150Z" fill="#00874B"/>
<path d="M125.554 150H138.057V162.503H125.554V150Z" fill="#00874B"/>
<path d="M138.059 150H150.561V162.503H138.059V150Z" fill="#00874B"/>
<path d="M150.561 150H163.053V162.503H150.561V150Z" fill="#00695C"/>
<path d="M163.053 150H175.556V162.503H163.053V150Z" fill="#00695C"/>
<path d="M175.557 150H188.059V162.503H175.557V150Z" fill="#263238"/>
<path d="M63.0547 162.502L75.5541 162.503V175.005H63.0547V162.502Z" fill="#263238"/>
<path d="M75.5527 162.503H88.0555V175.005H75.5527V162.503Z" fill="#00695C"/>
<path d="M88.0566 162.503H100.559V175.005H88.0566V162.503Z" fill="#00695C"/>
<path d="M100.561 162.503H113.056V175.005H100.561V162.503Z" fill="#00695C"/>
<path d="M113.055 162.503H125.554V175.005H113.055V162.503Z" fill="#00695C"/>
<path d="M125.555 162.502L138.057 162.503V175.005H125.554L125.555 162.502Z" fill="#00695C"/>
<path d="M138.059 162.503H150.561V175.005H138.059V162.503Z" fill="#00695C"/>
<path d="M150.561 162.502L163.053 162.503V175.005H150.561L150.561 162.502Z" fill="#00695C"/>
<path d="M163.053 162.503H175.556V175.005H163.053V162.503Z" fill="#00695C"/>
<path d="M175.557 162.503H188.059V175.005H175.557V162.503Z" fill="#263238"/>
<path d="M75.5527 175.006H88.0555V187.509H75.5527V175.006Z" fill="#263238"/>
<path d="M88.0566 175.006H100.559V187.509H88.0566V175.006Z" fill="#00695C"/>
<path d="M100.561 175.006H113.056V187.509H100.561V175.006Z" fill="#00695C"/>
<path d="M113.055 175.006H125.554V187.509H113.055V175.006Z" fill="#00695C"/>
<path d="M125.554 175.006H138.057V187.509H125.554V175.006Z" fill="#00695C"/>
<path d="M138.059 175.006H150.561V187.509H138.059V175.006Z" fill="#00695C"/>
<path d="M150.561 175.006H163.053V187.509H150.561V175.006Z" fill="#00695C"/>
<path d="M163.053 175.006H175.556V187.509H163.053V175.006Z" fill="#263238"/>
<path d="M88.0566 187.509H100.559V200H88.0566V187.509Z" fill="#263238"/>
<path d="M100.561 187.509H113.056V200H100.561V187.509Z" fill="#263238"/>
<path d="M113.055 187.509H125.554V200H113.055V187.509Z" fill="#263238"/>
<path d="M125.555 187.508L138.057 187.509V200H125.554L125.555 187.508Z" fill="#263238"/>
<path d="M138.059 187.509H150.561V200H138.059V187.509Z" fill="#263238"/>
<path d="M150.561 187.508L163.053 187.509V200H150.561L150.561 187.508Z" fill="#263238"/>
</svg>
