<svg width="576" height="200" viewBox="0 0 576 200" fill="none" xmlns="http://www.w3.org/2000/svg">
<path d="M575.864 137.492V149.989H563.367V137.492H575.864Z" fill="#CEE0E0"/>
<path d="M563.368 149.988V162.486H550.871V149.988H563.368Z" fill="#CEE0E0"/>
<path d="M563.368 137.492V149.989H550.871V137.492H563.368Z" fill="#CEE0E0"/>
<path d="M563.368 125.008V137.494H550.871V125.008H563.368Z" fill="#F2F2F2"/>
<path d="M550.871 149.988V162.486H538.385V149.988H550.871Z" fill="#CEE0E0"/>
<path d="M550.871 137.492V149.989H538.385V137.492H550.871Z" fill="#F2F2F2"/>
<path d="M550.871 125.008V137.494H538.385V125.008H550.871Z" fill="#F2F2F2"/>
<path d="M538.38 149.988V162.486H525.883V149.988H538.38Z" fill="#CEE0E0"/>
<path d="M538.38 137.492V149.989H525.883V137.492H538.38Z" fill="#F2F2F2"/>
<path d="M538.38 125.008V137.494H525.883V125.008H538.38Z" fill="#F2F2F2"/>
<path d="M538.38 112.508V125.005H525.883V112.508H538.38Z" fill="#F2F2F2"/>
<path d="M525.883 149.988V162.486H513.363V149.988H525.883Z" fill="#CEE0E0"/>
<path d="M525.883 137.492V149.989H513.363V137.492H525.883Z" fill="#CEE0E0"/>
<path d="M525.883 125.008V137.494H513.363V125.008H525.883Z" fill="#F2F2F2"/>
<path d="M525.883 112.508V125.005H513.363V112.508H525.883Z" fill="#F2F2F2"/>
<path d="M513.366 149.988V162.486H500.869V149.988H513.366Z" fill="#CEE0E0"/>
<path d="M513.366 137.492V149.989H500.869V137.492H513.366Z" fill="#CEE0E0"/>
<path d="M513.366 125.008V137.494H500.869V125.008H513.366Z" fill="#F2F2F2"/>
<path d="M513.366 112.508V125.005H500.869V112.508H513.366Z" fill="#F2F2F2"/>
<path d="M500.872 149.988V162.486H488.375V149.988H500.872Z" fill="#CEE0E0"/>
<path d="M500.872 137.492V149.989H488.375V137.492H500.872Z" fill="#CEE0E0"/>
<path d="M500.872 125.008V137.494H488.375V125.008H500.872Z" fill="#F2F2F2"/>
<path d="M488.375 149.988V162.486H475.889V149.988H488.375Z" fill="#CEE0E0"/>
<path d="M488.375 137.492V149.989H475.889V137.492H488.375Z" fill="#CEE0E0"/>
<path d="M488.375 125.008V137.494H475.889V125.008H488.375Z" fill="#F2F2F2"/>
<path d="M488.375 112.508V125.005H475.889V112.508H488.375Z" fill="white"/>
<path d="M488.375 99.9883V112.508H475.889V99.9883H488.375Z" fill="white"/>
<path d="M475.882 149.988V162.486H463.385V149.988H475.882Z" fill="#CEE0E0"/>
<path d="M475.882 137.492V149.989H463.385V137.492H475.882Z" fill="#CEE0E0"/>
<path d="M475.882 125.008V137.494H463.385V125.008H475.882Z" fill="#F2F2F2"/>
<path d="M475.882 112.508V125.005H463.385V112.508H475.882Z" fill="#F2F2F2"/>
<path d="M475.882 99.9883V112.508H463.385V99.9883H475.882Z" fill="white"/>
<path d="M463.387 149.988V162.486H450.867V149.988H463.387Z" fill="#CEE0E0"/>
<path d="M463.387 137.492V149.989H450.867V137.492H463.387Z" fill="#CEE0E0"/>
<path d="M463.387 125.008V137.494H450.867V125.008H463.387Z" fill="#F2F2F2"/>
<path d="M463.387 112.508V125.005H450.867V112.508H463.387Z" fill="#F2F2F2"/>
<path d="M463.387 99.9883V112.508H450.867V99.9883H463.387Z" fill="white"/>
<path d="M450.868 162.486V175.006H438.371V162.486H450.868Z" fill="#CEE0E0"/>
<path d="M450.868 149.988V162.486H438.371V149.988H450.868Z" fill="#CEE0E0"/>
<path d="M450.868 137.492V149.989H438.371V137.492H450.868Z" fill="#CEE0E0"/>
<path d="M450.868 125.008V137.494H438.371V125.008H450.868Z" fill="#CEE0E0"/>
<path d="M450.868 112.508V125.005H438.371V112.508H450.868Z" fill="#F2F2F2"/>
<path d="M450.868 99.9883V112.508H438.371V99.9883H450.868Z" fill="white"/>
<path d="M450.868 87.4902V99.9883H438.371V87.4902H450.868Z" fill="white"/>
<path d="M438.374 162.486V175.006H425.877V162.486H438.374Z" fill="#CEE0E0"/>
<path d="M438.374 149.988V162.486H425.877V149.988H438.374Z" fill="#CEE0E0"/>
<path d="M438.374 137.492V149.989H425.877V137.492H438.374Z" fill="#CEE0E0"/>
<path d="M438.374 125.008V137.494H425.877V125.008H438.374Z" fill="#CEE0E0"/>
<path d="M438.374 112.508V125.005H425.877V112.508H438.374Z" fill="#CEE0E0"/>
<path d="M438.374 99.9883V112.508H425.877V99.9883H438.374Z" fill="#F2F2F2"/>
<path d="M438.374 87.4902V99.9883H425.877V87.4902H438.374Z" fill="white"/>
<path d="M438.374 74.9961V87.4933H425.877V74.9961H438.374Z" fill="white"/>
<path d="M425.877 162.486V175.006H413.391V162.486H425.877Z" fill="#CEE0E0"/>
<path d="M425.877 149.988V162.486H413.391V149.988H425.877Z" fill="#CEE0E0"/>
<path d="M425.877 137.492V149.989H413.391V137.492H425.877Z" fill="#CEE0E0"/>
<path d="M425.877 125.008V137.494H413.391V125.008H425.877Z" fill="#CEE0E0"/>
<path d="M425.877 112.508V125.005H413.391V112.508H425.877Z" fill="#CEE0E0"/>
<path d="M425.877 99.9883V112.508H413.391V99.9883H425.877Z" fill="#CEE0E0"/>
<path d="M425.877 87.4902V99.9883H413.391V87.4902H425.877Z" fill="#F2F2F2"/>
<path d="M425.877 74.9961V87.4933H413.391V74.9961H425.877Z" fill="white"/>
<path d="M413.386 162.486V175.006H400.889V162.486H413.386Z" fill="#CEE0E0"/>
<path d="M413.386 149.988V162.486H400.889V149.988H413.386Z" fill="#CEE0E0"/>
<path d="M413.386 137.492V149.989H400.889V137.492H413.386Z" fill="#CEE0E0"/>
<path d="M413.386 125.008V137.494H400.889V125.008H413.386Z" fill="#CEE0E0"/>
<path d="M413.386 112.508V125.005H400.889V112.508H413.386Z" fill="#F2F2F2"/>
<path d="M413.386 99.9883V112.508H400.889V99.9883H413.386Z" fill="#F2F2F2"/>
<path d="M413.386 87.4902V99.9883H400.889V87.4902H413.386Z" fill="#F2F2F2"/>
<path d="M413.386 74.9961V87.4933H400.889V74.9961H413.386Z" fill="#F2F2F2"/>
<path d="M413.386 62.5098V74.9961H400.889V62.5098H413.386Z" fill="white"/>
<path d="M413.386 50.0117V62.5098H400.889V50.0117H413.386Z" fill="white"/>
<path d="M400.889 175.006L400.888 187.503H388.369V175.006L400.889 175.006Z" fill="#CEE0E0"/>
<path d="M400.889 162.486V175.006L388.369 175.006L388.369 162.486L400.889 162.486Z" fill="#CEE0E0"/>
<path d="M400.889 149.988V162.486L388.369 162.486L388.369 149.988H400.889Z" fill="#CEE0E0"/>
<path d="M400.889 137.492V149.989H388.369V137.492H400.889Z" fill="#F2F2F2"/>
<path d="M400.889 125.008V137.494H388.369V125.008H400.889Z" fill="#F2F2F2"/>
<path d="M400.889 112.508V125.005H388.369V112.508H400.889Z" fill="#F2F2F2"/>
<path d="M400.889 99.9883V112.508H388.369V99.9883H400.889Z" fill="#F2F2F2"/>
<path d="M400.889 87.4902V99.9883H388.369L388.369 87.4904L400.889 87.4902Z" fill="#F2F2F2"/>
<path d="M400.889 74.9961V87.4933L388.369 87.4931V74.9959L400.889 74.9961Z" fill="#F2F2F2"/>
<path d="M400.889 62.5098V74.9961L388.369 74.9959V62.5097L400.889 62.5098Z" fill="#F2F2F2"/>
<path d="M400.889 50.0117V62.5098L388.369 62.5097L388.369 50.0117H400.889Z" fill="white"/>
<path d="M388.372 175.006V187.503H375.875V175.006H388.372Z" fill="#CEE0E0"/>
<path d="M388.372 162.486V175.006H375.875V162.486H388.372Z" fill="#CEE0E0"/>
<path d="M388.372 149.988V162.486H375.875V149.988H388.372Z" fill="#F2F2F2"/>
<path d="M388.372 137.492V149.989H375.875V137.492H388.372Z" fill="#F2F2F2"/>
<path d="M388.372 125.008V137.494H375.875V125.008H388.372Z" fill="#F2F2F2"/>
<path d="M388.372 112.508V125.005H375.875V112.508H388.372Z" fill="#F2F2F2"/>
<path d="M388.372 99.9883V112.508H375.875V99.9883H388.372Z" fill="#F2F2F2"/>
<path d="M388.372 87.4902V99.9883H375.875V87.4902H388.372Z" fill="#F2F2F2"/>
<path d="M388.372 74.9961V87.4933H375.875V74.9961H388.372Z" fill="#F2F2F2"/>
<path d="M388.372 62.5098V74.9961H375.875V62.5098H388.372Z" fill="#F2F2F2"/>
<path d="M388.372 50.0117V62.5098H375.875V50.0117H388.372Z" fill="white"/>
<path d="M375.878 187.504V200.001H363.381V187.504H375.878Z" fill="#CEE0E0"/>
<path d="M375.878 175.006V187.504H363.381V175.006H375.878Z" fill="#CEE0E0"/>
<path d="M375.878 162.486V175.006H363.381V162.486H375.878Z" fill="#CEE0E0"/>
<path d="M375.878 149.988V162.486H363.381V149.988H375.878Z" fill="#F2F2F2"/>
<path d="M375.878 137.492V149.989H363.381V137.492H375.878Z" fill="#F2F2F2"/>
<path d="M375.878 125.008V137.494H363.381V125.008H375.878Z" fill="#F2F2F2"/>
<path d="M375.878 112.508V125.005H363.381V112.508H375.878Z" fill="white"/>
<path d="M375.878 99.9883V112.508H363.381V99.9883H375.878Z" fill="white"/>
<path d="M375.878 87.4902V99.9883H363.381V87.4902H375.878Z" fill="white"/>
<path d="M375.878 74.9961V87.4933H363.381V74.9961H375.878Z" fill="#F2F2F2"/>
<path d="M375.878 62.5098V74.9961H363.381V62.5098H375.878Z" fill="#F2F2F2"/>
<path d="M375.878 50.0117V62.5098H363.381V50.0117H375.878Z" fill="white"/>
<path d="M375.878 37.4922V50.0117H363.381V37.4922H375.878Z" fill="white"/>
<path d="M363.374 187.504V200.001H350.877V187.504H363.374Z" fill="#CEE0E0"/>
<path d="M363.374 175.006V187.504H350.877V175.006H363.374Z" fill="#CEE0E0"/>
<path d="M363.374 162.486V175.006H350.877V162.486H363.374Z" fill="#CEE0E0"/>
<path d="M363.374 149.988V162.486H350.877V149.988H363.374Z" fill="#F2F2F2"/>
<path d="M363.374 137.492V149.989H350.877V137.492H363.374Z" fill="#F2F2F2"/>
<path d="M363.374 125.008V137.494H350.877V125.008H363.374Z" fill="#F2F2F2"/>
<path d="M363.374 112.508V125.005H350.877V112.508H363.374Z" fill="white"/>
<path d="M363.374 99.9883V112.508H350.877V99.9883H363.374Z" fill="white"/>
<path d="M363.374 87.4902V99.9883H350.877V87.4902H363.374Z" fill="#F2F2F2"/>
<path d="M363.374 74.9961V87.4933H350.877V74.9961H363.374Z" fill="#F2F2F2"/>
<path d="M363.374 62.5098V74.9961H350.877V62.5098H363.374Z" fill="#F2F2F2"/>
<path d="M363.374 50.0117V62.5098H350.877V50.0117H363.374Z" fill="white"/>
<path d="M363.374 37.4922V50.0117H350.877V37.4922H363.374Z" fill="white"/>
<path d="M350.877 187.504V200.001H338.391V187.504H350.877Z" fill="#CEE0E0"/>
<path d="M350.877 175.006V187.504H338.391V175.006H350.877Z" fill="#CEE0E0"/>
<path d="M350.877 162.486V175.006H338.391V162.486H350.877Z" fill="#CEE0E0"/>
<path d="M350.877 149.988V162.486H338.391V149.988H350.877Z" fill="#F2F2F2"/>
<path d="M350.877 137.492V149.989H338.391V137.492H350.877Z" fill="#F2F2F2"/>
<path d="M350.877 125.008V137.494H338.391V125.008H350.877Z" fill="#F2F2F2"/>
<path d="M350.877 112.508V125.005H338.391V112.508H350.877Z" fill="#F2F2F2"/>
<path d="M350.877 99.9883V112.508H338.391V99.9883H350.877Z" fill="white"/>
<path d="M350.877 87.4902V99.9883H338.391V87.4902H350.877Z" fill="#F2F2F2"/>
<path d="M350.877 74.9961V87.4933H338.391V74.9961H350.877Z" fill="#F2F2F2"/>
<path d="M350.877 62.5098V74.9961H338.391V62.5098H350.877Z" fill="white"/>
<path d="M350.877 50.0117V62.5098H338.391V50.0117H350.877Z" fill="white"/>
<path d="M338.391 187.504V200.001H325.871V187.504H338.391Z" fill="#CEE0E0"/>
<path d="M338.391 175.006V187.504H325.871V175.006H338.391Z" fill="#CEE0E0"/>
<path d="M338.391 162.486V175.006H325.871V162.486H338.391Z" fill="#CEE0E0"/>
<path d="M338.391 149.988V162.486H325.871V149.988H338.391Z" fill="#F2F2F2"/>
<path d="M338.391 137.492V149.989H325.871V137.492H338.391Z" fill="#F2F2F2"/>
<path d="M338.391 125.008V137.494H325.871V125.008H338.391Z" fill="#F2F2F2"/>
<path d="M338.391 112.508V125.005H325.871V112.508H338.391Z" fill="#F2F2F2"/>
<path d="M338.391 99.9883V112.508H325.871V99.9883H338.391Z" fill="#F2F2F2"/>
<path d="M338.391 87.4902V99.9883H325.871V87.4902H338.391Z" fill="#F2F2F2"/>
<path d="M338.391 74.9961V87.4933H325.871V74.9961H338.391Z" fill="#F2F2F2"/>
<path d="M338.391 62.5098V74.9961H325.871V62.5098H338.391Z" fill="#F2F2F2"/>
<path d="M338.391 50.0117V62.5098H325.871V50.0117H338.391Z" fill="white"/>
<path d="M338.39 37.4922L338.391 50.0117H325.871V37.4922H338.39Z" fill="white"/>
<path d="M338.39 24.9922V37.4894H325.871V24.9922H338.39Z" fill="white"/>
<path d="M325.874 187.504V200.001H313.377V187.504H325.874Z" fill="#CEE0E0"/>
<path d="M325.874 175.006V187.504H313.377V175.006H325.874Z" fill="#CEE0E0"/>
<path d="M325.874 162.486V175.006H313.377V162.486H325.874Z" fill="#CEE0E0"/>
<path d="M325.874 149.988V162.486H313.377V149.988H325.874Z" fill="#CEE0E0"/>
<path d="M325.874 137.492V149.989H313.377V137.492H325.874Z" fill="#F2F2F2"/>
<path d="M325.874 125.008V137.494H313.377V125.008H325.874Z" fill="#F2F2F2"/>
<path d="M325.874 112.508V125.005H313.377V112.508H325.874Z" fill="#F2F2F2"/>
<path d="M325.874 99.9883V112.508H313.377V99.9883H325.874Z" fill="#F2F2F2"/>
<path d="M325.874 87.4902V99.9883H313.377V87.4902H325.874Z" fill="#F2F2F2"/>
<path d="M325.874 74.9961V87.4933H313.377V74.9961H325.874Z" fill="#F2F2F2"/>
<path d="M325.874 62.5098V74.9961H313.377V62.5098H325.874Z" fill="#F2F2F2"/>
<path d="M325.874 50.0117V62.5098H313.377V50.0117H325.874Z" fill="#F2F2F2"/>
<path d="M325.874 37.4922V50.0117H313.377V37.4922H325.874Z" fill="#F2F2F2"/>
<path d="M325.874 24.9922V37.4894H313.377V24.9922H325.874Z" fill="white"/>
<path d="M313.38 175.006V187.503H300.883V175.006H313.38Z" fill="#CEE0E0"/>
<path d="M313.38 162.486L313.38 175.006H300.883L300.883 162.486H313.38Z" fill="#CEE0E0"/>
<path d="M313.38 149.988L313.38 162.486H300.883L300.883 149.988H313.38Z" fill="#CEE0E0"/>
<path d="M313.38 137.492V149.989H300.883V137.492H313.38Z" fill="#CEE0E0"/>
<path d="M313.38 125.008V137.494H300.883V125.008H313.38Z" fill="#F2F2F2"/>
<path d="M313.38 112.508V125.005H300.883V112.508H313.38Z" fill="#F2F2F2"/>
<path d="M313.38 99.9883V112.508H300.883V99.9883H313.38Z" fill="#F2F2F2"/>
<path d="M313.38 87.4904L313.38 99.9883H300.883L300.883 87.4904H313.38Z" fill="#F2F2F2"/>
<path d="M313.38 74.9959V87.4931H300.883V74.9959H313.38Z" fill="#F2F2F2"/>
<path d="M313.38 62.5097V74.9959H300.883V62.5097H313.38Z" fill="#F2F2F2"/>
<path d="M313.38 50.0117L313.38 62.5097H300.883L300.883 50.0117H313.38Z" fill="#F2F2F2"/>
<path d="M313.38 37.4922V50.0117H300.883V37.4922H313.38Z" fill="#F2F2F2"/>
<path d="M313.38 24.9922V37.4894H300.883V24.9922H313.38Z" fill="white"/>
<path d="M300.878 175.006V187.503H288.381V175.006H300.878Z" fill="#CEE0E0"/>
<path d="M300.878 162.486V175.006H288.381V162.486H300.878Z" fill="#CEE0E0"/>
<path d="M300.878 149.988V162.486H288.381V149.988H300.878Z" fill="#CEE0E0"/>
<path d="M300.878 137.492V149.989H288.381V137.492H300.878Z" fill="#CEE0E0"/>
<path d="M300.878 125.008V137.494H288.381V125.008H300.878Z" fill="#CEE0E0"/>
<path d="M300.878 112.508V125.005H288.381V112.508H300.878Z" fill="#CEE0E0"/>
<path d="M300.878 99.9883V112.508H288.381V99.9883H300.878Z" fill="#CEE0E0"/>
<path d="M300.878 87.4902V99.9883H288.381V87.4902H300.878Z" fill="#CEE0E0"/>
<path d="M300.878 74.9961V87.4933H288.381V74.9961H300.878Z" fill="#F2F2F2"/>
<path d="M300.878 62.5098V74.9961H288.381V62.5098H300.878Z" fill="#F2F2F2"/>
<path d="M300.878 50.0117V62.5098H288.381V50.0117H300.878Z" fill="#F2F2F2"/>
<path d="M300.878 37.4922V50.0117H288.381V37.4922H300.878Z" fill="#F2F2F2"/>
<path d="M300.878 24.9922V37.4894H288.381V24.9922H300.878Z" fill="#F2F2F2"/>
<path d="M300.878 12.498V24.9953H288.381V12.498H300.878Z" fill="white"/>
<path d="M300.878 0V12.498H288.381V0H300.878Z" fill="white"/>
<path d="M288.382 162.486V175.006H275.885V162.486H288.382Z" fill="#CEE0E0"/>
<path d="M288.382 149.988V162.486H275.885V149.988H288.382Z" fill="#CEE0E0"/>
<path d="M288.382 137.492V149.989H275.885V137.492H288.382Z" fill="#CEE0E0"/>
<path d="M288.382 125.008V137.494H275.885V125.008H288.382Z" fill="#CEE0E0"/>
<path d="M288.382 112.508V125.005H275.885V112.508H288.382Z" fill="#F2F2F2"/>
<path d="M288.382 99.9883V112.508H275.885V99.9883H288.382Z" fill="#F2F2F2"/>
<path d="M288.382 87.4902V99.9883H275.885V87.4902H288.382Z" fill="#F2F2F2"/>
<path d="M288.382 74.9961V87.4933H275.885V74.9961H288.382Z" fill="#F2F2F2"/>
<path d="M288.382 62.5098V74.9961H275.885V62.5098H288.382Z" fill="#F2F2F2"/>
<path d="M288.382 50.0117V62.5098H275.885V50.0117H288.382Z" fill="#F2F2F2"/>
<path d="M288.382 37.4922V50.0117H275.885V37.4922H288.382Z" fill="#F2F2F2"/>
<path d="M288.382 24.9922V37.4894H275.885V24.9922H288.382Z" fill="#F2F2F2"/>
<path d="M288.382 12.498V24.9953H275.885V12.498H288.382Z" fill="white"/>
<path d="M288.382 0V12.498H275.885V0H288.382Z" fill="white"/>
<path d="M275.883 175.006V187.503H263.375V175.006H275.883Z" fill="#CEE0E0"/>
<path d="M275.883 162.486V175.006H263.375V162.486H275.883Z" fill="#CEE0E0"/>
<path d="M275.883 149.988V162.486H263.375V149.988H275.883Z" fill="#CEE0E0"/>
<path d="M275.883 137.492V149.989H263.375V137.492H275.883Z" fill="#CEE0E0"/>
<path d="M275.883 125.008V137.494H263.375V125.008H275.883Z" fill="#F2F2F2"/>
<path d="M275.883 112.508V125.005H263.375V112.508H275.883Z" fill="#F2F2F2"/>
<path d="M275.883 99.9883V112.508H263.375V99.9883H275.883Z" fill="#F2F2F2"/>
<path d="M275.883 87.4902V99.9883H263.375V87.4902H275.883Z" fill="#F2F2F2"/>
<path d="M275.883 74.9961V87.4933H263.375V74.9961H275.883Z" fill="#F2F2F2"/>
<path d="M275.883 62.5098V74.9961H263.375V62.5098H275.883Z" fill="#F2F2F2"/>
<path d="M275.883 50.0117V62.5098H263.375V50.0117H275.883Z" fill="#F2F2F2"/>
<path d="M275.883 37.4922V50.0117H263.375V37.4922H275.883Z" fill="#F2F2F2"/>
<path d="M275.883 24.9922V37.4894H263.375V24.9922H275.883Z" fill="white"/>
<path d="M275.883 12.498V24.9953H263.375V12.498H275.883Z" fill="white"/>
<path d="M275.883 0V12.498H263.375V0H275.883Z" fill="white"/>
<path d="M263.378 175.006V187.503H250.881V175.006H263.378Z" fill="#CEE0E0"/>
<path d="M263.378 162.486V175.006H250.881V162.486H263.378Z" fill="#CEE0E0"/>
<path d="M263.378 149.988V162.486H250.881V149.988H263.378Z" fill="#CEE0E0"/>
<path d="M263.378 137.492V149.989H250.881V137.492H263.378Z" fill="#F2F2F2"/>
<path d="M263.378 125.008V137.494H250.881V125.008H263.378Z" fill="#F2F2F2"/>
<path d="M263.378 112.508V125.005H250.881V112.508H263.378Z" fill="#F2F2F2"/>
<path d="M263.378 99.9883V112.508H250.881V99.9883H263.378Z" fill="white"/>
<path d="M263.378 87.4902V99.9883H250.881V87.4902H263.378Z" fill="white"/>
<path d="M263.378 74.9961V87.4933H250.881V74.9961H263.378Z" fill="white"/>
<path d="M263.378 62.5098V74.9961H250.881V62.5098H263.378Z" fill="#F2F2F2"/>
<path d="M263.378 50.0117V62.5098H250.881V50.0117H263.378Z" fill="#F2F2F2"/>
<path d="M263.378 37.4922V50.0117H250.881V37.4922H263.378Z" fill="#F2F2F2"/>
<path d="M263.378 24.9922V37.4894H250.881V24.9922H263.378Z" fill="#F2F2F2"/>
<path d="M263.378 12.498V24.9953H250.881V12.498H263.378Z" fill="white"/>
<path d="M263.378 0V12.498H250.881V0H263.378Z" fill="white"/>
<path d="M250.882 175.006V187.503H238.385V175.006H250.882Z" fill="#CEE0E0"/>
<path d="M250.882 162.486V175.006H238.385V162.486H250.882Z" fill="#CEE0E0"/>
<path d="M250.882 149.988V162.486H238.385V149.988H250.882Z" fill="#CEE0E0"/>
<path d="M250.882 137.492V149.989H238.385V137.492H250.882Z" fill="#F2F2F2"/>
<path d="M250.882 125.008V137.494H238.385V125.008H250.882Z" fill="#F2F2F2"/>
<path d="M250.882 112.508V125.005H238.385V112.508H250.882Z" fill="white"/>
<path d="M250.882 99.9883V112.508H238.385V99.9883H250.882Z" fill="white"/>
<path d="M250.882 87.4902V99.9883H238.385V87.4902H250.882Z" fill="white"/>
<path d="M250.882 74.9961V87.4933H238.385V74.9961H250.882Z" fill="white"/>
<path d="M250.882 62.5098V74.9961H238.385V62.5098H250.882Z" fill="#F2F2F2"/>
<path d="M250.882 50.0117V62.5098H238.385V50.0117H250.882Z" fill="#F2F2F2"/>
<path d="M250.882 37.4922V50.0117H238.385V37.4922H250.882Z" fill="#F2F2F2"/>
<path d="M250.882 24.9922V37.4894H238.385V24.9922H250.882Z" fill="#F2F2F2"/>
<path d="M250.882 12.498V24.9953H238.385V12.498H250.882Z" fill="white"/>
<path d="M238.38 175.006V187.503H225.883V175.006H238.38Z" fill="#CEE0E0"/>
<path d="M238.38 162.486L238.38 175.006H225.883L225.883 162.486H238.38Z" fill="#CEE0E0"/>
<path d="M238.38 149.988L238.38 162.486H225.883L225.883 149.988H238.38Z" fill="#CEE0E0"/>
<path d="M238.38 137.492V149.989H225.883V137.492H238.38Z" fill="#F2F2F2"/>
<path d="M238.38 125.008V137.494H225.883V125.008H238.38Z" fill="#F2F2F2"/>
<path d="M238.38 112.508V125.005H225.883V112.508H238.38Z" fill="white"/>
<path d="M238.38 99.9883V112.508H225.883V99.9883H238.38Z" fill="white"/>
<path d="M238.38 87.4904L238.38 99.9883H225.883L225.883 87.4904H238.38Z" fill="white"/>
<path d="M238.38 74.9959V87.4931H225.883V74.9959H238.38Z" fill="white"/>
<path d="M238.38 62.5097V74.9959H225.883V62.5097H238.38Z" fill="#F2F2F2"/>
<path d="M238.38 50.0117L238.38 62.5097H225.883L225.883 50.0117H238.38Z" fill="#F2F2F2"/>
<path d="M238.38 37.4922V50.0117H225.883V37.4922H238.38Z" fill="#F2F2F2"/>
<path d="M238.38 24.9922V37.4894H225.883V24.9922H238.38Z" fill="white"/>
<path d="M238.38 12.498V24.9953H225.883V12.498H238.38Z" fill="white"/>
<path d="M225.883 175.006V187.503H213.396V175.006H225.883Z" fill="#CEE0E0"/>
<path d="M225.883 162.486L225.883 175.006H213.396L213.397 162.486H225.883Z" fill="#CEE0E0"/>
<path d="M225.883 149.988L225.883 162.486H213.397L213.396 149.988H225.883Z" fill="#CEE0E0"/>
<path d="M225.883 137.492V149.989H213.396V137.492H225.883Z" fill="#F2F2F2"/>
<path d="M225.883 125.008V137.494H213.396V125.008H225.883Z" fill="#F2F2F2"/>
<path d="M225.883 112.508V125.005H213.396V112.508H225.883Z" fill="#F2F2F2"/>
<path d="M225.883 99.9883V112.508H213.396V99.9883H225.883Z" fill="white"/>
<path d="M225.883 87.4904L225.883 99.9883H213.396L213.397 87.4904H225.883Z" fill="white"/>
<path d="M225.883 74.9959V87.4931H213.397V74.9959H225.883Z" fill="#F2F2F2"/>
<path d="M225.883 62.5097V74.9959H213.397V62.5097H225.883Z" fill="#F2F2F2"/>
<path d="M225.883 50.0117L225.883 62.5097H213.397L213.396 50.0117H225.883Z" fill="#F2F2F2"/>
<path d="M225.883 37.4922V50.0117H213.396V37.4922H225.883Z" fill="white"/>
<path d="M213.4 175.006V187.503H200.869V175.006H213.4Z" fill="#CEE0E0"/>
<path d="M213.399 162.486L213.4 175.006H200.869L200.869 162.486H213.399Z" fill="#CEE0E0"/>
<path d="M213.4 149.988L213.399 162.486H200.869L200.869 149.988H213.4Z" fill="#CEE0E0"/>
<path d="M213.4 137.492V149.989H200.869V137.492H213.4Z" fill="#F2F2F2"/>
<path d="M213.4 125.008V137.494H200.869V125.008H213.4Z" fill="#F2F2F2"/>
<path d="M213.4 112.508V125.005H200.869V112.508H213.4Z" fill="#F2F2F2"/>
<path d="M213.4 99.9883V112.508H200.869V99.9883H213.4Z" fill="#F2F2F2"/>
<path d="M213.399 87.4904L213.4 99.9883H200.869L200.869 87.4904H213.399Z" fill="#F2F2F2"/>
<path d="M213.399 74.9959V87.4931H200.869V74.9959H213.399Z" fill="#F2F2F2"/>
<path d="M213.399 62.5097V74.9959H200.869V62.5097H213.399Z" fill="#F2F2F2"/>
<path d="M213.4 50.0117L213.399 62.5097H200.869L200.869 50.0117H213.4Z" fill="white"/>
<path d="M213.4 37.4922V50.0117H200.869V37.4922H213.4Z" fill="white"/>
<path d="M200.869 175.006V187.503H188.383V175.006H200.869Z" fill="#CEE0E0"/>
<path d="M200.869 162.486L200.869 175.006H188.383L188.383 162.486H200.869Z" fill="#CEE0E0"/>
<path d="M200.869 149.988L200.869 162.486H188.383L188.383 149.988H200.869Z" fill="#CEE0E0"/>
<path d="M200.869 137.492V149.989H188.383V137.492H200.869Z" fill="#F2F2F2"/>
<path d="M200.869 125.008V137.494H188.383V125.008H200.869Z" fill="#F2F2F2"/>
<path d="M200.869 112.508V125.005H188.383V112.508H200.869Z" fill="#F2F2F2"/>
<path d="M200.869 99.9883V112.508H188.383V99.9883H200.869Z" fill="#F2F2F2"/>
<path d="M200.869 87.4904L200.869 99.9883H188.383L188.383 87.4904H200.869Z" fill="#F2F2F2"/>
<path d="M200.869 74.9959V87.4931H188.383V74.9959H200.869Z" fill="#F2F2F2"/>
<path d="M200.869 62.5097V74.9959H188.383V62.5097H200.869Z" fill="#F2F2F2"/>
<path d="M188.386 162.486V175.006H175.889V162.486H188.386Z" fill="#CEE0E0"/>
<path d="M188.386 149.988V162.486H175.889V149.988H188.386Z" fill="#CEE0E0"/>
<path d="M188.386 137.492V149.989H175.889V137.492H188.386Z" fill="#CEE0E0"/>
<path d="M188.386 125.008V137.494H175.889V125.008H188.386Z" fill="#CEE0E0"/>
<path d="M188.386 112.508V125.005H175.889V112.508H188.386Z" fill="#F2F2F2"/>
<path d="M188.386 99.9883V112.508H175.889V99.9883H188.386Z" fill="#F2F2F2"/>
<path d="M188.386 87.4902V99.9883H175.889V87.4902H188.386Z" fill="#F2F2F2"/>
<path d="M188.386 74.9961V87.4933H175.889V74.9961H188.386Z" fill="#F2F2F2"/>
<path d="M188.386 62.5098V74.9961H175.889V62.5098H188.386Z" fill="white"/>
<path d="M188.386 50.0117V62.5098H175.889V50.0117H188.386Z" fill="white"/>
<path d="M175.882 162.486V175.006H163.385V162.486H175.882Z" fill="#CEE0E0"/>
<path d="M175.882 149.988V162.486H163.385V149.988H175.882Z" fill="#CEE0E0"/>
<path d="M175.882 137.492V149.989H163.385V137.492H175.882Z" fill="#CEE0E0"/>
<path d="M175.882 125.008V137.494H163.385V125.008H175.882Z" fill="#CEE0E0"/>
<path d="M175.882 112.508V125.005H163.385V112.508H175.882Z" fill="#CEE0E0"/>
<path d="M175.882 99.9883V112.508H163.385V99.9883H175.882Z" fill="#F2F2F2"/>
<path d="M175.882 87.4902V99.9883H163.385V87.4902H175.882Z" fill="#F2F2F2"/>
<path d="M175.882 74.9961V87.4933H163.385V74.9961H175.882Z" fill="#F2F2F2"/>
<path d="M175.882 62.5098V74.9961H163.385V62.5098H175.882Z" fill="#F2F2F2"/>
<path d="M175.882 50.0117V62.5098H163.385V50.0117H175.882Z" fill="white"/>
<path d="M175.882 37.4922V50.0117H163.385V37.4922H175.882Z" fill="white"/>
<path d="M163.388 162.486V175.006H150.891V162.486H163.388Z" fill="#CEE0E0"/>
<path d="M163.388 149.988V162.486H150.891V149.988H163.388Z" fill="#CEE0E0"/>
<path d="M163.388 137.492V149.989H150.891V137.492H163.388Z" fill="#CEE0E0"/>
<path d="M163.388 125.008V137.494H150.891V125.008H163.388Z" fill="#F2F2F2"/>
<path d="M163.388 112.508V125.005H150.891V112.508H163.388Z" fill="#F2F2F2"/>
<path d="M163.388 99.9883V112.508H150.891V99.9883H163.388Z" fill="#F2F2F2"/>
<path d="M163.388 87.4902V99.9883H150.891V87.4902H163.388Z" fill="#F2F2F2"/>
<path d="M163.388 74.9961V87.4933H150.891V74.9961H163.388Z" fill="#F2F2F2"/>
<path d="M163.388 62.5098V74.9961H150.891V62.5098H163.388Z" fill="white"/>
<path d="M163.388 50.0117V62.5098H150.891V50.0117H163.388Z" fill="white"/>
<path d="M163.388 37.4922V50.0117H150.891V37.4922H163.388Z" fill="white"/>
<path d="M150.891 162.486V175.006H138.371V162.486H150.891Z" fill="#CEE0E0"/>
<path d="M150.891 149.988V162.486H138.371V149.988H150.891Z" fill="#CEE0E0"/>
<path d="M150.891 137.492V149.989H138.371V137.492H150.891Z" fill="#F2F2F2"/>
<path d="M150.891 125.008V137.494H138.371V125.008H150.891Z" fill="#F2F2F2"/>
<path d="M150.891 112.508V125.005H138.371V112.508H150.891Z" fill="#F2F2F2"/>
<path d="M150.891 99.9883V112.508H138.371V99.9883H150.891Z" fill="#F2F2F2"/>
<path d="M150.891 87.4902V99.9883H138.371V87.4902H150.891Z" fill="#F2F2F2"/>
<path d="M150.891 74.9961V87.4933H138.371V74.9961H150.891Z" fill="white"/>
<path d="M150.891 62.5098V74.9961H138.371V62.5098H150.891Z" fill="white"/>
<path d="M150.891 50.0117V62.5098H138.371V50.0117H150.891Z" fill="white"/>
<path d="M150.891 37.4922V50.0117H138.371V37.4922H150.891Z" fill="white"/>
<path d="M138.374 162.486V175.006H125.877V162.486H138.374Z" fill="#CEE0E0"/>
<path d="M138.374 149.988V162.486H125.877V149.988H138.374Z" fill="#CEE0E0"/>
<path d="M138.374 137.492V149.989H125.877V137.492H138.374Z" fill="#F2F2F2"/>
<path d="M138.374 125.008V137.494H125.877V125.008H138.374Z" fill="#F2F2F2"/>
<path d="M138.374 112.508V125.005H125.877V112.508H138.374Z" fill="#F2F2F2"/>
<path d="M138.374 99.9883V112.508H125.877V99.9883H138.374Z" fill="#F2F2F2"/>
<path d="M138.374 87.4902V99.9883H125.877V87.4902H138.374Z" fill="white"/>
<path d="M138.374 74.9961V87.4933H125.877V74.9961H138.374Z" fill="white"/>
<path d="M138.374 62.5098V74.9961H125.877V62.5098H138.374Z" fill="white"/>
<path d="M138.374 50.0117V62.5098H125.877V50.0117H138.374Z" fill="white"/>
<path d="M125.877 162.486V175.006H113.391V162.486H125.877Z" fill="#CEE0E0"/>
<path d="M125.877 149.988V162.486H113.391V149.988H125.877Z" fill="#CEE0E0"/>
<path d="M125.877 137.492V149.989H113.391V137.492H125.877Z" fill="#F2F2F2"/>
<path d="M125.877 125.008V137.494H113.391V125.008H125.877Z" fill="#F2F2F2"/>
<path d="M125.877 112.508V125.005H113.391V112.508H125.877Z" fill="#F2F2F2"/>
<path d="M125.877 99.9883V112.508H113.391V99.9883H125.877Z" fill="white"/>
<path d="M125.877 87.4902V99.9883H113.391V87.4902H125.877Z" fill="white"/>
<path d="M125.877 74.9961V87.4933H113.391V74.9961H125.877Z" fill="white"/>
<path d="M113.386 162.486V175.006H100.889V162.486H113.386Z" fill="#CEE0E0"/>
<path d="M113.386 149.988V162.486H100.889V149.988H113.386Z" fill="#CEE0E0"/>
<path d="M113.386 137.492V149.989H100.889V137.492H113.386Z" fill="#CEE0E0"/>
<path d="M113.386 125.008V137.494H100.889V125.008H113.386Z" fill="#F2F2F2"/>
<path d="M113.386 112.508V125.005H100.889V112.508H113.386Z" fill="#F2F2F2"/>
<path d="M113.386 99.9883V112.508H100.889V99.9883H113.386Z" fill="white"/>
<path d="M113.386 87.4902V99.9883H100.889V87.4902H113.386Z" fill="white"/>
<path d="M100.892 162.486V175.006H88.3945V162.486H100.892Z" fill="#CEE0E0"/>
<path d="M100.892 149.988V162.486H88.3945V149.988H100.892Z" fill="#CEE0E0"/>
<path d="M100.892 137.492V149.989H88.3945V137.492H100.892Z" fill="#CEE0E0"/>
<path d="M100.892 125.008V137.494H88.3945V125.008H100.892Z" fill="#CEE0E0"/>
<path d="M100.892 112.508V125.005H88.3945V112.508H100.892Z" fill="#F2F2F2"/>
<path d="M100.892 99.9883V112.508H88.3945V99.9883H100.892Z" fill="white"/>
<path d="M88.3945 149.988V162.486L75.875 162.486V149.988H88.3945Z" fill="#CEE0E0"/>
<path d="M88.3945 137.492V149.989H75.875V137.492H88.3945Z" fill="#CEE0E0"/>
<path d="M88.3945 125.008V137.494H75.875V125.008H88.3945Z" fill="#CEE0E0"/>
<path d="M88.3945 112.508V125.005H75.875V112.508H88.3945Z" fill="#F2F2F2"/>
<path d="M75.875 162.486L75.8749 175.006H63.3887V162.486L75.875 162.486Z" fill="#CEE0E0"/>
<path d="M75.875 149.988V162.486L63.3887 162.486V149.988H75.875Z" fill="#CEE0E0"/>
<path d="M75.875 137.492V149.989H63.3887V137.492H75.875Z" fill="#CEE0E0"/>
<path d="M75.875 125.008V137.494H63.3887V125.008H75.875Z" fill="#F2F2F2"/>
<path d="M63.3918 162.486V175.006H50.8945V162.486H63.3918Z" fill="#CEE0E0"/>
<path d="M63.3918 149.988V162.486H50.8945V149.988H63.3918Z" fill="#CEE0E0"/>
<path d="M63.3918 137.492V149.989H50.8945V137.492H63.3918Z" fill="#F2F2F2"/>
<path d="M63.3918 125.008V137.494H50.8945V125.008H63.3918Z" fill="#F2F2F2"/>
<path d="M50.8879 162.486V175.006H38.3906V162.486H50.8879Z" fill="#CEE0E0"/>
<path d="M50.8879 149.988V162.486H38.3906V149.988H50.8879Z" fill="#CEE0E0"/>
<path d="M50.8879 137.492V149.989H38.3906V137.492H50.8879Z" fill="#F2F2F2"/>
<path d="M50.8879 125.008V137.494H38.3906V125.008H50.8879Z" fill="#F2F2F2"/>
<path d="M38.3939 162.486V175.006H25.8966V162.486H38.3939Z" fill="#CEE0E0"/>
<path d="M38.3937 149.988L38.3939 162.486H25.8966L25.8965 149.988H38.3937Z" fill="#CEE0E0"/>
<path d="M38.3937 137.492V149.989H25.8965V137.492H38.3937Z" fill="#F2F2F2"/>
<path d="M38.3937 125.008V137.494H25.8965V125.008H38.3937Z" fill="#F2F2F2"/>
<path d="M25.8996 149.988V162.486H13.4023V149.988H25.8996Z" fill="#CEE0E0"/>
<path d="M25.8996 137.492V149.989H13.4023V137.492H25.8996Z" fill="#CEE0E0"/>
<path d="M25.8996 125.008V137.494H13.4023V125.008H25.8996Z" fill="#F2F2F2"/>
<path d="M13.4023 149.988V162.486H0.882812V149.988H13.4023Z" fill="#CEE0E0"/>
<path d="M13.4023 137.492V149.989H0.882812V137.492H13.4023Z" fill="#CEE0E0"/>
</svg>
