<svg width="227" height="150" viewBox="0 0 227 150" fill="none" xmlns="http://www.w3.org/2000/svg">
<path d="M146.636 98.2352H141.909V93.5297H146.636V98.2352Z" fill="black"/>
<path d="M137.181 93.5294H132.454V88.8234H137.181V93.5294Z" fill="black"/>
<path d="M132.455 88.8234H127.728V84.1172H132.455V88.8234Z" fill="black"/>
<path d="M127.727 88.8234H123V84.1172H127.727V88.8234Z" fill="black"/>
<path d="M141.909 102.942H137.181V98.2359H141.909V102.942Z" fill="#FEC23E"/>
<path d="M141.909 98.2352H137.181V93.5297H141.909V98.2352Z" fill="black"/>
<path d="M137.181 102.942H132.454V98.2359H137.181V102.942Z" fill="black"/>
<path d="M146.636 102.942H141.909V98.2359H146.636V102.942Z" fill="#FEC23E"/>
<path d="M151.364 102.942H146.637V98.2359H151.364V102.942Z" fill="#FEC23E"/>
<path d="M156.092 102.942H151.364V98.2359H156.092V102.942Z" fill="#FEC23E"/>
<path d="M160.817 102.942H156.09V98.2359H160.817V102.942Z" fill="#FEC23E"/>
<path d="M146.636 117.059H141.909V112.353H146.636V117.059Z" fill="#FEC23E"/>
<path d="M146.636 112.353H141.909V107.648H146.636V112.353Z" fill="white"/>
<path d="M151.364 112.353H146.637V107.648H151.364V112.353Z" fill="#FEC23E"/>
<path d="M151.364 117.059H146.637V112.353H151.364V117.059Z" fill="#FEC23E"/>
<path d="M160.817 117.059H156.09V112.353H160.817V117.059Z" fill="#FEC23E"/>
<path d="M160.817 112.353H156.09V107.648H160.817V112.353Z" fill="white"/>
<path d="M165.545 112.353L160.817 112.353V107.648L165.545 107.648V112.353Z" fill="#FEC23E"/>
<path d="M165.545 117.059L160.817 117.059V112.353L165.545 112.353V117.059Z" fill="#FEC23E"/>
<path d="M137.181 107.648H132.454V102.941H137.181V107.648Z" fill="#FEC23E"/>
<path d="M132.455 107.648H127.728V102.941H132.455V107.648Z" fill="black"/>
<path d="M141.909 107.648L137.181 107.648V102.941H141.909L141.909 107.648Z" fill="black"/>
<path d="M141.909 112.353L137.181 112.353V107.648L141.909 107.648V112.353Z" fill="white"/>
<path d="M141.909 117.059L137.181 117.059V112.353L141.909 112.353V117.059Z" fill="#FEC23E"/>
<path d="M137.181 117.059H132.454V112.353H137.181V117.059Z" fill="#FEC23E"/>
<path d="M146.636 107.648H141.909L141.909 102.941L146.636 102.941V107.648Z" fill="white"/>
<path d="M151.364 107.648H146.637V102.941H151.364V107.648Z" fill="#FEC23E"/>
<path d="M156.092 107.648L151.364 107.648V102.941H156.092V107.648Z" fill="black"/>
<path d="M160.817 107.648H156.09V102.941H160.817V107.648Z" fill="white"/>
<path d="M165.545 107.648L160.817 107.648V102.941L165.545 102.941V107.648Z" fill="#FEC23E"/>
<path d="M170.273 112.353H165.546V107.648H170.273V112.353Z" fill="#FF8000"/>
<path d="M170.273 117.059H165.546V112.353H170.273V117.059Z" fill="#FF8000"/>
<path d="M137.181 112.353H132.454V107.648H137.181V112.353Z" fill="#FEC23E"/>
<path d="M132.455 112.353H127.728V107.648H132.455V112.353Z" fill="black"/>
<path d="M132.455 117.059H127.728V112.353H132.455V117.059Z" fill="black"/>
<path d="M141.909 121.766H137.181V117.059L141.909 117.059L141.909 121.766Z" fill="#FEC23E"/>
<path d="M137.181 121.766H132.454V117.059H137.181V121.766Z" fill="black"/>
<path d="M146.636 121.766H141.909L141.909 117.059H146.636L146.636 121.766Z" fill="black"/>
<path d="M151.364 121.766H146.637V117.059H151.364V121.766Z" fill="black"/>
<path d="M151.364 126.471H146.637V121.766H151.364V126.471Z" fill="#FF8000"/>
<path d="M156.092 126.471H151.364V121.766L156.092 121.766V126.471Z" fill="#FF8000"/>
<path d="M160.817 126.471H156.09V121.766H160.817V126.471Z" fill="#FF8000"/>
<path d="M156.092 121.766L151.364 121.766V117.059L156.092 117.059V121.766Z" fill="black"/>
<path d="M156.092 117.059L151.364 117.059V112.353L156.092 112.353V117.059Z" fill="#FEC23E"/>
<path d="M156.092 112.353L151.364 112.353V107.648L156.092 107.648V112.353Z" fill="white"/>
<path d="M160.817 121.766H156.09V117.059H160.817V121.766Z" fill="#FEC23E"/>
<path d="M165.545 121.766H160.818V117.059L165.545 117.059L165.545 121.766Z" fill="#FF8000"/>
<path d="M146.636 126.471H141.909L141.909 121.766H146.636L146.636 126.471Z" fill="#FF8000"/>
<path d="M146.636 131.176H141.909V126.47H146.636V131.176Z" fill="black"/>
<path d="M141.909 131.176H137.181V126.47H141.909V131.176Z" fill="black"/>
<path d="M141.909 126.471H137.181V121.766H141.909L141.909 126.471Z" fill="#FF8000"/>
<path d="M137.181 126.471H132.454V121.766H137.181V126.471Z" fill="black"/>
<path d="M151.364 131.176H146.637V126.47H151.364V131.176Z" fill="black"/>
<path d="M156.092 131.176H151.364V126.47H156.092V131.176Z" fill="black"/>
<path d="M160.817 131.176H156.09V126.47H160.817V131.176Z" fill="black"/>
<path d="M165.545 131.176H160.818V126.47H165.545V131.176Z" fill="black"/>
<path d="M165.545 126.471H160.818L160.818 121.766H165.545L165.545 126.471Z" fill="#FF8000"/>
<path d="M170.273 126.471H165.545L165.545 121.766L170.273 121.766V126.471Z" fill="black"/>
<path d="M151.364 98.2352H146.637V93.5297H151.364V98.2352Z" fill="black"/>
<path d="M156.092 98.2352H151.364V93.5297H156.092V98.2352Z" fill="black"/>
<path d="M160.817 98.2352H156.09V93.5297H160.817V98.2352Z" fill="black"/>
<path d="M160.817 93.5297H156.09V88.8234H160.817V93.5297Z" fill="black"/>
<path d="M160.817 88.8234H156.09V84.1172H160.817V88.8234Z" fill="black"/>
<path d="M165.545 84.118H160.818V79.4125H165.545V84.118Z" fill="black"/>
<path d="M170.273 79.4122H165.546V74.7062H170.273V79.4122Z" fill="black"/>
<path d="M175 74.7062H170.273V70H175V74.7062Z" fill="black"/>
<path d="M179.727 74.7062H174.999V70H179.727V74.7062Z" fill="black"/>
<path d="M156.092 88.8234H151.364V84.1172H156.092V88.8234Z" fill="black"/>
<path d="M151.364 84.118H146.637V79.4125H151.364V84.118Z" fill="black"/>
<path d="M146.636 84.118H141.909V79.4125H146.636V84.118Z" fill="black"/>
<path d="M165.545 102.942H160.818V98.2359H165.545V102.942Z" fill="#FEC23E"/>
<path d="M170.273 102.942H165.545V98.2359H170.273V102.942Z" fill="black"/>
<path d="M165.545 98.2352H160.818V93.5297H165.545V98.2352Z" fill="black"/>
<path d="M170.273 107.648H165.546V102.941H170.273V107.648Z" fill="black"/>
<path d="M175 107.648H170.273V102.941H175V107.648Z" fill="black"/>
<path d="M175 112.353H170.273V107.648H175V112.353Z" fill="black"/>
<path d="M175 117.059H170.273V112.353H175V117.059Z" fill="black"/>
<path d="M170.273 121.766L165.545 121.766L165.546 117.059H170.273V121.766Z" fill="#FF8000"/>
<path d="M175 121.766H170.273V117.059H175V121.766Z" fill="black"/>
<path d="M175 126.471H170.273V121.766H175V126.471Z" fill="black"/>
<path d="M170.273 131.176H165.545V126.47H170.273V131.176Z" fill="black"/>
<path d="M175 135.883H170.273V131.177H175V135.883Z" fill="black"/>
<path d="M179.727 135.883H174.999V131.177H179.727V135.883Z" fill="black"/>
<path d="M184.454 135.883H179.727V131.177H184.454V135.883Z" fill="black"/>
<path d="M170.273 135.883H165.546L165.545 131.176H170.273V135.883Z" fill="black"/>
<path d="M165.546 135.883H160.818V131.176H165.545L165.546 135.883Z" fill="black"/>
<path d="M160.817 135.883H156.09V131.176H160.817V135.883Z" fill="black"/>
<path d="M175 131.177H170.273V126.47H175V131.177Z" fill="black"/>
<path d="M179.727 121.766H174.999V117.059H179.727V121.766Z" fill="black"/>
<path d="M193.908 98.2352H189.181V93.5297H193.908V98.2352Z" fill="#3D7491"/>
<path d="M189.181 102.942H184.454V98.2359H189.181V102.942Z" fill="black"/>
<path d="M189.181 98.2352H184.454V93.5297H189.181V98.2352Z" fill="#3D7491"/>
<path d="M184.454 98.2352H179.727V93.5297H184.454V98.2352Z" fill="#3D7491"/>
<path d="M179.727 98.2352H174.999V93.5297H179.727V98.2352Z" fill="#78AFD6"/>
<path d="M175 98.2352H170.273V93.5297H175V98.2352Z" fill="#78AFD6"/>
<path d="M175 102.942H170.273V98.2359H175V102.942Z" fill="#3D7491"/>
<path d="M170.273 98.2352H165.545V93.5297H170.273V98.2352Z" fill="#78AFD6"/>
<path d="M184.454 102.942H179.727V98.2359H184.454V102.942Z" fill="black"/>
<path d="M179.727 102.942H174.999V98.2359H179.727V102.942Z" fill="#3D7491"/>
<path d="M193.908 102.942H189.181V98.2359H193.908V102.942Z" fill="black"/>
<path d="M198.636 102.942H193.908V98.2359H198.636V102.942Z" fill="#FEC23E"/>
<path d="M203.363 102.942H198.636V98.2359H203.363V102.942Z" fill="#FEC23E"/>
<path d="M208.091 102.942H203.363V98.2359H208.091V102.942Z" fill="#FEC23E"/>
<path d="M193.908 117.059H189.181V112.353H193.908V117.059Z" fill="black"/>
<path d="M193.908 112.353H189.181V107.648H193.908V112.353Z" fill="#FEC23E"/>
<path d="M198.636 112.353L193.908 112.353V107.648H198.636V112.353Z" fill="black"/>
<path d="M198.636 117.059H193.908V112.353L198.636 112.353V117.059Z" fill="black"/>
<path d="M208.091 117.059H203.363V112.353H208.091V117.059Z" fill="#FEC23E"/>
<path d="M208.091 112.353H203.363V107.648H208.091V112.353Z" fill="#FEC23E"/>
<path d="M212.819 112.353L208.091 112.353V107.648H212.819V112.353Z" fill="#FEC23E"/>
<path d="M212.819 117.059H208.091V112.353L212.819 112.353V117.059Z" fill="#FEC23E"/>
<path d="M184.454 107.648H179.727V102.941H184.454V107.648Z" fill="black"/>
<path d="M179.727 107.648H174.999V102.941H179.727V107.648Z" fill="black"/>
<path d="M189.181 107.648L184.454 107.648V102.941L189.181 102.941V107.648Z" fill="#FEC23E"/>
<path d="M189.181 112.353H184.454L184.454 107.648L189.181 107.648V112.353Z" fill="#FEC23E"/>
<path d="M189.181 117.059H184.454V112.353H189.181V117.059Z" fill="#FEC23E"/>
<path d="M184.454 117.059L179.727 117.059L179.727 112.353L184.454 112.353V117.059Z" fill="#FEC23E"/>
<path d="M193.908 107.648H189.181V102.941H193.908V107.648Z" fill="black"/>
<path d="M198.636 107.648H193.908V102.941H198.636V107.648Z" fill="black"/>
<path d="M203.363 107.648L198.636 107.648V102.941H203.363V107.648Z" fill="#FEC23E"/>
<path d="M208.091 107.648H203.363V102.941H208.091V107.648Z" fill="#FEC23E"/>
<path d="M212.819 107.648H208.091V102.941H212.819V107.648Z" fill="black"/>
<path d="M217.546 112.353H212.819V107.648H217.546V112.353Z" fill="black"/>
<path d="M217.546 117.059H212.819V112.353H217.546V117.059Z" fill="black"/>
<path d="M184.454 112.353L179.727 112.353V107.648H184.454L184.454 112.353Z" fill="#FEC23E"/>
<path d="M179.727 112.353L174.999 112.353V107.648H179.727V112.353Z" fill="black"/>
<path d="M179.727 117.059H174.999L174.999 112.353L179.727 112.353L179.727 117.059Z" fill="black"/>
<path d="M189.181 121.766H184.454V117.059H189.181V121.766Z" fill="#FEC23E"/>
<path d="M184.454 121.766H179.727V117.059L184.454 117.059V121.766Z" fill="#FEC23E"/>
<path d="M193.908 121.766H189.181V117.059H193.908V121.766Z" fill="black"/>
<path d="M198.636 121.766H193.908V117.059H198.636V121.766Z" fill="black"/>
<path d="M198.636 126.471H193.908L193.908 121.766H198.636V126.471Z" fill="#FEC23E"/>
<path d="M203.363 126.471H198.636V121.766L203.363 121.766V126.471Z" fill="#FEC23E"/>
<path d="M208.091 126.471H203.363V121.766H208.091V126.471Z" fill="black"/>
<path d="M203.363 121.766L198.636 121.766V117.059L203.363 117.059V121.766Z" fill="#FEC23E"/>
<path d="M203.363 117.059L198.636 117.059V112.353L203.363 112.353V117.059Z" fill="black"/>
<path d="M203.363 112.353L198.636 112.353V107.648L203.363 107.648V112.353Z" fill="black"/>
<path d="M208.091 121.766H203.363V117.059H208.091V121.766Z" fill="#FEC23E"/>
<path d="M212.819 121.766L208.091 121.766V117.059H212.819V121.766Z" fill="black"/>
<path d="M193.908 126.471H189.181V121.766H193.908L193.908 126.471Z" fill="black"/>
<path d="M193.908 131.176H189.181V126.47H193.908V131.176Z" fill="black"/>
<path d="M189.181 131.176L184.454 131.177L184.454 126.47H189.181V131.176Z" fill="black"/>
<path d="M184.454 131.177H179.727L179.727 126.47H184.454L184.454 131.177Z" fill="#FEC23E"/>
<path d="M189.181 126.471H184.454V121.766H189.181V126.471Z" fill="black"/>
<path d="M184.454 126.471H179.727L179.727 121.766H184.454V126.471Z" fill="#FEC23E"/>
<path d="M179.727 126.471H174.999V121.766H179.727L179.727 126.471Z" fill="black"/>
<path d="M179.727 131.177H174.999V126.47H179.727L179.727 131.177Z" fill="#FEC23E"/>
<path d="M198.636 131.176H193.908V126.47H198.636V131.176Z" fill="black"/>
<path d="M203.363 131.176H198.636V126.47H203.363V131.176Z" fill="black"/>
<path d="M208.091 131.176H203.363V126.47H208.091V131.176Z" fill="black"/>
<path d="M212.819 131.176H208.091V126.47H212.819V131.176Z" fill="black"/>
<path d="M212.819 126.471H208.091V121.766L212.819 121.766V126.471Z" fill="black"/>
<path d="M217.546 126.471H212.819V121.766L217.546 121.766V126.471Z" fill="black"/>
<path d="M198.636 98.2352H193.908V93.5297H198.636V98.2352Z" fill="black"/>
<path d="M203.363 98.2352H198.636V93.5297H203.363V98.2352Z" fill="black"/>
<path d="M208.091 98.2352H203.363V93.5297H208.091V98.2352Z" fill="black"/>
<path d="M208.091 93.5297H203.363V88.8234H208.091V93.5297Z" fill="black"/>
<path d="M212.819 102.942H208.091V98.2359H212.819V102.942Z" fill="black"/>
<path d="M217.546 102.942H212.819V98.2359H217.546V102.942Z" fill="black"/>
<path d="M212.819 98.2352H208.091V93.5297H212.819V98.2352Z" fill="black"/>
<path d="M217.546 107.648H212.819V102.941H217.546V107.648Z" fill="black"/>
<path d="M222.272 107.648H217.545V102.941H222.272V107.648Z" fill="black"/>
<path d="M222.272 112.353H217.545V107.648H222.272V112.353Z" fill="black"/>
<path d="M227 112.353H222.272V107.648L227 107.648V112.353Z" fill="black"/>
<path d="M222.272 117.059H217.545V112.353H222.272V117.059Z" fill="black"/>
<path d="M217.546 121.766L212.819 121.766V117.059H217.546V121.766Z" fill="black"/>
<path d="M222.272 121.766H217.545V117.059H222.272V121.766Z" fill="black"/>
<path d="M179.727 145.294H174.999V140.588H179.727V145.294Z" fill="black"/>
<path d="M175 150H170.273V145.294H175V150Z" fill="black"/>
<path d="M160.817 150H156.09V145.294H160.817V150Z" fill="black"/>
<path d="M208.091 145.294H203.363V140.588H208.091V145.294Z" fill="black"/>
<path d="M208.091 140.588H203.363V135.883H208.091V140.588Z" fill="white"/>
<path d="M212.819 140.588L208.091 140.588V135.883H212.819V140.588Z" fill="black"/>
<path d="M189.181 135.883H184.454V131.177L189.181 131.176V135.883Z" fill="black"/>
<path d="M179.727 140.588H174.999L174.999 135.883H179.727L179.727 140.588Z" fill="black"/>
<path d="M165.545 145.294L160.817 145.294L160.818 140.588H165.545V145.294Z" fill="black"/>
<path d="M165.545 140.588H160.818L160.818 135.883L165.545 135.883V140.588Z" fill="black"/>
<path d="M193.908 135.883H189.181V131.176H193.908V135.883Z" fill="white"/>
<path d="M203.363 135.883H198.636L198.636 131.176H203.363V135.883Z" fill="black"/>
<path d="M208.091 135.883H203.363V131.176H208.091V135.883Z" fill="white"/>
<path d="M212.819 135.883H208.091V131.176H212.819V135.883Z" fill="black"/>
<path d="M217.546 145.294H212.819L212.819 140.588L217.546 140.588V145.294Z" fill="black"/>
<path d="M203.363 140.588H198.636V135.883H203.363V140.588Z" fill="black"/>
<path d="M193.908 79.4122H189.181V74.7062H193.908V79.4122Z" fill="black"/>
<path d="M198.636 79.4122H193.908V74.7062H198.636V79.4122Z" fill="black"/>
<path d="M189.181 79.4122H184.454V74.7062H189.181V79.4122Z" fill="black"/>
<path d="M184.454 79.4122L179.727 79.4122L179.727 74.7062L184.454 74.7062V79.4122Z" fill="#3D7491"/>
<path d="M184.454 74.7062L179.727 74.7062V70H184.454L184.454 74.7062Z" fill="black"/>
<path d="M189.181 84.118H184.454V79.4122H189.181V84.118Z" fill="#78AFD6"/>
<path d="M184.454 84.118H179.727L179.727 79.4122L184.454 79.4122V84.118Z" fill="black"/>
<path d="M193.908 84.118H189.181V79.4122H193.908V84.118Z" fill="#78AFD6"/>
<path d="M198.636 84.118H193.908V79.4122H198.636V84.118Z" fill="#78AFD6"/>
<path d="M198.636 88.8234H193.908V84.1172H198.636V88.8234Z" fill="#3D7491"/>
<path d="M203.363 88.8234H198.636V84.1172H203.363V88.8234Z" fill="black"/>
<path d="M203.363 84.118H198.636V79.4122L203.363 79.4125V84.118Z" fill="black"/>
<path d="M203.363 79.4125L198.636 79.4122V74.7062H203.363V79.4125Z" fill="black"/>
<path d="M193.908 88.8234H189.181V84.1172H193.908V88.8234Z" fill="#78AFD6"/>
<path d="M193.908 93.5297H189.181V88.8234H193.908L193.908 93.5297Z" fill="#78AFD6"/>
<path d="M189.181 93.5297H184.454V88.8234H189.181V93.5297Z" fill="#78AFD6"/>
<path d="M184.454 93.5302H179.727V88.8242H184.454V93.5302Z" fill="#78AFD6"/>
<path d="M189.181 88.8234H184.454V84.1172H189.181V88.8234Z" fill="#78AFD6"/>
<path d="M184.454 88.8234L179.727 88.8234V84.1172H184.454V88.8234Z" fill="#78AFD6"/>
<path d="M179.727 88.8234H174.999V84.1172H179.727V88.8234Z" fill="black"/>
<path d="M175 88.8234H170.273V84.1172H175V88.8234Z" fill="black"/>
<path d="M175 84.118H170.273V79.4125H175V84.118Z" fill="#78AFD6"/>
<path d="M175 79.4125H170.273V74.7062H175V79.4125Z" fill="#78AFD6"/>
<path d="M179.727 79.4122H174.999V74.7062H179.727L179.727 79.4122Z" fill="#78AFD6"/>
<path d="M179.727 84.118H174.999L174.999 79.4122H179.727L179.727 84.118Z" fill="#3D7491"/>
<path d="M170.273 84.118H165.545L165.546 79.4122H170.273V84.118Z" fill="#78AFD6"/>
<path d="M170.273 88.8234H165.546V84.1172H170.273V88.8234Z" fill="black"/>
<path d="M165.546 88.8234H160.818V84.1172H165.546V88.8234Z" fill="#78AFD6"/>
<path d="M198.636 93.5297H193.908L193.908 88.8234H198.636V93.5297Z" fill="#3D7491"/>
<path d="M175 93.5297H170.273V88.8234H175V93.5297Z" fill="#78AFD6"/>
<path d="M170.273 93.5297H165.545L165.546 88.8234H170.273V93.5297Z" fill="black"/>
<path d="M165.545 93.5302H160.818V88.8242H165.545V93.5302Z" fill="black"/>
<path d="M179.727 93.5302H174.999V88.8242H179.727V93.5302Z" fill="#78AFD6"/>
<path d="M203.363 93.5297H198.636V88.8234H203.363V93.5297Z" fill="black"/>
<path d="M180 46.8784V50.0023H175.815V46.8784H180Z" fill="black"/>
<path d="M180 43.7486V46.8793H175.815V43.7486H180Z" fill="black"/>
<path d="M180 40.6239V43.7477H175.815V40.6239H180Z" fill="black"/>
<path d="M180 37.4991V40.623H175.815V37.4991H180Z" fill="black"/>
<path d="M180 34.377V37.5009H175.815V34.377H180Z" fill="black"/>
<path d="M180 31.2523V34.3761H175.815V31.2523H180Z" fill="black"/>
<path d="M180 28.1276V31.2514H175.815V28.1276H180Z" fill="black"/>
<path d="M180 25.0054V28.1293H175.815V25.0054H180Z" fill="black"/>
<path d="M180 21.873V25.0037H175.815V21.873H180Z" fill="black"/>
<path d="M180 18.7509V21.8747H175.815V18.7509H180Z" fill="black"/>
<path d="M180 15.6261V18.75H175.815V15.6261H180Z" fill="black"/>
<path d="M180 12.5014V15.6253H175.815V12.5014H180Z" fill="black"/>
<path d="M180 9.37927V12.5031H175.815V9.37927H180Z" fill="black"/>
<path d="M175.816 50.0031V53.127H171.636V50.0031H175.816Z" fill="black"/>
<path d="M175.816 46.8784V50.0023H171.636V46.8784H175.816Z" fill="black"/>
<path d="M175.816 43.7486V46.8793H171.636V43.7486H175.816Z" fill="black"/>
<path d="M175.816 40.6239V43.7477H171.636V40.6239H175.816Z" fill="black"/>
<path d="M175.816 37.4991V40.623H171.636V37.4991H175.816Z" fill="black"/>
<path d="M175.816 34.377V37.5009H171.636V34.377H175.816Z" fill="black"/>
<path d="M175.816 31.2523V34.3761H171.636V31.2523H175.816Z" fill="black"/>
<path d="M175.816 28.1276V31.2514H171.636V28.1276H175.816Z" fill="black"/>
<path d="M175.816 25.0054V28.1293H171.636V25.0054H175.816Z" fill="black"/>
<path d="M175.816 21.873V25.0037H171.636V21.873H175.816Z" fill="black"/>
<path d="M175.816 18.7509V21.8747H171.636V18.7509H175.816Z" fill="black"/>
<path d="M175.816 15.6261V18.75H171.636V15.6261H175.816Z" fill="black"/>
<path d="M175.816 12.5014V15.6253H171.636V12.5014H175.816Z" fill="black"/>
<path d="M175.816 9.37927V12.5031H171.636V9.37927H175.816Z" fill="black"/>
<path d="M175.816 6.25456V9.37842H171.636V6.25456H175.816Z" fill="black"/>
<path d="M171.635 53.1253V56.2491H167.436V53.1253H171.635Z" fill="black"/>
<path d="M171.635 50.0031V53.127H167.436V50.0031H171.635Z" fill="black"/>
<path d="M171.635 46.8784V50.0023H167.436V46.8784H171.635Z" fill="black"/>
<path d="M171.635 43.7486V46.8793H167.436V43.7486H171.635Z" fill="#6875BA"/>
<path d="M171.635 40.6239V43.7477H167.436V40.6239H171.635Z" fill="#6875BA"/>
<path d="M171.635 37.4991V40.623H167.436V37.4991H171.635Z" fill="#6875BA"/>
<path d="M171.635 34.377V37.5009H167.436V34.377H171.635Z" fill="#6875BA"/>
<path d="M171.635 31.2523V34.3761H167.436V31.2523H171.635Z" fill="#6875BA"/>
<path d="M171.635 28.1276V31.2514H167.436V28.1276H171.635Z" fill="#6875BA"/>
<path d="M171.635 25.0054V28.1293H167.436V25.0054H171.635Z" fill="#6875BA"/>
<path d="M171.635 21.873V25.0037H167.436V21.873H171.635Z" fill="#6875BA"/>
<path d="M171.635 18.7509V21.8747H167.436V18.7509H171.635Z" fill="#6875BA"/>
<path d="M171.635 15.6261V18.75H167.436V15.6261H171.635Z" fill="#6875BA"/>
<path d="M171.635 12.5014V15.6253H167.436V12.5014H171.635Z" fill="#6875BA"/>
<path d="M171.635 9.37927V12.5031H167.436V9.37927H171.635Z" fill="#6875BA"/>
<path d="M171.635 6.25456V9.37842H167.436V6.25456H171.635Z" fill="#6875BA"/>
<path d="M171.635 3.12984V6.2537H167.436V3.12984H171.635Z" fill="black"/>
<path d="M167.436 53.1253V56.2491H163.252V53.1253H167.436Z" fill="black"/>
<path d="M167.436 50.0031V53.127H163.252V50.0031H167.436Z" fill="black"/>
<path d="M167.436 46.8784V50.0023H163.252V46.8784H167.436Z" fill="#6875BA"/>
<path d="M167.436 43.7486V46.8793H163.252V43.7486H167.436Z" fill="#8F9EF0"/>
<path d="M167.436 40.6239V43.7477H163.252V40.6239H167.436Z" fill="#8F9EF0"/>
<path d="M167.436 37.4991V40.623H163.252V37.4991H167.436Z" fill="#8F9EF0"/>
<path d="M167.436 34.377V37.5009H163.252V34.377H167.436Z" fill="#8F9EF0"/>
<path d="M167.436 31.2523V34.3761H163.252V31.2523H167.436Z" fill="#8F9EF0"/>
<path d="M167.436 28.1276V31.2514H163.252V28.1276H167.436Z" fill="#8F9EF0"/>
<path d="M167.436 25.0054V28.1293H163.252V25.0054H167.436Z" fill="#8F9EF0"/>
<path d="M167.436 21.873V25.0037H163.252V21.873H167.436Z" fill="#8F9EF0"/>
<path d="M167.436 18.7509V21.8747H163.252V18.7509H167.436Z" fill="#8F9EF0"/>
<path d="M167.436 15.6261V18.75H163.252V15.6261H167.436Z" fill="#8F9EF0"/>
<path d="M167.436 12.5014V15.6253H163.252V12.5014H167.436Z" fill="#8F9EF0"/>
<path d="M167.436 9.37927V12.5031H163.252V9.37927H167.436Z" fill="#999FF0"/>
<path d="M167.436 6.25456V9.37842H163.252V6.25456H167.436Z" fill="#999FF0"/>
<path d="M167.436 3.12984V6.2537H163.252V3.12984H167.436Z" fill="#999FF0"/>
<path d="M167.437 0V3.1307H163.252V0H167.437Z" fill="black"/>
<path d="M163.252 53.1253V56.2491H159.068V53.1253H163.252Z" fill="black"/>
<path d="M163.252 50.0031V53.127H159.068V50.0031H163.252Z" fill="black"/>
<path d="M163.252 46.8784V50.0023H159.068V46.8784H163.252Z" fill="#6875BA"/>
<path d="M163.252 43.7486V46.8793H159.068V43.7486H163.252Z" fill="#8F9EF0"/>
<path d="M163.252 40.6239V43.7477H159.068V40.6239H163.252Z" fill="#999FF0"/>
<path d="M163.252 37.4991V40.623H159.068V37.4991H163.252Z" fill="#999FF0"/>
<path d="M163.252 34.377V37.5009H159.068V34.377H163.252Z" fill="#999FF0"/>
<path d="M163.252 31.2523V34.3761H159.068V31.2523H163.252Z" fill="#999FF0"/>
<path d="M163.252 28.1276V31.2514H159.068V28.1276H163.252Z" fill="#999FF0"/>
<path d="M163.252 25.0054V28.1293H159.068V25.0054H163.252Z" fill="#999FF0"/>
<path d="M163.252 21.873V25.0037H159.068V21.873H163.252Z" fill="#999FF0"/>
<path d="M163.252 18.7509V21.8747H159.068V18.7509H163.252Z" fill="#999FF0"/>
<path d="M163.252 15.6261V18.75H159.068V15.6261H163.252Z" fill="#999FF0"/>
<path d="M163.252 12.5014V15.6253H159.068V12.5014H163.252Z" fill="#999FF0"/>
<path d="M163.252 9.37927V12.5031H159.068V9.37927H163.252Z" fill="#999FF0"/>
<path d="M163.252 6.25456V9.37842H159.068V6.25456H163.252Z" fill="#BEC1ED"/>
<path d="M163.252 3.12984V6.2537H159.068V3.12984H163.252Z" fill="#999FF0"/>
<path d="M163.252 0V3.1307H159.068V0H163.252Z" fill="black"/>
<path d="M159.066 56.25V59.3739H154.882V56.25H159.066Z" fill="black"/>
<path d="M159.066 53.1253V56.2491H154.882V53.1253H159.066Z" fill="black"/>
<path d="M159.066 50.0031V53.127H154.882V50.0031H159.066Z" fill="black"/>
<path d="M159.066 46.8784V50.0023H154.882V46.8784H159.066Z" fill="#6875BA"/>
<path d="M159.066 43.7486V46.8793H154.882V43.7486H159.066Z" fill="#8F9EF0"/>
<path d="M159.066 40.6239V43.7477H154.882V40.6239H159.066Z" fill="#999FF0"/>
<path d="M159.066 37.4991V40.623H154.882V37.4991H159.066Z" fill="#999FF0"/>
<path d="M159.066 34.377V37.5009H154.882V34.377H159.066Z" fill="#999FF0"/>
<path d="M159.066 31.2523V34.3761H154.882V31.2523H159.066Z" fill="#999FF0"/>
<path d="M159.066 28.1276V31.2514H154.882V28.1276H159.066Z" fill="#999FF0"/>
<path d="M159.066 25.0054V28.1293H154.882V25.0054H159.066Z" fill="#999FF0"/>
<path d="M159.066 21.873V25.0037H154.882V21.873H159.066Z" fill="#999FF0"/>
<path d="M159.066 18.7509V21.8747H154.882V18.7509H159.066Z" fill="#999FF0"/>
<path d="M159.066 15.6261V18.75H154.882V15.6261H159.066Z" fill="#999FF0"/>
<path d="M159.066 12.5014V15.6253H154.882V12.5014H159.066Z" fill="#999FF0"/>
<path d="M159.066 9.37927V12.5031H154.882V9.37927H159.066Z" fill="#999FF0"/>
<path d="M159.066 6.25456V9.37842H154.882V6.25456H159.066Z" fill="#999FF0"/>
<path d="M159.066 3.12984V6.2537H154.882V3.12984H159.066Z" fill="#999FF0"/>
<path d="M159.066 0V3.1307H154.882V0H159.066Z" fill="black"/>
<path d="M154.882 59.3747V62.4986H150.697V59.3747H154.882Z" fill="black"/>
<path d="M154.882 56.25V59.3739H150.697V56.25H154.882Z" fill="black"/>
<path d="M154.882 53.1253V56.2491H150.697V53.1253H154.882Z" fill="black"/>
<path d="M154.882 50.0031V53.127H150.697V50.0031H154.882Z" fill="#6875BA"/>
<path d="M154.882 46.8784V50.0023H150.697V46.8784H154.882Z" fill="#8F9EF0"/>
<path d="M154.882 43.7486V46.8793H150.697V43.7486H154.882Z" fill="#999FF0"/>
<path d="M154.882 40.6239V43.7477H150.697V40.6239H154.882Z" fill="#999FF0"/>
<path d="M154.882 37.4991V40.623H150.697V37.4991H154.882Z" fill="#999FF0"/>
<path d="M154.882 34.377V37.5009H150.697V34.377H154.882Z" fill="#999FF0"/>
<path d="M154.882 31.2523V34.3761H150.697V31.2523H154.882Z" fill="#999FF0"/>
<path d="M154.882 28.1276V31.2514H150.697V28.1276H154.882Z" fill="#999FF0"/>
<path d="M154.882 25.0054V28.1293H150.697V25.0054H154.882Z" fill="#999FF0"/>
<path d="M154.882 21.873V25.0037H150.697V21.873H154.882Z" fill="#999FF0"/>
<path d="M154.882 18.7509V21.8747H150.697V18.7509H154.882Z" fill="#999FF0"/>
<path d="M154.882 15.6261V18.75H150.697V15.6261H154.882Z" fill="#999FF0"/>
<path d="M154.882 12.5014V15.6253H150.697V12.5014H154.882Z" fill="#999FF0"/>
<path d="M154.882 9.37927V12.5031H150.697V9.37927H154.882Z" fill="#999FF0"/>
<path d="M154.882 6.25456V9.37842H150.697V6.25456H154.882Z" fill="#BEC1ED"/>
<path d="M154.882 3.12984V6.2537H150.697V3.12984H154.882Z" fill="#999FF0"/>
<path d="M154.882 0V3.1307H150.697V0H154.882Z" fill="black"/>
<path d="M150.698 62.4969V65.6207H146.513V62.4969H150.698Z" fill="black"/>
<path d="M150.697 59.3747V62.4986H146.513V59.3747H150.697Z" fill="black"/>
<path d="M150.697 56.25V59.3739H146.513V56.25H150.697Z" fill="black"/>
<path d="M150.697 53.1253V56.2491H146.513V53.1253H150.697Z" fill="#6875BA"/>
<path d="M150.697 50.0031V53.127H146.513V50.0031H150.697Z" fill="#8F9EF0"/>
<path d="M150.697 46.8784V50.0023H146.513V46.8784H150.697Z" fill="#999FF0"/>
<path d="M150.697 43.7486V46.8793H146.513V43.7486H150.697Z" fill="#999FF0"/>
<path d="M150.697 40.6239V43.7477H146.513V40.6239H150.697Z" fill="#999FF0"/>
<path d="M150.697 37.4991V40.623H146.513V37.4991H150.697Z" fill="#999FF0"/>
<path d="M150.697 34.377V37.5009H146.513V34.377H150.697Z" fill="#999FF0"/>
<path d="M150.697 31.2523V34.3761H146.513V31.2523H150.697Z" fill="#999FF0"/>
<path d="M150.697 28.1276V31.2514H146.513V28.1276H150.697Z" fill="#999FF0"/>
<path d="M150.697 25.0054V28.1293H146.513V25.0054H150.697Z" fill="#999FF0"/>
<path d="M150.697 21.873V25.0037H146.513V21.873H150.697Z" fill="#999FF0"/>
<path d="M150.697 18.7509V21.8747H146.513V18.7509H150.697Z" fill="#999FF0"/>
<path d="M150.697 15.6261V18.75H146.513V15.6261H150.697Z" fill="#999FF0"/>
<path d="M150.697 12.5014V15.6253H146.513V12.5014H150.697Z" fill="#999FF0"/>
<path d="M150.697 9.37927V12.5031H146.513V9.37927H150.697Z" fill="#999FF0"/>
<path d="M150.697 6.25456V9.37842H146.513V6.25456H150.697Z" fill="#BEC1ED"/>
<path d="M150.697 3.12984V6.2537H146.513V3.12984H150.697Z" fill="#999FF0"/>
<path d="M150.697 0V3.1307H146.513V0H150.697Z" fill="black"/>
<path d="M146.512 65.6216V68.7523H142.332V65.6216H146.512Z" fill="black"/>
<path d="M146.513 62.4969V65.6207H142.332V62.4969H146.513Z" fill="black"/>
<path d="M146.513 59.3747V62.4986H142.332V59.3747H146.513Z" fill="black"/>
<path d="M146.513 56.25V59.3739H142.332V56.25H146.513Z" fill="#6875BA"/>
<path d="M146.513 53.1253V56.2491H142.332V53.1253H146.513Z" fill="#8F9EF0"/>
<path d="M146.513 50.0031V53.127H142.332V50.0031H146.513Z" fill="#999FF0"/>
<path d="M146.513 46.8784V50.0023H142.332V46.8784H146.513Z" fill="#999FF0"/>
<path d="M146.513 43.7486V46.8793H142.332V43.7486H146.513Z" fill="#999FF0"/>
<path d="M146.513 40.6239V43.7477H142.332V40.6239H146.513Z" fill="#999FF0"/>
<path d="M146.513 37.4991V40.623H142.332V37.4991H146.513Z" fill="#999FF0"/>
<path d="M146.513 34.377V37.5009H142.332V34.377H146.513Z" fill="#999FF0"/>
<path d="M146.513 31.2523V34.3761H142.332V31.2523H146.513Z" fill="#999FF0"/>
<path d="M146.513 28.1276V31.2514H142.332V28.1276H146.513Z" fill="#999FF0"/>
<path d="M146.513 25.0054V28.1293H142.332V25.0054H146.513Z" fill="#999FF0"/>
<path d="M146.513 21.873V25.0037H142.332V21.873H146.513Z" fill="#999FF0"/>
<path d="M146.513 18.7509V21.8747H142.332V18.7509H146.513Z" fill="#999FF0"/>
<path d="M146.513 15.6261V18.75H142.332V15.6261H146.513Z" fill="#999FF0"/>
<path d="M146.513 12.5014V15.6253H142.332V12.5014H146.513Z" fill="#999FF0"/>
<path d="M146.513 9.37927V12.5031H142.332V9.37927H146.513Z" fill="#999FF0"/>
<path d="M146.513 6.25456V9.37842H142.332V6.25456H146.513Z" fill="#BEC1ED"/>
<path d="M146.513 3.12984V6.2537H142.332V3.12984H146.513Z" fill="#999FF0"/>
<path d="M146.513 0V3.1307H142.332V0H146.513Z" fill="black"/>
<path d="M142.333 68.7514V71.8753H138.134V68.7514H142.333Z" fill="black"/>
<path d="M142.332 65.6216V68.7523H138.134V65.6216H142.332Z" fill="black"/>
<path d="M142.332 62.4969V65.6207H138.134V62.4969H142.332Z" fill="black"/>
<path d="M142.332 59.3747V62.4986H138.134V59.3747H142.332Z" fill="#6875BA"/>
<path d="M142.332 56.25V59.3739H138.134V56.25H142.332Z" fill="#8F9EF0"/>
<path d="M142.332 53.1253V56.2491H138.134V53.1253H142.332Z" fill="#999FF0"/>
<path d="M142.332 50.0031V53.127H138.134V50.0031H142.332Z" fill="#999FF0"/>
<path d="M142.332 46.8784V50.0023H138.134V46.8784H142.332Z" fill="#999FF0"/>
<path d="M142.332 43.7486V46.8793H138.134V43.7486H142.332Z" fill="#999FF0"/>
<path d="M142.332 40.6239V43.7477H138.134V40.6239H142.332Z" fill="#999FF0"/>
<path d="M142.332 37.4991V40.623H138.134V37.4991H142.332Z" fill="#999FF0"/>
<path d="M142.332 34.377V37.5009H138.134V34.377H142.332Z" fill="#999FF0"/>
<path d="M142.332 31.2523V34.3761H138.134V31.2523H142.332Z" fill="#999FF0"/>
<path d="M142.332 28.1276V31.2514H138.134V28.1276H142.332Z" fill="#999FF0"/>
<path d="M142.332 25.0054V28.1293H138.134V25.0054H142.332Z" fill="#999FF0"/>
<path d="M142.332 21.873V25.0037H138.134V21.873H142.332Z" fill="#999FF0"/>
<path d="M142.332 18.7509V21.8747H138.134V18.7509H142.332Z" fill="#999FF0"/>
<path d="M142.332 15.6261V18.75H138.134V15.6261H142.332Z" fill="#999FF0"/>
<path d="M142.332 12.5014V15.6253H138.134V12.5014H142.332Z" fill="#999FF0"/>
<path d="M142.332 9.37927V12.5031H138.134V9.37927H142.332Z" fill="#999FF0"/>
<path d="M142.332 6.25456V9.37842H138.134V6.25456H142.332Z" fill="#999FF0"/>
<path d="M142.332 3.12984V6.2537H138.134V3.12984H142.332Z" fill="#999FF0"/>
<path d="M142.332 0V3.1307H138.134V0H142.332Z" fill="black"/>
<path d="M138.133 71.8761V75H133.948V71.8761H138.133Z" fill="black"/>
<path d="M138.133 68.7514V71.8753H133.948V68.7514H138.133Z" fill="black"/>
<path d="M138.133 65.6216V68.7523H133.948V65.6216H138.133Z" fill="black"/>
<path d="M138.133 62.4969V65.6207H133.948V62.4969H138.133Z" fill="#6875BA"/>
<path d="M138.133 59.3747V62.4986H133.948V59.3747H138.133Z" fill="#8F9EF0"/>
<path d="M138.133 56.25V59.3739H133.948V56.25H138.133Z" fill="#8F9EF0"/>
<path d="M138.133 53.1253V56.2491H133.948V53.1253H138.133Z" fill="#8F9EF0"/>
<path d="M138.133 50.0031V53.127H133.948V50.0031H138.133Z" fill="#8F9EF0"/>
<path d="M138.133 46.8784V50.0023H133.948V46.8784H138.133Z" fill="#999FF0"/>
<path d="M138.133 43.7486V46.8793H133.948V43.7486H138.133Z" fill="#999FF0"/>
<path d="M138.133 40.6239V43.7477H133.948V40.6239H138.133Z" fill="#999FF0"/>
<path d="M138.133 37.4991V40.623H133.948V37.4991H138.133Z" fill="#999FF0"/>
<path d="M138.133 34.377V37.5009H133.948V34.377H138.133Z" fill="#999FF0"/>
<path d="M138.133 31.2523V34.3761H133.948V31.2523H138.133Z" fill="#999FF0"/>
<path d="M138.133 28.1276V31.2514H133.948V28.1276H138.133Z" fill="#999FF0"/>
<path d="M138.133 25.0054V28.1293H133.948V25.0054H138.133Z" fill="#999FF0"/>
<path d="M138.133 21.873V25.0037H133.948V21.873H138.133Z" fill="#999FF0"/>
<path d="M138.133 18.7509V21.8747H133.948V18.7509H138.133Z" fill="#999FF0"/>
<path d="M138.133 15.6261V18.75H133.948V15.6261H138.133Z" fill="#999FF0"/>
<path d="M138.133 12.5014V15.6253H133.948V12.5014H138.133Z" fill="#999FF0"/>
<path d="M138.133 9.37927V12.5031H133.948V9.37927H138.133Z" fill="#999FF0"/>
<path d="M138.133 6.25456V9.37842H133.948V6.25456H138.133Z" fill="#999FF0"/>
<path d="M138.133 3.12984V6.2537H133.948V3.12984H138.133Z" fill="#999FF0"/>
<path d="M138.133 0V3.1307H133.948V0H138.133Z" fill="black"/>
<path d="M133.948 71.8761V75H129.764V71.8761H133.948Z" fill="black"/>
<path d="M133.948 68.7514V71.8753H129.764V68.7514H133.948Z" fill="black"/>
<path d="M133.948 65.6216V68.7523H129.764V65.6216H133.948Z" fill="black"/>
<path d="M133.948 62.4969V65.6207H129.764V62.4969H133.948Z" fill="black"/>
<path d="M133.948 59.3747V62.4986H129.764V59.3747H133.948Z" fill="black"/>
<path d="M133.948 56.25V59.3739H129.764V56.25H133.948Z" fill="black"/>
<path d="M133.948 53.1253V56.2491H129.764V53.1253H133.948Z" fill="black"/>
<path d="M133.948 50.0031V53.127H129.764V50.0031H133.948Z" fill="black"/>
<path d="M133.948 46.8784V50.0023H129.764V46.8784H133.948Z" fill="#6875BA"/>
<path d="M133.948 43.7486V46.8793H129.764V43.7486H133.948Z" fill="#8F9EF0"/>
<path d="M133.948 40.6239V43.7477H129.764V40.6239H133.948Z" fill="#999FF0"/>
<path d="M133.948 37.4991V40.623H129.764V37.4991H133.948Z" fill="#999FF0"/>
<path d="M133.948 34.377V37.5009H129.764V34.377H133.948Z" fill="#999FF0"/>
<path d="M133.948 31.2523V34.3761H129.764V31.2523H133.948Z" fill="#999FF0"/>
<path d="M133.948 28.1276V31.2514H129.764V28.1276H133.948Z" fill="#999FF0"/>
<path d="M133.948 25.0054V28.1293H129.764V25.0054H133.948Z" fill="#999FF0"/>
<path d="M133.948 21.873V25.0037H129.764V21.873H133.948Z" fill="#999FF0"/>
<path d="M133.948 18.7509V21.8747H129.764V18.7509H133.948Z" fill="#999FF0"/>
<path d="M133.948 15.6261V18.75H129.764V15.6261H133.948Z" fill="#999FF0"/>
<path d="M133.948 12.5014V15.6253H129.764V12.5014H133.948Z" fill="#999FF0"/>
<path d="M133.948 9.37927V12.5031H129.764V9.37927H133.948Z" fill="#999FF0"/>
<path d="M133.948 6.25456V9.37842H129.764V6.25456H133.948Z" fill="#BEC1ED"/>
<path d="M133.948 3.12984V6.2537H129.764V3.12984H133.948Z" fill="#999FF0"/>
<path d="M133.948 0V3.1307H129.764V0H133.948Z" fill="black"/>
<path d="M129.764 53.1253V56.2491H125.579V53.1253H129.764Z" fill="black"/>
<path d="M129.764 50.0031V53.127H125.579V50.0031H129.764Z" fill="black"/>
<path d="M129.764 46.8784V50.0023H125.579V46.8784H129.764Z" fill="#6875BA"/>
<path d="M129.764 43.7486V46.8793H125.579V43.7486H129.764Z" fill="#8F9EF0"/>
<path d="M129.764 40.6239V43.7477H125.579V40.6239H129.764Z" fill="#999FF0"/>
<path d="M129.764 37.4991V40.623H125.579V37.4991H129.764Z" fill="#999FF0"/>
<path d="M129.764 34.377V37.5009H125.579V34.377H129.764Z" fill="#999FF0"/>
<path d="M129.764 31.2523V34.3761H125.579V31.2523H129.764Z" fill="#999FF0"/>
<path d="M129.764 28.1276V31.2514H125.579V28.1276H129.764Z" fill="#999FF0"/>
<path d="M129.764 25.0054V28.1293H125.579V25.0054H129.764Z" fill="#999FF0"/>
<path d="M129.764 21.873V25.0037H125.579V21.873H129.764Z" fill="#999FF0"/>
<path d="M129.764 18.7509V21.8747H125.579V18.7509H129.764Z" fill="#999FF0"/>
<path d="M129.764 15.6261V18.75H125.579V15.6261H129.764Z" fill="#999FF0"/>
<path d="M129.764 12.5014V15.6253H125.579V12.5014H129.764Z" fill="#999FF0"/>
<path d="M129.764 9.37927V12.5031H125.579V9.37927H129.764Z" fill="#999FF0"/>
<path d="M129.764 6.25456V9.37842H125.579V6.25456H129.764Z" fill="#BEC1ED"/>
<path d="M129.764 3.12984V6.2537H125.579V3.12984H129.764Z" fill="#999FF0"/>
<path d="M129.764 0V3.1307H125.579V0H129.764Z" fill="black"/>
<path d="M125.578 53.1253V56.2491H121.393V53.1253H125.578Z" fill="black"/>
<path d="M125.578 50.0031V53.127H121.393V50.0031H125.578Z" fill="black"/>
<path d="M125.578 46.8784V50.0023H121.393V46.8784H125.578Z" fill="#6875BA"/>
<path d="M125.578 43.7486V46.8793H121.393V43.7486H125.578Z" fill="#8F9EF0"/>
<path d="M125.578 40.6239V43.7477H121.393V40.6239H125.578Z" fill="#999FF0"/>
<path d="M125.578 37.4991V40.623H121.393V37.4991H125.578Z" fill="#999FF0"/>
<path d="M125.578 34.377V37.5009H121.393V34.377H125.578Z" fill="#999FF0"/>
<path d="M125.578 31.2523V34.3761H121.393V31.2523H125.578Z" fill="#999FF0"/>
<path d="M125.578 28.1276V31.2514H121.393V28.1276H125.578Z" fill="#999FF0"/>
<path d="M125.578 25.0054V28.1293H121.393V25.0054H125.578Z" fill="#999FF0"/>
<path d="M125.578 21.873V25.0037H121.393V21.873H125.578Z" fill="#999FF0"/>
<path d="M125.578 18.7509V21.8747H121.393V18.7509H125.578Z" fill="#999FF0"/>
<path d="M125.578 15.6261V18.75H121.393V15.6261H125.578Z" fill="#999FF0"/>
<path d="M125.578 12.5014V15.6253H121.393V12.5014H125.578Z" fill="#999FF0"/>
<path d="M125.578 9.37927V12.5031H121.393V9.37927H125.578Z" fill="#999FF0"/>
<path d="M125.578 6.25456V9.37842H121.393V6.25456H125.578Z" fill="#BEC1ED"/>
<path d="M125.578 3.12984V6.2537H121.393V3.12984H125.578Z" fill="#999FF0"/>
<path d="M125.578 0V3.1307H121.393V0H125.578Z" fill="black"/>
<path d="M121.393 53.1253V56.2491H117.209V53.1253H121.393Z" fill="black"/>
<path d="M121.393 50.0031V53.127H117.209V50.0031H121.393Z" fill="black"/>
<path d="M121.393 46.8784V50.0023H117.209V46.8784H121.393Z" fill="#6875BA"/>
<path d="M121.393 43.7486V46.8793H117.209V43.7486H121.393Z" fill="#8F9EF0"/>
<path d="M121.393 40.6239V43.7477H117.209V40.6239H121.393Z" fill="#999FF0"/>
<path d="M121.393 37.4991V40.623H117.209V37.4991H121.393Z" fill="#999FF0"/>
<path d="M121.393 34.377V37.5009H117.209V34.377H121.393Z" fill="#999FF0"/>
<path d="M121.393 31.2523V34.3761H117.209V31.2523H121.393Z" fill="#999FF0"/>
<path d="M121.393 28.1276V31.2514H117.209V28.1276H121.393Z" fill="#999FF0"/>
<path d="M121.393 25.0054V28.1293H117.209V25.0054H121.393Z" fill="#999FF0"/>
<path d="M121.393 21.873V25.0037H117.209V21.873H121.393Z" fill="#999FF0"/>
<path d="M121.393 18.7509V21.8747H117.209V18.7509H121.393Z" fill="#999FF0"/>
<path d="M121.393 15.6261V18.75H117.209V15.6261H121.393Z" fill="#999FF0"/>
<path d="M121.393 12.5014V15.6253H117.209V12.5014H121.393Z" fill="#999FF0"/>
<path d="M121.393 9.37927V12.5031H117.209V9.37927H121.393Z" fill="#999FF0"/>
<path d="M121.393 6.25456V9.37842H117.209V6.25456H121.393Z" fill="#BEC1ED"/>
<path d="M121.393 3.12984V6.2537H117.209V3.12984H121.393Z" fill="#999FF0"/>
<path d="M121.393 0V3.1307H117.209V0H121.393Z" fill="black"/>
<path d="M117.209 53.1253V56.2491H113.028V53.1253H117.209Z" fill="black"/>
<path d="M117.209 50.0031V53.127H113.028V50.0031H117.209Z" fill="black"/>
<path d="M117.209 46.8784V50.0023H113.028V46.8784H117.209Z" fill="#6875BA"/>
<path d="M117.209 43.7486V46.8793H113.028V43.7486H117.209Z" fill="#8F9EF0"/>
<path d="M117.209 40.6239V43.7477H113.028V40.6239H117.209Z" fill="#999FF0"/>
<path d="M117.209 37.4991V40.623H113.028V37.4991H117.209Z" fill="#999FF0"/>
<path d="M117.209 34.377V37.5009H113.028V34.377H117.209Z" fill="#999FF0"/>
<path d="M117.209 31.2523V34.3761H113.028V31.2523H117.209Z" fill="#999FF0"/>
<path d="M117.209 28.1276V31.2514H113.028V28.1276H117.209Z" fill="#999FF0"/>
<path d="M117.209 25.0054V28.1293H113.028V25.0054H117.209Z" fill="#999FF0"/>
<path d="M117.209 21.873V25.0037H113.028V21.873H117.209Z" fill="#999FF0"/>
<path d="M117.209 18.7509V21.8747H113.028V18.7509H117.209Z" fill="#999FF0"/>
<path d="M117.209 15.6261V18.75H113.028V15.6261H117.209Z" fill="#999FF0"/>
<path d="M117.209 12.5014V15.6253H113.028V12.5014H117.209Z" fill="#999FF0"/>
<path d="M117.209 9.37927V12.5031H113.028V9.37927H117.209Z" fill="#999FF0"/>
<path d="M117.209 6.25456V9.37842H113.028V6.25456H117.209Z" fill="#BEC1ED"/>
<path d="M117.209 3.12984V6.2537H113.028V3.12984H117.209Z" fill="#999FF0"/>
<path d="M117.209 0V3.1307H113.028V0H117.209Z" fill="black"/>
<path d="M113.028 53.1253V56.2491H108.83V53.1253H113.028Z" fill="black"/>
<path d="M113.028 50.0031V53.127H108.83V50.0031H113.028Z" fill="black"/>
<path d="M113.028 46.8784V50.0023H108.83V46.8784H113.028Z" fill="#6875BA"/>
<path d="M113.028 43.7486V46.8793H108.83V43.7486H113.028Z" fill="#8F9EF0"/>
<path d="M113.028 40.6239V43.7477H108.83V40.6239H113.028Z" fill="#999FF0"/>
<path d="M113.028 37.4991V40.623H108.83V37.4991H113.028Z" fill="#999FF0"/>
<path d="M113.028 34.377V37.5009H108.83V34.377H113.028Z" fill="#999FF0"/>
<path d="M113.028 31.2523V34.3761H108.83V31.2523H113.028Z" fill="#999FF0"/>
<path d="M113.028 28.1276V31.2514H108.83V28.1276H113.028Z" fill="#999FF0"/>
<path d="M113.028 25.0054V28.1293H108.83V25.0054H113.028Z" fill="#999FF0"/>
<path d="M113.028 21.873V25.0037H108.83V21.873H113.028Z" fill="#999FF0"/>
<path d="M113.028 18.7509V21.8747H108.83V18.7509H113.028Z" fill="#999FF0"/>
<path d="M113.028 15.6261V18.75H108.83V15.6261H113.028Z" fill="#999FF0"/>
<path d="M113.028 12.5014V15.6253H108.83V12.5014H113.028Z" fill="#999FF0"/>
<path d="M113.028 9.37927V12.5031H108.83V9.37927H113.028Z" fill="#999FF0"/>
<path d="M113.028 6.25456V9.37842H108.83V6.25456H113.028Z" fill="#BEC1ED"/>
<path d="M113.028 3.12984V6.2537H108.83V3.12984H113.028Z" fill="#999FF0"/>
<path d="M113.028 0V3.1307H108.83V0H113.028Z" fill="black"/>
<path d="M108.83 53.1253V56.2491H104.646V53.1253H108.83Z" fill="black"/>
<path d="M108.83 50.0031V53.127H104.646V50.0031H108.83Z" fill="black"/>
<path d="M108.83 46.8784V50.0023H104.646V46.8784H108.83Z" fill="#6875BA"/>
<path d="M108.83 43.7486V46.8793H104.646V43.7486H108.83Z" fill="#8F9EF0"/>
<path d="M108.83 40.6239V43.7477H104.646V40.6239H108.83Z" fill="#999FF0"/>
<path d="M108.83 37.4991V40.623H104.646V37.4991H108.83Z" fill="#999FF0"/>
<path d="M108.83 34.377V37.5009H104.646V34.377H108.83Z" fill="#999FF0"/>
<path d="M108.83 31.2523V34.3761H104.646V31.2523H108.83Z" fill="#999FF0"/>
<path d="M108.83 28.1276V31.2514H104.646V28.1276H108.83Z" fill="#999FF0"/>
<path d="M108.83 25.0054V28.1293H104.646V25.0054H108.83Z" fill="#999FF0"/>
<path d="M108.83 21.873V25.0037H104.646V21.873H108.83Z" fill="#999FF0"/>
<path d="M108.83 18.7509V21.8747H104.646V18.7509H108.83Z" fill="#999FF0"/>
<path d="M108.83 15.6261V18.75H104.646V15.6261H108.83Z" fill="#999FF0"/>
<path d="M108.83 12.5014V15.6253H104.646V12.5014H108.83Z" fill="#999FF0"/>
<path d="M108.83 9.37927V12.5031H104.646V9.37927H108.83Z" fill="#999FF0"/>
<path d="M108.83 6.25456V9.37842H104.646V6.25456H108.83Z" fill="#BEC1ED"/>
<path d="M108.83 3.12984V6.2537H104.646V3.12984H108.83Z" fill="#999FF0"/>
<path d="M108.83 0V3.1307H104.646V0H108.83Z" fill="black"/>
<path d="M104.645 53.1253V56.2491H100.46V53.1253H104.645Z" fill="black"/>
<path d="M104.645 50.0031V53.127H100.46V50.0031H104.645Z" fill="black"/>
<path d="M104.645 46.8784V50.0023H100.46V46.8784H104.645Z" fill="#6875BA"/>
<path d="M104.645 43.7486V46.8793H100.46V43.7486H104.645Z" fill="#8F9EF0"/>
<path d="M104.645 40.6239V43.7477H100.46V40.6239H104.645Z" fill="#999FF0"/>
<path d="M104.645 37.4991V40.623H100.46V37.4991H104.645Z" fill="#999FF0"/>
<path d="M104.645 34.377V37.5009H100.46V34.377H104.645Z" fill="#999FF0"/>
<path d="M104.645 31.2523V34.3761H100.46V31.2523H104.645Z" fill="#999FF0"/>
<path d="M104.645 28.1276V31.2514H100.46V28.1276H104.645Z" fill="#999FF0"/>
<path d="M104.645 25.0054V28.1293H100.46V25.0054H104.645Z" fill="#999FF0"/>
<path d="M104.645 21.873V25.0037H100.46V21.873H104.645Z" fill="#999FF0"/>
<path d="M104.645 18.7509V21.8747H100.46V18.7509H104.645Z" fill="#999FF0"/>
<path d="M104.645 15.6261V18.75H100.46V15.6261H104.645Z" fill="#999FF0"/>
<path d="M104.645 12.5014V15.6253H100.46V12.5014H104.645Z" fill="#999FF0"/>
<path d="M104.645 9.37927V12.5031H100.46V9.37927H104.645Z" fill="#999FF0"/>
<path d="M104.645 6.25456V9.37842H100.46V6.25456H104.645Z" fill="#BEC1ED"/>
<path d="M104.645 3.12984V6.2537H100.46V3.12984H104.645Z" fill="#999FF0"/>
<path d="M104.645 0V3.1307H100.46V0H104.645Z" fill="black"/>
<path d="M100.46 53.1253V56.2491H96.2753V53.1253H100.46Z" fill="black"/>
<path d="M100.46 50.0031V53.127H96.2753V50.0031H100.46Z" fill="black"/>
<path d="M100.46 46.8784V50.0023H96.2753V46.8784H100.46Z" fill="#6875BA"/>
<path d="M100.46 43.7486V46.8793H96.2753V43.7486H100.46Z" fill="#8F9EF0"/>
<path d="M100.46 40.6239V43.7477H96.2753V40.6239H100.46Z" fill="#999FF0"/>
<path d="M100.46 37.4991V40.623H96.2753V37.4991H100.46Z" fill="#999FF0"/>
<path d="M100.46 34.377V37.5009H96.2753V34.377H100.46Z" fill="#999FF0"/>
<path d="M100.46 31.2523V34.3761H96.2753V31.2523H100.46Z" fill="#999FF0"/>
<path d="M100.46 28.1276V31.2514H96.2753V28.1276H100.46Z" fill="#999FF0"/>
<path d="M100.46 25.0054V28.1293H96.2753V25.0054H100.46Z" fill="#999FF0"/>
<path d="M100.46 21.873V25.0037H96.2753V21.873H100.46Z" fill="#999FF0"/>
<path d="M100.46 18.7509V21.8747H96.2753V18.7509H100.46Z" fill="#999FF0"/>
<path d="M100.46 15.6261V18.75H96.2753V15.6261H100.46Z" fill="#999FF0"/>
<path d="M100.46 12.5014V15.6253H96.2753V12.5014H100.46Z" fill="#999FF0"/>
<path d="M100.46 9.37927V12.5031H96.2753V9.37927H100.46Z" fill="#999FF0"/>
<path d="M100.46 6.25456V9.37842H96.2753V6.25456H100.46Z" fill="#BEC1ED"/>
<path d="M100.46 3.12984V6.2537H96.2753V3.12984H100.46Z" fill="#999FF0"/>
<path d="M100.46 0V3.1307H96.2753V0H100.46Z" fill="black"/>
<path d="M96.2753 53.1253V56.2491H92.091V53.1253H96.2753Z" fill="black"/>
<path d="M96.2753 50.0031V53.127H92.091V50.0031H96.2753Z" fill="black"/>
<path d="M96.2753 46.8784V50.0023H92.091V46.8784H96.2753Z" fill="#6875BA"/>
<path d="M96.2753 43.7486V46.8793H92.091V43.7486H96.2753Z" fill="#8F9EF0"/>
<path d="M96.2753 40.6239V43.7477H92.091V40.6239H96.2753Z" fill="#999FF0"/>
<path d="M96.2753 37.4991V40.623H92.091V37.4991H96.2753Z" fill="#999FF0"/>
<path d="M96.2753 34.377V37.5009H92.091V34.377H96.2753Z" fill="#999FF0"/>
<path d="M96.2753 31.2523V34.3761H92.091V31.2523H96.2753Z" fill="#999FF0"/>
<path d="M96.2753 28.1276V31.2514H92.091V28.1276H96.2753Z" fill="#999FF0"/>
<path d="M96.2753 25.0054V28.1293H92.091V25.0054H96.2753Z" fill="#999FF0"/>
<path d="M96.2753 21.873V25.0037H92.091V21.873H96.2753Z" fill="#999FF0"/>
<path d="M96.2753 18.7509V21.8747H92.091V18.7509H96.2753Z" fill="#999FF0"/>
<path d="M96.2753 15.6261V18.75H92.091V15.6261H96.2753Z" fill="#999FF0"/>
<path d="M96.2753 12.5014V15.6253H92.091V12.5014H96.2753Z" fill="#999FF0"/>
<path d="M96.2753 9.37927V12.5031H92.091V9.37927H96.2753Z" fill="#999FF0"/>
<path d="M96.2753 6.25456V9.37842H92.091V6.25456H96.2753Z" fill="#BEC1ED"/>
<path d="M96.2753 3.12984V6.2537H92.091V3.12984H96.2753Z" fill="#999FF0"/>
<path d="M96.2753 0V3.1307H92.091V0H96.2753Z" fill="black"/>
<path d="M92.091 53.1253V56.2491H87.9101V53.1253H92.091Z" fill="black"/>
<path d="M92.091 50.0031V53.127H87.9101V50.0031H92.091Z" fill="black"/>
<path d="M92.091 46.8784V50.0023H87.9101V46.8784H92.091Z" fill="#6875BA"/>
<path d="M92.091 43.7486V46.8793H87.9101V43.7486H92.091Z" fill="#8F9EF0"/>
<path d="M92.091 40.6239V43.7477H87.9101V40.6239H92.091Z" fill="#999FF0"/>
<path d="M92.091 37.4991V40.623H87.9101V37.4991H92.091Z" fill="#999FF0"/>
<path d="M92.091 34.377V37.5009H87.9101V34.377H92.091Z" fill="#999FF0"/>
<path d="M92.091 31.2523V34.3761H87.9101V31.2523H92.091Z" fill="#999FF0"/>
<path d="M92.091 28.1276V31.2514H87.9101V28.1276H92.091Z" fill="#999FF0"/>
<path d="M92.091 25.0054V28.1293H87.9101V25.0054H92.091Z" fill="#999FF0"/>
<path d="M92.091 21.873V25.0037H87.9101V21.873H92.091Z" fill="#999FF0"/>
<path d="M92.091 18.7509V21.8747H87.9101V18.7509H92.091Z" fill="#999FF0"/>
<path d="M92.091 15.6261V18.75H87.9101V15.6261H92.091Z" fill="#999FF0"/>
<path d="M92.091 12.5014V15.6253H87.9101V12.5014H92.091Z" fill="#999FF0"/>
<path d="M92.091 9.37927V12.5031H87.9101V9.37927H92.091Z" fill="#999FF0"/>
<path d="M92.091 6.25456V9.37842H87.9101V6.25456H92.091Z" fill="#BEC1ED"/>
<path d="M92.091 3.12984V6.2537H87.9101V3.12984H92.091Z" fill="#999FF0"/>
<path d="M92.091 0V3.1307H87.9101V0H92.091Z" fill="black"/>
<path d="M87.9101 53.1253V56.2491H83.7258V53.1253H87.9101Z" fill="black"/>
<path d="M87.9101 50.0031V53.127H83.7258V50.0031H87.9101Z" fill="black"/>
<path d="M87.9101 46.8784V50.0023H83.7258V46.8784H87.9101Z" fill="#6875BA"/>
<path d="M87.9101 43.7486V46.8793H83.7258V43.7486H87.9101Z" fill="#8F9EF0"/>
<path d="M87.9101 40.6239V43.7477H83.7258V40.6239H87.9101Z" fill="#999FF0"/>
<path d="M87.9101 37.4991V40.623H83.7258V37.4991H87.9101Z" fill="#999FF0"/>
<path d="M87.9101 34.377V37.5009H83.7258V34.377H87.9101Z" fill="#999FF0"/>
<path d="M87.9101 31.2523V34.3761H83.7258V31.2523H87.9101Z" fill="#999FF0"/>
<path d="M87.9101 28.1276V31.2514H83.7258V28.1276H87.9101Z" fill="#999FF0"/>
<path d="M87.9101 25.0054V28.1293H83.7258V25.0054H87.9101Z" fill="#999FF0"/>
<path d="M87.9101 21.873V25.0037H83.7258V21.873H87.9101Z" fill="#999FF0"/>
<path d="M87.9101 18.7509V21.8747H83.7258V18.7509H87.9101Z" fill="#999FF0"/>
<path d="M87.9101 15.6261V18.75H83.7258V15.6261H87.9101Z" fill="#999FF0"/>
<path d="M87.9101 12.5014V15.6253H83.7258V12.5014H87.9101Z" fill="#999FF0"/>
<path d="M87.9101 9.37927V12.5031H83.7258V9.37927H87.9101Z" fill="#999FF0"/>
<path d="M87.9101 6.25456V9.37842H83.7258V6.25456H87.9101Z" fill="#BEC1ED"/>
<path d="M87.9101 3.12984V6.2537H83.7258V3.12984H87.9101Z" fill="#999FF0"/>
<path d="M87.9101 0V3.1307H83.7258V0H87.9101Z" fill="black"/>
<path d="M83.7247 53.1253V56.2491H79.526V53.1253H83.7247Z" fill="black"/>
<path d="M83.7247 50.0031V53.127H79.526V50.0031H83.7247Z" fill="black"/>
<path d="M83.7247 46.8784V50.0023H79.526V46.8784H83.7247Z" fill="#6875BA"/>
<path d="M83.7247 43.7486V46.8793H79.526V43.7486H83.7247Z" fill="#8F9EF0"/>
<path d="M83.7247 40.6239V43.7477H79.526V40.6239H83.7247Z" fill="#999FF0"/>
<path d="M83.7247 37.4991V40.623H79.526V37.4991H83.7247Z" fill="#999FF0"/>
<path d="M83.7247 34.377V37.5009H79.526V34.377H83.7247Z" fill="#999FF0"/>
<path d="M83.7247 31.2523V34.3761H79.526V31.2523H83.7247Z" fill="#999FF0"/>
<path d="M83.7247 28.1276V31.2514H79.526V28.1276H83.7247Z" fill="#999FF0"/>
<path d="M83.7247 25.0054V28.1293H79.526V25.0054H83.7247Z" fill="#999FF0"/>
<path d="M83.7247 21.873V25.0037H79.526V21.873H83.7247Z" fill="#999FF0"/>
<path d="M83.7247 18.7509V21.8747H79.526V18.7509H83.7247Z" fill="#999FF0"/>
<path d="M83.7247 15.6261V18.75H79.526V15.6261H83.7247Z" fill="#999FF0"/>
<path d="M83.7247 12.5014V15.6253H79.526V12.5014H83.7247Z" fill="#999FF0"/>
<path d="M83.7247 9.37927V12.5031H79.526V9.37927H83.7247Z" fill="#999FF0"/>
<path d="M83.7247 6.25456V9.37842H79.526V6.25456H83.7247Z" fill="#BEC1ED"/>
<path d="M83.7247 3.12984V6.2537H79.526V3.12984H83.7247Z" fill="#999FF0"/>
<path d="M83.7247 0V3.1307H79.526V0H83.7247Z" fill="black"/>
<path d="M79.526 53.1253V56.2491H75.3417V53.1253H79.526Z" fill="black"/>
<path d="M79.526 50.0031V53.127H75.3417V50.0031H79.526Z" fill="black"/>
<path d="M79.526 46.8784V50.0023H75.3417V46.8784H79.526Z" fill="#6875BA"/>
<path d="M79.526 43.7486V46.8793H75.3417V43.7486H79.526Z" fill="#8F9EF0"/>
<path d="M79.526 40.6239V43.7477H75.3417V40.6239H79.526Z" fill="#999FF0"/>
<path d="M79.526 37.4991V40.623H75.3417V37.4991H79.526Z" fill="#999FF0"/>
<path d="M79.526 34.377V37.5009H75.3417V34.377H79.526Z" fill="#999FF0"/>
<path d="M79.526 31.2523V34.3761H75.3417V31.2523H79.526Z" fill="#999FF0"/>
<path d="M79.526 28.1276V31.2514H75.3417V28.1276H79.526Z" fill="#999FF0"/>
<path d="M79.526 25.0054V28.1293H75.3417V25.0054H79.526Z" fill="#999FF0"/>
<path d="M79.526 21.873V25.0037H75.3417V21.873H79.526Z" fill="#999FF0"/>
<path d="M79.526 18.7509V21.8747H75.3417V18.7509H79.526Z" fill="#999FF0"/>
<path d="M79.526 15.6261V18.75H75.3417V15.6261H79.526Z" fill="#999FF0"/>
<path d="M79.526 12.5014V15.6253H75.3417V12.5014H79.526Z" fill="#999FF0"/>
<path d="M79.526 9.37927V12.5031H75.3417V9.37927H79.526Z" fill="#999FF0"/>
<path d="M79.526 6.25456V9.37842H75.3417V6.25456H79.526Z" fill="#BEC1ED"/>
<path d="M79.526 3.12984V6.2537H75.3417V3.12984H79.526Z" fill="#999FF0"/>
<path d="M79.526 0V3.1307H75.3417V0H79.526Z" fill="black"/>
<path d="M75.3417 53.1253V56.2491H71.1574V53.1253H75.3417Z" fill="black"/>
<path d="M75.3417 50.0031V53.127H71.1574V50.0031H75.3417Z" fill="black"/>
<path d="M75.3417 46.8784V50.0023H71.1574V46.8784H75.3417Z" fill="#6875BA"/>
<path d="M75.3417 43.7486V46.8793H71.1574V43.7486H75.3417Z" fill="#8F9EF0"/>
<path d="M75.3417 40.6239V43.7477H71.1574V40.6239H75.3417Z" fill="#999FF0"/>
<path d="M75.3417 37.4991V40.623H71.1574V37.4991H75.3417Z" fill="#999FF0"/>
<path d="M75.3417 34.377V37.5009H71.1574V34.377H75.3417Z" fill="#999FF0"/>
<path d="M75.3417 31.2523V34.3761H71.1574V31.2523H75.3417Z" fill="#999FF0"/>
<path d="M75.3417 28.1276V31.2514H71.1574V28.1276H75.3417Z" fill="#999FF0"/>
<path d="M75.3417 25.0054V28.1293H71.1574V25.0054H75.3417Z" fill="#999FF0"/>
<path d="M75.3417 21.873V25.0037H71.1574V21.873H75.3417Z" fill="#999FF0"/>
<path d="M75.3417 18.7509V21.8747H71.1574V18.7509H75.3417Z" fill="#999FF0"/>
<path d="M75.3417 15.6261V18.75H71.1574V15.6261H75.3417Z" fill="#999FF0"/>
<path d="M75.3417 12.5014V15.6253H71.1574V12.5014H75.3417Z" fill="#999FF0"/>
<path d="M75.3417 9.37927V12.5031H71.1574V9.37927H75.3417Z" fill="#999FF0"/>
<path d="M75.3417 6.25456V9.37842H71.1574V6.25456H75.3417Z" fill="#BEC1ED"/>
<path d="M75.3417 3.12984V6.2537H71.1574V3.12984H75.3417Z" fill="#999FF0"/>
<path d="M75.3417 0V3.1307H71.1574V0H75.3417Z" fill="black"/>
<path d="M71.1563 53.1253V56.2491H66.9714V53.1253H71.1563Z" fill="black"/>
<path d="M71.1563 50.0031V53.127H66.9714V50.0031H71.1563Z" fill="black"/>
<path d="M71.1563 46.8784V50.0023H66.9714V46.8784H71.1563Z" fill="#6875BA"/>
<path d="M71.1563 43.7486V46.8793H66.9714V43.7486H71.1563Z" fill="#8F9EF0"/>
<path d="M71.1563 40.6239V43.7477H66.9714V40.6239H71.1563Z" fill="#999FF0"/>
<path d="M71.1563 37.4991V40.623H66.9714V37.4991H71.1563Z" fill="#999FF0"/>
<path d="M71.1563 34.377V37.5009H66.9714V34.377H71.1563Z" fill="#999FF0"/>
<path d="M71.1563 31.2523V34.3761H66.9714V31.2523H71.1563Z" fill="#999FF0"/>
<path d="M71.1563 28.1276V31.2514H66.9714V28.1276H71.1563Z" fill="#999FF0"/>
<path d="M71.1563 25.0054V28.1293H66.9714V25.0054H71.1563Z" fill="#999FF0"/>
<path d="M71.1563 21.873V25.0037H66.9714V21.873H71.1563Z" fill="#999FF0"/>
<path d="M71.1563 18.7509V21.8747H66.9714V18.7509H71.1563Z" fill="#999FF0"/>
<path d="M71.1563 15.6261V18.75H66.9714V15.6261H71.1563Z" fill="#999FF0"/>
<path d="M71.1563 12.5014V15.6253H66.9714V12.5014H71.1563Z" fill="#999FF0"/>
<path d="M71.1563 9.37927V12.5031H66.9714V9.37927H71.1563Z" fill="#999FF0"/>
<path d="M71.1563 6.25456V9.37842H66.9714V6.25456H71.1563Z" fill="#BEC1ED"/>
<path d="M71.1563 3.12984V6.2537H66.9714V3.12984H71.1563Z" fill="#999FF0"/>
<path d="M71.1563 0V3.1307H66.9714V0H71.1563Z" fill="black"/>
<path d="M66.9714 53.1253V56.2491H62.7871V53.1253H66.9714Z" fill="black"/>
<path d="M66.9714 50.0031V53.127H62.7871V50.0031H66.9714Z" fill="black"/>
<path d="M66.9714 46.8784V50.0023H62.7871V46.8784H66.9714Z" fill="#6875BA"/>
<path d="M66.9714 43.7486V46.8793H62.7871V43.7486H66.9714Z" fill="#8F9EF0"/>
<path d="M66.9714 40.6239V43.7477H62.7871V40.6239H66.9714Z" fill="#999FF0"/>
<path d="M66.9714 37.4991V40.623H62.7871V37.4991H66.9714Z" fill="#999FF0"/>
<path d="M66.9714 34.377V37.5009H62.7871V34.377H66.9714Z" fill="#999FF0"/>
<path d="M66.9714 31.2523V34.3761H62.7871V31.2523H66.9714Z" fill="#999FF0"/>
<path d="M66.9714 28.1276V31.2514H62.7871V28.1276H66.9714Z" fill="#999FF0"/>
<path d="M66.9714 25.0054V28.1293H62.7871V25.0054H66.9714Z" fill="#999FF0"/>
<path d="M66.9714 21.873V25.0037H62.7871V21.873H66.9714Z" fill="#999FF0"/>
<path d="M66.9714 18.7509V21.8747H62.7871V18.7509H66.9714Z" fill="#999FF0"/>
<path d="M66.9714 15.6261V18.75H62.7871V15.6261H66.9714Z" fill="#999FF0"/>
<path d="M66.9714 12.5014V15.6253H62.7871V12.5014H66.9714Z" fill="#999FF0"/>
<path d="M66.9714 9.37927V12.5031H62.7871V9.37927H66.9714Z" fill="#999FF0"/>
<path d="M66.9714 6.25456V9.37842H62.7871V6.25456H66.9714Z" fill="#BEC1ED"/>
<path d="M66.9714 3.12984V6.2537H62.7871V3.12984H66.9714Z" fill="#999FF0"/>
<path d="M66.9714 0V3.1307H62.7871V0H66.9714Z" fill="black"/>
<path d="M62.7871 53.1253V56.2491H58.6062V53.1253H62.7871Z" fill="black"/>
<path d="M62.7871 50.0031V53.127H58.6062V50.0031H62.7871Z" fill="black"/>
<path d="M62.7871 46.8784V50.0023H58.6062V46.8784H62.7871Z" fill="#6875BA"/>
<path d="M62.7871 43.7486V46.8793H58.6062V43.7486H62.7871Z" fill="#8F9EF0"/>
<path d="M62.7871 40.6239V43.7477H58.6062V40.6239H62.7871Z" fill="#999FF0"/>
<path d="M62.7871 37.4991V40.623H58.6062V37.4991H62.7871Z" fill="#999FF0"/>
<path d="M62.7871 34.377V37.5009H58.6062V34.377H62.7871Z" fill="#999FF0"/>
<path d="M62.7871 31.2523V34.3761H58.6062V31.2523H62.7871Z" fill="#999FF0"/>
<path d="M62.7871 28.1276V31.2514H58.6062V28.1276H62.7871Z" fill="#999FF0"/>
<path d="M62.7871 25.0054V28.1293H58.6062V25.0054H62.7871Z" fill="#999FF0"/>
<path d="M62.7871 21.873V25.0037H58.6062V21.873H62.7871Z" fill="#999FF0"/>
<path d="M62.7871 18.7509V21.8747H58.6062V18.7509H62.7871Z" fill="#999FF0"/>
<path d="M62.7871 15.6261V18.75H58.6062V15.6261H62.7871Z" fill="#999FF0"/>
<path d="M62.7871 12.5014V15.6253H58.6062V12.5014H62.7871Z" fill="#999FF0"/>
<path d="M62.7871 9.37927V12.5031H58.6062V9.37927H62.7871Z" fill="#999FF0"/>
<path d="M62.7871 6.25456V9.37842H58.6062V6.25456H62.7871Z" fill="#BEC1ED"/>
<path d="M62.7871 3.12984V6.2537H58.6062V3.12984H62.7871Z" fill="#999FF0"/>
<path d="M62.7871 0V3.1307H58.6062V0H62.7871Z" fill="black"/>
<path d="M58.6062 53.1253V56.2491H54.4219V53.1253H58.6062Z" fill="black"/>
<path d="M58.6062 50.0031V53.127H54.4219V50.0031H58.6062Z" fill="black"/>
<path d="M58.6062 46.8784V50.0023H54.4219V46.8784H58.6062Z" fill="#6875BA"/>
<path d="M58.6062 43.7486V46.8793H54.4219V43.7486H58.6062Z" fill="#8F9EF0"/>
<path d="M58.6062 40.6239V43.7477H54.4219V40.6239H58.6062Z" fill="#999FF0"/>
<path d="M58.6062 37.4991V40.623H54.4219V37.4991H58.6062Z" fill="#999FF0"/>
<path d="M58.6062 34.377V37.5009H54.4219V34.377H58.6062Z" fill="#999FF0"/>
<path d="M58.6062 31.2523V34.3761H54.4219V31.2523H58.6062Z" fill="#999FF0"/>
<path d="M58.6062 28.1276V31.2514H54.4219V28.1276H58.6062Z" fill="#999FF0"/>
<path d="M58.6062 25.0054V28.1293H54.4219V25.0054H58.6062Z" fill="#999FF0"/>
<path d="M58.6062 21.873V25.0037H54.4219V21.873H58.6062Z" fill="#999FF0"/>
<path d="M58.6062 18.7509V21.8747H54.4219V18.7509H58.6062Z" fill="#999FF0"/>
<path d="M58.6062 15.6261V18.75H54.4219V15.6261H58.6062Z" fill="#999FF0"/>
<path d="M58.6062 12.5014V15.6253H54.4219V12.5014H58.6062Z" fill="#999FF0"/>
<path d="M58.6062 9.37927V12.5031H54.4219V9.37927H58.6062Z" fill="#999FF0"/>
<path d="M58.6062 6.25456V9.37842H54.4219V6.25456H58.6062Z" fill="#BEC1ED"/>
<path d="M58.6062 3.12984V6.2537H54.4219V3.12984H58.6062Z" fill="#999FF0"/>
<path d="M58.6062 0V3.1307H54.4219V0H58.6062Z" fill="black"/>
<path d="M54.4219 53.1253V56.2491H50.2238V53.1253H54.4219Z" fill="black"/>
<path d="M54.4219 50.0031V53.127H50.2238V50.0031H54.4219Z" fill="black"/>
<path d="M54.4219 46.8784V50.0023H50.2238V46.8784H54.4219Z" fill="#6875BA"/>
<path d="M54.4219 43.7486V46.8793H50.2238V43.7486H54.4219Z" fill="#8F9EF0"/>
<path d="M54.4219 40.6239V43.7477H50.2238V40.6239H54.4219Z" fill="#999FF0"/>
<path d="M54.4219 37.4991V40.623H50.2238V37.4991H54.4219Z" fill="#999FF0"/>
<path d="M54.4219 34.377V37.5009H50.2238V34.377H54.4219Z" fill="#999FF0"/>
<path d="M54.4219 31.2523V34.3761H50.2238V31.2523H54.4219Z" fill="#999FF0"/>
<path d="M54.4219 28.1276V31.2514H50.2238V28.1276H54.4219Z" fill="#999FF0"/>
<path d="M54.4219 25.0054V28.1293H50.2238V25.0054H54.4219Z" fill="#999FF0"/>
<path d="M54.4219 21.873V25.0037H50.2238V21.873H54.4219Z" fill="#999FF0"/>
<path d="M54.4219 18.7509V21.8747H50.2238V18.7509H54.4219Z" fill="#999FF0"/>
<path d="M54.4219 15.6261V18.75H50.2238V15.6261H54.4219Z" fill="#999FF0"/>
<path d="M54.4219 12.5014V15.6253H50.2238V12.5014H54.4219Z" fill="#999FF0"/>
<path d="M54.4219 9.37927V12.5031H50.2238V9.37927H54.4219Z" fill="#999FF0"/>
<path d="M54.4219 6.25456V9.37842H50.2238V6.25456H54.4219Z" fill="#BEC1ED"/>
<path d="M54.4219 3.12984V6.2537H50.2238V3.12984H54.4219Z" fill="#999FF0"/>
<path d="M54.4219 0V3.1307H50.2238V0H54.4219Z" fill="black"/>
<path d="M50.2227 53.1253V56.2491H46.0378V53.1253H50.2227Z" fill="black"/>
<path d="M50.2227 50.0031V53.127H46.0378V50.0031H50.2227Z" fill="black"/>
<path d="M50.2227 46.8784V50.0023H46.0378V46.8784H50.2227Z" fill="#6875BA"/>
<path d="M50.2227 43.7486V46.8793H46.0378V43.7486H50.2227Z" fill="#8F9EF0"/>
<path d="M50.2227 40.6239V43.7477H46.0378V40.6239H50.2227Z" fill="#999FF0"/>
<path d="M50.2227 37.4991V40.623H46.0378V37.4991H50.2227Z" fill="#999FF0"/>
<path d="M50.2227 34.377V37.5009H46.0378V34.377H50.2227Z" fill="#999FF0"/>
<path d="M50.2227 31.2523V34.3761H46.0378V31.2523H50.2227Z" fill="#999FF0"/>
<path d="M50.2227 28.1276V31.2514H46.0378V28.1276H50.2227Z" fill="#999FF0"/>
<path d="M50.2227 25.0054V28.1293H46.0378V25.0054H50.2227Z" fill="#999FF0"/>
<path d="M50.2227 21.873V25.0037H46.0378V21.873H50.2227Z" fill="#999FF0"/>
<path d="M50.2227 18.7509V21.8747H46.0378V18.7509H50.2227Z" fill="#999FF0"/>
<path d="M50.2227 15.6261V18.75H46.0378V15.6261H50.2227Z" fill="#999FF0"/>
<path d="M50.2227 12.5014V15.6253H46.0378V12.5014H50.2227Z" fill="#999FF0"/>
<path d="M50.2227 9.37927V12.5031H46.0378V9.37927H50.2227Z" fill="#999FF0"/>
<path d="M50.2227 6.25456V9.37842H46.0378V6.25456H50.2227Z" fill="#BEC1ED"/>
<path d="M50.2227 3.12984V6.2537H46.0378V3.12984H50.2227Z" fill="#999FF0"/>
<path d="M50.2227 0V3.1307H46.0378V0H50.2227Z" fill="black"/>
<path d="M46.0378 53.1253V56.2491H41.8535V53.1253H46.0378Z" fill="black"/>
<path d="M46.0378 50.0031V53.127H41.8535V50.0031H46.0378Z" fill="black"/>
<path d="M46.0378 46.8784V50.0023H41.8535V46.8784H46.0378Z" fill="#6875BA"/>
<path d="M46.0378 43.7486V46.8793H41.8535V43.7486H46.0378Z" fill="#8F9EF0"/>
<path d="M46.0378 40.6239V43.7477H41.8535V40.6239H46.0378Z" fill="#999FF0"/>
<path d="M46.0378 37.4991V40.623H41.8535V37.4991H46.0378Z" fill="#999FF0"/>
<path d="M46.0378 34.377V37.5009H41.8535V34.377H46.0378Z" fill="#999FF0"/>
<path d="M46.0378 31.2523V34.3761H41.8535V31.2523H46.0378Z" fill="#999FF0"/>
<path d="M46.0378 28.1276V31.2514H41.8535V28.1276H46.0378Z" fill="#999FF0"/>
<path d="M46.0378 25.0054V28.1293H41.8535V25.0054H46.0378Z" fill="#999FF0"/>
<path d="M46.0378 21.873V25.0037H41.8535V21.873H46.0378Z" fill="#999FF0"/>
<path d="M46.0378 18.7509V21.8747H41.8535V18.7509H46.0378Z" fill="#999FF0"/>
<path d="M46.0378 15.6261V18.75H41.8535V15.6261H46.0378Z" fill="#999FF0"/>
<path d="M46.0378 12.5014V15.6253H41.8535V12.5014H46.0378Z" fill="#999FF0"/>
<path d="M46.0378 9.37927V12.5031H41.8535V9.37927H46.0378Z" fill="#999FF0"/>
<path d="M46.0378 6.25456V9.37842H41.8535V6.25456H46.0378Z" fill="#BEC1ED"/>
<path d="M46.0378 3.12984V6.2537H41.8535V3.12984H46.0378Z" fill="#999FF0"/>
<path d="M46.0378 0V3.1307H41.8535V0H46.0378Z" fill="black"/>
<path d="M41.8535 53.1253V56.2491H37.6691V53.1253H41.8535Z" fill="black"/>
<path d="M41.8535 50.0031V53.127H37.6691V50.0031H41.8535Z" fill="black"/>
<path d="M41.8535 46.8784V50.0023H37.6691V46.8784H41.8535Z" fill="#6875BA"/>
<path d="M41.8535 43.7486V46.8793H37.6691V43.7486H41.8535Z" fill="#8F9EF0"/>
<path d="M41.8535 40.6239V43.7477H37.6691V40.6239H41.8535Z" fill="#999FF0"/>
<path d="M41.8535 37.4991V40.623H37.6691V37.4991H41.8535Z" fill="#999FF0"/>
<path d="M41.8535 34.377V37.5009H37.6691V34.377H41.8535Z" fill="#999FF0"/>
<path d="M41.8535 31.2523V34.3761H37.6691V31.2523H41.8535Z" fill="#999FF0"/>
<path d="M41.8535 28.1276V31.2514H37.6691V28.1276H41.8535Z" fill="#999FF0"/>
<path d="M41.8535 25.0054V28.1293H37.6691V25.0054H41.8535Z" fill="#999FF0"/>
<path d="M41.8535 21.873V25.0037H37.6691V21.873H41.8535Z" fill="#999FF0"/>
<path d="M41.8535 18.7509V21.8747H37.6691V18.7509H41.8535Z" fill="#999FF0"/>
<path d="M41.8535 15.6261V18.75H37.6691V15.6261H41.8535Z" fill="#999FF0"/>
<path d="M41.8535 12.5014V15.6253H37.6691V12.5014H41.8535Z" fill="#999FF0"/>
<path d="M41.8535 9.37927V12.5031H37.6691V9.37927H41.8535Z" fill="#999FF0"/>
<path d="M41.8535 6.25456V9.37842H37.6691V6.25456H41.8535Z" fill="#BEC1ED"/>
<path d="M41.8535 3.12984V6.2537H37.6691V3.12984H41.8535Z" fill="#999FF0"/>
<path d="M41.8535 0V3.1307H37.6691V0H41.8535Z" fill="black"/>
<path d="M37.668 53.1253V56.2491H33.4831V53.1253H37.668Z" fill="black"/>
<path d="M37.668 50.0031V53.127H33.4831V50.0031H37.668Z" fill="black"/>
<path d="M37.668 46.8784V50.0023H33.4831V46.8784H37.668Z" fill="#6875BA"/>
<path d="M37.668 43.7486V46.8793H33.4831V43.7486H37.668Z" fill="#8F9EF0"/>
<path d="M37.668 40.6239V43.7477H33.4831V40.6239H37.668Z" fill="#999FF0"/>
<path d="M37.668 37.4991V40.623H33.4831V37.4991H37.668Z" fill="#999FF0"/>
<path d="M37.668 34.377V37.5009H33.4831V34.377H37.668Z" fill="#999FF0"/>
<path d="M37.668 31.2523V34.3761H33.4831V31.2523H37.668Z" fill="#999FF0"/>
<path d="M37.668 28.1276V31.2514H33.4831V28.1276H37.668Z" fill="#999FF0"/>
<path d="M37.668 25.0054V28.1293H33.4831V25.0054H37.668Z" fill="#999FF0"/>
<path d="M37.668 21.873V25.0037H33.4831V21.873H37.668Z" fill="#999FF0"/>
<path d="M37.668 18.7509V21.8747H33.4831V18.7509H37.668Z" fill="#999FF0"/>
<path d="M37.668 15.6261V18.75H33.4831V15.6261H37.668Z" fill="#999FF0"/>
<path d="M37.668 12.5014V15.6253H33.4831V12.5014H37.668Z" fill="#999FF0"/>
<path d="M37.668 9.37927V12.5031H33.4831V9.37927H37.668Z" fill="#999FF0"/>
<path d="M37.668 6.25456V9.37842H33.4831V6.25456H37.668Z" fill="#BEC1ED"/>
<path d="M37.668 3.12984V6.2537H33.4831V3.12984H37.668Z" fill="#999FF0"/>
<path d="M37.668 0V3.1307H33.4831V0H37.668Z" fill="black"/>
<path d="M33.4843 53.1253V56.2491H29.3039V53.1253H33.4843Z" fill="black"/>
<path d="M33.4843 50.0031V53.127H29.3039V50.0031H33.4843Z" fill="black"/>
<path d="M33.4843 46.8784V50.0023H29.3039V46.8784H33.4843Z" fill="#6875BA"/>
<path d="M33.4843 43.7486V46.8793H29.3039V43.7486H33.4843Z" fill="#8F9EF0"/>
<path d="M33.4843 40.6239V43.7477H29.3039V40.6239H33.4843Z" fill="#999FF0"/>
<path d="M33.4843 37.4991V40.623H29.3039V37.4991H33.4843Z" fill="#999FF0"/>
<path d="M33.4843 34.377V37.5009H29.3039V34.377H33.4843Z" fill="#999FF0"/>
<path d="M33.4843 31.2523V34.3761H29.3039V31.2523H33.4843Z" fill="#999FF0"/>
<path d="M33.4843 28.1276V31.2514H29.3039V28.1276H33.4843Z" fill="#999FF0"/>
<path d="M33.4843 25.0054V28.1293H29.3039V25.0054H33.4843Z" fill="#999FF0"/>
<path d="M33.4843 21.873V25.0037H29.3039V21.873H33.4843Z" fill="#999FF0"/>
<path d="M33.4843 18.7509V21.8747H29.3039V18.7509H33.4843Z" fill="#999FF0"/>
<path d="M33.4843 15.6261V18.75H29.3039V15.6261H33.4843Z" fill="#999FF0"/>
<path d="M33.4843 12.5014V15.6253H29.3039V12.5014H33.4843Z" fill="#999FF0"/>
<path d="M33.4843 9.37927V12.5031H29.3039V9.37927H33.4843Z" fill="#999FF0"/>
<path d="M33.4843 6.25456V9.37842H29.3039V6.25456H33.4843Z" fill="#BEC1ED"/>
<path d="M33.4843 3.12984V6.2537H29.3039V3.12984H33.4843Z" fill="#999FF0"/>
<path d="M33.4843 0V3.1307H29.3039V0H33.4843Z" fill="black"/>
<path d="M29.3028 53.1253V56.2491H25.1179V53.1253H29.3028Z" fill="black"/>
<path d="M29.3028 50.0031V53.127H25.1179V50.0031H29.3028Z" fill="black"/>
<path d="M29.3028 46.8784V50.0023H25.1179V46.8784H29.3028Z" fill="#6875BA"/>
<path d="M29.3028 43.7486V46.8793H25.1179V43.7486H29.3028Z" fill="#8F9EF0"/>
<path d="M29.3028 40.6239V43.7477H25.1179V40.6239H29.3028Z" fill="#999FF0"/>
<path d="M29.3028 37.4991V40.623H25.1179V37.4991H29.3028Z" fill="#999FF0"/>
<path d="M29.3028 34.377V37.5009H25.1179V34.377H29.3028Z" fill="#999FF0"/>
<path d="M29.3028 31.2523V34.3761H25.1179V31.2523H29.3028Z" fill="#999FF0"/>
<path d="M29.3028 28.1276V31.2514H25.1179V28.1276H29.3028Z" fill="#999FF0"/>
<path d="M29.3028 25.0054V28.1293H25.1179V25.0054H29.3028Z" fill="#999FF0"/>
<path d="M29.3028 21.873V25.0037H25.1179V21.873H29.3028Z" fill="#999FF0"/>
<path d="M29.3028 18.7509V21.8747H25.1179V18.7509H29.3028Z" fill="#999FF0"/>
<path d="M29.3028 15.6261V18.75H25.1179V15.6261H29.3028Z" fill="#999FF0"/>
<path d="M29.3028 12.5014V15.6253H25.1179V12.5014H29.3028Z" fill="#999FF0"/>
<path d="M29.3028 9.37927V12.5031H25.1179V9.37927H29.3028Z" fill="#999FF0"/>
<path d="M29.3028 6.25456V9.37842H25.1179V6.25456H29.3028Z" fill="#BEC1ED"/>
<path d="M29.3028 3.12984V6.2537H25.1179V3.12984H29.3028Z" fill="#999FF0"/>
<path d="M29.3028 0V3.1307H25.1179V0H29.3028Z" fill="black"/>
<path d="M25.1179 53.1253V56.2491H20.9199V53.1253H25.1179Z" fill="black"/>
<path d="M25.1179 50.0031V53.127H20.9199V50.0031H25.1179Z" fill="black"/>
<path d="M25.1179 46.8784V50.0023H20.9199V46.8784H25.1179Z" fill="#6875BA"/>
<path d="M25.1179 43.7486V46.8793H20.9199V43.7486H25.1179Z" fill="#8F9EF0"/>
<path d="M25.1179 40.6239V43.7477H20.9199V40.6239H25.1179Z" fill="#999FF0"/>
<path d="M25.1179 37.4991V40.623H20.9199V37.4991H25.1179Z" fill="#999FF0"/>
<path d="M25.1179 34.377V37.5009H20.9199V34.377H25.1179Z" fill="#999FF0"/>
<path d="M25.1179 31.2523V34.3761H20.9199V31.2523H25.1179Z" fill="#999FF0"/>
<path d="M25.1179 28.1276V31.2514H20.9199V28.1276H25.1179Z" fill="#999FF0"/>
<path d="M25.1179 25.0054V28.1293H20.9199V25.0054H25.1179Z" fill="#999FF0"/>
<path d="M25.1179 21.873V25.0037H20.9199V21.873H25.1179Z" fill="#999FF0"/>
<path d="M25.1179 18.7509V21.8747H20.9199V18.7509H25.1179Z" fill="#999FF0"/>
<path d="M25.1179 15.6261V18.75H20.9199V15.6261H25.1179Z" fill="#999FF0"/>
<path d="M25.1179 12.5014V15.6253H20.9199V12.5014H25.1179Z" fill="#999FF0"/>
<path d="M25.1179 9.37927V12.5031H20.9199V9.37927H25.1179Z" fill="#999FF0"/>
<path d="M25.1179 6.25456V9.37842H20.9199V6.25456H25.1179Z" fill="#BEC1ED"/>
<path d="M25.1179 3.12984V6.2537H20.9199V3.12984H25.1179Z" fill="#999FF0"/>
<path d="M25.1179 0V3.1307H20.9199V0H25.1179Z" fill="black"/>
<path d="M20.9199 53.1253V56.2491H16.7355V53.1253H20.9199Z" fill="black"/>
<path d="M20.9199 50.0031V53.127H16.7355V50.0031H20.9199Z" fill="black"/>
<path d="M20.9199 46.8784V50.0023H16.7355V46.8784H20.9199Z" fill="#6875BA"/>
<path d="M20.9199 43.7486V46.8793H16.7355V43.7486H20.9199Z" fill="#8F9EF0"/>
<path d="M20.9199 40.6239V43.7477H16.7355V40.6239H20.9199Z" fill="#999FF0"/>
<path d="M20.9199 37.4991V40.623H16.7355V37.4991H20.9199Z" fill="#999FF0"/>
<path d="M20.9199 34.377V37.5009H16.7355V34.377H20.9199Z" fill="#999FF0"/>
<path d="M20.9199 31.2523V34.3761H16.7355V31.2523H20.9199Z" fill="#999FF0"/>
<path d="M20.9199 28.1276V31.2514H16.7355V28.1276H20.9199Z" fill="#999FF0"/>
<path d="M20.9199 25.0054V28.1293H16.7355V25.0054H20.9199Z" fill="#999FF0"/>
<path d="M20.9199 21.873V25.0037H16.7355V21.873H20.9199Z" fill="#999FF0"/>
<path d="M20.9199 18.7509V21.8747H16.7355V18.7509H20.9199Z" fill="#999FF0"/>
<path d="M20.9199 15.6261V18.75H16.7355V15.6261H20.9199Z" fill="#999FF0"/>
<path d="M20.9199 12.5014V15.6253H16.7355V12.5014H20.9199Z" fill="#999FF0"/>
<path d="M20.9199 9.37927V12.5031H16.7355V9.37927H20.9199Z" fill="#999FF0"/>
<path d="M20.9199 6.25456V9.37842H16.7355V6.25456H20.9199Z" fill="#BEC1ED"/>
<path d="M20.9199 3.12984V6.2537H16.7355V3.12984H20.9199Z" fill="#999FF0"/>
<path d="M20.9199 0V3.1307H16.7355V0H20.9199Z" fill="black"/>
<path d="M16.7344 53.1253V56.2491H12.5495V53.1253H16.7344Z" fill="black"/>
<path d="M16.7344 50.0031V53.127H12.5495V50.0031H16.7344Z" fill="black"/>
<path d="M16.7344 46.8784V50.0023H12.5495V46.8784H16.7344Z" fill="#6875BA"/>
<path d="M16.7344 43.7486V46.8793H12.5495V43.7486H16.7344Z" fill="#8F9EF0"/>
<path d="M16.7344 40.6239V43.7477H12.5495V40.6239H16.7344Z" fill="#999FF0"/>
<path d="M16.7344 37.4991V40.623H12.5495V37.4991H16.7344Z" fill="#999FF0"/>
<path d="M16.7344 34.377V37.5009H12.5495V34.377H16.7344Z" fill="#999FF0"/>
<path d="M16.7344 31.2523V34.3761H12.5495V31.2523H16.7344Z" fill="#999FF0"/>
<path d="M16.7344 28.1276V31.2514H12.5495V28.1276H16.7344Z" fill="#999FF0"/>
<path d="M16.7344 25.0054V28.1293H12.5495V25.0054H16.7344Z" fill="#999FF0"/>
<path d="M16.7344 21.873V25.0037H12.5495V21.873H16.7344Z" fill="#999FF0"/>
<path d="M16.7344 18.7509V21.8747H12.5495V18.7509H16.7344Z" fill="#999FF0"/>
<path d="M16.7344 15.6261V18.75H12.5495V15.6261H16.7344Z" fill="#999FF0"/>
<path d="M16.7344 12.5014V15.6253H12.5495V12.5014H16.7344Z" fill="#999FF0"/>
<path d="M16.7344 9.37927V12.5031H12.5495V9.37927H16.7344Z" fill="#999FF0"/>
<path d="M16.7344 6.25456V9.37842H12.5495V6.25456H16.7344Z" fill="#BEC1ED"/>
<path d="M16.7344 3.12984V6.2537H12.5495V3.12984H16.7344Z" fill="#999FF0"/>
<path d="M16.7344 0V3.1307H12.5495V0H16.7344Z" fill="black"/>
<path d="M12.5495 50.0031V53.127H8.3652V50.0031H12.5495Z" fill="black"/>
<path d="M12.5495 46.8784V50.0023H8.3652V46.8784H12.5495Z" fill="#6875BA"/>
<path d="M12.5495 43.7486V46.8793H8.3652V43.7486H12.5495Z" fill="#8F9EF0"/>
<path d="M12.5495 40.6239V43.7477H8.3652V40.6239H12.5495Z" fill="#999FF0"/>
<path d="M12.5495 37.4991V40.623H8.3652V37.4991H12.5495Z" fill="#BEC1ED"/>
<path d="M12.5495 34.377V37.5009H8.3652V34.377H12.5495Z" fill="#BEC1ED"/>
<path d="M12.5495 31.2523V34.3761H8.3652V31.2523H12.5495Z" fill="#BEC1ED"/>
<path d="M12.5495 28.1276V31.2514H8.3652V28.1276H12.5495Z" fill="#BEC1ED"/>
<path d="M12.5495 25.0054V28.1293H8.3652V25.0054H12.5495Z" fill="#BEC1ED"/>
<path d="M12.5495 21.873V25.0037H8.3652V21.873H12.5495Z" fill="#BEC1ED"/>
<path d="M12.5495 18.7509V21.8747H8.3652V18.7509H12.5495Z" fill="#BEC1ED"/>
<path d="M12.5495 15.6261V18.75H8.3652V15.6261H12.5495Z" fill="#BEC1ED"/>
<path d="M12.5495 12.5014V15.6253H8.3652V12.5014H12.5495Z" fill="#BEC1ED"/>
<path d="M12.5495 9.37927V12.5031H8.3652V9.37927H12.5495Z" fill="#BEC1ED"/>
<path d="M12.5495 6.25456V9.37842H8.3652V6.25456H12.5495Z" fill="#999FF0"/>
<path d="M12.5495 3.12984V6.2537H8.3652V3.12984H12.5495Z" fill="#999FF0"/>
<path d="M12.5495 0V3.1307H8.3652V0H12.5495Z" fill="black"/>
<path d="M8.3652 46.8784V50.0023H4.18088V46.8784H8.3652Z" fill="black"/>
<path d="M8.3652 43.7486V46.8793H4.18088V43.7486H8.3652Z" fill="#6875BA"/>
<path d="M8.3652 40.6239V43.7477H4.18088V40.6239H8.3652Z" fill="#999FF0"/>
<path d="M8.3652 37.4991V40.623H4.18088V37.4991H8.3652Z" fill="#999FF0"/>
<path d="M8.3652 34.377V37.5009H4.18088V34.377H8.3652Z" fill="#999FF0"/>
<path d="M8.3652 31.2523V34.3761H4.18088V31.2523H8.3652Z" fill="#999FF0"/>
<path d="M8.3652 28.1276V31.2514H4.18088V28.1276H8.3652Z" fill="#999FF0"/>
<path d="M8.3652 25.0054V28.1293H4.18088V25.0054H8.3652Z" fill="#999FF0"/>
<path d="M8.3652 21.873V25.0037H4.18088V21.873H8.3652Z" fill="#999FF0"/>
<path d="M8.3652 18.7509V21.8747H4.18088V18.7509H8.3652Z" fill="#999FF0"/>
<path d="M8.3652 15.6261V18.75H4.18088V15.6261H8.3652Z" fill="#999FF0"/>
<path d="M8.3652 12.5014V15.6253H4.18088V12.5014H8.3652Z" fill="#999FF0"/>
<path d="M8.3652 9.37927V12.5031H4.18088V9.37927H8.3652Z" fill="#999FF0"/>
<path d="M8.3652 6.25456V9.37842H4.18088V6.25456H8.3652Z" fill="#999FF0"/>
<path d="M8.3652 3.12984V6.2537H4.18088V3.12984H8.3652Z" fill="black"/>
<path d="M4.18088 43.7486V46.8793H0V43.7486H4.18088Z" fill="black"/>
<path d="M4.18088 40.6239V43.7477H0V40.6239H4.18088Z" fill="black"/>
<path d="M4.18088 37.4991V40.623H0V37.4991H4.18088Z" fill="black"/>
<path d="M4.18088 34.377V37.5009H0V34.377H4.18088Z" fill="black"/>
<path d="M4.18088 31.2523V34.3761H0V31.2523H4.18088Z" fill="black"/>
<path d="M4.18088 28.1276V31.2514H0V28.1276H4.18088Z" fill="black"/>
<path d="M4.18088 25.0054V28.1293H0V25.0054H4.18088Z" fill="black"/>
<path d="M4.18088 21.873V25.0037H0V21.873H4.18088Z" fill="black"/>
<path d="M4.18088 18.7509V21.8747H0V18.7509H4.18088Z" fill="black"/>
<path d="M4.18088 15.6261V18.75H0V15.6261H4.18088Z" fill="black"/>
<path d="M4.18088 12.5014V15.6253H0V12.5014H4.18088Z" fill="black"/>
<path d="M4.18088 9.37927V12.5031H0V9.37927H4.18088Z" fill="black"/>
<path d="M4.18088 6.25456V9.37842H0V6.25456H4.18088Z" fill="black"/>
</svg>
