<svg width="263" height="200" viewBox="0 0 263 200" fill="none" xmlns="http://www.w3.org/2000/svg">
<path d="M62.9844 55.1724H69.8797V48.2754H62.9844V55.1724Z" fill="#231F20"/>
<path d="M97.4648 55.1724H104.362V48.2754H97.4648V55.1724Z" fill="#231F20"/>
<path d="M21.6055 165.516H28.5025V158.621H21.6055V165.516Z" fill="#231F20"/>
<path d="M83.6719 55.1724H90.5689V48.2754H83.6719V55.1724Z" fill="#F47275"/>
<path d="M69.8797 55.1724H76.7759V48.2754H69.8797V55.1724Z" fill="#F47275"/>
<path d="M76.7773 55.1724H83.6744V48.2754H76.7773V55.1724Z" fill="#F47275"/>
<path d="M180.227 55.1724H187.124V48.2754H180.227V55.1724Z" fill="#231F20"/>
<path d="M56.0859 55.1724H62.983V48.2754H56.0859V55.1724Z" fill="#C41132"/>
<path d="M90.5703 55.1724H97.4648V48.2754H90.5703V55.1724Z" fill="#CA585A"/>
<path d="M21.6055 117.241H28.5025V110.344H21.6055V117.241Z" fill="#231F20"/>
<path d="M21.6055 96.5513H28.5025V89.6543H21.6055V96.5513Z" fill="#F47275"/>
<path d="M21.6055 110.344H28.5025V103.449H21.6055V110.344Z" fill="#F47275"/>
<path d="M21.6055 103.448H28.5025V96.5513H21.6055V103.448Z" fill="#F47275"/>
<path d="M21.6055 137.93H28.5025V131.035H21.6055V137.93Z" fill="#231F20"/>
<path d="M21.6055 82.7586H28.5025V75.8633H21.6055V82.7586Z" fill="#231F20"/>
<path d="M21.6055 55.1724H28.5025V48.2754H21.6055V55.1724Z" fill="#A60E28"/>
<path d="M21.6055 89.6543H28.5025V82.7598H21.6055V89.6543Z" fill="#CA585A"/>
<path d="M35.3984 55.1724H42.2937V48.2754H35.3984V55.1724Z" fill="#C41132"/>
<path d="M42.2937 55.1724H49.19V48.2754H42.2937V55.1724Z" fill="#C41132"/>
<path d="M28.5 55.1724H35.397V48.2754H28.5V55.1724Z" fill="#C41132"/>
<path d="M21.6055 62.0689H28.5025V55.1724H21.6055V62.0689Z" fill="#A60E28"/>
<path d="M49.1914 55.1724H56.0884V48.2754H49.1914V55.1724Z" fill="#C41132"/>
<path d="M21.6055 75.8619H28.5025V68.9648H21.6055V75.8619Z" fill="#880C1A"/>
<path d="M21.6055 68.9648H28.5025V62.0689H21.6055V68.9648Z" fill="#880C1A"/>
<path d="M42.2937 48.2754H49.19V41.3789H42.293L42.2937 48.2754Z" fill="#C41132"/>
<path d="M56.0859 48.2754H62.983V41.3789H56.0859V48.2754Z" fill="#C41132"/>
<path d="M49.1914 48.2754H56.0884V41.3789H49.1914V48.2754Z" fill="#C41132"/>
<path d="M62.9844 48.2754H69.8797V41.3789H62.9844V48.2754Z" fill="#C41132"/>
<path d="M69.8797 48.2754H76.7759V41.3789H69.8797V48.2754Z" fill="#231F20"/>
<path d="M76.7773 48.2754H83.6744V41.3789H76.7773V48.2754Z" fill="#231F20"/>
<path d="M83.6719 48.2754H90.5689V41.3789H83.6719V48.2754Z" fill="#231F20"/>
<path d="M28.5 48.2754H35.397L35.397 41.3788H28.5L28.5 48.2754Z" fill="#C41132"/>
<path d="M21.6055 48.2754H28.5025V41.3789H21.6055V48.2754Z" fill="#A60E28"/>
<path d="M35.3984 48.2754H42.2937L42.293 41.3789H35.3984V48.2754Z" fill="#C41132"/>
<path d="M14.707 48.2759H21.6023V41.3789H14.707V48.2759Z" fill="#231F20"/>
<path d="M97.4648 48.2754H104.362V41.3789H97.4648V48.2754Z" fill="#CA585A"/>
<path d="M104.363 48.2759H111.26V41.3789H104.363V48.2759Z" fill="#231F20"/>
<path d="M90.5703 48.2754H97.4648V41.3789H90.5703V48.2754Z" fill="#F47275"/>
<path d="M14.707 144.827H21.6023V137.93H14.707V144.827Z" fill="#231F20"/>
<path d="M14.707 55.1724H21.6023V48.2759H14.707V55.1724Z" fill="#231F20"/>
<path d="M14.707 172.413H21.6023V165.516H14.707V172.413Z" fill="#231F20"/>
<path d="M14.707 75.8619H21.6023V68.9648H14.707V75.8619Z" fill="#231F20"/>
<path d="M14.707 62.0689H21.6023V55.1724H14.707V62.0689Z" fill="#231F20"/>
<path d="M14.707 68.9648H21.6023V62.0689H14.707V68.9648Z" fill="#231F20"/>
<path d="M14.707 89.6551H21.6023V82.7598H14.707V89.6551Z" fill="#231F20"/>
<path d="M14.707 110.345H21.6023V103.449H14.707V110.345Z" fill="#231F20"/>
<path d="M14.707 103.448H21.6023V96.5508H14.707V103.448Z" fill="#231F20"/>
<path d="M14.707 96.5508H21.6023V89.6551H14.707V96.5508Z" fill="#231F20"/>
<path d="M228.5 124.137H235.397V117.24H228.5V124.137Z" fill="#231F20"/>
<path d="M228.5 158.622H235.397V151.725H228.5V158.622Z" fill="#231F20"/>
<path d="M228.5 186.206H235.397V179.309H228.5V186.206Z" fill="#231F20"/>
<path d="M228.5 137.93H235.397V131.035H228.5V137.93Z" fill="#231F20"/>
<path d="M228.5 48.2759H235.397V41.3789H228.5V48.2759Z" fill="#ED1248"/>
<path d="M207.812 48.2759H214.71V41.3789H207.812V48.2759Z" fill="#C41132"/>
<path d="M214.707 48.2759H221.604V41.3789H214.707V48.2759Z" fill="#C41132"/>
<path d="M221.606 48.2758L228.5 48.2759V41.3789L221.606 41.3788V48.2758Z" fill="white"/>
<path d="M200.914 48.2759H207.811V41.3789H200.914V48.2759Z" fill="#231F20"/>
<path d="M228.5 55.1724H235.397V48.2759H228.5V55.1724Z" fill="#C41132"/>
<path d="M228.5 89.6551H235.397V82.7598H228.5V89.6551Z" fill="#880C1A"/>
<path d="M228.5 103.448H235.397V96.5508H228.5V103.448Z" fill="#231F20"/>
<path d="M228.5 96.5508H235.397V89.6551H228.5V96.5508Z" fill="#231F20"/>
<path d="M228.5 110.345H235.397V103.449H228.5V110.345Z" fill="#231F20"/>
<path d="M228.5 117.24H235.397V110.345H228.5V117.24Z" fill="#F47275"/>
<path d="M228.5 68.9654H235.397V62.0684H228.5V68.9654Z" fill="#C41132"/>
<path d="M228.5 62.0684H235.397V55.1724H228.5V62.0684Z" fill="#C41132"/>
<path d="M228.5 75.8619H235.397V68.9654H228.5V75.8619Z" fill="#A60E28"/>
<path d="M228.5 82.7586H235.397V75.8633H228.5V82.7586Z" fill="#A60E28"/>
<path d="M187.121 62.0689H194.018V55.1719H187.121V62.0689Z" fill="#231F20"/>
<path d="M152.707 62.0689H159.604V55.1719H152.707V62.0689Z" fill="#231F20"/>
<path d="M180.227 62.0689H187.124V55.1724H180.227V62.0689Z" fill="#F47275"/>
<path d="M214.707 62.0689H221.604V55.1719H214.707V62.0689Z" fill="#C41132"/>
<path d="M173.328 62.0689H180.225V55.1719H173.328V62.0689Z" fill="#231F20"/>
<path d="M159.605 62.0689H166.501V55.1719H159.605V62.0689Z" fill="#231F20"/>
<path d="M207.812 62.0689H214.71V55.1719H207.812V62.0689Z" fill="#231F20"/>
<path d="M214.707 110.345H221.604V103.449H214.707V110.345Z" fill="#231F20"/>
<path d="M214.707 117.241H221.604V110.345H214.707V117.241Z" fill="#F47275"/>
<path d="M214.707 124.137H221.604V117.241H214.707V124.137Z" fill="#231F20"/>
<path d="M214.707 89.6551H221.604V82.7598H214.707V89.6551Z" fill="#880C1A"/>
<path d="M28.5 89.6551H35.397V82.7598H28.5V89.6551Z" fill="#231F20"/>
<path d="M214.707 82.7586H221.604V75.8633H214.707V82.7586Z" fill="#A60E28"/>
<path d="M214.707 75.8619H221.604V68.9648H214.707V75.8619Z" fill="#A60E28"/>
<path d="M214.707 68.9648H221.604V62.0689H214.707V68.9648Z" fill="#C41132"/>
<path d="M83.6719 62.0689H90.5689V55.1724H83.6719V62.0689Z" fill="#CA585A"/>
<path d="M145.809 62.0689H152.706V55.1719H145.809V62.0689Z" fill="#231F20"/>
<path d="M49.1914 62.0689H56.0884V55.1724H49.1914V62.0689Z" fill="#C41132"/>
<path d="M56.0859 62.0689H62.983V55.1724H56.0859V62.0689Z" fill="#C41132"/>
<path d="M35.3984 62.0689H42.2937V55.1724H35.3984V62.0689Z" fill="#C41132"/>
<path d="M62.9844 62.0689H69.8797V55.1724H62.9844V62.0689Z" fill="#231F20"/>
<path d="M28.5 62.0689H35.397V55.1724H28.5V62.0689Z" fill="#A60E28"/>
<path d="M69.8797 62.0689H76.7759V55.1724H69.8797V62.0689Z" fill="#CA585A"/>
<path d="M28.5 75.8621H35.397V68.965H28.5V75.8621Z" fill="#880C1A"/>
<path d="M28.5 68.965H35.397L35.397 62.0689H28.5L28.5 68.965Z" fill="#A60E28"/>
<path d="M42.2937 62.0689H49.19V55.1724H42.2937V62.0689Z" fill="#C41132"/>
<path d="M118.156 62.0689H125.052V55.1719H118.156V62.0689Z" fill="#231F20"/>
<path d="M111.258 62.0689H118.153V55.1719H111.258V62.0689Z" fill="#231F20"/>
<path d="M214.707 137.93H221.604V131.035H214.707V137.93Z" fill="#231F20"/>
<path d="M90.5703 62.0689H97.4656L97.4648 55.1724H90.5703V62.0689Z" fill="#231F20"/>
<path d="M76.7773 62.0689H83.6744V55.1724H76.7773V62.0689Z" fill="#F47275"/>
<path d="M104.363 62.0689H111.26V55.1719H104.363V62.0689Z" fill="#231F20"/>
<path d="M214.707 96.5513H221.604V89.6551H214.707V96.5513Z" fill="#231F20"/>
<path d="M214.707 200.001H221.604V193.104H214.707V200.001Z" fill="#231F20"/>
<path d="M214.707 158.622H221.604V151.725H214.707V158.622Z" fill="#231F20"/>
<path d="M214.707 172.413H221.604V165.516H214.707V172.413Z" fill="#231F20"/>
<path d="M28.5 82.7566H35.397L35.397 75.8621H28.5L28.5 82.7566Z" fill="#880C1A"/>
<path d="M28.5 96.5515H35.397L35.397 89.6551H28.5L28.5 96.5515Z" fill="#231F20"/>
<path d="M221.606 179.309H228.501V172.414H221.606V179.309Z" fill="#231F20"/>
<path d="M221.606 68.9654H228.5V62.0684H221.606V68.9654Z" fill="#C41132"/>
<path d="M221.606 82.7566H228.501V75.8613H221.606V82.7566Z" fill="#A60E28"/>
<path d="M221.606 75.8613H228.501L228.5 68.9654H221.606V75.8613Z" fill="#C41132"/>
<path d="M221.606 89.6551H228.5V82.7598H221.606V89.6551Z" fill="#880C1A"/>
<path d="M221.606 96.5515H228.501V89.6545L221.606 89.6551L221.606 96.5515Z" fill="#231F20"/>
<path d="M207.812 55.1719H214.71V48.2759H207.812V55.1719Z" fill="#231F20"/>
<path d="M214.707 55.1719H221.604V48.2759H214.707V55.1719Z" fill="#C41132"/>
<path d="M221.606 62.0684L228.501 62.0689V55.1719H221.606V62.0684Z" fill="#C41132"/>
<path d="M221.606 55.1719H228.501V48.2754L221.606 48.2758L221.606 55.1719Z" fill="#C41132"/>
<path d="M221.606 158.622H228.5V151.725H221.606V158.622Z" fill="#231F20"/>
<path d="M221.606 110.345H228.5V103.449H221.606V110.345Z" fill="#231F20"/>
<path d="M221.606 117.241H228.501V110.344L221.606 110.345L221.606 117.241Z" fill="#F47275"/>
<path d="M221.606 124.137H228.5L228.501 117.241H221.606L221.606 124.137Z" fill="#231F20"/>
<path d="M221.606 137.93H228.5V131.035H221.606V137.93Z" fill="#231F20"/>
<path d="M28.5 186.207H35.397V179.309H28.5V186.207Z" fill="#231F20"/>
<path d="M28.5 110.345H35.397V103.449H28.5V110.345Z" fill="#F47275"/>
<path d="M28.5 117.241H35.397L35.397 110.345H28.5L28.5 117.241Z" fill="#F47275"/>
<path d="M28.5 124.137H35.397L35.397 117.241H28.5L28.5 124.137Z" fill="#231F20"/>
<path d="M28.5 103.448H35.397L35.397 96.5515H28.5L28.5 103.448Z" fill="#231F20"/>
<path d="M28.5 158.622H35.397V151.725H28.5V158.622Z" fill="#231F20"/>
<path d="M28.5 137.93H35.397V131.035H28.5V137.93Z" fill="#231F20"/>
<path d="M97.4648 34.481H104.362V27.584H97.4648V34.481Z" fill="#231F20"/>
<path d="M207.812 34.481H214.71V27.584H207.812V34.481Z" fill="#ED1248"/>
<path d="M221.606 34.481H228.501V27.584H221.606V34.481Z" fill="#231F20"/>
<path d="M214.707 34.481H221.604V27.584H214.707V34.481Z" fill="#231F20"/>
<path d="M194.02 34.481H200.915V27.584H194.02V34.481Z" fill="#ED1248"/>
<path d="M200.915 34.481H207.811V27.584H200.915V34.481Z" fill="#ED1248"/>
<path d="M187.121 34.481H194.018V27.584H187.121V34.481Z" fill="#231F20"/>
<path d="M28.5 34.481H35.397V27.584H28.5V34.481Z" fill="#231F20"/>
<path d="M69.8789 34.481H76.7759V27.584H69.8789V34.481Z" fill="#231F20"/>
<path d="M62.9844 34.481H69.8789V27.584H62.9844V34.481Z" fill="#C41132"/>
<path d="M42.293 34.481H49.19V27.584H42.293V34.481Z" fill="white"/>
<path d="M35.3984 34.481H42.293V27.584H35.3984V34.481Z" fill="#ED1248"/>
<path d="M49.1914 34.481H56.0884V27.584H49.1914V34.481Z" fill="#C41132"/>
<path d="M56.0859 34.481H62.983V27.584H56.0859V34.481Z" fill="#C41132"/>
<path d="M242.293 89.6551H249.188V82.7598H242.293V89.6551Z" fill="#231F20"/>
<path d="M242.293 82.7586H249.188V75.8633H242.293V82.7586Z" fill="#231F20"/>
<path d="M242.293 103.448H249.188V96.5508H242.293V103.448Z" fill="#231F20"/>
<path d="M242.293 75.8619H249.188V68.9648H242.293V75.8619Z" fill="#231F20"/>
<path d="M242.293 110.345H249.188V103.449H242.293V110.345Z" fill="#231F20"/>
<path d="M242.293 68.9648H249.188V62.0684H242.293V68.9648Z" fill="#231F20"/>
<path d="M242.293 62.0684H249.188V55.1719H242.293V62.0684Z" fill="#231F20"/>
<path d="M242.293 55.1719H249.188V48.2754H242.293V55.1719Z" fill="#231F20"/>
<path d="M242.293 172.413H249.188V165.516H242.293V172.413Z" fill="#231F20"/>
<path d="M242.293 117.241H249.188V110.345H242.293V117.241Z" fill="#231F20"/>
<path d="M242.293 144.827H249.188V137.93H242.293V144.827Z" fill="#231F20"/>
<path d="M0.914062 158.622H7.81109V151.725H0.914062V158.622Z" fill="#231F20"/>
<path d="M235.398 165.516H242.295V158.621H235.398V165.516Z" fill="#231F20"/>
<path d="M235.398 137.93H242.295V131.035H235.398V137.93Z" fill="#231F20"/>
<path d="M235.398 124.137H242.295V117.24H235.398V124.137Z" fill="#231F20"/>
<path d="M221.606 41.3788L228.501 41.3794V34.4824H221.606L221.606 41.3788Z" fill="#ED1248"/>
<path d="M207.812 41.3775H214.71V34.481H207.812V41.3775Z" fill="#C41132"/>
<path d="M214.707 41.3775H221.604V34.481H214.707V41.3775Z" fill="white"/>
<path d="M235.398 48.2759H242.295V41.3789H235.398V48.2759Z" fill="#231F20"/>
<path d="M228.5 41.3775H235.397V34.4805H228.5V41.3775Z" fill="#231F20"/>
<path d="M200.914 41.3775H207.811V34.481H200.915L200.914 41.3775Z" fill="#C41132"/>
<path d="M194.02 41.3775H200.914L200.915 34.481H194.02V41.3775Z" fill="#231F20"/>
<path d="M235.398 68.9654H242.295V62.0684H235.398V68.9654Z" fill="#A60E28"/>
<path d="M235.398 89.6551H242.295V82.7598H235.398V89.6551Z" fill="#880C1A"/>
<path d="M235.398 103.448H242.295V96.5508H235.398V103.448Z" fill="#CA585A"/>
<path d="M235.398 96.5508H242.295V89.6551H235.398V96.5508Z" fill="#231F20"/>
<path d="M235.398 110.345H242.295V103.449H235.398V110.345Z" fill="#F47275"/>
<path d="M235.398 82.7586H242.295V75.8633H235.398V82.7586Z" fill="#880C1A"/>
<path d="M235.398 62.0684H242.295V55.1719H235.398V62.0684Z" fill="#C41132"/>
<path d="M235.398 117.24H242.295V110.345H235.398V117.24Z" fill="#F47275"/>
<path d="M235.398 75.8619H242.295V68.9654H235.398V75.8619Z" fill="#A60E28"/>
<path d="M235.398 55.1719H242.295V48.2759H235.398V55.1719Z" fill="#ED1248"/>
<path d="M97.4648 41.3775H104.362V34.481H97.4648V41.3775Z" fill="#F47275"/>
<path d="M62.9844 41.3775H69.8797L69.8789 34.481H62.9844V41.3775Z" fill="#231F20"/>
<path d="M90.5703 41.3775H97.4648V34.481L90.5703 34.4805V41.3775Z" fill="#231F20"/>
<path d="M42.293 41.3775H49.19V34.481H42.293V41.3775Z" fill="#C41132"/>
<path d="M35.3984 41.3775H42.293V34.481H35.3984V41.3775Z" fill="#C41132"/>
<path d="M28.5 41.3788H35.397L35.397 34.4824H28.5L28.5 41.3788Z" fill="#ED1248"/>
<path d="M56.0859 41.3775H62.983V34.481H56.0859V41.3775Z" fill="#C41132"/>
<path d="M49.1914 41.3775H56.0884V34.481H49.1914V41.3775Z" fill="#C41132"/>
<path d="M104.363 41.3775H111.26V34.4805H104.363V41.3775Z" fill="#231F20"/>
<path d="M21.6055 41.3775H28.5025V34.4805H21.6055V41.3775Z" fill="#231F20"/>
<path d="M7.8125 151.725H14.7095V144.828H7.8125V151.725Z" fill="#231F20"/>
<path d="M125.051 186.206H131.948V179.309H125.051V186.206Z" fill="#E8A50A"/>
<path d="M173.328 124.137H180.225V117.24H173.328V124.137Z" fill="#C41132"/>
<path d="M173.328 103.448H180.225V96.5508H173.328V103.448Z" fill="#231F20"/>
<path d="M159.535 103.448H166.432V96.5508H159.535V103.448Z" fill="#231F20"/>
<path d="M173.328 110.345H180.225V103.449H173.328V110.345Z" fill="#ED1248"/>
<path d="M173.328 117.24H180.225V110.345H173.328V117.24Z" fill="#C41132"/>
<path d="M166.434 103.448H173.328V96.5508H166.434V103.448Z" fill="#231F20"/>
<path d="M131.949 103.448H138.846V96.5508H131.949V103.448Z" fill="#231F20"/>
<path d="M152.641 103.448H159.538V96.5508H152.641V103.448Z" fill="#880C1A"/>
<path d="M138.848 103.448H145.745V96.5508H138.848V103.448Z" fill="#231F20"/>
<path d="M166.434 110.345H173.328V103.449H166.434V110.345Z" fill="#ED1248"/>
<path d="M173.328 144.827H180.225V137.93H173.328V144.827Z" fill="#880C1A"/>
<path d="M173.328 179.309H180.225V172.414H173.328V179.309Z" fill="#CC800C"/>
<path d="M173.328 172.413H180.225V165.516H173.328V172.413Z" fill="#E8A50A"/>
<path d="M173.328 131.034H180.225V124.137H173.328V131.034Z" fill="#C41132"/>
<path d="M173.328 186.206H180.225V179.309H173.328V186.206Z" fill="#231F20"/>
<path d="M173.328 165.516H180.225V158.621H173.328V165.516Z" fill="#E8A50A"/>
<path d="M125.051 103.448H131.948V96.5508H125.051V103.448Z" fill="#231F20"/>
<path d="M173.328 158.621H180.225V151.725H173.328V158.621Z" fill="#E8A50A"/>
<path d="M173.328 137.93H180.225V131.035H173.328V137.93Z" fill="#A60E28"/>
<path d="M173.328 151.725H180.225V144.828H173.328V151.725Z" fill="#231F20"/>
<path d="M69.8789 124.137H76.7759V117.24H69.8789V124.137Z" fill="#A60E28"/>
<path d="M69.8789 144.827H76.7759V137.93H69.8789V144.827Z" fill="#880C1A"/>
<path d="M69.8789 151.725H76.7759V144.828H69.8789V151.725Z" fill="#231F20"/>
<path d="M69.8789 158.622H76.7759V151.725H69.8789V158.622Z" fill="#CC800C"/>
<path d="M69.8789 137.93H76.7759V131.035H69.8789V137.93Z" fill="#880C1A"/>
<path d="M69.8789 131.034H76.7759V124.137H69.8789V131.034Z" fill="#880C1A"/>
<path d="M69.8789 165.516H76.7759V158.622H69.8789V165.516Z" fill="#CC800C"/>
<path d="M69.8789 186.207H76.7759V179.309H69.8789V186.207Z" fill="#231F20"/>
<path d="M69.8789 172.413H76.7759V165.516H69.8789V172.413Z" fill="#231F20"/>
<path d="M104.363 103.448H111.26V96.5508H104.363V103.448Z" fill="#231F20"/>
<path d="M118.156 103.448H125.051V96.5508H118.156V103.448Z" fill="#231F20"/>
<path d="M97.4648 103.448H104.362V96.5508H97.4648V103.448Z" fill="#231F20"/>
<path d="M69.8789 117.24H76.7759V110.344H69.8789V117.24Z" fill="#ED1248"/>
<path d="M111.258 103.448H118.153V96.5508H111.258V103.448Z" fill="#880C1A"/>
<path d="M90.5703 103.448H97.4648V96.5508H90.5703V103.448Z" fill="#231F20"/>
<path d="M69.8789 110.344H76.7759V103.449H69.8789V110.344Z" fill="#231F20"/>
<path d="M83.6719 103.448H90.5689V96.5508H83.6719V103.448Z" fill="#231F20"/>
<path d="M76.7773 117.241H83.6744V110.344H76.7773V117.241Z" fill="#C41132"/>
<path d="M76.7773 110.344H83.6744V103.449H76.7773V110.344Z" fill="#231F20"/>
<path d="M90.5703 110.345H97.4656V103.449H90.5703V110.345Z" fill="#ED1248"/>
<path d="M83.6719 110.345H90.5689V103.449H83.6719V110.345Z" fill="#ED1248"/>
<path d="M76.7773 124.137H83.6744V117.241H76.7773V124.137Z" fill="#C41132"/>
<path d="M76.7773 151.725H83.6744V144.828H76.7773V151.725Z" fill="#E8A50A"/>
<path d="M97.4656 110.345H104.362V103.449H97.4656V110.345Z" fill="#ED1248"/>
<path d="M76.7773 158.622H83.6744V151.725H76.7773V158.622Z" fill="#E8A50A"/>
<path d="M76.7773 137.93H83.6744V131.035H76.7773V137.93Z" fill="#880C1A"/>
<path d="M76.7773 131.034H83.6744V124.137H76.7773V131.034Z" fill="#A60E28"/>
<path d="M76.7773 144.827H83.6744V137.93H76.7773V144.827Z" fill="#231F20"/>
<path d="M138.848 110.345H145.745V103.449H138.848V110.345Z" fill="#ED1248"/>
<path d="M104.363 110.345H111.26V103.449H104.363V110.345Z" fill="#ED1248"/>
<path d="M159.535 110.345H166.432V103.449H159.535V110.345Z" fill="#ED1248"/>
<path d="M145.742 110.345H152.639V103.449H145.742V110.345Z" fill="#ED1248"/>
<path d="M131.949 110.345H138.846V103.449H131.949V110.345Z" fill="#ED1248"/>
<path d="M111.258 110.345H118.153V103.449H111.258V110.345Z" fill="#C41132"/>
<path d="M118.156 110.345H125.052V103.449H118.156V110.345Z" fill="#ED1248"/>
<path d="M125.052 110.345H131.948V103.449H125.052V110.345Z" fill="#ED1248"/>
<path d="M152.641 110.345H159.538V103.449H152.641V110.345Z" fill="#C41132"/>
<path d="M76.7773 165.516H83.6744V158.622H76.7773V165.516Z" fill="#E8A50A"/>
<path d="M76.7773 179.309H83.6744V172.414H76.7773V179.309Z" fill="#231F20"/>
<path d="M76.7773 186.207H83.6744V179.309H76.7773V186.207Z" fill="#231F20"/>
<path d="M76.7773 172.413H83.6744V165.516H76.7773V172.413Z" fill="#CC800C"/>
<path d="M145.742 103.448H152.639V96.5508H145.742V103.448Z" fill="#231F20"/>
<path d="M62.9844 124.137H69.8789V117.24H62.9844V124.137Z" fill="#231F20"/>
<path d="M62.9844 131.034H69.8789V124.137H62.9844V131.034Z" fill="#231F20"/>
<path d="M62.9844 117.24H69.8789V110.344H62.9844V117.24Z" fill="#231F20"/>
<path d="M62.9844 137.93H69.8797L69.8789 131.035H62.9844V137.93Z" fill="#231F20"/>
<path d="M62.9844 158.622H69.8814V151.725H62.9844V158.622Z" fill="#231F20"/>
<path d="M62.9844 151.725L69.8789 151.725V144.828H62.9844V151.725Z" fill="#231F20"/>
<path d="M62.9844 144.827H69.8789L69.8797 137.93H62.9844V144.827Z" fill="#231F20"/>
<path d="M111.258 96.5508H118.153V89.6543H111.258V96.5508Z" fill="#231F20"/>
<path d="M62.9844 165.516H69.8789V158.622H62.9844V165.516Z" fill="#231F20"/>
<path d="M62.9844 186.207H69.8789V179.309H62.9844V186.207Z" fill="#231F20"/>
<path d="M62.9844 172.413H69.8789L69.8797 165.516L62.9844 165.516V172.413Z" fill="#231F20"/>
<path d="M180.227 117.241H187.124V110.344H180.227V117.241Z" fill="#ED1248"/>
<path d="M152.707 96.5515H159.604V89.6545H152.707V96.5515Z" fill="#231F20"/>
<path d="M180.227 124.137H187.124V117.241H180.227V124.137Z" fill="#C41132"/>
<path d="M180.227 110.344H187.124V103.449H180.227V110.344Z" fill="#231F20"/>
<path d="M180.227 179.309H187.124V172.414H180.227V179.309Z" fill="#231F20"/>
<path d="M180.227 172.413H187.124V165.516H180.227V172.413Z" fill="#CC800C"/>
<path d="M180.227 186.206H187.124V179.309H180.227V186.206Z" fill="#231F20"/>
<path d="M180.227 131.034H187.124V124.137H180.227V131.034Z" fill="#A60E28"/>
<path d="M180.227 165.516H187.124V158.621H180.227V165.516Z" fill="#E8A50A"/>
<path d="M180.227 137.93H187.124V131.035H180.227V137.93Z" fill="#880C1A"/>
<path d="M180.227 158.621H187.124V151.725H180.227V158.621Z" fill="#E8A50A"/>
<path d="M180.227 144.827H187.124V137.93H180.227V144.827Z" fill="#231F20"/>
<path d="M180.227 151.725H187.124V144.828H180.227V151.725Z" fill="#E8A50A"/>
<path d="M131.949 165.516H138.846V158.621H131.949V165.516Z" fill="#FBC829"/>
<path d="M97.4648 131.034H104.362V124.137H97.4648V131.034Z" fill="#C41132"/>
<path d="M97.4648 137.93H104.362V131.035H97.4648V137.93Z" fill="#C41132"/>
<path d="M97.4648 179.309H104.362V172.414H97.4648V179.309Z" fill="#E8A50A"/>
<path d="M104.363 131.034H111.26V124.137H104.363V131.034Z" fill="#C41132"/>
<path d="M111.258 131.034H118.153V124.137H111.258V131.034Z" fill="#231F20"/>
<path d="M97.4648 144.827H104.362V137.93H97.4648V144.827Z" fill="#A60E28"/>
<path d="M97.4648 151.725H104.362V144.828H97.4648V151.725Z" fill="#A60E28"/>
<path d="M97.4648 165.516H104.362V158.621H97.4648V165.516Z" fill="#FBC829"/>
<path d="M97.4648 172.413H104.362V165.516H97.4648V172.413Z" fill="#FBC829"/>
<path d="M97.4648 158.621H104.362V151.725H97.4648V158.621Z" fill="#231F20"/>
<path d="M118.156 131.034H125.052V124.137H118.156V131.034Z" fill="#231F20"/>
<path d="M145.742 151.725H152.639V144.828H145.742V151.725Z" fill="#A60E28"/>
<path d="M125.052 131.034H131.948V124.137H125.052V131.034Z" fill="#231F20"/>
<path d="M145.742 158.622H152.639V151.725H145.742V158.622Z" fill="#231F20"/>
<path d="M145.742 172.413H152.639V165.516H145.742V172.413Z" fill="#231F20"/>
<path d="M145.742 165.516H152.639V158.622H145.742V165.516Z" fill="#FBC829"/>
<path d="M145.742 144.827H152.639V137.93H145.742V144.827Z" fill="#C41132"/>
<path d="M131.949 131.034H138.846V124.137H131.949V131.034Z" fill="#231F20"/>
<path d="M138.848 131.034H145.745V124.137H138.848V131.034Z" fill="#231F20"/>
<path d="M145.742 131.034H152.639V124.137H145.742V131.034Z" fill="#C41132"/>
<path d="M145.742 137.93H152.639V131.035H145.742V137.93Z" fill="#C41132"/>
<path d="M152.641 165.516H159.538V158.621H152.641V165.516Z" fill="#FBC829"/>
<path d="M152.641 151.725H159.538V144.828H152.641V151.725Z" fill="#A60E28"/>
<path d="M152.641 144.827H159.538V137.93H152.641V144.827Z" fill="#C41132"/>
<path d="M152.641 158.621H159.538V151.725H152.641V158.621Z" fill="#231F20"/>
<path d="M152.641 137.93H159.538V131.035H152.641V137.93Z" fill="#C41132"/>
<path d="M145.742 179.309H152.639V172.414H145.742V179.309Z" fill="#FBC829"/>
<path d="M104.363 179.309H111.26V172.414H104.363V179.309Z" fill="#231F20"/>
<path d="M166.434 117.241L173.328 117.24L173.329 110.344L166.434 110.345V117.241Z" fill="#C41132"/>
<path d="M152.641 131.034H159.538V124.137H152.641V131.034Z" fill="#C41132"/>
<path d="M145.742 124.137H152.639V117.24H145.742V124.137Z" fill="#231F20"/>
<path d="M152.641 124.137H159.538V117.24H152.641V124.137Z" fill="#C41132"/>
<path d="M138.848 124.137H145.745V117.24H138.848V124.137Z" fill="#C41132"/>
<path d="M118.156 186.206H125.051V179.309H118.156V186.206Z" fill="#E8A50A"/>
<path d="M111.258 179.309V186.207L118.155 186.206V179.309H111.258Z" fill="#E8A50A"/>
<path d="M104.363 186.207H111.26V179.309H104.363V186.207Z" fill="#E8A50A"/>
<path d="M249.192 151.725H256.087V144.828H249.192V151.725Z" fill="#231F20"/>
<path d="M152.641 179.309H159.538V172.414H152.641V179.309Z" fill="#231F20"/>
<path d="M145.742 186.206H152.639V179.309H145.742V186.206Z" fill="#E8A50A"/>
<path d="M152.641 186.206H159.538V179.309H152.641V186.206Z" fill="#E8A50A"/>
<path d="M138.848 186.206H145.745V179.309H138.848V186.206Z" fill="#E8A50A"/>
<path d="M131.949 186.206H138.846V179.309H131.949V186.206Z" fill="#E8A50A"/>
<path d="M138.848 179.309H145.745V172.414H138.848V179.309Z" fill="#FBC829"/>
<path d="M111.258 158.622H118.153V151.725H111.258V158.622Z" fill="#231F20"/>
<path d="M111.258 151.725H118.153V144.828H111.258V151.725Z" fill="#A60E28"/>
<path d="M131.949 124.137H138.846V117.24H131.949V124.137Z" fill="#C41132"/>
<path d="M111.258 144.827H118.153V137.93H111.258V144.827Z" fill="#C41132"/>
<path d="M111.258 165.516H118.153V158.622H111.258V165.516Z" fill="#FBC829"/>
<path d="M125.051 144.827H131.948V137.93H125.051V144.827Z" fill="#C41132"/>
<path d="M131.949 172.413H138.846V165.516H131.949V172.413Z" fill="#231F20"/>
<path d="M138.848 172.413H145.745V165.516H138.848V172.413Z" fill="#231F20"/>
<path d="M125.051 172.413H131.948V165.516H125.051V172.413Z" fill="#231F20"/>
<path d="M118.156 172.413H125.051V165.516H118.156V172.413Z" fill="#231F20"/>
<path d="M118.156 165.516L125.052 165.516V158.621H118.156V165.516Z" fill="#FBC829"/>
<path d="M125.052 158.621L131.948 158.622V151.725H125.051L125.052 158.621Z" fill="#231F20"/>
<path d="M118.156 158.621H125.052L125.051 151.725H118.156V158.621Z" fill="#231F20"/>
<path d="M118.156 151.725H125.051L125.052 144.828H118.156V151.725Z" fill="#A60E28"/>
<path d="M125.051 151.725H131.948V144.828H125.052L125.051 151.725Z" fill="#A60E28"/>
<path d="M131.949 144.827H138.846V137.93H131.949V144.827Z" fill="#C41132"/>
<path d="M131.949 158.621H138.846V151.725H131.949V158.621Z" fill="#231F20"/>
<path d="M125.051 165.516H131.948V158.622L125.052 158.621L125.051 165.516Z" fill="#FBC829"/>
<path d="M131.949 151.725H138.846V144.828H131.949V151.725Z" fill="#A60E28"/>
<path d="M118.156 144.827H125.051V137.93H118.156V144.827Z" fill="#C41132"/>
<path d="M104.363 165.516H111.26V158.621H104.363V165.516Z" fill="#FBC829"/>
<path d="M111.258 172.413H118.153V165.516H111.258V172.413Z" fill="#231F20"/>
<path d="M104.363 172.413H111.26V165.516H104.363V172.413Z" fill="#FBC829"/>
<path d="M104.363 158.621H111.26V151.725H104.363V158.621Z" fill="#231F20"/>
<path d="M104.363 151.725H111.26V144.828H104.363V151.725Z" fill="#A60E28"/>
<path d="M111.258 179.309L118.153 179.309V172.414H111.258V179.309Z" fill="#FBC829"/>
<path d="M125.051 179.309H131.948V172.414H125.051V179.309Z" fill="#FBC829"/>
<path d="M131.949 179.309H138.846V172.414H131.949V179.309Z" fill="#FBC829"/>
<path d="M104.363 144.827H111.26V137.93H104.363V144.827Z" fill="#C41132"/>
<path d="M118.156 179.309L125.052 179.309L125.051 172.414H118.156V179.309Z" fill="#FBC829"/>
<path d="M125.051 137.93H131.948V131.035H125.051V137.93Z" fill="#C41132"/>
<path d="M138.848 137.93H145.745V131.035H138.848V137.93Z" fill="#C41132"/>
<path d="M138.848 151.725H145.745V144.828H138.848V151.725Z" fill="#A60E28"/>
<path d="M138.848 144.827H145.745V137.93H138.848V144.827Z" fill="#C41132"/>
<path d="M138.848 158.622H145.745V151.725H138.848V158.622Z" fill="#231F20"/>
<path d="M118.156 137.93L125.052 137.93L125.051 131.035H118.156V137.93Z" fill="#C41132"/>
<path d="M111.258 137.93H118.153V131.035H111.258V137.93Z" fill="#C41132"/>
<path d="M104.363 137.93H111.26V131.035H104.363V137.93Z" fill="#C41132"/>
<path d="M131.949 137.93H138.846V131.035H131.949V137.93Z" fill="#C41132"/>
<path d="M138.848 165.516H145.745V158.622H138.848V165.516Z" fill="#FBC829"/>
<path d="M152.641 172.413H159.538V165.516H152.641V172.413Z" fill="#FBC829"/>
<path d="M83.6719 179.309H90.5689V172.414H83.6719V179.309Z" fill="#CC800C"/>
<path d="M83.6719 172.413H90.5689V165.516H83.6719V172.413Z" fill="#E8A50A"/>
<path d="M83.6719 186.207H90.5689V179.309H83.6719V186.207Z" fill="#231F20"/>
<path d="M83.6719 165.516H90.5689V158.621H83.6719V165.516Z" fill="#E8A50A"/>
<path d="M83.6719 158.621H90.5689V151.725H83.6719V158.621Z" fill="#E8A50A"/>
<path d="M83.6719 151.725H90.5689V144.828H83.6719V151.725Z" fill="#231F20"/>
<path d="M90.5703 193.102H97.4656V186.207H90.5703V193.102Z" fill="#231F20"/>
<path d="M97.4648 117.241H104.362V110.345L97.4648 110.344V117.241Z" fill="#C41132"/>
<path d="M104.363 117.241H111.26V110.345H104.363V117.241Z" fill="#C41132"/>
<path d="M111.258 117.241H118.153V110.345H111.258V117.241Z" fill="#C41132"/>
<path d="M90.5703 117.241H97.4648L97.4656 110.345H90.5703V117.241Z" fill="#C41132"/>
<path d="M83.6719 124.137H90.5689V117.24H83.6719V124.137Z" fill="#C41132"/>
<path d="M83.6719 117.24H90.5689V110.345H83.6719V117.24Z" fill="#C41132"/>
<path d="M83.6719 131.034H90.5689V124.137H83.6719V131.034Z" fill="#C41132"/>
<path d="M83.6719 137.93H90.5689V131.035H83.6719V137.93Z" fill="#A60E28"/>
<path d="M83.6719 144.827H90.5689V137.93H83.6719V144.827Z" fill="#880C1A"/>
<path d="M166.434 158.622L173.328 158.621V151.725H166.434V158.622Z" fill="#231F20"/>
<path d="M166.434 151.725H173.328V144.828H166.434V151.725Z" fill="#880C1A"/>
<path d="M166.434 165.516H173.329L173.328 158.621L166.434 158.622V165.516Z" fill="#FBC829"/>
<path d="M166.434 172.413H173.328L173.329 165.516H166.434V172.413Z" fill="#E8A50A"/>
<path d="M118.156 117.241H125.052V110.345H118.156V117.241Z" fill="#C41132"/>
<path d="M166.434 137.93H173.329L173.328 131.035H166.434V137.93Z" fill="#C41132"/>
<path d="M166.434 144.827H173.328L173.329 137.93H166.434V144.827Z" fill="#A60E28"/>
<path d="M166.434 131.034H173.328V124.137L166.434 124.137V131.034Z" fill="#C41132"/>
<path d="M166.434 124.137L173.328 124.137V117.24L166.434 117.241V124.137Z" fill="#C41132"/>
<path d="M166.434 186.206H173.328L173.329 179.309H166.434V186.206Z" fill="#CC800C"/>
<path d="M166.434 179.309H173.329L173.328 172.414H166.434V179.309Z" fill="#E8A50A"/>
<path d="M166.434 193.104H173.329V186.207H166.434V193.104Z" fill="#231F20"/>
<path d="M90.5703 179.309H97.4648V172.414H90.5703V179.309Z" fill="#E8A50A"/>
<path d="M97.4656 186.207L104.362 186.207V179.309H97.4648L97.4656 186.207Z" fill="#231F20"/>
<path d="M125.052 117.241H131.948V110.345L125.051 110.344L125.052 117.241Z" fill="#ED1248"/>
<path d="M125.052 124.137H131.948V117.241H125.052V124.137Z" fill="#C41132"/>
<path d="M90.5703 172.413H97.4648L97.4656 165.516H90.5703V172.413Z" fill="#E8A50A"/>
<path d="M90.5703 165.516H97.4656L97.4648 158.621H90.5703V165.516Z" fill="#FBC829"/>
<path d="M104.363 193.102H111.26V186.207H104.363V193.102Z" fill="#231F20"/>
<path d="M111.258 186.209V193.104H118.155V186.207L111.258 186.209Z" fill="#231F20"/>
<path d="M118.156 193.104H125.052V186.207H118.156V193.104Z" fill="#231F20"/>
<path d="M97.4656 193.102H104.362V186.207L97.4656 186.207V193.102Z" fill="#231F20"/>
<path d="M90.5703 158.621H97.4648V151.725L90.5703 151.725V158.621Z" fill="#231F20"/>
<path d="M90.5703 144.827H97.4648L97.4656 137.93H90.5703V144.827Z" fill="#A60E28"/>
<path d="M90.5703 151.725L97.4648 151.725V144.828H90.5703V151.725Z" fill="#A60E28"/>
<path d="M104.363 124.137H111.26V117.241H104.363V124.137Z" fill="#231F20"/>
<path d="M111.258 124.137H118.153V117.241H111.258V124.137Z" fill="#C41132"/>
<path d="M118.156 124.137H125.052V117.241H118.156V124.137Z" fill="#C41132"/>
<path d="M97.4648 124.137H104.362V117.241H97.4648V124.137Z" fill="#C41132"/>
<path d="M90.5703 137.93H97.4656L97.4648 131.035H90.5703V137.93Z" fill="#C41132"/>
<path d="M125.052 193.104H131.948V186.207H125.052V193.104Z" fill="#231F20"/>
<path d="M90.5703 124.137L97.4648 124.137V117.241H90.5703V124.137Z" fill="#C41132"/>
<path d="M90.5703 131.034H97.4648V124.137L90.5703 124.137V131.034Z" fill="#C41132"/>
<path d="M90.5703 186.207H97.4656V179.309L90.5703 179.309V186.207Z" fill="#CC800C"/>
<path d="M159.535 131.034H166.432V124.137H159.535V131.034Z" fill="#C41132"/>
<path d="M159.535 124.137H166.432V117.24H159.535V124.137Z" fill="#C41132"/>
<path d="M159.535 144.827H166.432V137.93H159.535V144.827Z" fill="#A60E28"/>
<path d="M159.535 137.93H166.432V131.035H159.535V137.93Z" fill="#C41132"/>
<path d="M159.535 117.24H166.432V110.345H159.535V117.24Z" fill="#C41132"/>
<path d="M131.949 193.104H138.846V186.207H131.949V193.104Z" fill="#231F20"/>
<path d="M131.949 117.24H138.846V110.345H131.949V117.24Z" fill="#ED1248"/>
<path d="M138.848 117.24H145.745V110.345H138.848V117.24Z" fill="#C41132"/>
<path d="M152.641 117.24H159.538V110.345H152.641V117.24Z" fill="#C41132"/>
<path d="M145.742 117.24H152.639V110.345H145.742V117.24Z" fill="#C41132"/>
<path d="M159.535 151.725H166.432V144.828H159.535V151.725Z" fill="#A60E28"/>
<path d="M152.641 193.104H159.538V186.207H152.641V193.104Z" fill="#231F20"/>
<path d="M145.742 193.104H152.639V186.207H145.742V193.104Z" fill="#231F20"/>
<path d="M159.535 193.104H166.432V186.207H159.535V193.104Z" fill="#231F20"/>
<path d="M159.535 158.622H166.432V151.725H159.535V158.622Z" fill="#231F20"/>
<path d="M138.848 193.104H145.745V186.207H138.848V193.104Z" fill="#231F20"/>
<path d="M159.535 172.413H166.432V165.516H159.535V172.413Z" fill="#FBC829"/>
<path d="M159.535 186.206H166.432V179.309H159.535V186.206Z" fill="#231F20"/>
<path d="M159.535 165.516H166.432V158.622H159.535V165.516Z" fill="#FBC829"/>
<path d="M159.535 179.309H166.432V172.414H159.535V179.309Z" fill="#E8A50A"/>
<path d="M42.293 200.001H49.19V193.104H42.293V200.001Z" fill="#231F20"/>
<path d="M42.293 137.93H49.19V131.035H42.293V137.93Z" fill="#231F20"/>
<path d="M42.293 172.413H49.19V165.516H42.293V172.413Z" fill="#231F20"/>
<path d="M42.293 158.622H49.19V151.725H42.293V158.622Z" fill="#231F20"/>
<path d="M42.293 75.8619H49.19V68.9648H42.293V75.8619Z" fill="#A60E28"/>
<path d="M42.293 82.7586H49.19V75.8633H42.293V82.7586Z" fill="#880C1A"/>
<path d="M49.1914 75.8619H56.0884V68.9648H49.1914V75.8619Z" fill="#A60E28"/>
<path d="M56.0859 75.8619H62.983V68.9648H56.0859V75.8619Z" fill="#A60E28"/>
<path d="M42.2969 124.137H49.1939V117.24H42.2969V124.137Z" fill="#231F20"/>
<path d="M42.2969 117.24H49.1939V110.344H42.2969V117.24Z" fill="#F47275"/>
<path d="M42.2969 110.344H49.1939V103.449H42.2969V110.344Z" fill="#231F20"/>
<path d="M62.9844 75.8619H69.8814V68.9648H62.9844V75.8619Z" fill="#A60E28"/>
<path d="M42.293 89.6551H49.19V82.7598H42.293V89.6551Z" fill="#231F20"/>
<path d="M200.914 124.137H207.811V117.24H200.914V124.137Z" fill="#231F20"/>
<path d="M200.914 158.622H207.811V151.725H200.914V158.622Z" fill="#231F20"/>
<path d="M200.914 144.827H207.811V137.93H200.914V144.827Z" fill="#231F20"/>
<path d="M200.914 96.5513H207.811V89.6543H200.914V96.5513Z" fill="#231F20"/>
<path d="M200.914 89.6543H207.811V82.7598H200.914V89.6543Z" fill="#880C1A"/>
<path d="M200.914 117.24H207.811V110.344H200.914V117.24Z" fill="#F47275"/>
<path d="M200.914 110.344H207.811V103.449H200.914V110.344Z" fill="#231F20"/>
<path d="M200.914 172.413H207.811V165.516H200.914V172.413Z" fill="#231F20"/>
<path d="M159.605 75.8619H166.501V68.9648H159.605V75.8619Z" fill="white"/>
<path d="M104.363 75.8619H111.26V68.9648H104.363V75.8619Z" fill="white"/>
<path d="M145.809 75.8619H152.706V68.9648H145.809V75.8619Z" fill="white"/>
<path d="M111.258 75.8619H118.153V68.9648H111.258V75.8619Z" fill="#231F20"/>
<path d="M125.051 75.8619H131.948V68.9648H125.051V75.8619Z" fill="#231F20"/>
<path d="M138.914 75.8619H145.809V68.9648H138.914V75.8619Z" fill="#231F20"/>
<path d="M118.156 75.8619H125.053V68.9648H118.156V75.8619Z" fill="white"/>
<path d="M200.914 82.7586H207.811V75.8633H200.914V82.7586Z" fill="#231F20"/>
<path d="M97.4648 75.8619H104.362V68.9648H97.4648V75.8619Z" fill="#231F20"/>
<path d="M76.7773 75.8619H83.6744V68.9648H76.7773V75.8619Z" fill="#231F20"/>
<path d="M152.707 75.8621H159.604V68.965H152.707V75.8621Z" fill="#231F20"/>
<path d="M194.02 75.8619H200.915V68.9648H194.02V75.8619Z" fill="#F47275"/>
<path d="M200.915 75.8619H207.811V68.9648H200.915V75.8619Z" fill="#CA585A"/>
<path d="M180.227 75.8619H187.124V68.9648H180.227V75.8619Z" fill="#231F20"/>
<path d="M187.121 75.8619H194.018V68.9648H187.121V75.8619Z" fill="#CA585A"/>
<path d="M69.8828 75.8619H76.7798V68.9648H69.8828V75.8619Z" fill="#880C1A"/>
<path d="M166.501 75.8619H173.395V68.9648H166.501V75.8619Z" fill="#231F20"/>
<path d="M56.0859 68.9648H62.983V62.0689H56.0859V68.9648Z" fill="#A60E28"/>
<path d="M49.1914 68.9648H56.0884V62.0689H49.1914V68.9648Z" fill="#C41132"/>
<path d="M69.8789 68.9654H76.7759V62.0689H69.8797L69.8789 68.9654Z" fill="#231F20"/>
<path d="M42.293 68.9648H49.19V62.0689H42.2937L42.293 68.9648Z" fill="#C41132"/>
<path d="M62.9844 68.9648L69.8789 68.9654L69.8797 62.0689H62.9844V68.9648Z" fill="#A60E28"/>
<path d="M35.3984 89.6551H42.293V82.7598H35.3984V89.6551Z" fill="#231F20"/>
<path d="M35.3984 82.7586H42.293V75.8633H35.3984V82.7586Z" fill="#880C1A"/>
<path d="M35.3984 68.9654L42.293 68.9648L42.2937 62.0689H35.3984V68.9654Z" fill="#A60E28"/>
<path d="M35.3984 75.8619H42.293V68.9648L35.3984 68.9654V75.8619Z" fill="#A60E28"/>
<path d="M118.156 68.9648H125.051L125.052 62.0689H118.156V68.9648Z" fill="white"/>
<path d="M125.051 68.9648H131.948V62.0684L125.052 62.0689L125.051 68.9648Z" fill="#231F20"/>
<path d="M138.914 68.9648H145.809V62.0689L138.914 62.0684V68.9648Z" fill="#231F20"/>
<path d="M145.809 68.9648H152.706V62.0689H145.809V68.9648Z" fill="white"/>
<path d="M111.258 68.9648L118.155 68.9654V62.0684L111.258 62.0689V68.9648Z" fill="white"/>
<path d="M83.6719 68.9654H90.5689V62.0689H83.6719V68.9654Z" fill="#231F20"/>
<path d="M97.4688 68.9654H104.366V62.0684H97.4688V68.9654Z" fill="#231F20"/>
<path d="M104.363 68.9648H111.258V62.0689H104.363V68.9648Z" fill="white"/>
<path d="M35.3984 179.309H42.2937V172.414H35.3984V179.309Z" fill="#231F20"/>
<path d="M152.707 68.965H159.604L159.604 62.0689H152.707L152.707 68.965Z" fill="white"/>
<path d="M35.3984 124.137H42.2937V117.24H35.3984V124.137Z" fill="#231F20"/>
<path d="M35.3984 117.24H42.2937V110.344H35.3984V117.24Z" fill="#F47275"/>
<path d="M35.3984 110.344H42.2937V103.449H35.3984V110.344Z" fill="#231F20"/>
<path d="M35.3984 137.93H42.293V131.035H35.3984V137.93Z" fill="#231F20"/>
<path d="M35.3984 158.622H42.293V151.725H35.3984V158.622Z" fill="#231F20"/>
<path d="M76.7773 68.9648L83.6719 68.9654V62.0689H76.7773V68.9648Z" fill="#CA585A"/>
<path d="M207.812 193.104H214.71V186.207H207.812V193.104Z" fill="#231F20"/>
<path d="M207.812 158.622H214.71V151.725H207.812V158.622Z" fill="#231F20"/>
<path d="M207.812 172.413H214.71V165.516H207.812V172.413Z" fill="#231F20"/>
<path d="M159.605 68.9648H166.501V62.0689H159.605V68.9648Z" fill="white"/>
<path d="M207.812 82.7586H214.71V75.8633H207.812V82.7586Z" fill="#A60E28"/>
<path d="M200.915 68.9648H207.811V62.0684H200.914L200.915 68.9648Z" fill="#231F20"/>
<path d="M207.812 75.8619H214.71V68.9648H207.812V75.8619Z" fill="#231F20"/>
<path d="M207.812 68.9648H214.71V62.0689H207.812V68.9648Z" fill="#231F20"/>
<path d="M187.121 68.9648H194.018V62.0689H187.121V68.9648Z" fill="#F47275"/>
<path d="M194.02 68.9648H200.915L200.914 62.0684H194.02V68.9648Z" fill="#231F20"/>
<path d="M180.227 68.9648H187.124V62.0689H180.227V68.9648Z" fill="#CA585A"/>
<path d="M166.501 68.9648H173.395V62.0684L166.501 62.0689V68.9648Z" fill="#231F20"/>
<path d="M173.328 68.9654H180.225V62.0689H173.328V68.9654Z" fill="#231F20"/>
<path d="M207.812 89.6551H214.71V82.7598H207.812V89.6551Z" fill="#880C1A"/>
<path d="M207.812 137.93H214.71V131.035H207.812V137.93Z" fill="#231F20"/>
<path d="M207.812 124.137H214.71V117.24H207.812V124.137Z" fill="#231F20"/>
<path d="M207.812 96.5513H214.71V89.6551H207.812V96.5513Z" fill="#231F20"/>
<path d="M207.812 110.345H214.71V103.449H207.812V110.345Z" fill="#231F20"/>
<path d="M207.812 117.24H214.71V110.345H207.812V117.24Z" fill="#F47275"/>
<path d="M200.914 186.206H207.811V179.309H200.914V186.206Z" fill="#231F20"/>
<path d="M56.0859 186.207H62.983V179.309H56.0859V186.207Z" fill="#231F20"/>
<path d="M56.0859 172.413H62.983V165.516H56.0859V172.413Z" fill="#231F20"/>
<path d="M56.0859 117.241H62.983V110.344H56.0859V117.241Z" fill="#CA585A"/>
<path d="M56.0859 110.344H62.983V103.449H56.0859V110.344Z" fill="#231F20"/>
<path d="M56.0859 124.137H62.983V117.241H56.0859V124.137Z" fill="#231F20"/>
<path d="M56.0859 144.827H62.983V137.93H56.0859V144.827Z" fill="#231F20"/>
<path d="M56.0859 158.622H62.983V151.725H56.0859V158.622Z" fill="#231F20"/>
<path d="M56.0898 89.6551H62.9852V82.7598H56.0898V89.6551Z" fill="#231F20"/>
<path d="M187.121 144.827H194.018V137.93H187.121V144.827Z" fill="#880C1A"/>
<path d="M187.121 158.622H194.018V151.725H187.121V158.622Z" fill="#CC800C"/>
<path d="M62.9852 89.6551H69.8797V82.7598H62.9852V89.6551Z" fill="#231F20"/>
<path d="M187.121 165.516H194.018V158.622H187.121V165.516Z" fill="#CC800C"/>
<path d="M187.121 172.413H194.018V165.516H187.121V172.413Z" fill="#231F20"/>
<path d="M187.121 117.241H194.018V110.344H187.121V117.241Z" fill="#231F20"/>
<path d="M187.121 137.93H194.018V131.035H187.121V137.93Z" fill="#880C1A"/>
<path d="M187.121 124.137H194.018V117.241H187.121V124.137Z" fill="#A60E28"/>
<path d="M187.121 131.034H194.018V124.137H187.121V131.034Z" fill="#880C1A"/>
<path d="M187.121 186.206H194.018V179.309H187.121V186.206Z" fill="#231F20"/>
<path d="M187.121 151.725H194.018V144.828H187.121V151.725Z" fill="#231F20"/>
<path d="M104.363 89.6551H111.26V82.7598H104.363V89.6551Z" fill="#231F20"/>
<path d="M111.258 89.6543H118.153V82.7598H111.258V89.6543Z" fill="#231F20"/>
<path d="M118.156 89.6551H125.052V82.7598H118.156V89.6551Z" fill="#231F20"/>
<path d="M152.707 89.6545H159.604L159.604 82.7598H152.707L152.707 89.6545Z" fill="#231F20"/>
<path d="M145.809 89.6551H152.706V82.7598H145.809V89.6551Z" fill="#231F20"/>
<path d="M159.605 89.6551H166.501V82.7598H159.605V89.6551Z" fill="#231F20"/>
<path d="M49.1914 172.413H56.0884V165.516H49.1914V172.413Z" fill="#231F20"/>
<path d="M49.1914 193.102H56.0884V186.207H49.1914V193.102Z" fill="#231F20"/>
<path d="M49.1914 117.241H56.0884V110.344H49.1914V117.241Z" fill="#F47275"/>
<path d="M49.1914 110.344H56.0884V103.449H49.1914V110.344Z" fill="#231F20"/>
<path d="M49.1914 124.137H56.0884V117.241H49.1914V124.137Z" fill="#231F20"/>
<path d="M49.1914 137.93H56.0884V131.035H49.1914V137.93Z" fill="#231F20"/>
<path d="M49.1914 158.622H56.0884V151.725H49.1914V158.622Z" fill="#231F20"/>
<path d="M56.0898 82.7586H62.9852V75.8633H56.0898V82.7586Z" fill="#880C1A"/>
<path d="M194.02 110.345H200.915L200.914 103.449H194.02V110.345Z" fill="#231F20"/>
<path d="M194.02 117.241L200.914 117.24L200.915 110.345H194.02V117.241Z" fill="#CA585A"/>
<path d="M194.02 131.034H200.915L200.914 124.137L194.02 124.137V131.034Z" fill="#231F20"/>
<path d="M194.02 89.6551H200.915L200.914 82.7598H194.02V89.6551Z" fill="#231F20"/>
<path d="M194.02 82.7586H200.914V75.8633H194.02V82.7586Z" fill="#CA585A"/>
<path d="M187.121 82.7586H194.018V75.8633H187.121V82.7586Z" fill="#231F20"/>
<path d="M194.02 137.93H200.915V131.035H194.02V137.93Z" fill="#231F20"/>
<path d="M194.02 124.137L200.914 124.137V117.24L194.02 117.241V124.137Z" fill="#231F20"/>
<path d="M194.02 186.206H200.914V179.309H194.02V186.206Z" fill="#231F20"/>
<path d="M194.02 158.622H200.914V151.725H194.02V158.622Z" fill="#231F20"/>
<path d="M194.02 151.725H200.914L200.915 144.828H194.02V151.725Z" fill="#231F20"/>
<path d="M194.02 144.827H200.914L200.915 137.93H194.02V144.827Z" fill="#231F20"/>
<path d="M194.02 172.413H200.914V165.516H194.02V172.413Z" fill="#231F20"/>
<path d="M194.02 165.516L200.915 165.516L200.914 158.622H194.02V165.516Z" fill="#231F20"/>
<path d="M111.258 82.7586H118.153V75.8633H111.258V82.7586Z" fill="white"/>
<path d="M69.8789 82.7586H76.7759V75.8633H69.8789V82.7586Z" fill="#231F20"/>
<path d="M97.4648 82.7586H104.362V75.8633H97.4648V82.7586Z" fill="#231F20"/>
<path d="M104.363 82.7586H111.26V75.8633H104.363V82.7586Z" fill="white"/>
<path d="M49.1914 89.6551H56.0884V82.7598H49.1914V89.6551Z" fill="#231F20"/>
<path d="M62.9852 82.7586H69.8789V75.8633H62.9852V82.7586Z" fill="#880C1A"/>
<path d="M49.1914 82.7586H56.0884V75.8633H49.1914V82.7586Z" fill="#880C1A"/>
<path d="M118.156 82.7586H125.052V75.8633H118.156V82.7586Z" fill="white"/>
<path d="M152.707 82.7566H159.604L159.604 75.8621H152.707L152.707 82.7566Z" fill="white"/>
<path d="M159.605 82.7586H166.501V75.8633H159.605V82.7586Z" fill="white"/>
<path d="M166.501 82.7586H173.395V75.8633H166.501V82.7586Z" fill="#231F20"/>
<path d="M125.055 82.7586H131.952V75.8633H125.055V82.7586Z" fill="#231F20"/>
<path d="M138.914 82.7586H145.809V75.8633H138.914V82.7586Z" fill="#231F20"/>
<path d="M145.809 82.7586H152.706V75.8633H145.809V82.7586Z" fill="white"/>
<path d="M42.293 20.69H49.19V13.793H42.293V20.69Z" fill="#231F20"/>
<path d="M83.6719 20.69H90.5689V13.793H83.6719V20.69Z" fill="#C41132"/>
<path d="M90.5703 20.69H97.4656V13.793H90.5703V20.69Z" fill="#231F20"/>
<path d="M69.8789 20.69H76.7759V13.793H69.8789V20.69Z" fill="#C41132"/>
<path d="M62.9844 20.69H69.8789V13.793H62.9844V20.69Z" fill="#C41132"/>
<path d="M76.7773 20.69H83.6744V13.793H76.7773V20.69Z" fill="#C41132"/>
<path d="M56.0859 20.69H62.983V13.793H56.0859V20.69Z" fill="white"/>
<path d="M49.1914 20.69H56.0884V13.793H49.1914V20.69Z" fill="#ED1248"/>
<path d="M49.1914 27.5865H56.0884V20.69H49.1914V27.5865Z" fill="white"/>
<path d="M56.0859 27.5865H62.983V20.69H56.0859V27.5865Z" fill="#C41132"/>
<path d="M42.293 27.5865H49.19V20.69H42.293V27.5865Z" fill="#ED1248"/>
<path d="M69.8789 27.5865H76.7759V20.69H69.8789V27.5865Z" fill="#C41132"/>
<path d="M62.9844 27.5865H69.8789V20.69H62.9844V27.5865Z" fill="#C41132"/>
<path d="M35.3984 27.5865H42.293V20.69L35.3984 20.6895V27.5865Z" fill="#231F20"/>
<path d="M76.7773 27.5865H83.6744V20.69H76.7773V27.5865Z" fill="#231F20"/>
<path d="M83.6719 27.5865H90.5689V20.69H83.6719V27.5865Z" fill="#231F20"/>
<path d="M207.812 27.5865H214.71V20.6895H207.812V27.5865Z" fill="#231F20"/>
<path d="M194.02 27.5865H200.915V20.6895H194.02V27.5865Z" fill="#231F20"/>
<path d="M200.915 27.5865H207.811V20.6895H200.915V27.5865Z" fill="#231F20"/>
<path d="M256.086 158.622H262.983V151.725H256.086V158.622Z" fill="#231F20"/>
<path d="M90.5703 6.89531H97.4656V0H90.5703V6.89531Z" fill="#231F20"/>
<path d="M83.6719 6.89531H90.5689V0H83.6719V6.89531Z" fill="#231F20"/>
<path d="M69.8789 6.89531H76.7759V0H69.8789V6.89531Z" fill="#231F20"/>
<path d="M76.7773 6.89531H83.6744V0H76.7773V6.89531Z" fill="#231F20"/>
<path d="M62.9844 6.89531H69.8789V0H62.9844V6.89531Z" fill="#231F20"/>
<path d="M97.4648 13.7918H104.362V6.89648H97.4648V13.7918Z" fill="#231F20"/>
<path d="M90.5703 13.7918H97.4648V6.89648H90.5703V13.7918Z" fill="#ED1248"/>
<path d="M76.7773 13.7918H83.6744V6.89648H76.7773V13.7918Z" fill="#ED1248"/>
<path d="M69.8789 13.7918H76.7759V6.89648H69.8789V13.7918Z" fill="#ED1248"/>
<path d="M83.6719 13.7918H90.5689V6.89648H83.6719V13.7918Z" fill="#ED1248"/>
<path d="M62.9844 13.7918H69.8789V6.89648H62.9844V13.7918Z" fill="#ED1248"/>
<path d="M49.1914 13.7918H56.0884V6.89648H49.1914V13.7918Z" fill="#231F20"/>
<path d="M56.0859 13.7918H62.983V6.89648H56.0859V13.7918Z" fill="#231F20"/>
</svg>
