<svg width="127" height="200" viewBox="0 0 127 200" fill="none" xmlns="http://www.w3.org/2000/svg">
<path d="M86.957 165.217H91.3051V160.869H86.957V165.217Z" fill="#DC8A0D"/>
<path d="M82.6094 165.217H86.957V160.869H82.6094V165.217Z" fill="#231F20"/>
<path d="M91.3051 165.217H95.6516V160.869H91.3051V165.217Z" fill="#DC8A0D"/>
<path d="M104.348 165.217H108.696V160.869H104.348V165.217Z" fill="#231F20"/>
<path d="M95.6516 165.217H100V160.869H95.6516V165.217Z" fill="#231F20"/>
<path d="M108.696 165.217H113.042V160.869H108.696V165.217Z" fill="#FAB20B"/>
<path d="M43.4804 160.869V165.217H47.8274V160.869H43.4804Z" fill="#231F20"/>
<path d="M47.8242 165.217H52.1723V160.869H47.8242V165.217Z" fill="#FAB20B"/>
<path d="M56.5234 165.217H60.8715V160.869H56.5234V165.217Z" fill="#FAB20B"/>
<path d="M60.8715 165.217H65.2191V160.869H60.8715V165.217Z" fill="#231F20"/>
<path d="M52.1757 165.217H56.5234V160.869H52.1757V165.217Z" fill="#231F20"/>
<path d="M13.043 34.7817H17.39V30.4336H13.043V34.7817Z" fill="#231F20"/>
<path d="M39.1289 34.7817H43.477V30.4336H39.1289V34.7817Z" fill="#FAB20B"/>
<path d="M52.1758 34.7817H56.5239V30.4336H52.1758V34.7817Z" fill="#FAB20B"/>
<path d="M34.7812 34.7817H39.1289V30.4336H34.7812V34.7817Z" fill="#231F20"/>
<path d="M47.8242 34.7817H52.1723V30.4336H47.8242V34.7817Z" fill="#FAB20B"/>
<path d="M43.4805 34.7817H47.8275V30.4336H43.4805V34.7817Z" fill="#FAB20B"/>
<path d="M26.0859 34.7817H30.434V30.4336H26.0859V34.7817Z" fill="#231F20"/>
<path d="M113.042 165.217H117.391V160.869H113.042V165.217Z" fill="#231F20"/>
<path d="M17.39 34.7817H21.7387V30.4336H17.39V34.7817Z" fill="#FCCB06"/>
<path d="M21.7387 34.7817H26.0859V30.4336H21.7387V34.7817Z" fill="#FAB20B"/>
<path d="M65.2188 34.7817H69.5658V30.4336H65.2188V34.7817Z" fill="#231F20"/>
<path d="M56.5239 34.7817H60.8715V30.4336H56.5239V34.7817Z" fill="#FAB20B"/>
<path d="M60.8715 34.7817H65.2188V30.4336H60.8715V34.7817Z" fill="#FCCB06"/>
<path d="M30.434 34.7817H34.7812V30.4336H30.434V34.7817Z" fill="#FAB20B"/>
<path d="M17.3906 30.4349H21.7387V26.0879H17.3906V30.4349Z" fill="#231F20"/>
<path d="M21.7387 30.4349H26.0864V26.0879H21.7387V30.4349Z" fill="#FCCB06"/>
<path d="M26.0864 30.4349H30.434V26.0879H26.0864V30.4349Z" fill="#FAB20B"/>
<path d="M52.1758 30.4349H56.5239V26.0879H52.1758V30.4349Z" fill="#FAB20B"/>
<path d="M56.5239 30.4349H60.8715V26.0879H56.5239V30.4349Z" fill="#FCCB06"/>
<path d="M60.8715 30.4349H65.2192V26.0879H60.8715V30.4349Z" fill="#231F20"/>
<path d="M34.7812 30.4349H39.1294V26.0879H34.7812V30.4349Z" fill="#FAB20B"/>
<path d="M39.1294 30.4349H43.477V26.0879H39.1294V30.4349Z" fill="#FAB20B"/>
<path d="M47.8242 30.4349H52.1723V26.0879H47.8242V30.4349Z" fill="#FAB20B"/>
<path d="M30.434 30.4349H34.7812V26.0879H30.434V30.4349Z" fill="#FAB20B"/>
<path d="M43.4805 30.4349H47.8275V26.0879H43.4805V30.4349Z" fill="#FAB20B"/>
<path d="M117.391 143.477H121.739V139.129H117.391V143.477Z" fill="#231F20"/>
<path d="M117.391 126.087H121.739V121.74H117.391V126.087Z" fill="#231F20"/>
<path d="M117.391 139.13H121.739V134.783H117.391V139.13Z" fill="#231F20"/>
<path d="M65.2188 39.1313H69.5658V34.7832H65.2188V39.1313Z" fill="#DC8A0D"/>
<path d="M69.5658 39.1313H73.9145V34.7832H69.5658V39.1313Z" fill="#231F20"/>
<path d="M26.0859 39.1313H30.434V34.7832H26.0859V39.1313Z" fill="#231F20"/>
<path d="M60.8711 39.1313H65.2188V34.7832H60.8711V39.1313Z" fill="#DC8A0D"/>
<path d="M8.69531 39.1313H13.0434V34.7832H8.69531V39.1313Z" fill="#231F20"/>
<path d="M13.0434 39.1313H17.39V34.7832H13.0434V39.1313Z" fill="#FCCB06"/>
<path d="M17.39 39.1313H21.7387V34.7832H17.39V39.1313Z" fill="#FAB20B"/>
<path d="M47.8242 39.1313H52.1723V34.7832H47.8242V39.1313Z" fill="#FAB20B"/>
<path d="M43.4805 39.1313H47.8275V34.7832H43.4805V39.1313Z" fill="#FAB20B"/>
<path d="M52.1758 39.1313H56.5239V34.7832H52.1758V39.1313Z" fill="#FAB20B"/>
<path d="M56.5239 39.1313H60.8711V34.7832H56.5239V39.1313Z" fill="#231F20"/>
<path d="M30.434 39.1313H34.7806V34.7832H30.434V39.1313Z" fill="#FAB20B"/>
<path d="M21.7387 39.1313H26.0859V34.7832H21.7387V39.1313Z" fill="#FAB20B"/>
<path d="M39.1289 39.1313H43.477V34.7832H39.1289V39.1313Z" fill="#FAB20B"/>
<path d="M34.7806 39.1313H39.1289V34.7832H34.7806V39.1313Z" fill="#231F20"/>
<path d="M47.8242 156.521H52.1723V152.174H47.8242V156.521Z" fill="#A94019"/>
<path d="M52.1758 156.521H56.5239V152.174H52.1758V156.521Z" fill="#231F20"/>
<path d="M56.5239 156.521H60.8715V152.174H56.5239V156.521Z" fill="#A94019"/>
<path d="M82.6094 156.521H86.9565V152.174H82.6094V156.521Z" fill="#A94019"/>
<path d="M78.2619 156.521H82.6094V152.174H78.2619V156.521Z" fill="#231F20"/>
<path d="M60.8715 156.521H65.2192V152.174H60.8715V156.521Z" fill="#231F20"/>
<path d="M43.4805 156.521H47.8275V152.174H43.4805V156.521Z" fill="#231F20"/>
<path d="M108.695 152.174H113.042V147.826H108.695V152.174Z" fill="#FCCB06"/>
<path d="M108.695 117.391H113.042V113.043H108.695V117.391Z" fill="#231F20"/>
<path d="M108.695 121.738H113.042V117.391H108.695V121.738Z" fill="#231F20"/>
<path d="M108.695 130.434H113.042V126.086H108.695V130.434Z" fill="#231F20"/>
<path d="M108.695 134.782H113.042V130.434H108.695V134.782Z" fill="#231F20"/>
<path d="M86.9688 156.521H91.3169V152.174H86.9688V156.521Z" fill="#DC8A0D"/>
<path d="M108.695 126.087H113.042V121.74H108.695V126.087Z" fill="#231F20"/>
<path d="M100 156.521H104.348V152.174H100V156.521Z" fill="#DC8A0D"/>
<path d="M95.6522 156.521H100V152.174H95.6522V156.521Z" fill="#231F20"/>
<path d="M91.2656 156.521H95.6137V152.174H91.2656V156.521Z" fill="#DC8A0D"/>
<path d="M104.348 156.521H108.696L108.695 152.174L104.348 152.174V156.521Z" fill="#A94019"/>
<path d="M108.695 139.13H113.042V134.783H108.695V139.13Z" fill="#231F20"/>
<path d="M108.695 147.826H113.042V143.479H108.695V147.826Z" fill="#231F20"/>
<path d="M108.695 143.477H113.042V139.129H108.695V143.477Z" fill="#231F20"/>
<path d="M108.696 156.521H113.042V152.174H108.695L108.696 156.521Z" fill="#A94019"/>
<path d="M113.042 152.174H117.391V147.826H113.042V152.174Z" fill="#231F20"/>
<path d="M113.042 156.521H117.391V152.174H113.042V156.521Z" fill="#231F20"/>
<path d="M113.042 121.738H117.391V117.391L113.042 117.391V121.738Z" fill="#231F20"/>
<path d="M113.042 160.869H117.391L117.391 156.521H113.042L113.042 160.869Z" fill="#231F20"/>
<path d="M82.6094 160.869H86.957L86.9565 156.521H82.6094L82.6094 160.869Z" fill="#DC8A0D"/>
<path d="M91.3051 160.869H95.6516L95.6522 156.521L91.3046 156.521L91.3051 160.869Z" fill="#DC8A0D"/>
<path d="M86.957 160.869H91.3051L91.3046 156.521L86.9565 156.521L86.957 160.869Z" fill="#DC8A0D"/>
<path d="M78.2619 160.87L82.6094 160.869L82.6094 156.521H78.2619V160.87Z" fill="#231F20"/>
<path d="M100 160.869L104.348 160.869L104.348 156.521H100L100 160.869Z" fill="#231F20"/>
<path d="M104.348 160.869H108.696L108.696 156.521H104.348L104.348 160.869Z" fill="#DC8A0D"/>
<path d="M108.696 160.869H113.042L113.042 156.521H108.696L108.696 160.869Z" fill="#A94019"/>
<path d="M95.6516 160.869H100L100 156.521H95.6522L95.6516 160.869Z" fill="#231F20"/>
<path d="M47.8242 160.869H52.1723L52.1723 156.521H47.8242L47.8242 160.869Z" fill="#FAB20B"/>
<path d="M43.4804 160.869H47.8274L47.8275 156.521H43.4805L43.4804 160.869Z" fill="#231F20"/>
<path d="M60.8715 160.869H65.2191L65.2192 156.521H60.8715L60.8715 160.869Z" fill="#231F20"/>
<path d="M52.1757 160.869H56.5234L56.5239 156.521H52.1758L52.1757 160.869Z" fill="#231F20"/>
<path d="M56.5234 160.869H60.8715L60.8715 156.521H56.5239L56.5234 160.869Z" fill="#FAB20B"/>
<path d="M52.1758 21.7387H56.5239V17.3906H52.1758V21.7387Z" fill="#231F20"/>
<path d="M43.4805 21.7387H47.8275V17.3906H43.4805V21.7387Z" fill="#231F20"/>
<path d="M39.1289 21.7387H43.477V17.3906H39.1289V21.7387Z" fill="#231F20"/>
<path d="M47.8242 21.7387H52.1723V17.3906H47.8242V21.7387Z" fill="#231F20"/>
<path d="M34.7812 21.7387H39.1289V17.3906H34.7812V21.7387Z" fill="#231F20"/>
<path d="M30.4336 21.7387H34.7812V17.3906H30.4336V21.7387Z" fill="#231F20"/>
<path d="M104.348 173.913H108.696V169.566H104.348V173.913Z" fill="#231F20"/>
<path d="M113.043 173.913H117.391V169.566H113.043V173.913Z" fill="#231F20"/>
<path d="M108.696 173.913H113.043V169.566H108.696V173.913Z" fill="#FEE795"/>
<path d="M95.6522 178.26H100V173.912H95.6522V178.26Z" fill="#231F20"/>
<path d="M91.3046 178.26H95.6522V173.912H91.3046V178.26Z" fill="#FEE795"/>
<path d="M86.957 178.26H91.3046V173.912H86.957V178.26Z" fill="#231F20"/>
<path d="M108.695 178.26H113.042V173.912H108.695V178.26Z" fill="#FEE795"/>
<path d="M104.348 178.26H108.695V173.912H104.348V178.26Z" fill="#231F20"/>
<path d="M113.042 178.26H117.391V173.912H113.042V178.26Z" fill="#231F20"/>
<path d="M47.8242 178.26H52.1723V173.912H47.8242V178.26Z" fill="#FEE795"/>
<path d="M43.4805 173.912V178.26H47.8275V173.912H43.4805Z" fill="#231F20"/>
<path d="M52.1758 178.26H56.5239V173.912H52.1758V178.26Z" fill="#231F20"/>
<path d="M60.8711 178.26H65.2192V173.912H60.8711V178.26Z" fill="#231F20"/>
<path d="M56.5239 178.26H60.8711V173.912H56.5239V178.26Z" fill="#FEE795"/>
<path d="M95.6522 173.912H100V169.564H95.6522V173.912Z" fill="#231F20"/>
<path d="M121.738 130.434H126.086V126.086H121.738V130.434Z" fill="#231F20"/>
<path d="M121.738 134.782H126.086V130.434H121.738V134.782Z" fill="#231F20"/>
<path d="M91.3046 173.912H95.6522V169.564H91.3046V173.912Z" fill="#FEE795"/>
<path d="M91.3046 169.564H95.6522L95.6516 165.217H91.3051L91.3046 169.564Z" fill="#DC8A0D"/>
<path d="M95.6522 169.564H100L100 165.217H95.6516L95.6522 169.564Z" fill="#231F20"/>
<path d="M113.043 169.565H117.391L117.391 165.217H113.042L113.043 169.565Z" fill="#231F20"/>
<path d="M108.695 169.565H113.043L113.042 165.217H108.696L108.695 169.565Z" fill="#FAB20B"/>
<path d="M104.348 169.565H108.695L108.696 165.217H104.348L104.348 169.565Z" fill="#231F20"/>
<path d="M86.957 169.565L91.3046 169.564L91.3051 165.217H86.957L86.957 169.565Z" fill="#231F20"/>
<path d="M47.8242 169.565H52.1723L52.1723 165.217H47.8242L47.8242 169.565Z" fill="#FAB20B"/>
<path d="M43.4804 165.217L43.4805 169.565H47.8275L47.8274 165.217H43.4804Z" fill="#231F20"/>
<path d="M52.1758 169.565H56.5239L56.5234 165.217H52.1757L52.1758 169.565Z" fill="#231F20"/>
<path d="M60.8711 169.565H65.2192L65.2191 165.217H60.8715L60.8711 169.565Z" fill="#231F20"/>
<path d="M56.5239 169.565H60.8711L60.8715 165.217H56.5234L56.5239 169.565Z" fill="#FAB20B"/>
<path d="M47.8242 173.913H52.1723V169.566H47.8242V173.913Z" fill="#FEE795"/>
<path d="M60.8711 173.913H65.2192V169.566H60.8711V173.913Z" fill="#231F20"/>
<path d="M56.5234 173.913H60.8711V169.566H56.5234V173.913Z" fill="#FEE795"/>
<path d="M86.957 173.912H91.3046V169.564L86.957 169.565V173.912Z" fill="#231F20"/>
<path d="M43.4805 169.566V173.913H47.8275V169.566H43.4805Z" fill="#231F20"/>
<path d="M52.1758 173.913H56.5234V169.566H52.1758V173.913Z" fill="#231F20"/>
<path d="M21.7387 26.0879H26.0864V21.7402H21.7383L21.7387 26.0879Z" fill="#231F20"/>
<path d="M26.0864 26.0879H30.434V21.7402H26.0864V26.0879Z" fill="#231F20"/>
<path d="M34.7812 26.0879H39.1294V21.7402H34.7812V26.0879Z" fill="#FCCB06"/>
<path d="M30.434 26.0879H34.7812V21.7402H30.434V26.0879Z" fill="#FCCB06"/>
<path d="M39.1294 26.0879H43.477V21.7402H39.1294V26.0879Z" fill="#FCCB06"/>
<path d="M43.4805 26.0879H47.8275V21.7402H43.4805V26.0879Z" fill="#FCCB06"/>
<path d="M56.5239 26.0879H60.8715V21.7402H56.5234L56.5239 26.0879Z" fill="#231F20"/>
<path d="M47.8242 26.0879H52.1723V21.7402H47.8242V26.0879Z" fill="#FCCB06"/>
<path d="M52.1758 26.0879H56.5239L56.5234 21.7402H52.1758V26.0879Z" fill="#FCCB06"/>
<path d="M52.1758 117.391H56.5239V113.043H52.1758V117.391Z" fill="#A94019"/>
<path d="M56.5234 65.2181H60.8715V60.8711H56.5234V65.2181Z" fill="#231F20"/>
<path d="M82.6094 113.042H86.9565V108.695H82.6094V113.042Z" fill="#FAB20B"/>
<path d="M82.6094 108.695H86.9565V104.348H82.6094V108.695Z" fill="#CB5D19"/>
<path d="M82.6094 117.391H86.9565V113.042H82.6094V117.391Z" fill="#FAB20B"/>
<path d="M82.6094 104.348H86.9565L86.9564 100H82.6094L82.6094 104.348Z" fill="#231F20"/>
<path d="M82.6094 121.738H86.9565V117.391H82.6094V121.738Z" fill="#A94019"/>
<path d="M52.1758 65.2181H56.5234V60.8711H52.1758V65.2181Z" fill="#A94019"/>
<path d="M82.6094 126.087H86.9565V121.74H82.6094V126.087Z" fill="#A94019"/>
<path d="M39.1289 65.2181H43.477V60.8711H39.1289V65.2181Z" fill="#231F20"/>
<path d="M47.8242 65.2181H52.1723V60.8711H47.8242V65.2181Z" fill="#FAB20B"/>
<path d="M43.4805 65.2181H47.8275V60.8711H43.4805V65.2181Z" fill="#DC8A0D"/>
<path d="M30.4336 65.2181H34.7806V60.8711H30.4336V65.2181Z" fill="#231F20"/>
<path d="M17.3906 65.2181H21.7387V60.8711H17.3906V65.2181Z" fill="#E6C26F"/>
<path d="M17.3906 69.5649H21.7387V65.2168H17.3906V69.5649Z" fill="#231F20"/>
<path d="M26.0859 65.2181H30.4336V60.8711H26.0859V65.2181Z" fill="#E6C26F"/>
<path d="M21.7387 65.2181H26.0859V60.8711H21.7387V65.2181Z" fill="#E6C26F"/>
<path d="M21.7387 69.5649H26.0864V65.2168H21.7387V69.5649Z" fill="#231F20"/>
<path d="M26.0864 69.5649H30.434V65.2168H26.0864V69.5649Z" fill="#231F20"/>
<path d="M82.6094 130.434H86.9565V126.086H82.6094V130.434Z" fill="#A94019"/>
<path d="M39.1289 69.5649H43.477V65.2168H39.1289V69.5649Z" fill="#231F20"/>
<path d="M56.5234 69.5649H60.8715V65.2168H56.5234V69.5649Z" fill="#231F20"/>
<path d="M43.4805 69.5649H47.8275V65.2168H43.4805V69.5649Z" fill="#DC8A0D"/>
<path d="M47.8242 69.5649H52.1723V65.2168H47.8242V69.5649Z" fill="#A94019"/>
<path d="M52.1758 69.5649H56.5234V65.2168H52.1758V69.5649Z" fill="#A94019"/>
<path d="M56.5234 130.434H60.8715V126.086H56.5234V130.434Z" fill="#A94019"/>
<path d="M60.8715 130.434H65.2192V126.086H60.8715V130.434Z" fill="#FAB20B"/>
<path d="M39.1289 130.435H43.477V126.088H39.1289V130.435Z" fill="#742415"/>
<path d="M43.4805 126.087V130.434H47.8275V126.086L43.4805 126.087Z" fill="#A94019"/>
<path d="M47.8242 130.434H52.1723V126.086H47.8242V130.434Z" fill="#FAB20B"/>
<path d="M78.2619 130.434H82.6094V126.086H78.2619V130.434Z" fill="#A94019"/>
<path d="M65.2192 130.434H69.5658V126.086H65.2192V130.434Z" fill="#FAB20B"/>
<path d="M73.9141 130.434H78.2619V126.086H73.9141V130.434Z" fill="#A94019"/>
<path d="M69.5658 130.434H73.9141V126.086H69.5658V130.434Z" fill="#FAB20B"/>
<path d="M52.1758 130.434H56.5234V126.086H52.1758V130.434Z" fill="#FAB20B"/>
<path d="M34.7812 130.435H39.1289V126.088H34.7812V130.435Z" fill="#231F20"/>
<path d="M13.043 60.8696H17.39V56.5215H13.043V60.8696Z" fill="#FEE795"/>
<path d="M13.043 69.5649H17.3906V65.2168H13.043V69.5649Z" fill="#231F20"/>
<path d="M13.043 65.2181H17.3906V60.8711H13.043V65.2181Z" fill="#E6C26F"/>
<path d="M52.1758 60.8696H56.5239V56.5215H52.1758V60.8696Z" fill="#FAB20B"/>
<path d="M39.1289 60.8696H43.477V56.5215H39.1289V60.8696Z" fill="#231F20"/>
<path d="M47.8242 60.8696H52.1723V56.5215H47.8242V60.8696Z" fill="#FAB20B"/>
<path d="M43.4805 60.8696H47.8275V56.5215H43.4805V60.8696Z" fill="#DC8A0D"/>
<path d="M30.4336 60.8696H34.7806V56.5215H30.4336V60.8696Z" fill="#E6C26F"/>
<path d="M26.0859 60.8696H30.4336V56.5215H26.0859V60.8696Z" fill="#FEE795"/>
<path d="M56.5239 60.8696H60.8703V56.5215H56.5239V60.8696Z" fill="#231F20"/>
<path d="M34.7806 60.8696H39.1289V56.5215H34.7806V60.8696Z" fill="#231F20"/>
<path d="M17.39 60.8696H21.7387V56.5215H17.39V60.8696Z" fill="#FEE795"/>
<path d="M21.7387 60.8696H26.0859V56.5215H21.7387V60.8696Z" fill="#FEE795"/>
<path d="M43.4805 134.783V139.13H47.8275V134.783H43.4805Z" fill="#742415"/>
<path d="M39.1289 139.13H43.477V134.783H39.1289V139.13Z" fill="#231F20"/>
<path d="M47.8242 139.13H52.1723V134.783H47.8242V139.13Z" fill="#FAB20B"/>
<path d="M52.1758 139.13H56.5239V134.783H52.1758V139.13Z" fill="#FAB20B"/>
<path d="M60.8711 139.13H65.2192V134.783H60.8711V139.13Z" fill="#FAB20B"/>
<path d="M65.2192 139.13H69.5658V134.783H65.2192V139.13Z" fill="#A94019"/>
<path d="M56.5239 139.13H60.8711V134.783H56.5239V139.13Z" fill="#FAB20B"/>
<path d="M78.2619 134.784H82.61V130.436H78.2619V134.784Z" fill="#A94019"/>
<path d="M52.1758 134.782H56.5239L56.5234 130.434H52.1758V134.782Z" fill="#FAB20B"/>
<path d="M65.2188 134.782H69.5658V130.434H65.2192L65.2188 134.782Z" fill="#FAB20B"/>
<path d="M73.9141 134.782H78.2622L78.2619 130.434H73.9141V134.782Z" fill="#FAB20B"/>
<path d="M56.5239 134.782H60.8715V130.434H56.5234L56.5239 134.782Z" fill="#FAB20B"/>
<path d="M60.8715 134.782H65.2188L65.2192 130.434H60.8715V134.782Z" fill="#FAB20B"/>
<path d="M69.5658 134.782H73.9141V130.434H69.5658V134.782Z" fill="#FAB20B"/>
<path d="M86.957 134.784H91.3051V130.436H86.957V134.784Z" fill="#FAB20B"/>
<path d="M86.9565 130.434H91.3051V126.086H86.9565V130.434Z" fill="#A94019"/>
<path d="M82.61 134.784H86.957V130.436H82.61V134.784Z" fill="#A94019"/>
<path d="M86.9565 126.087H91.3051V121.74H86.9565V126.087Z" fill="#A94019"/>
<path d="M47.8242 134.782H52.1723V130.434H47.8242V134.782Z" fill="#A94019"/>
<path d="M43.4805 130.434V134.782H47.8275V130.434H43.4805Z" fill="#A94019"/>
<path d="M39.1289 134.782H43.477V130.434H39.1289V134.782Z" fill="#231F20"/>
<path d="M86.9565 121.738H91.3051V117.391L86.9565 117.391V121.738Z" fill="#FAB20B"/>
<path d="M86.9565 113.042H91.3051V108.695H86.9565V113.042Z" fill="#FAB20B"/>
<path d="M86.9565 108.695H91.3051V104.348H86.9565V108.695Z" fill="#FCCB06"/>
<path d="M86.9565 117.391L91.3051 117.391V113.042H86.9565V117.391Z" fill="#FAB20B"/>
<path d="M86.9565 104.348H91.3051L91.3051 100H86.9564L86.9565 104.348Z" fill="#231F20"/>
<path d="M56.5234 104.348H60.8715V100H56.5234V104.348Z" fill="#A94019"/>
<path d="M34.7812 113.042H39.1294V108.695H34.7812V113.042Z" fill="#231F20"/>
<path d="M39.1289 82.6079H43.477V78.2598H39.1289V82.6079Z" fill="#231F20"/>
<path d="M43.4805 82.6079H47.8275V78.2598H43.4805V82.6079Z" fill="#742415"/>
<path d="M34.7812 104.348H39.1293V100H34.7812V104.348Z" fill="#231F20"/>
<path d="M34.7812 108.695H39.1294L39.1293 104.348H34.7812L34.7812 108.695Z" fill="#231F20"/>
<path d="M47.8242 82.6079H52.1723V78.2598H47.8242V82.6079Z" fill="#FAB20B"/>
<path d="M52.1758 82.6079H56.5239V78.2598H52.1758V82.6079Z" fill="#FAB20B"/>
<path d="M65.2188 108.696H69.5658V104.348H65.2188V108.696Z" fill="#FCCB06"/>
<path d="M65.2188 104.348H69.5658L69.5657 100H65.2187L65.2188 104.348Z" fill="#231F20"/>
<path d="M56.5239 82.6079H60.8715V78.2598H56.5239V82.6079Z" fill="#231F20"/>
<path d="M69.5658 104.348L73.9145 104.348V100H69.5657L69.5658 104.348Z" fill="#231F20"/>
<path d="M65.2188 113.042H69.5658V108.696H65.2188V113.042Z" fill="#FAB20B"/>
<path d="M39.1294 113.042H43.477V108.695H39.1294V113.042Z" fill="#A94019"/>
<path d="M47.8242 117.391H52.1723V113.043H47.8242V117.391Z" fill="#FAB20B"/>
<path d="M43.4805 113.043V117.391H47.8275V113.043H43.4805Z" fill="#FAB20B"/>
<path d="M39.1289 117.391H43.477V113.042H39.1294L39.1289 117.391Z" fill="#A94019"/>
<path d="M69.5658 113.042H73.9145V108.695L69.5658 108.696V113.042Z" fill="#FAB20B"/>
<path d="M65.2188 117.391H69.5658V113.042H65.2188V117.391Z" fill="#FAB20B"/>
<path d="M69.5658 117.391H73.9145V113.042H69.5658V117.391Z" fill="#FAB20B"/>
<path d="M60.8711 117.391H65.2188V113.042L60.8711 113.043V117.391Z" fill="#A94019"/>
<path d="M56.5239 117.391H60.8711V113.043H56.5239V117.391Z" fill="#A94019"/>
<path d="M60.8711 113.043L65.2188 113.042V108.696L60.8711 108.695V113.043Z" fill="#FAB20B"/>
<path d="M43.4805 100H47.8275V95.6523H43.4805V100Z" fill="#DC8A0D"/>
<path d="M43.4805 95.6523H47.8275V91.3047H43.4805V95.6523Z" fill="#DC8A0D"/>
<path d="M56.5239 78.2598H60.8715V73.9121H56.5234L56.5239 78.2598Z" fill="#231F20"/>
<path d="M43.4805 91.3047H47.8275V86.957H43.4805V91.3047Z" fill="#742415"/>
<path d="M43.4804 104.348H47.8274L47.8275 100H43.4805L43.4804 104.348Z" fill="#FAB20B"/>
<path d="M52.1758 91.3041H56.5239V86.957H52.1758V91.3041Z" fill="#FAB20B"/>
<path d="M56.5234 108.696L60.8711 108.695L60.8715 104.348H56.5234L56.5234 108.696Z" fill="#FAB20B"/>
<path d="M60.8711 108.695L65.2188 108.696V104.348L60.8715 104.348L60.8711 108.695Z" fill="#FAB20B"/>
<path d="M52.1758 108.696H56.5234L56.5234 104.348L52.1758 104.348V108.696Z" fill="#FAB20B"/>
<path d="M47.8242 108.696H52.1723V104.348H47.8242V108.696Z" fill="#FAB20B"/>
<path d="M47.8242 104.348H52.1723L52.1723 100H47.8242L47.8242 104.348Z" fill="#FAB20B"/>
<path d="M52.1758 100L56.5234 100L56.5239 95.6523H52.1758V100Z" fill="#A94019"/>
<path d="M47.8242 100H52.1723L52.1723 95.6523H47.8242L47.8242 100Z" fill="#FAB20B"/>
<path d="M47.8242 95.6523H52.1723V91.3047H47.8242V95.6523Z" fill="#FAB20B"/>
<path d="M52.1758 95.6523H56.5239V91.3041H52.1758V95.6523Z" fill="#FAB20B"/>
<path d="M56.5239 91.3041H60.8715V86.957H56.5239V91.3041Z" fill="#231F20"/>
<path d="M56.5234 100H60.8715L60.8715 95.6523H56.5239L56.5234 100Z" fill="#CB5D19"/>
<path d="M52.1758 104.348L56.5234 104.348V100L52.1758 100V104.348Z" fill="#FAB20B"/>
<path d="M56.5239 95.6523H60.8715V91.3041H56.5239V95.6523Z" fill="#231F20"/>
<path d="M69.5658 139.13H73.9145V134.783H69.5658V139.13Z" fill="#A94019"/>
<path d="M47.8242 91.3047H52.1723V86.957H47.8242V91.3047Z" fill="#A94019"/>
<path d="M39.1293 104.348H43.477V100H39.1293V104.348Z" fill="#CB5D19"/>
<path d="M43.4805 108.696H47.8275L47.8274 104.348H43.4804L43.4805 108.696Z" fill="#A94019"/>
<path d="M39.1294 108.695H43.477L43.477 104.348H39.1293L39.1294 108.695Z" fill="#A94019"/>
<path d="M39.1293 100H43.477L43.477 95.6523H39.1289L39.1293 100Z" fill="#231F20"/>
<path d="M39.1289 95.6523H43.477V91.3047H39.1289V95.6523Z" fill="#231F20"/>
<path d="M43.4805 113.043H47.8275V108.696H43.4805V113.043Z" fill="#A94019"/>
<path d="M52.1758 113.043H56.5239L56.5234 108.696H52.1758V113.043Z" fill="#FAB20B"/>
<path d="M56.5239 113.043H60.8711V108.695L56.5234 108.696L56.5239 113.043Z" fill="#A94019"/>
<path d="M39.1289 91.3047H43.477V86.957H39.1289V91.3047Z" fill="#231F20"/>
<path d="M47.8242 113.043H52.1723V108.696H47.8242V113.043Z" fill="#FAB20B"/>
<path d="M52.1758 86.957H56.5239V82.6094H52.1758V86.957Z" fill="#FAB20B"/>
<path d="M60.8715 100H65.2187L65.2192 95.6523H60.8715L60.8715 100Z" fill="#231F20"/>
<path d="M47.8242 86.957H52.1723V82.6094H47.8242V86.957Z" fill="#A94019"/>
<path d="M43.4805 86.957H47.8275V82.6094H43.4805V86.957Z" fill="#742415"/>
<path d="M39.1289 86.957H43.477V82.6094H39.1289V86.957Z" fill="#231F20"/>
<path d="M56.5239 86.957H60.8715V82.6094H56.5239V86.957Z" fill="#231F20"/>
<path d="M60.8715 104.348L65.2188 104.348L65.2187 100H60.8715V104.348Z" fill="#CB5D19"/>
<path d="M69.5658 108.696L73.9145 108.695L73.9145 104.348L69.5658 104.348V108.696Z" fill="#CB5D19"/>
<path d="M34.7812 126.088H39.1289L39.1293 121.738H34.7812L34.7812 126.088Z" fill="#231F20"/>
<path d="M39.1289 126.088H43.477L43.477 121.738H39.1293L39.1289 126.088Z" fill="#FAB20B"/>
<path d="M39.1289 73.9134H43.477V69.5664H39.1289V73.9134Z" fill="#231F20"/>
<path d="M43.4805 73.9134H47.8275V69.5664H43.4805V73.9134Z" fill="#DC8A0D"/>
<path d="M43.4804 121.738L43.4805 126.087L47.8275 126.086L47.8274 121.738H43.4804Z" fill="#FAB20B"/>
<path d="M78.2618 104.348L82.6094 104.348L82.6094 100H78.2618V104.348Z" fill="#231F20"/>
<path d="M78.2619 108.696L82.6094 108.695V104.348L78.2618 104.348L78.2619 108.696Z" fill="#CB5D19"/>
<path d="M47.8242 73.9134H52.1723V69.5664H47.8242V73.9134Z" fill="#A94019"/>
<path d="M78.2619 117.391H82.6094V113.042L78.2619 113.043V117.391Z" fill="#FAB20B"/>
<path d="M78.2619 113.043L82.6094 113.042V108.695L78.2619 108.696V113.043Z" fill="#A94019"/>
<path d="M56.5234 126.087H60.8715V121.74H56.5234V126.087Z" fill="#A94019"/>
<path d="M52.1758 126.087H56.5234V121.74H52.1758V126.087Z" fill="#A94019"/>
<path d="M60.8715 126.087H65.2192V121.74H60.8715V126.087Z" fill="#A94019"/>
<path d="M78.2619 121.738H82.6094V117.391H78.2619V121.738Z" fill="#A94019"/>
<path d="M47.8242 126.087H52.1723V121.74H47.8242V126.087Z" fill="#FAB20B"/>
<path d="M73.9141 126.087H78.2622V121.74H73.9141V126.087Z" fill="#A94019"/>
<path d="M78.2622 126.087H82.6094V121.74H78.2622V126.087Z" fill="#A94019"/>
<path d="M65.2192 126.087H69.5658V121.74H65.2192V126.087Z" fill="#FAB20B"/>
<path d="M69.5658 126.087H73.9141V121.74H69.5658V126.087Z" fill="#FAB20B"/>
<path d="M34.7812 117.391H39.1289L39.1294 113.042H34.7812V117.391Z" fill="#231F20"/>
<path d="M52.1758 73.9134H56.5239V69.5664H52.1758V73.9134Z" fill="#A94019"/>
<path d="M52.1758 78.2598H56.5239L56.5234 73.9121H52.1758V78.2598Z" fill="#FAB20B"/>
<path d="M39.1293 121.738H43.477L43.477 117.391H39.1289L39.1293 121.738Z" fill="#FAB20B"/>
<path d="M43.4805 117.391L43.4804 121.738H47.8274L47.8275 117.391H43.4805Z" fill="#FAB20B"/>
<path d="M47.8242 121.738H52.1723V117.391H47.8242V121.738Z" fill="#A94019"/>
<path d="M34.7812 121.738H39.1293L39.1289 117.391H34.7812L34.7812 121.738Z" fill="#231F20"/>
<path d="M39.1289 78.2598H43.477V73.9121H39.1289V78.2598Z" fill="#231F20"/>
<path d="M43.4805 78.2598H47.8275V73.9121H43.4805V78.2598Z" fill="#DC8A0D"/>
<path d="M47.8242 78.2598H52.1723V73.9121H47.8242V78.2598Z" fill="#FAB20B"/>
<path d="M52.1758 121.738H56.5239V117.391H52.1758V121.738Z" fill="#A94019"/>
<path d="M56.5239 121.738H60.8715L60.8711 117.391H56.5239V121.738Z" fill="#A94019"/>
<path d="M56.5239 73.9134H60.8715V69.5664H56.5239V73.9134Z" fill="#231F20"/>
<path d="M69.5664 121.738H73.9145V117.391H69.5658L69.5664 121.738Z" fill="#FAB20B"/>
<path d="M65.2188 121.738H69.5664L69.5658 117.391H65.2188V121.738Z" fill="#A94019"/>
<path d="M73.9145 121.738H78.2619V117.391H73.9145V121.738Z" fill="#FAB20B"/>
<path d="M60.8715 121.738H65.2188V117.391H60.8711L60.8715 121.738Z" fill="#A94019"/>
<path d="M73.9145 108.695L78.2619 108.696L78.2618 104.348L73.9145 104.348L73.9145 108.695Z" fill="#CB5D19"/>
<path d="M73.9145 117.391H78.2619V113.043L73.9145 113.042V117.391Z" fill="#FAB20B"/>
<path d="M73.9145 104.348L78.2618 104.348V100L73.9145 100V104.348Z" fill="#231F20"/>
<path d="M73.9145 113.042L78.2619 113.043V108.696L73.9145 108.695V113.042Z" fill="#A94019"/>
<path d="M0 52.1743H4.34811V47.8262H0V52.1743Z" fill="#231F20"/>
<path d="M4.34811 47.8262L8.69576 47.8255V43.4785H4.34766L4.34811 47.8262Z" fill="#231F20"/>
<path d="M8.69576 47.8255H13.0434V43.4785H8.69576V47.8255Z" fill="#FAB20B"/>
<path d="M0 60.8696H4.34811V56.5215H0V60.8696Z" fill="#231F20"/>
<path d="M43.4805 152.174H47.8275V147.826H43.4805V152.174Z" fill="#231F20"/>
<path d="M56.5239 152.174H60.8715V147.826H56.5234L56.5239 152.174Z" fill="#A94019"/>
<path d="M47.8242 152.174H52.1723V147.826H47.8242V152.174Z" fill="#742415"/>
<path d="M60.8715 152.174H65.2192V147.826H60.8715V152.174Z" fill="#231F20"/>
<path d="M52.1758 152.174H56.5239L56.5234 147.826H52.1758V152.174Z" fill="#231F20"/>
<path d="M13.0434 47.8255H17.3911V43.4785H13.0434V47.8255Z" fill="#FAB20B"/>
<path d="M0 56.5215H4.34811V52.1743H0V56.5215Z" fill="#231F20"/>
<path d="M100 134.782H104.348V130.434H100V134.782Z" fill="#A94019"/>
<path d="M100 130.434H104.348V126.086H100V130.434Z" fill="#FAB20B"/>
<path d="M100 126.087H104.348V121.74H100V126.087Z" fill="#FAB20B"/>
<path d="M100 139.13H104.348V134.783H100V139.13Z" fill="#A94019"/>
<path d="M73.9145 139.13H78.2622L78.2619 134.784L73.9145 134.783V139.13Z" fill="#FAB20B"/>
<path d="M100 108.696H104.348V104.348H100V108.696Z" fill="#231F20"/>
<path d="M100 113.042H104.348V108.696H100V113.042Z" fill="#CB5D19"/>
<path d="M100 121.738H104.348V117.391H100V121.738Z" fill="#A94019"/>
<path d="M39.1289 47.8255H43.477V43.4785H39.1289V47.8255Z" fill="#FAB20B"/>
<path d="M43.4805 47.8255H47.8275V43.4785H43.4805V47.8255Z" fill="#FAB20B"/>
<path d="M52.1758 47.8255H56.5239V43.4785H52.1758V47.8255Z" fill="#A94019"/>
<path d="M56.5239 47.8255H60.8715V43.4785H56.5239V47.8255Z" fill="#231F20"/>
<path d="M47.8275 47.8255H52.1758V43.4785H47.8275V47.8255Z" fill="#FAB20B"/>
<path d="M26.0859 47.8255H30.434V43.4785H26.0859V47.8255Z" fill="#FAB20B"/>
<path d="M34.7812 47.8255H39.1289V43.4785H34.7812V47.8255Z" fill="#FAB20B"/>
<path d="M30.434 47.8255H34.7812V43.4785H30.434V47.8255Z" fill="#FAB20B"/>
<path d="M21.7383 47.8255H26.0859V43.4785H21.7383V47.8255Z" fill="#FAB20B"/>
<path d="M17.3945 47.8255H21.7426V43.4785H17.3945V47.8255Z" fill="#FAB20B"/>
<path d="M8.69576 43.4785H13.0434V39.1313H8.69531L8.69576 43.4785Z" fill="#FCCB06"/>
<path d="M4.34766 43.4785H8.69576L8.69531 39.1313L4.3476 39.1309L4.34766 43.4785Z" fill="#231F20"/>
<path d="M17.3911 43.4785H21.7383L21.7387 39.1313H17.39L17.3911 43.4785Z" fill="#FAB20B"/>
<path d="M13.0434 43.4785L17.3899 43.479L17.39 39.1313H13.0434V43.4785Z" fill="#FAB20B"/>
<path d="M47.8242 43.479H52.1723L52.1723 39.1313H47.8242L47.8242 43.479Z" fill="#FAB20B"/>
<path d="M52.1758 43.4785H56.5239V39.1313H52.1758V43.4785Z" fill="#FAB20B"/>
<path d="M56.5239 43.4785H60.8715L60.8711 39.1313H56.5239V43.4785Z" fill="#231F20"/>
<path d="M60.8715 43.4785L65.2191 43.479L65.2188 39.1313H60.8711L60.8715 43.4785Z" fill="#231F20"/>
<path d="M43.4805 43.4785L47.8285 43.479V39.1309L43.4805 39.1313V43.4785Z" fill="#FAB20B"/>
<path d="M26.0898 43.479H30.4368V39.1309H26.0898V43.479Z" fill="#FCCB06"/>
<path d="M30.434 43.4785H34.7812L34.7816 39.1309L30.434 39.1313V43.4785Z" fill="#FAB20B"/>
<path d="M34.7851 43.479H39.1332V39.1309H34.7851V43.479Z" fill="#FCCB06"/>
<path d="M39.1332 43.479L43.4805 43.4785V39.1313L39.1332 39.1309V43.479Z" fill="#FCCB06"/>
<path d="M100 143.477H104.348V139.129H100V143.477Z" fill="#FAB20B"/>
<path d="M65.2191 43.479H69.5657L69.5658 39.1313H65.2188L65.2191 43.479Z" fill="#231F20"/>
<path d="M21.7426 43.4785L26.0898 43.479V39.1309H21.7421L21.7426 43.4785Z" fill="#FCCB06"/>
<path d="M104.348 126.087H108.695V121.74H104.348V126.087Z" fill="#FAB20B"/>
<path d="M104.348 121.738H108.695V117.391L104.348 117.391V121.738Z" fill="#A94019"/>
<path d="M104.348 130.434L108.695 130.434V126.086H104.348V130.434Z" fill="#A94019"/>
<path d="M104.348 139.13H108.695V134.783H104.348V139.13Z" fill="#A94019"/>
<path d="M104.348 134.782H108.695V130.434L104.348 130.434V134.782Z" fill="#A94019"/>
<path d="M104.348 143.477H108.695V139.129H104.348V143.477Z" fill="#A94019"/>
<path d="M104.348 117.391L108.695 117.391V113.043L104.348 113.042V117.391Z" fill="#CB5D19"/>
<path d="M104.348 113.042L108.695 113.043L108.696 108.695L104.348 108.696V113.042Z" fill="#231F20"/>
<path d="M86.9565 152.174L91.3051 152.174V147.826H86.957L86.9565 152.174Z" fill="#DC8A0D"/>
<path d="M78.2619 152.174H82.6094L82.6099 147.826H78.2618L78.2619 152.174Z" fill="#231F20"/>
<path d="M82.6094 152.174H86.9565L86.957 147.826H82.6099L82.6094 152.174Z" fill="#742415"/>
<path d="M104.348 147.827L108.695 147.826V143.479H104.348V147.827Z" fill="#FAB20B"/>
<path d="M104.348 152.174L108.695 152.174V147.826L104.348 147.827L104.348 152.174Z" fill="#FAB20B"/>
<path d="M100 152.174H104.348L104.348 147.827L100 147.826V152.174Z" fill="#FAB20B"/>
<path d="M95.6522 152.174H100V147.826L95.6521 147.826L95.6522 152.174Z" fill="#742415"/>
<path d="M91.3051 152.174L95.6522 152.174L95.6521 147.826H91.3051V152.174Z" fill="#231F20"/>
<path d="M100 117.391H104.348V113.042H100V117.391Z" fill="#A94019"/>
<path d="M8.69531 69.5649H13.043V65.2168H8.69531V69.5649Z" fill="#231F20"/>
<path d="M8.69531 60.8696H13.043V56.5215H8.69531V60.8696Z" fill="#FEE795"/>
<path d="M8.69531 65.2181H13.043V60.8711H8.69531V65.2181Z" fill="#E6C26F"/>
<path d="M78.2619 143.477H82.61V139.129H78.2619V143.477Z" fill="#DC8A0D"/>
<path d="M73.9141 143.477H78.2619V139.129H73.9141V143.477Z" fill="#742415"/>
<path d="M69.5664 143.477H73.9141V139.129H69.5664V143.477Z" fill="#742415"/>
<path d="M82.61 143.477H86.9565V139.129H82.61V143.477Z" fill="#DC8A0D"/>
<path d="M65.2188 143.477H69.5664V139.129H65.2188V143.477Z" fill="#742415"/>
<path d="M8.69922 56.5219H13.0462V52.1738H8.69922V56.5219Z" fill="#FEE795"/>
<path d="M95.6522 139.13H100V134.783H95.6522V139.13Z" fill="#FAB20B"/>
<path d="M60.8711 143.477H65.2188V139.129H60.8711V143.477Z" fill="#742415"/>
<path d="M95.6522 143.477H100V139.129H95.6522V143.477Z" fill="#FAB20B"/>
<path d="M91.3046 143.477H95.6522V139.129H91.3046V143.477Z" fill="#A94019"/>
<path d="M86.9565 143.477H91.3046V139.129H86.9565V143.477Z" fill="#742415"/>
<path d="M43.4805 143.477H47.8275V139.129H43.4805V143.477Z" fill="#231F20"/>
<path d="M47.8242 143.477H52.1723V139.129H47.8242V143.477Z" fill="#DC8A0D"/>
<path d="M52.1758 143.477H56.5239V139.129H52.1758V143.477Z" fill="#DC8A0D"/>
<path d="M56.5239 143.477H60.8711V139.129H56.5239V143.477Z" fill="#FAB20B"/>
<path d="M95.6522 134.783H100L100 130.436H95.6522V134.783Z" fill="#FAB20B"/>
<path d="M13.043 56.5215H17.39V52.1738H13.043V56.5215Z" fill="#7F2B32"/>
<path d="M91.3051 104.348L95.6516 104.348V100H91.3051L91.3051 104.348Z" fill="#231F20"/>
<path d="M91.3051 113.042H95.6516V108.695H91.3051V113.042Z" fill="#FAB20B"/>
<path d="M91.3051 108.695H95.6516L95.6516 104.348L91.3051 104.348V108.695Z" fill="#FCCB06"/>
<path d="M86.957 139.13H91.3051V134.784H86.957V139.13Z" fill="#FAB20B"/>
<path d="M82.6094 139.13H86.957V134.784H82.61L82.6094 139.13Z" fill="#FAB20B"/>
<path d="M91.3051 139.13H95.6522V134.783L91.3051 134.784V139.13Z" fill="#FAB20B"/>
<path d="M78.2622 139.13H82.6094L82.61 134.784H78.2619L78.2622 139.13Z" fill="#FAB20B"/>
<path d="M100 147.826L104.348 147.827V143.479H100V147.826Z" fill="#FAB20B"/>
<path d="M91.3051 121.738H95.6516V117.391H91.3051V121.738Z" fill="#FAB20B"/>
<path d="M91.3051 126.087H95.6516V121.74H91.3051V126.087Z" fill="#FAB20B"/>
<path d="M91.3051 134.784L95.6522 134.783V130.436H91.3051V134.784Z" fill="#FAB20B"/>
<path d="M91.3051 117.391H95.6516V113.042H91.3051V117.391Z" fill="#FAB20B"/>
<path d="M39.1289 56.5215H43.477V52.1738H39.1289V56.5215Z" fill="#DC8A0D"/>
<path d="M34.7806 56.5215H39.1289V52.1738H34.7812L34.7806 56.5215Z" fill="#DC8A0D"/>
<path d="M43.4805 56.5215H47.8275V52.1738H43.4805V56.5215Z" fill="#231F20"/>
<path d="M56.5239 56.5215H60.8703L60.8702 52.174H56.5232L56.5239 56.5215Z" fill="#231F20"/>
<path d="M52.1758 56.5215H56.5239L56.5232 52.174L52.1758 52.1738V56.5215Z" fill="#FAB20B"/>
<path d="M47.8242 56.5215H52.1723V52.1738H47.8242V56.5215Z" fill="#DC8A0D"/>
<path d="M21.7387 56.5215H26.0859L26.0864 52.1738H21.7383L21.7387 56.5215Z" fill="#FEE795"/>
<path d="M30.4336 56.5215H34.7806L34.7812 52.1738H30.4336V56.5215Z" fill="#FEE795"/>
<path d="M17.39 56.5215H21.7387L21.7383 52.1738H17.39V56.5215Z" fill="#7F2B32"/>
<path d="M26.0859 56.5215H30.4336V52.1738H26.0864L26.0859 56.5215Z" fill="#FEE795"/>
<path d="M91.3051 130.434H95.6516V126.086H91.3051V130.434Z" fill="#FAB20B"/>
<path d="M4.34766 65.2181H8.69531V60.8711H4.34766V65.2181Z" fill="#231F20"/>
<path d="M78.2618 147.826H82.6099L82.61 143.479H78.2619L78.2618 147.826Z" fill="#231F20"/>
<path d="M69.5664 147.827H73.9145V143.479H69.5664V147.827Z" fill="#231F20"/>
<path d="M73.9145 147.827L78.2618 147.826L78.2619 143.479H73.9145V147.827Z" fill="#231F20"/>
<path d="M65.2192 147.826L69.5664 147.827V143.479H65.2188L65.2192 147.826Z" fill="#231F20"/>
<path d="M60.8715 147.826H65.2192L65.2188 143.479H60.8711L60.8715 147.826Z" fill="#231F20"/>
<path d="M91.3051 147.826H95.6521L95.6516 143.479H91.3046L91.3051 147.826Z" fill="#742415"/>
<path d="M95.6521 147.826L100 147.826V143.479H95.6516L95.6521 147.826Z" fill="#A94019"/>
<path d="M56.5234 147.826H60.8715L60.8711 143.479H56.5234V147.826Z" fill="#FAB20B"/>
<path d="M86.957 147.826H91.3051L91.3046 143.479H86.957L86.957 147.826Z" fill="#231F20"/>
<path d="M82.6099 147.826H86.957L86.957 143.479H82.61L82.6099 147.826Z" fill="#231F20"/>
<path d="M47.8242 147.826H52.1723V143.479H47.8242V147.826Z" fill="#231F20"/>
<path d="M43.4805 147.826H47.8275V143.479H43.4805V147.826Z" fill="#231F20"/>
<path d="M52.1758 147.826H56.5234V143.479H52.1758V147.826Z" fill="#231F20"/>
<path d="M8.69922 52.1738H13.0462V47.8262H8.69922V52.1738Z" fill="#7F2B32"/>
<path d="M95.6516 113.042H100V108.696L95.6516 108.695V113.042Z" fill="#A94019"/>
<path d="M95.6516 121.738H100V117.391H95.6516V121.738Z" fill="#FAB20B"/>
<path d="M95.6516 117.391H100V113.042H95.6516V117.391Z" fill="#A94019"/>
<path d="M95.6516 126.087H100V121.74H95.6516V126.087Z" fill="#FAB20B"/>
<path d="M95.6516 108.695L100 108.696V104.348L95.6516 104.348L95.6516 108.695Z" fill="#231F20"/>
<path d="M43.4805 52.1738H47.8275V47.8255H43.4805V52.1738Z" fill="#DC8A0D"/>
<path d="M21.7383 52.1738H26.0864L26.0859 47.8255H21.7383V52.1738Z" fill="#7F2B32"/>
<path d="M26.0864 52.1738H30.4336L30.434 47.8255H26.0859L26.0864 52.1738Z" fill="#FEE795"/>
<path d="M17.39 52.1738H21.7383V47.8255H17.3911L17.39 52.1738Z" fill="#7F2B32"/>
<path d="M30.4336 52.1738H34.7812V47.8255H30.434L30.4336 52.1738Z" fill="#FAB20B"/>
<path d="M34.7812 52.1738H39.1289V47.8255H34.7812V52.1738Z" fill="#FAB20B"/>
<path d="M39.1289 52.1738H43.477V47.8255H39.1289V52.1738Z" fill="#FAB20B"/>
<path d="M4.34811 56.5215H8.69531L8.69576 52.1738L4.34811 52.1743V56.5215Z" fill="#FEE795"/>
<path d="M13.043 52.1738H17.39V47.8262L13.0434 47.8255L13.043 52.1738Z" fill="#7F2B32"/>
<path d="M4.34811 52.1743L8.69576 52.1738V47.8255L4.34811 47.8262V52.1743Z" fill="#FEE795"/>
<path d="M95.6516 130.434L100 130.434V126.086H95.6516V130.434Z" fill="#FAB20B"/>
<path d="M47.8242 52.1738H52.1723V47.8262H47.8242V52.1738Z" fill="#DC8A0D"/>
<path d="M52.1758 52.1738L56.5232 52.174L56.5239 47.8255H52.1758V52.1738Z" fill="#A94019"/>
<path d="M4.34811 60.8696H8.69531V56.5215H4.34811V60.8696Z" fill="#E6C26F"/>
<path d="M56.5232 52.174L60.8715 52.1743V47.8255H56.5239L56.5232 52.174Z" fill="#231F20"/>
<path d="M91.3046 200H95.6516V195.652H91.3046V200Z" fill="#231F20"/>
<path d="M95.6516 200H100V195.652H95.6516V200Z" fill="#231F20"/>
<path d="M86.957 200H91.3046V195.652H86.957V200Z" fill="#605E5E"/>
<path d="M108.695 200H113.042V195.652H108.695V200Z" fill="#231F20"/>
<path d="M104.348 200H108.695V195.652H104.348V200Z" fill="#605E5E"/>
<path d="M113.042 200H117.391V195.652H113.042V200Z" fill="#231F20"/>
<path d="M52.1758 200H56.5239V195.652H52.1758V200Z" fill="#605E5E"/>
<path d="M47.8242 200H52.1723V195.652H47.8242V200Z" fill="#231F20"/>
<path d="M43.4805 200H47.8275V195.652H43.4805V200Z" fill="#605E5E"/>
<path d="M60.8711 200H65.2192V195.652H60.8711V200Z" fill="#231F20"/>
<path d="M56.5239 200H60.8711V195.652H56.5239V200Z" fill="#231F20"/>
<path d="M52.1758 13.0434H56.5239V8.69531H52.1758V13.0434Z" fill="#231F20"/>
<path d="M47.8242 13.0434H52.1723V8.69531H47.8242V13.0434Z" fill="#704722"/>
<path d="M43.4805 13.0434H47.8275V8.69531H43.4805V13.0434Z" fill="#231F20"/>
<path d="M34.7812 13.0434H39.1294V8.69531H34.7812V13.0434Z" fill="#231F20"/>
<path d="M39.1294 13.0434H43.477V8.69531H39.1294V13.0434Z" fill="#704722"/>
<path d="M52.1758 186.957H56.5239V182.609H52.1758V186.957Z" fill="#231F20"/>
<path d="M56.5239 186.957H60.8715V182.609H56.5239V186.957Z" fill="#FEE795"/>
<path d="M47.8242 186.957H52.1723V182.609H47.8242V186.957Z" fill="#FEE795"/>
<path d="M60.8715 182.609V186.957H65.2192V182.609H60.8715Z" fill="#231F20"/>
<path d="M43.4805 182.609V186.957H47.8275V182.609H43.4805Z" fill="#231F20"/>
<path d="M91.3046 186.957H95.6516V182.609H91.3046V186.957Z" fill="#FEE795"/>
<path d="M95.6516 186.957H100V182.609H95.6516V186.957Z" fill="#231F20"/>
<path d="M86.957 186.957H91.3046V182.609H86.957V186.957Z" fill="#231F20"/>
<path d="M104.348 186.957H108.696V182.609H104.348V186.957Z" fill="#231F20"/>
<path d="M113.043 186.957H117.391V182.609H113.043V186.957Z" fill="#231F20"/>
<path d="M108.696 186.957H113.043V182.609H108.696V186.957Z" fill="#FEE795"/>
<path d="M52.1758 17.3906H56.5239V13.0434H52.1758V17.3906Z" fill="#231F20"/>
<path d="M47.8242 17.3906H52.1723V13.0434H47.8242V17.3906Z" fill="#704722"/>
<path d="M43.4805 17.3906H47.8275V13.0434H43.4805V17.3906Z" fill="#231F20"/>
<path d="M34.7812 17.3906H39.1289L39.1294 13.0434H34.7812V17.3906Z" fill="#231F20"/>
<path d="M39.1289 17.3906H43.477V13.0434H39.1294L39.1289 17.3906Z" fill="#704722"/>
<path d="M91.3046 182.608H95.6516L95.6522 178.26H91.3046V182.608Z" fill="#FEE795"/>
<path d="M86.957 182.608H91.3046V178.26H86.957V182.608Z" fill="#231F20"/>
<path d="M95.6516 182.608H100V178.26H95.6522L95.6516 182.608Z" fill="#231F20"/>
<path d="M113.043 182.608H117.391V178.26H113.042L113.043 182.608Z" fill="#231F20"/>
<path d="M108.695 182.608H113.043L113.042 178.26H108.695V182.608Z" fill="#FEE795"/>
<path d="M104.348 182.608H108.695V178.26H104.348V182.608Z" fill="#231F20"/>
<path d="M47.8242 182.608H52.1723V178.26H47.8242V182.608Z" fill="#FEE795"/>
<path d="M43.4805 178.26V182.608H47.8275V178.26H43.4805Z" fill="#231F20"/>
<path d="M60.8711 182.608H65.2192V178.26H60.8711V182.608Z" fill="#231F20"/>
<path d="M52.1758 182.608H56.5239V178.26H52.1758V182.608Z" fill="#231F20"/>
<path d="M56.5239 182.608H60.8711V178.26H56.5239V182.608Z" fill="#FEE795"/>
<path d="M39.1288 4.34811H43.477V0H39.1288V4.34811Z" fill="#231F20"/>
<path d="M34.7812 4.34811H39.1288V0H34.7812V4.34811Z" fill="#231F20"/>
<path d="M52.1757 4.34811H56.5238V0H52.1757V4.34811Z" fill="#231F20"/>
<path d="M47.8242 4.34811H52.1723V0H47.8242V4.34811Z" fill="#231F20"/>
<path d="M52.1758 195.652H56.5239V191.305H52.1758V195.652Z" fill="#231F20"/>
<path d="M60.8711 195.652H65.2192V191.305H60.8711V195.652Z" fill="#231F20"/>
<path d="M47.8242 195.652H52.1723V191.305H47.8242V195.652Z" fill="#231F20"/>
<path d="M43.4805 195.652H47.8275V191.305H43.4805V195.652Z" fill="#231F20"/>
<path d="M56.5239 195.652H60.8711V191.305H56.5239V195.652Z" fill="#231F20"/>
<path d="M113.042 195.652H117.391V191.305H113.043L113.042 195.652Z" fill="#231F20"/>
<path d="M86.957 195.652H91.3046L91.3051 191.305H86.957V195.652Z" fill="#231F20"/>
<path d="M104.348 195.652H108.695L108.696 191.305H104.348V195.652Z" fill="#231F20"/>
<path d="M91.3046 195.652H95.6516V191.305H91.3051L91.3046 195.652Z" fill="#231F20"/>
<path d="M95.6516 195.652H100V191.305H95.6516V195.652Z" fill="#231F20"/>
<path d="M108.695 195.652H113.042L113.043 191.305H108.696L108.695 195.652Z" fill="#231F20"/>
<path d="M56.5239 8.69531L60.8715 8.69576V4.34766L56.5238 4.34811L56.5239 8.69531Z" fill="#231F20"/>
<path d="M43.4805 8.69531H47.8275V4.34766H43.4805V8.69531Z" fill="#231F20"/>
<path d="M52.1758 8.69531H56.5239L56.5238 4.34811H52.1757L52.1758 8.69531Z" fill="#916223"/>
<path d="M47.8242 8.69531H52.1723L52.1723 4.34811H47.8242L47.8242 8.69531Z" fill="#704722"/>
<path d="M34.7812 8.69531H39.1294L39.1288 4.34811H34.7812L34.7812 8.69531Z" fill="#916223"/>
<path d="M39.1294 8.69531H43.477L43.477 4.34811H39.1288L39.1294 8.69531Z" fill="#704722"/>
<path d="M30.4336 8.69576L34.7812 8.69531L34.7812 4.34811L30.4336 4.34766V8.69576Z" fill="#231F20"/>
<path d="M60.8715 186.957L60.8711 191.305H65.2192V186.957H60.8715Z" fill="#231F20"/>
<path d="M91.3051 191.305H95.6516V186.957H91.3046L91.3051 191.305Z" fill="#E6C26F"/>
<path d="M95.6516 191.305H100V186.957H95.6516V191.305Z" fill="#231F20"/>
<path d="M56.5239 191.305H60.8711L60.8715 186.957H56.5239V191.305Z" fill="#E6C26F"/>
<path d="M86.957 191.305H91.3051L91.3046 186.957H86.957V191.305Z" fill="#231F20"/>
<path d="M43.4805 191.305H47.8275V186.957H43.4805V191.305Z" fill="#231F20"/>
<path d="M52.1758 191.305H56.5239V186.957H52.1758V191.305Z" fill="#231F20"/>
<path d="M47.8242 191.305H52.1723V186.957H47.8242V191.305Z" fill="#E6C26F"/>
<path d="M104.348 191.305H108.696V186.957H104.348V191.305Z" fill="#231F20"/>
<path d="M113.043 191.305H117.391V186.957H113.043V191.305Z" fill="#231F20"/>
<path d="M108.696 191.305H113.043V186.957H108.696V191.305Z" fill="#E6C26F"/>
</svg>
