<svg width="236" height="200" viewBox="0 0 236 200" fill="none" xmlns="http://www.w3.org/2000/svg">
<path d="M17.6484 200H23.5312V194.117H17.6484V200Z" fill="#231F20"/>
<path d="M11.7656 200H17.6484V194.117H11.7656V200Z" fill="#231F20"/>
<path d="M11.7656 194.117H17.6484L17.6484 188.234H11.7656V194.117Z" fill="#979EA1"/>
<path d="M5.88281 194.117H11.7641V188.234H5.88281V194.117Z" fill="#231F20"/>
<path d="M5.88281 188.234H11.7641V182.352H5.88281V188.234Z" fill="#231F20"/>
<path d="M23.5273 200H29.4101V194.117H23.5273V200Z" fill="#231F20"/>
<path d="M47.0586 200H52.9399V194.117H47.0586V200Z" fill="#231F20"/>
<path d="M5.88281 129.413H11.7641V123.531H5.88281V129.413Z" fill="#515D61"/>
<path d="M29.4141 200H35.2953V194.117H29.4141V200Z" fill="#231F20"/>
<path d="M35.2931 200H41.1759V194.117H35.2931V200Z" fill="#231F20"/>
<path d="M41.1759 200L47.0586 200V194.117L41.1759 194.117V200Z" fill="#231F20"/>
<path d="M5.88281 141.176H11.7641V135.295H5.88281V141.176Z" fill="#231F20"/>
<path d="M5.88281 147.06H11.7641V141.176H5.88281V147.06Z" fill="#231F20"/>
<path d="M5.88281 182.352H11.7641V176.471H5.88281V182.352Z" fill="#231F20"/>
<path d="M5.88281 135.295H11.7641V129.413H5.88281V135.295Z" fill="#231F20"/>
<path d="M5.88281 152.94H11.7641V147.059H5.88281V152.94Z" fill="#231F20"/>
<path d="M5.88281 158.824H11.7641V152.941H5.88281V158.824Z" fill="#515D61"/>
<path d="M5.88281 176.471H11.7641V170.588H5.88281V176.471Z" fill="#231F20"/>
<path d="M5.88281 170.588H11.7641V164.705H5.88281V170.588Z" fill="#343C3F"/>
<path d="M5.88281 164.705H11.7641V158.824H5.88281V164.705Z" fill="#515D61"/>
<path d="M52.9414 200H58.8241V194.117H52.9414V200Z" fill="#231F20"/>
<path d="M141.176 200H147.059V194.117H141.176V200Z" fill="#231F20"/>
<path d="M147.059 200L152.941 200V194.117L147.059 194.117V200Z" fill="#231F20"/>
<path d="M117.645 200H123.527V194.117H117.645V200Z" fill="#231F20"/>
<path d="M129.41 200H135.293V194.117H129.41V200Z" fill="#231F20"/>
<path d="M164.703 200H170.586V194.117H164.703V200Z" fill="#231F20"/>
<path d="M5.88281 123.531H11.7641V117.646H5.88281V123.531Z" fill="#515D61"/>
<path d="M152.941 200H158.823V194.117H152.941V200Z" fill="#231F20"/>
<path d="M158.82 200H164.703V194.117H158.82V200Z" fill="#231F20"/>
<path d="M123.527 200H129.41V194.117H123.527V200Z" fill="#231F20"/>
<path d="M170.59 200H176.473V194.117H170.59V200Z" fill="#231F20"/>
<path d="M111.766 200H117.647V194.117H111.766V200Z" fill="#231F20"/>
<path d="M88.2344 200H94.1157V194.117H88.2344V200Z" fill="#231F20"/>
<path d="M100 200H105.883V194.117H100V200Z" fill="#231F20"/>
<path d="M105.883 200H111.766V194.117H105.883V200Z" fill="#231F20"/>
<path d="M94.1172 200H100V194.117H94.1172V200Z" fill="#231F20"/>
<path d="M41.1758 23.5292H47.0585V17.6465H41.1758V23.5292Z" fill="#515D61"/>
<path d="M76.4688 23.5292H82.3515V17.6465H76.4688V23.5292Z" fill="#515D61"/>
<path d="M70.5898 23.5292H76.4711V17.6465H70.5898V23.5292Z" fill="#515D61"/>
<path d="M88.2344 23.5292H94.1157V17.6465H88.2344V23.5292Z" fill="#231F20"/>
<path d="M82.3515 23.5292H88.2344V17.6465H82.3515V23.5292Z" fill="#515D61"/>
<path d="M5.88281 117.646H11.7641V111.766H5.88281V117.646Z" fill="#515D61"/>
<path d="M58.8242 23.5292H64.707V17.6465H58.8242V23.5292Z" fill="#515D61"/>
<path d="M176.469 200H182.35V194.117H176.469V200Z" fill="#231F20"/>
<path d="M47.0585 23.5292H52.9399V17.6465H47.0585V23.5292Z" fill="#515D61"/>
<path d="M52.9414 23.5292H58.8242V17.6465H52.9414V23.5292Z" fill="#515D61"/>
<path d="M35.2931 23.5292H41.1758V17.6465H35.2931V23.5292Z" fill="#515D61"/>
<path d="M64.707 23.5292H70.5898V17.6465H64.707V23.5292Z" fill="#515D61"/>
<path d="M5.88281 82.3515H11.7641V76.4688H5.88281V82.3515Z" fill="#515D61"/>
<path d="M5.88281 76.4688H11.7641V70.5859H5.88281V76.4688Z" fill="#515D61"/>
<path d="M5.88281 88.2343H11.7641V82.3515H5.88281V88.2343Z" fill="#515D61"/>
<path d="M5.88281 58.8227H11.7641V52.9414H5.88281V58.8227Z" fill="#231F20"/>
<path d="M5.88281 70.5878H11.7641V64.7051H5.88281V70.5878Z" fill="#515D61"/>
<path d="M5.88281 64.707H11.7641V58.8242H5.88281V64.707Z" fill="#72848B"/>
<path d="M5.88281 111.766H11.7641V105.883H5.88281V111.766Z" fill="#515D61"/>
<path d="M5.88281 94.1171H11.7641V88.2343H5.88281V94.1171Z" fill="#343C3F"/>
<path d="M5.88281 105.883H11.7641V100H5.88281V105.883Z" fill="#72848B"/>
<path d="M5.88281 99.9985H11.7641V94.1171H5.88281V99.9985Z" fill="#231F20"/>
<path d="M5.88281 52.9414H11.7641V47.0586H5.88281V52.9414Z" fill="#231F20"/>
<path d="M17.6484 23.5292H23.5312V17.6465H17.6484V23.5292Z" fill="#231F20"/>
<path d="M23.5273 23.5292H29.4101V17.6465H23.5273V23.5292Z" fill="#72848B"/>
<path d="M29.4141 23.5292H35.2953V17.6465H29.4141V23.5292Z" fill="#515D61"/>
<path d="M23.5273 17.6465H29.4101V11.7656H23.5273V17.6465Z" fill="#231F20"/>
<path d="M35.2931 17.6465H41.1758L41.1759 11.7655H35.2931L35.2931 17.6465Z" fill="#515D61"/>
<path d="M29.4141 17.6465H35.2953V11.7656H29.4141V17.6465Z" fill="#72848B"/>
<path d="M41.1758 17.6465H47.0585V11.7656L41.1759 11.7655L41.1758 17.6465Z" fill="#515D61"/>
<path d="M47.0585 17.6465H52.9399V11.7656H47.0585V17.6465Z" fill="#515D61"/>
<path d="M52.9414 17.6465H58.8242L58.8241 11.7656H52.9414V17.6465Z" fill="#515D61"/>
<path d="M58.8242 17.6465H64.707V11.7656H58.8241L58.8242 17.6465Z" fill="#515D61"/>
<path d="M70.5898 17.6465H76.4711V11.7656H70.5898V17.6465Z" fill="#515D61"/>
<path d="M76.4688 17.6465H82.3515V11.7656H76.4688V17.6465Z" fill="#515D61"/>
<path d="M64.707 17.6465H70.5898V11.7656H64.707V17.6465Z" fill="#515D61"/>
<path d="M82.3515 17.6465H88.2344L88.2343 11.7656H82.3515V17.6465Z" fill="#231F20"/>
<path d="M0 129.411H5.88274V123.529H0V129.411Z" fill="#231F20"/>
<path d="M0 105.883L5.88281 105.883V100H0V105.883Z" fill="#231F20"/>
<path d="M0 88.2343H5.88281V82.3515L0 82.3516V88.2343Z" fill="#231F20"/>
<path d="M0 82.3534H5.88274V76.4707H0V82.3534Z" fill="#231F20"/>
<path d="M182.352 200H188.234V194.117H182.352V200Z" fill="#231F20"/>
<path d="M0 117.647L5.88281 117.646V111.766H0V117.647Z" fill="#231F20"/>
<path d="M0 123.531L5.88281 123.531V117.646L0 117.647V123.531Z" fill="#231F20"/>
<path d="M0 94.1171H5.88281V88.2343H0V94.1171Z" fill="#231F20"/>
<path d="M0 76.4707H5.88274L5.88281 70.5878L0 70.5879V76.4707Z" fill="#231F20"/>
<path d="M0 70.5879L5.88281 70.5878V64.7051H0V70.5879Z" fill="#231F20"/>
<path d="M0 64.7051H5.88281V58.8227L0 58.8223V64.7051Z" fill="#231F20"/>
<path d="M0 111.766H5.88281V105.883L0 105.883V111.766Z" fill="#231F20"/>
<path d="M182.352 117.647H188.234V111.766H182.352V117.647Z" fill="#515D61"/>
<path d="M182.352 82.3515H188.234V76.4688H182.352V82.3515Z" fill="#72848B"/>
<path d="M182.352 111.766H188.234V105.883H182.352V111.766Z" fill="#515D61"/>
<path d="M182.352 129.413H188.234V123.531H182.352V129.413Z" fill="#515D61"/>
<path d="M182.352 135.295H188.234V129.413H182.352V135.295Z" fill="#515D61"/>
<path d="M182.352 123.531H188.234V117.647H182.352V123.531Z" fill="#515D61"/>
<path d="M182.352 94.1171H188.234V88.2344H182.352V94.1171Z" fill="#515D61"/>
<path d="M182.352 88.2344H188.234V82.3515H182.352V88.2344Z" fill="#515D61"/>
<path d="M182.352 105.883H188.234V100H182.352V105.883Z" fill="#515D61"/>
<path d="M182.352 99.9985H188.234V94.1171H182.352V99.9985Z" fill="#515D61"/>
<path d="M182.352 141.176H188.234V135.295H182.352V141.176Z" fill="#515D61"/>
<path d="M182.352 182.352H188.234V176.471H182.352V182.352Z" fill="#231F20"/>
<path d="M182.352 188.234H188.234V182.352H182.352V188.234Z" fill="#C7CBCD"/>
<path d="M182.352 194.117H188.234V188.234H182.352V194.117Z" fill="#979EA1"/>
<path d="M182.352 176.471H188.234V170.588H182.352V176.471Z" fill="#231F20"/>
<path d="M182.352 170.588H188.234V164.705H182.352V170.588Z" fill="#515D61"/>
<path d="M182.352 158.824H188.234V152.941H182.352V158.824Z" fill="#3F484C"/>
<path d="M182.352 152.941H188.234V147.059H182.352V152.941Z" fill="#515D61"/>
<path d="M182.352 147.059H188.234V141.176H182.352V147.059Z" fill="#515D61"/>
<path d="M182.352 164.705H188.234V158.824H182.352V164.705Z" fill="#515D61"/>
<path d="M182.352 76.4688H188.234V70.5859H182.352V76.4688Z" fill="#231F20"/>
<path d="M117.645 188.234H123.527V182.352H117.645V188.234Z" fill="#C7CBCD"/>
<path d="M111.766 29.412H117.647V23.5293H111.766V29.412Z" fill="#231F20"/>
<path d="M170.59 76.4687H176.473V70.5859H170.59V76.4687Z" fill="#231F20"/>
<path d="M170.59 88.2343H176.473V82.3516H170.59V88.2343Z" fill="#515D61"/>
<path d="M170.59 82.3516H176.473V76.4687H170.59V82.3516Z" fill="#72848B"/>
<path d="M11.7656 52.9413H17.6484V47.0586H11.7656V52.9413Z" fill="#72848B"/>
<path d="M58.8242 29.412H64.707V23.5292H58.8242V29.412Z" fill="#231F20"/>
<path d="M105.883 29.412H111.766V23.5293H105.883V29.412Z" fill="#231F20"/>
<path d="M29.4141 29.412H35.2953V23.5292H29.4141V29.412Z" fill="#515D61"/>
<path d="M35.2931 29.4122H41.1759L41.1758 23.5292H35.2931L35.2931 29.4122Z" fill="#231F20"/>
<path d="M17.6484 29.412H23.5312V23.5292H17.6484V29.412Z" fill="#231F20"/>
<path d="M41.1759 29.4122L47.0585 29.412V23.5292H41.1758L41.1759 29.4122Z" fill="#515D61"/>
<path d="M47.0585 29.412H52.9399V23.5292H47.0585V29.412Z" fill="#231F20"/>
<path d="M11.7656 41.1757H17.6484V35.293H11.7656V41.1757Z" fill="#231F20"/>
<path d="M11.7656 35.293H17.6484L17.6484 29.412L11.7656 29.4121V35.293Z" fill="#231F20"/>
<path d="M23.5273 29.412H29.4101V23.5292H23.5273V29.412Z" fill="#515D61"/>
<path d="M88.2344 29.412H94.1157V23.5292H88.2344V29.412Z" fill="#231F20"/>
<path d="M82.3516 29.412H88.2344V23.5292H82.3515L82.3516 29.412Z" fill="#515D61"/>
<path d="M94.1172 29.412H99.9999V23.5293H94.1172V29.412Z" fill="#231F20"/>
<path d="M99.9999 29.412H105.883V23.5293H99.9999V29.412Z" fill="#231F20"/>
<path d="M170.59 94.1171H176.473V88.2343H170.59V94.1171Z" fill="#515D61"/>
<path d="M64.707 29.412H70.5898L70.5898 23.5292H64.707V29.412Z" fill="#515D61"/>
<path d="M52.9414 29.412H58.8242V23.5292H52.9414V29.412Z" fill="#231F20"/>
<path d="M76.4688 29.412H82.3516L82.3515 23.5292H76.4688V29.412Z" fill="#515D61"/>
<path d="M70.5898 29.412H76.4711V23.5292H70.5898L70.5898 29.412Z" fill="#515D61"/>
<path d="M88.2344 188.234H94.1157V182.352H88.2344V188.234Z" fill="#C7CBCD"/>
<path d="M94.1172 188.234H99.9999V182.352H94.1172V188.234Z" fill="#C7CBCD"/>
<path d="M99.9999 188.234H105.883V182.352H99.9999V188.234Z" fill="#C7CBCD"/>
<path d="M123.527 188.234H129.41V182.352H123.527V188.234Z" fill="#231F20"/>
<path d="M129.41 188.234H135.293V182.352H129.41V188.234Z" fill="#231F20"/>
<path d="M105.883 188.234H111.766V182.352H105.883V188.234Z" fill="#C7CBCD"/>
<path d="M111.766 188.234H117.647V182.352H111.766V188.234Z" fill="#C7CBCD"/>
<path d="M82.3516 188.234H88.2344V182.352H82.3516V188.234Z" fill="#231F20"/>
<path d="M29.4141 188.234H35.2953V182.352H29.4141V188.234Z" fill="#C7CBCD"/>
<path d="M23.5273 188.234H29.4101V182.352H23.5273V188.234Z" fill="#C7CBCD"/>
<path d="M35.2931 188.235H41.1759V182.352H35.2931V188.235Z" fill="#C7CBCD"/>
<path d="M52.9414 188.234H58.8241V182.352H52.9414V188.234Z" fill="#231F20"/>
<path d="M47.0586 188.234H52.9399V182.352H47.0586V188.234Z" fill="#231F20"/>
<path d="M41.1759 188.235L47.0586 188.234V182.352L41.1759 182.352V188.235Z" fill="#C7CBCD"/>
<path d="M170.59 182.352H176.473V176.471H170.59V182.352Z" fill="#231F20"/>
<path d="M170.59 135.295H176.473V129.412H170.59V135.295Z" fill="#515D61"/>
<path d="M170.59 141.176H176.473V135.295H170.59V141.176Z" fill="#515D61"/>
<path d="M170.59 152.941H176.473V147.059H170.59V152.941Z" fill="#515D61"/>
<path d="M170.59 158.824H176.473V152.941H170.59V158.824Z" fill="#515D61"/>
<path d="M141.191 188.234H147.074V182.352H141.191V188.234Z" fill="#231F20"/>
<path d="M170.59 147.059H176.473V141.176H170.59V147.059Z" fill="#515D61"/>
<path d="M170.59 105.883H176.473V100H170.59V105.883Z" fill="#515D61"/>
<path d="M170.59 111.766H176.473V105.883H170.59V111.766Z" fill="#515D61"/>
<path d="M170.59 123.531H176.473V117.646H170.59V123.531Z" fill="#515D61"/>
<path d="M170.59 117.646H176.473V111.766H170.59V117.646Z" fill="#515D61"/>
<path d="M170.59 129.412H176.473V123.531H170.59V129.412Z" fill="#515D61"/>
<path d="M158.82 188.234H164.703V182.352H158.82V188.234Z" fill="#C7CBCD"/>
<path d="M152.941 188.234H158.823V182.352H152.941V188.234Z" fill="#C7CBCD"/>
<path d="M147.008 188.234H152.891V182.352H147.008V188.234Z" fill="#C7CBCD"/>
<path d="M164.703 188.234H170.586V182.352H164.703V188.234Z" fill="#C7CBCD"/>
<path d="M170.59 164.705H176.473V158.824H170.59V164.705Z" fill="#515D61"/>
<path d="M170.59 176.471H176.473V170.588H170.59V176.471Z" fill="#343C3F"/>
<path d="M170.59 170.588H176.473V164.705H170.59V170.588Z" fill="#231F20"/>
<path d="M170.59 99.9985H176.473V94.1171H170.59V99.9985Z" fill="#515D61"/>
<path d="M170.59 188.234H176.473V182.352H170.59V188.234Z" fill="#C7CBCD"/>
<path d="M11.7656 47.0586H17.6484V41.1757H11.7656V47.0586Z" fill="#231F20"/>
<path d="M176.469 170.588H182.35V164.705H176.469V170.588Z" fill="#231F20"/>
<path d="M176.469 164.705H182.35V158.824H176.469V164.705Z" fill="#515D61"/>
<path d="M176.469 182.352H182.35V176.471H176.469V182.352Z" fill="#231F20"/>
<path d="M176.469 176.471H182.35V170.588H176.469V176.471Z" fill="#2A2F31"/>
<path d="M176.469 188.234H182.35V182.352H176.469V188.234Z" fill="#231F20"/>
<path d="M176.469 158.824H182.35V152.941H176.469V158.824Z" fill="#515D61"/>
<path d="M176.469 141.176H182.35V135.295H176.469V141.176Z" fill="#515D61"/>
<path d="M176.469 135.295H182.35V129.412H176.469V135.295Z" fill="#515D61"/>
<path d="M123.527 194.117H129.41L129.41 188.234H123.527V194.117Z" fill="#979EA1"/>
<path d="M11.7656 58.8227H17.6484V52.9413H11.7656V58.8227Z" fill="#515D61"/>
<path d="M176.469 194.117H182.35V188.234H176.469V194.117Z" fill="#231F20"/>
<path d="M147.059 194.117L152.941 194.117L152.941 188.234L147.059 188.234L147.059 194.117Z" fill="#979EA1"/>
<path d="M141.176 194.117H147.059L147.059 188.234L141.176 188.234V194.117Z" fill="#231F20"/>
<path d="M129.41 194.117H135.293V188.234H129.41L129.41 194.117Z" fill="#231F20"/>
<path d="M158.82 194.117H164.703L164.703 188.234H158.82V194.117Z" fill="#979EA1"/>
<path d="M164.703 194.117H170.586V188.234H164.703L164.703 194.117Z" fill="#231F20"/>
<path d="M170.59 194.117H176.473V188.234H170.59V194.117Z" fill="#979EA1"/>
<path d="M176.469 129.412H182.35V123.531H176.469V129.412Z" fill="#515D61"/>
<path d="M152.941 194.117H158.823V188.234H152.941L152.941 194.117Z" fill="#231F20"/>
<path d="M176.469 152.941H182.35V147.059H176.469V152.941Z" fill="#515D61"/>
<path d="M176.469 88.2343H182.35V82.3516H176.469V88.2343Z" fill="#515D61"/>
<path d="M176.469 99.9985H182.35V94.1172H176.469V99.9985Z" fill="#515D61"/>
<path d="M176.469 111.766H182.35V105.883H176.469V111.766Z" fill="#515D61"/>
<path d="M176.469 117.647H182.35V111.766H176.469V117.647Z" fill="#515D61"/>
<path d="M176.469 105.883H182.35V100H176.469V105.883Z" fill="#515D61"/>
<path d="M176.469 76.4687H182.35V70.5859H176.469V76.4687Z" fill="#231F20"/>
<path d="M176.469 82.3516H182.35V76.4687H176.469V82.3516Z" fill="#72848B"/>
<path d="M176.469 123.531H182.35V117.647H176.469V123.531Z" fill="#515D61"/>
<path d="M176.469 94.1172H182.35V88.2343H176.469V94.1172Z" fill="#515D61"/>
<path d="M176.469 147.059H182.35V141.176H176.469V147.059Z" fill="#515D61"/>
<path d="M11.7656 141.176H17.6484V135.295H11.7656V141.176Z" fill="#515D61"/>
<path d="M11.7656 135.295H17.6484V129.412H11.7656V135.295Z" fill="#515D61"/>
<path d="M11.7656 123.531H17.6484V117.646H11.7656V123.531Z" fill="#515D61"/>
<path d="M11.7656 147.06H17.6484V141.176H11.7656V147.06Z" fill="#515D61"/>
<path d="M11.7656 129.412H17.6484V123.531H11.7656V129.412Z" fill="#515D61"/>
<path d="M11.7656 152.94H17.6484V147.059H11.7656V152.94Z" fill="#515D61"/>
<path d="M11.7656 117.646H17.6484V111.766H11.7656V117.646Z" fill="#515D61"/>
<path d="M11.7656 164.705H17.6484V158.824H11.7656V164.705Z" fill="#515D61"/>
<path d="M11.7656 170.588H17.6484V164.705H11.7656V170.588Z" fill="#343C3F"/>
<path d="M11.7656 158.824H17.6484V152.941H11.7656V158.824Z" fill="#515D61"/>
<path d="M11.7656 70.5878H17.6484V64.7051H11.7656V70.5878Z" fill="#231F20"/>
<path d="M11.7656 176.471H17.6484V170.588H11.7656V176.471Z" fill="#231F20"/>
<path d="M11.7656 76.4687H17.6484V70.5859H11.7656V76.4687Z" fill="#231F20"/>
<path d="M11.7656 82.3515H17.6484V76.4687H11.7656V82.3515Z" fill="#231F20"/>
<path d="M11.7656 64.707H17.6484V58.8242H11.7656V64.707Z" fill="#515D61"/>
<path d="M11.7656 88.2343H17.6484V82.3515H11.7656V88.2343Z" fill="#231F20"/>
<path d="M11.7656 99.9985H17.6484V94.1172H11.7656V99.9985Z" fill="#343C3F"/>
<path d="M11.7656 105.883H17.6484V100H11.7656V105.883Z" fill="#231F20"/>
<path d="M11.7656 111.766H17.6484V105.883H11.7656V111.766Z" fill="#515D61"/>
<path d="M11.7656 94.1172H17.6484V88.2343H11.7656V94.1172Z" fill="#231F20"/>
<path d="M88.2344 194.117H94.1157V188.234H88.2344V194.117Z" fill="#979EA1"/>
<path d="M117.645 194.117H123.527V188.234H117.645V194.117Z" fill="#979EA1"/>
<path d="M82.3516 194.117L88.2344 194.117V188.234H82.3516V194.117Z" fill="#231F20"/>
<path d="M105.883 194.117H111.766L111.766 188.234H105.883V194.117Z" fill="#231F20"/>
<path d="M111.766 194.117H117.647V188.234H111.766L111.766 194.117Z" fill="#979EA1"/>
<path d="M94.1172 194.117H100L99.9999 188.234H94.1172V194.117Z" fill="#231F20"/>
<path d="M100 194.117H105.883V188.234H99.9999L100 194.117Z" fill="#979EA1"/>
<path d="M29.4141 194.117H35.2953V188.234H29.4141V194.117Z" fill="#231F20"/>
<path d="M17.6484 194.117H23.5312V188.234H17.6484L17.6484 194.117Z" fill="#231F20"/>
<path d="M17.6484 188.234H23.5312V182.352H17.6484L17.6484 188.234Z" fill="#C7CBCD"/>
<path d="M11.7656 188.234H17.6484L17.6484 182.352H11.7656V188.234Z" fill="#C7CBCD"/>
<path d="M23.5273 194.117H29.4101V188.234H23.5273V194.117Z" fill="#979EA1"/>
<path d="M47.0586 194.117H52.9399V188.234H47.0586V194.117Z" fill="#979EA1"/>
<path d="M41.1759 194.117L47.0586 194.117V188.234L41.1759 188.235V194.117Z" fill="#979EA1"/>
<path d="M52.9414 194.117H58.8241V188.234H52.9414V194.117Z" fill="#231F20"/>
<path d="M35.2931 194.117H41.1759V188.235H35.2931V194.117Z" fill="#979EA1"/>
<path d="M11.7656 182.352H17.6484L17.6484 176.471H11.7656V182.352Z" fill="#C7CBCD"/>
<path d="M70.5898 5.88274H76.4711V0H70.5898V5.88274Z" fill="#231F20"/>
<path d="M64.707 5.88274H70.5898V0H64.707V5.88274Z" fill="#231F20"/>
<path d="M47.0586 5.88274H52.9399V0H47.0586V5.88274Z" fill="#231F20"/>
<path d="M58.8242 5.88274H64.707V0H58.8242V5.88274Z" fill="#231F20"/>
<path d="M41.1758 5.88274H47.0586V0H41.1758V5.88274Z" fill="#231F20"/>
<path d="M52.9414 5.88274H58.8242V0H52.9414V5.88274Z" fill="#231F20"/>
<path d="M35.2931 5.88274H41.1758V0H35.2931V5.88274Z" fill="#231F20"/>
<path d="M194.117 176.471H200V170.588H194.117V176.471Z" fill="#515D61"/>
<path d="M194.117 170.588H200V164.705H194.117V170.588Z" fill="#515D61"/>
<path d="M194.117 188.235H200V182.352H194.117V188.235Z" fill="#C7CBCD"/>
<path d="M194.117 135.295H200V129.412H194.117V135.295Z" fill="#515D61"/>
<path d="M194.117 164.705H200V158.824H194.117V164.705Z" fill="#515D61"/>
<path d="M194.117 152.941H200V147.059H194.117V152.941Z" fill="#515D61"/>
<path d="M194.117 141.176H200V135.295H194.117V141.176Z" fill="#515D61"/>
<path d="M194.117 147.059H200V141.176H194.117V147.059Z" fill="#515D61"/>
<path d="M194.117 194.117H200V188.235H194.117V194.117Z" fill="#979EA1"/>
<path d="M194.117 158.824H200V152.941H194.117V158.824Z" fill="#515D61"/>
<path d="M194.117 182.352H200V176.471H194.117V182.352Z" fill="#231F20"/>
<path d="M194.117 200H200V194.117H194.117V200Z" fill="#231F20"/>
<path d="M194.117 129.411H200V123.529H194.117V129.411Z" fill="#515D61"/>
<path d="M194.117 117.647H200V111.766H194.117V117.647Z" fill="#515D61"/>
<path d="M194.117 111.766H200V105.883H194.117V111.766Z" fill="#515D61"/>
<path d="M194.117 123.531H200V117.647H194.117V123.531Z" fill="#515D61"/>
<path d="M194.117 105.883H200V100H194.117V105.883Z" fill="#515D61"/>
<path d="M194.117 94.1171H200V88.2344H194.117V94.1171Z" fill="#72848B"/>
<path d="M194.117 82.3534H200V76.4707H194.117V82.3534Z" fill="#231F20"/>
<path d="M194.117 88.2344H200V82.3516H194.117V88.2344Z" fill="#231F20"/>
<path d="M194.117 99.9985H200V94.1171H194.117V99.9985Z" fill="#515D61"/>
<path d="M23.5273 182.352H29.4101V176.471H23.5273V182.352Z" fill="#C7CBCD"/>
<path d="M200 141.176H205.881V135.295L200 135.295V141.176Z" fill="#515D61"/>
<path d="M200 147.059L205.881 147.059V141.176H200V147.059Z" fill="#515D61"/>
<path d="M200 135.295L205.881 135.295V129.412H200V135.295Z" fill="#515D61"/>
<path d="M200 158.824L205.881 158.824V152.941L200 152.941V158.824Z" fill="#515D61"/>
<path d="M200 164.705L205.881 164.705V158.824L200 158.824V164.705Z" fill="#515D61"/>
<path d="M200 152.941L205.881 152.941V147.059L200 147.059V152.941Z" fill="#515D61"/>
<path d="M200 111.766L205.881 111.766V105.883H200V111.766Z" fill="#72848B"/>
<path d="M200 129.412H205.881V123.531L200 123.531V129.412Z" fill="#515D61"/>
<path d="M200 117.647H205.881V111.766L200 111.766V117.647Z" fill="#515D61"/>
<path d="M200 123.531L205.881 123.531V117.647H200V123.531Z" fill="#515D61"/>
<path d="M200 194.117L205.881 194.117V188.234L200 188.235V194.117Z" fill="#231F20"/>
<path d="M200 200L205.881 200V194.117L200 194.117V200Z" fill="#231F20"/>
<path d="M200 176.471L205.881 176.471V170.588L200 170.588V176.471Z" fill="#515D61"/>
<path d="M200 182.352L205.881 182.352V176.471L200 176.471V182.352Z" fill="#231F20"/>
<path d="M200 170.588L205.881 170.588V164.705L200 164.705V170.588Z" fill="#515D61"/>
<path d="M200 188.235L205.881 188.234V182.352L200 182.352V188.235Z" fill="#C7CBCD"/>
<path d="M188.234 117.647H194.117V111.766H188.234V117.647Z" fill="#515D61"/>
<path d="M188.234 123.531L194.117 123.531V117.647H188.234V123.531Z" fill="#515D61"/>
<path d="M188.234 111.766H194.117V105.883H188.234V111.766Z" fill="#515D61"/>
<path d="M188.234 129.411H194.117V123.529H188.234V129.411Z" fill="#515D61"/>
<path d="M188.234 135.295H194.117V129.412L188.234 129.413V135.295Z" fill="#515D61"/>
<path d="M188.234 94.1171H194.117V88.2344H188.234V94.1171Z" fill="#515D61"/>
<path d="M188.234 82.3534H194.117V76.4707H188.234V82.3534Z" fill="#72848B"/>
<path d="M188.234 141.176H194.117V135.295H188.234V141.176Z" fill="#515D61"/>
<path d="M188.234 99.9985H194.117V94.1171H188.234V99.9985Z" fill="#515D61"/>
<path d="M188.234 105.883H194.117V100H188.234V105.883Z" fill="#515D61"/>
<path d="M188.234 88.2344H194.117V82.3516L188.234 82.3515V88.2344Z" fill="#515D61"/>
<path d="M188.234 182.352L194.117 182.352V176.471L188.234 176.471V182.352Z" fill="#231F20"/>
<path d="M188.234 188.234L194.117 188.235V182.352L188.234 182.352V188.234Z" fill="#C7CBCD"/>
<path d="M188.234 147.059H194.117V141.176H188.234V147.059Z" fill="#515D61"/>
<path d="M188.234 194.117L194.117 194.117V188.235L188.234 188.234V194.117Z" fill="#231F20"/>
<path d="M188.234 200L194.117 200V194.117L188.234 194.117V200Z" fill="#231F20"/>
<path d="M188.234 170.588L194.117 170.588V164.705L188.234 164.705V170.588Z" fill="#515D61"/>
<path d="M188.234 152.941L194.117 152.941V147.059H188.234V152.941Z" fill="#515D61"/>
<path d="M188.234 158.824L194.117 158.824V152.941L188.234 152.941V158.824Z" fill="#515D61"/>
<path d="M188.234 164.705L194.117 164.705V158.824L188.234 158.824V164.705Z" fill="#3F484C"/>
<path d="M188.234 176.471L194.117 176.471V170.588L188.234 170.588V176.471Z" fill="#515D61"/>
<path d="M188.234 76.4707H194.117L194.117 70.5879H188.234V76.4707Z" fill="#231F20"/>
<path d="M0 158.824H5.88281V152.941H0V158.824Z" fill="#231F20"/>
<path d="M0 164.705L5.88281 164.705V158.824H0V164.705Z" fill="#231F20"/>
<path d="M0 170.588L5.88281 170.588V164.705L0 164.705V170.588Z" fill="#231F20"/>
<path d="M47.0586 11.7641H52.9399V5.88274H47.0586V11.7641Z" fill="#515D61"/>
<path d="M52.9414 11.7641H58.8241L58.8242 5.88274H52.9414V11.7641Z" fill="#515D61"/>
<path d="M58.8241 11.7641H64.707L64.707 5.88274H58.8242L58.8241 11.7641Z" fill="#515D61"/>
<path d="M70.5898 11.7641H76.4711V5.88274H70.5898V11.7641Z" fill="#515D61"/>
<path d="M41.1758 11.7641H47.0586V5.88274H41.1758V11.7641Z" fill="#515D61"/>
<path d="M64.707 11.7641H70.5898V5.88274H64.707L64.707 11.7641Z" fill="#515D61"/>
<path d="M35.2931 11.764L41.1758 11.7641V5.88274H35.2931V11.764Z" fill="#72848B"/>
<path d="M29.4141 11.7641H35.2953V5.88281H29.4141V11.7641Z" fill="#231F20"/>
<path d="M76.4688 11.7641H82.3515V5.88281H76.4688V11.7641Z" fill="#231F20"/>
<path d="M94.1172 135.295H99.9999V129.412H94.1172V135.295Z" fill="#3F484C"/>
<path d="M135.293 82.3515H141.174V76.4688H135.293V82.3515Z" fill="#515D61"/>
<path d="M135.293 64.707H141.174V58.8242H135.293V64.707Z" fill="#515D61"/>
<path d="M123.527 64.707H129.41V58.8242H123.527V64.707Z" fill="#515D61"/>
<path d="M135.293 70.5878H141.174V64.7051H135.293V70.5878Z" fill="#515D61"/>
<path d="M135.293 76.4688H141.174V70.5859H135.293V76.4688Z" fill="#515D61"/>
<path d="M129.41 64.707H135.293V58.8242H129.41V64.707Z" fill="#515D61"/>
<path d="M100 64.707H105.883V58.8242H100V64.707Z" fill="#231F20"/>
<path d="M117.645 64.707H123.527V58.8242H117.645V64.707Z" fill="#515D61"/>
<path d="M105.883 64.707H111.767V58.8242H105.883V64.707Z" fill="#515D61"/>
<path d="M129.41 70.5878H135.293V64.7051H129.41V70.5878Z" fill="#515D61"/>
<path d="M135.293 99.9985H141.174V94.1172H135.293V99.9985Z" fill="#515D61"/>
<path d="M135.293 129.413H141.174V123.531H135.293V129.413Z" fill="#343C3F"/>
<path d="M135.293 123.531H141.174V117.646H135.293V123.531Z" fill="#343C3F"/>
<path d="M135.293 88.2343H141.174V82.3515H135.293V88.2343Z" fill="#515D61"/>
<path d="M135.293 135.295H141.174V129.413H135.293V135.295Z" fill="#231F20"/>
<path d="M135.293 117.646H141.174V111.766H135.293V117.646Z" fill="#515D61"/>
<path d="M135.293 141.176H141.174V135.295H135.293V141.176Z" fill="#979EA1"/>
<path d="M94.1172 64.707H100V58.8242H94.1172V64.707Z" fill="#C7CBCD"/>
<path d="M135.293 111.766H141.174V105.883H135.293V111.766Z" fill="#515D61"/>
<path d="M135.293 94.1172H141.174V88.2343H135.293V94.1172Z" fill="#515D61"/>
<path d="M135.293 105.883H141.174V100H135.293V105.883Z" fill="#515D61"/>
<path d="M47.0586 82.3515H52.9399V76.4688H47.0586V82.3515Z" fill="#C7CBCD"/>
<path d="M47.0586 99.9985H52.9399V94.1172H47.0586V99.9985Z" fill="#C7CBCD"/>
<path d="M47.0586 105.883H52.9399V100H47.0586V105.883Z" fill="#C7CBCD"/>
<path d="M47.0586 111.766H52.9399V105.883H47.0586V111.766Z" fill="#979EA1"/>
<path d="M47.0586 94.1172H52.9399V88.2344H47.0586V94.1172Z" fill="#231F20"/>
<path d="M47.0586 88.2344H52.9399V82.3515H47.0586V88.2344Z" fill="#C7CBCD"/>
<path d="M47.0586 117.647H52.9399V111.766H47.0586V117.647Z" fill="#231F20"/>
<path d="M47.0586 129.413H52.9399V123.531H47.0586V129.413Z" fill="#979EA1"/>
<path d="M47.0586 135.295H52.9399V129.413H47.0586V135.295Z" fill="#231F20"/>
<path d="M47.0586 123.531H52.9399V117.647H47.0586V123.531Z" fill="#979EA1"/>
<path d="M135.293 147.059H141.174V141.176H135.293V147.059Z" fill="#858B8E"/>
<path d="M76.4688 64.707H82.3515V58.8242H76.4688V64.707Z" fill="#231F20"/>
<path d="M88.2344 64.707H94.1157V58.8242H88.2344V64.707Z" fill="#231F20"/>
<path d="M70.5898 64.707H76.4711V58.8242H70.5898V64.707Z" fill="#C7CBCD"/>
<path d="M47.0586 76.4688H52.9399V70.5859H47.0586V76.4688Z" fill="#C7CBCD"/>
<path d="M82.3515 64.707H88.2344V58.8242H82.3515V64.707Z" fill="#515D61"/>
<path d="M64.707 64.707H70.5898V58.8242H64.707V64.707Z" fill="#C7CBCD"/>
<path d="M47.0586 64.707H52.9399V58.8242H47.0586V64.707Z" fill="#C7CBCD"/>
<path d="M47.0586 70.5878H52.9399V64.7051H47.0586V70.5878Z" fill="#C7CBCD"/>
<path d="M58.8242 64.707H64.707V58.8242H58.8242V64.707Z" fill="#C7CBCD"/>
<path d="M52.9414 64.707H58.8242V58.8242H52.9414V64.707Z" fill="#231F20"/>
<path d="M52.9414 147.06H58.8241V141.176H52.9414V147.06Z" fill="#231F20"/>
<path d="M52.9414 76.4687H58.8241V70.5859H52.9414V76.4687Z" fill="#C7CBCD"/>
<path d="M52.9414 70.5878H58.8241V64.7051H52.9414V70.5878Z" fill="#C7CBCD"/>
<path d="M64.707 70.5878H70.5898V64.7051H64.707V70.5878Z" fill="#C7CBCD"/>
<path d="M58.8241 70.5878H64.707V64.7051H58.8241V70.5878Z" fill="#C7CBCD"/>
<path d="M52.9414 82.3515H58.8241V76.4687H52.9414V82.3515Z" fill="#C7CBCD"/>
<path d="M52.9414 105.883H58.8241V100H52.9414V105.883Z" fill="#C7CBCD"/>
<path d="M70.5898 70.5878H76.4711V64.7051H70.5898V70.5878Z" fill="#C7CBCD"/>
<path d="M52.9414 111.766H58.8241V105.883H52.9414V111.766Z" fill="#979EA1"/>
<path d="M52.9414 94.1171H58.8241V88.2344H52.9414V94.1171Z" fill="#231F20"/>
<path d="M52.9414 88.2344H58.8241V82.3515H52.9414V88.2344Z" fill="#C7CBCD"/>
<path d="M52.9414 99.9985H58.8241V94.1171H52.9414V99.9985Z" fill="#C7CBCD"/>
<path d="M105.883 70.5878H111.767V64.7051H105.883V70.5878Z" fill="#515D61"/>
<path d="M135.293 152.941H141.174V147.059H135.293V152.941Z" fill="#231F20"/>
<path d="M76.4688 70.5878H82.3515V64.7051H76.4688V70.5878Z" fill="#231F20"/>
<path d="M123.527 70.5878H129.41V64.7051H123.527V70.5878Z" fill="#515D61"/>
<path d="M111.766 70.5878H117.647V64.7051H111.766V70.5878Z" fill="#515D61"/>
<path d="M100 70.5878H105.883V64.7051H100V70.5878Z" fill="#515D61"/>
<path d="M82.3515 70.5878H88.2343V64.7051H82.3515V70.5878Z" fill="#515D61"/>
<path d="M88.2343 70.5878H94.1157V64.7051H88.2343V70.5878Z" fill="#343C3F"/>
<path d="M94.1172 70.5878H100V64.7051H94.1172V70.5878Z" fill="#231F20"/>
<path d="M117.645 70.5878H123.527V64.7051H117.645V70.5878Z" fill="#515D61"/>
<path d="M100 152.941H105.883V147.059H100V152.941Z" fill="#515D61"/>
<path d="M105.883 152.941H111.766V147.059H105.883V152.941Z" fill="#515D61"/>
<path d="M76.4688 152.94H82.3515V147.059H76.4688V152.94Z" fill="#231F20"/>
<path d="M82.3516 147.06V152.941H88.2343V147.059L82.3516 147.06Z" fill="#231F20"/>
<path d="M88.2343 152.941H94.1157V147.059H88.2343V152.941Z" fill="#515D61"/>
<path d="M52.9414 117.647H58.8241V111.766H52.9414V117.647Z" fill="#231F20"/>
<path d="M129.41 152.941H135.293V147.059L129.41 147.059V152.941Z" fill="#231F20"/>
<path d="M111.766 152.941H117.647V147.059H111.766V152.941Z" fill="#515D61"/>
<path d="M123.527 152.941H129.41V147.059H123.527V152.941Z" fill="#343C3F"/>
<path d="M117.645 152.941H123.527V147.059H117.645V152.941Z" fill="#515D61"/>
<path d="M94.1172 152.941H100V147.059H94.1172V152.941Z" fill="#515D61"/>
<path d="M52.9414 129.413H58.8241V123.531H52.9414V129.413Z" fill="#C7CBCD"/>
<path d="M52.9414 135.295H58.8241V129.413H52.9414V135.295Z" fill="#979EA1"/>
<path d="M52.9414 123.531H58.8241V117.647H52.9414V123.531Z" fill="#979EA1"/>
<path d="M52.9414 141.176H58.8241V135.295H52.9414V141.176Z" fill="#231F20"/>
<path d="M64.707 152.94H70.5898V147.059H64.707V152.94Z" fill="#231F20"/>
<path d="M47.0586 141.176H52.9399V135.295H47.0586V141.176Z" fill="#343C3F"/>
<path d="M70.5898 152.94H76.4711V147.059H70.5898V152.94Z" fill="#231F20"/>
<path d="M58.8241 147.06H64.707V141.176H58.8241V147.06Z" fill="#231F20"/>
<path d="M111.766 64.707H117.647V58.8242H111.766V64.707Z" fill="#515D61"/>
<path d="M41.1758 82.3515H47.0586V76.4688H41.1758V82.3515Z" fill="#C7CBCD"/>
<path d="M41.1758 58.8227H47.0585V52.9414H41.1758V58.8227Z" fill="#C7CBCD"/>
<path d="M41.1758 88.2343L47.0586 88.2344V82.3515H41.1758V88.2343Z" fill="#231F20"/>
<path d="M41.1758 70.5878H47.0586V64.7051H41.1758V70.5878Z" fill="#C7CBCD"/>
<path d="M41.1758 64.707H47.0586V58.8242H41.1758V64.707Z" fill="#C7CBCD"/>
<path d="M41.1758 76.4688H47.0586V70.5859H41.1758V76.4688Z" fill="#231F20"/>
<path d="M41.1758 94.1171L47.0586 94.1172V88.2344L41.1758 88.2343V94.1171Z" fill="#870E12"/>
<path d="M41.1758 111.766H47.0571V105.883H41.1758V111.766Z" fill="#979EA1"/>
<path d="M41.1758 105.883L47.0586 105.883V100H41.1758V105.883Z" fill="#C7CBCD"/>
<path d="M41.1758 99.9985H47.0586V94.1172L41.1758 94.1171V99.9985Z" fill="#231F20"/>
<path d="M94.1172 58.8227H99.9999V52.9414H94.1172V58.8227Z" fill="#C7CBCD"/>
<path d="M76.4688 58.8227H82.3515V52.9414H76.4688V58.8227Z" fill="#231F20"/>
<path d="M88.2344 58.8227H94.1157V52.9414H88.2344V58.8227Z" fill="#231F20"/>
<path d="M82.3515 58.8227H88.2344V52.9414H82.3515V58.8227Z" fill="#515D61"/>
<path d="M41.1758 117.647H47.0586V111.766H41.1758V117.647Z" fill="#231F20"/>
<path d="M64.707 58.8227H70.5898V52.9414H64.707V58.8227Z" fill="#C7CBCD"/>
<path d="M58.8242 58.8227H64.707V52.9414H58.8242V58.8227Z" fill="#C7CBCD"/>
<path d="M99.9999 58.8227H105.881V52.9414H99.9999V58.8227Z" fill="#231F20"/>
<path d="M70.5898 58.8227H76.4711V52.9414H70.5898V58.8227Z" fill="#C7CBCD"/>
<path d="M47.0585 58.8227H52.9399V52.9414H47.0585V58.8227Z" fill="#C7CBCD"/>
<path d="M52.9414 58.8227H58.8242V52.9414H52.9414V58.8227Z" fill="#231F20"/>
<path d="M82.3516 158.824V164.705H88.2343V158.824H82.3516Z" fill="#515D61"/>
<path d="M76.4688 164.705H82.3516V158.824H76.4688V164.705Z" fill="#231F20"/>
<path d="M88.2343 164.705H94.1157V158.824H88.2343V164.705Z" fill="#515D61"/>
<path d="M94.1172 164.705H99.9999V158.824H94.1172V164.705Z" fill="#515D61"/>
<path d="M105.883 164.705H111.766V158.824H105.883V164.705Z" fill="#515D61"/>
<path d="M111.766 164.705H117.647V158.824H111.766V164.705Z" fill="#515D61"/>
<path d="M99.9999 164.705H105.883V158.824H99.9999V164.705Z" fill="#515D61"/>
<path d="M47.0586 164.705H52.9399V158.824H47.0586V164.705Z" fill="#343C3F"/>
<path d="M41.1758 141.176H47.0586V135.295L41.1758 135.295V141.176Z" fill="#515D61"/>
<path d="M41.1758 135.295L47.0586 135.295V129.413L41.1758 129.412V135.295Z" fill="#515D61"/>
<path d="M41.1758 147.06H47.0585L47.0586 141.176H41.1758V147.06Z" fill="#515D61"/>
<path d="M41.1758 129.412L47.0586 129.413V123.531H41.1758V129.412Z" fill="#231F20"/>
<path d="M52.9414 164.705H58.8241V158.824H52.9414V164.705Z" fill="#231F20"/>
<path d="M41.1758 152.94H47.0585V147.059H41.1758V152.94Z" fill="#515D61"/>
<path d="M41.1758 123.531H47.0586V117.647H41.1758V123.531Z" fill="#858B8E"/>
<path d="M47.0586 158.824H52.9399V152.941H47.0586V158.824Z" fill="#343C3F"/>
<path d="M41.1758 158.824L47.0586 158.824V152.941H41.1758V158.824Z" fill="#515D61"/>
<path d="M129.41 158.824H135.293L135.293 152.941H129.41V158.824Z" fill="#231F20"/>
<path d="M94.1172 158.824H99.9999L100 152.941H94.1172V158.824Z" fill="#515D61"/>
<path d="M111.766 158.824H117.647V152.941H111.766V158.824Z" fill="#515D61"/>
<path d="M123.527 158.824H129.41V152.941H123.527V158.824Z" fill="#343C3F"/>
<path d="M99.9999 158.824H105.883L105.883 152.941H100L99.9999 158.824Z" fill="#515D61"/>
<path d="M105.883 158.824H111.766V152.941H105.883L105.883 158.824Z" fill="#515D61"/>
<path d="M117.645 158.824H123.527V152.941H117.645V158.824Z" fill="#515D61"/>
<path d="M141.176 158.824H147.059V152.941H141.176V158.824Z" fill="#231F20"/>
<path d="M141.176 152.941H147.059V147.059H141.176V152.941Z" fill="#231F20"/>
<path d="M47.0585 147.06H52.9399V141.176H47.0586L47.0585 147.06Z" fill="#343C3F"/>
<path d="M141.176 147.059H147.059L147.059 141.176H141.176L141.176 147.059Z" fill="#858B8E"/>
<path d="M52.9414 152.94H58.8241V147.059H52.9414V152.94Z" fill="#231F20"/>
<path d="M52.9414 158.824H58.8241V152.941H52.9414V158.824Z" fill="#231F20"/>
<path d="M47.0585 152.94H52.9399V147.059H47.0585V152.94Z" fill="#343C3F"/>
<path d="M88.2343 158.824H94.1157V152.941H88.2343V158.824Z" fill="#515D61"/>
<path d="M82.3516 152.941V158.824H88.2343V152.941H82.3516Z" fill="#515D61"/>
<path d="M76.4688 158.824H82.3516V152.941L76.4688 152.941V158.824Z" fill="#231F20"/>
<path d="M105.883 58.8227H111.766V52.9414H105.883V58.8227Z" fill="#515D61"/>
<path d="M141.176 64.705H147.059V58.8223H141.176V64.705Z" fill="#515D61"/>
<path d="M135.293 58.8227H141.174V52.9414H135.293V58.8227Z" fill="#515D61"/>
<path d="M141.176 58.8223H147.059V52.9414H141.176V58.8223Z" fill="#515D61"/>
<path d="M141.176 76.4706H147.059V70.5879H141.176V76.4706Z" fill="#515D61"/>
<path d="M141.176 141.176H147.059L147.059 135.295H141.176L141.176 141.176Z" fill="#979EA1"/>
<path d="M111.766 58.8227H117.647V52.9414H111.766V58.8227Z" fill="#515D61"/>
<path d="M141.176 82.3534H147.059V76.4706H141.176V82.3534Z" fill="#515D61"/>
<path d="M117.645 58.8227H123.527V52.9414H117.645V58.8227Z" fill="#515D61"/>
<path d="M123.527 58.8227H129.41V52.9414H123.527V58.8227Z" fill="#515D61"/>
<path d="M129.41 58.8227H135.293V52.9414H129.41V58.8227Z" fill="#515D61"/>
<path d="M141.176 70.5879H147.059V64.705H141.176V70.5879Z" fill="#515D61"/>
<path d="M141.176 129.411H147.059V123.529H141.176V129.411Z" fill="#343C3F"/>
<path d="M141.176 123.531H147.059V117.646H141.176V123.531Z" fill="#515D61"/>
<path d="M141.176 135.295H147.059V129.412H141.176V135.295Z" fill="#231F20"/>
<path d="M141.176 88.2343H147.059V82.3516H141.176V88.2343Z" fill="#515D61"/>
<path d="M141.176 117.646H147.059V111.766H141.176V117.646Z" fill="#515D61"/>
<path d="M141.176 94.1171H147.059V88.2343H141.176V94.1171Z" fill="#515D61"/>
<path d="M141.176 111.766H147.059V105.883H141.176V111.766Z" fill="#515D61"/>
<path d="M141.176 99.9985H147.059V94.1171H141.176V99.9985Z" fill="#515D61"/>
<path d="M141.176 105.883H147.059V100H141.176V105.883Z" fill="#515D61"/>
<path d="M100 117.647H105.883V111.766H100V117.647Z" fill="#515D61"/>
<path d="M70.5898 88.2343H76.4711V82.3516H70.5898V88.2343Z" fill="#979EA1"/>
<path d="M70.5898 94.1171H76.4711V88.2343H70.5898V94.1171Z" fill="#231F20"/>
<path d="M70.5898 129.413H76.4711V123.531H70.5898V129.413Z" fill="#979EA1"/>
<path d="M76.4688 88.2343H82.3515V82.3516H76.4688V88.2343Z" fill="#231F20"/>
<path d="M82.3515 88.2343H88.2343V82.3516H82.3515V88.2343Z" fill="#231F20"/>
<path d="M70.5898 99.9985H76.4711V94.1171H70.5898V99.9985Z" fill="#231F20"/>
<path d="M70.5898 105.883H76.4711V100H70.5898V105.883Z" fill="#231F20"/>
<path d="M70.5898 117.647H76.4711V111.766H70.5898V117.647Z" fill="#979EA1"/>
<path d="M70.5898 123.531H76.4711V117.647H70.5898V123.531Z" fill="#979EA1"/>
<path d="M70.5898 111.766H76.4711V105.883H70.5898V111.766Z" fill="#858B8E"/>
<path d="M88.2343 88.2343H94.1157V82.3516H88.2343V88.2343Z" fill="#72848B"/>
<path d="M111.766 105.883H117.647V100H111.766V105.883Z" fill="#515D61"/>
<path d="M94.1172 88.2343H99.9999V82.3516H94.1172V88.2343Z" fill="#515D61"/>
<path d="M111.766 111.766H117.647V105.883H111.766V111.766Z" fill="#515D61"/>
<path d="M111.766 123.531H117.647V117.646H111.766V123.531Z" fill="#515D61"/>
<path d="M111.766 117.646H117.647V111.766H111.766V117.646Z" fill="#515D61"/>
<path d="M111.766 99.9985H117.647V94.1172H111.766V99.9985Z" fill="#515D61"/>
<path d="M99.9999 88.2343H105.883V82.3516H99.9999V88.2343Z" fill="#515D61"/>
<path d="M105.883 88.2343H111.767V82.3516H105.883V88.2343Z" fill="#515D61"/>
<path d="M111.766 88.2343H117.647V82.3516H111.766V88.2343Z" fill="#515D61"/>
<path d="M111.766 94.1172H117.647V88.2343H111.766V94.1172Z" fill="#515D61"/>
<path d="M117.645 117.647H123.527V111.766H117.645V117.647Z" fill="#515D61"/>
<path d="M117.645 105.883H123.527V100H117.645V105.883Z" fill="#515D61"/>
<path d="M117.645 99.9985H123.527V94.1172H117.645V99.9985Z" fill="#515D61"/>
<path d="M117.645 111.766H123.527V105.883H117.645V111.766Z" fill="#515D61"/>
<path d="M117.645 94.1172H123.527V88.2344H117.645V94.1172Z" fill="#515D61"/>
<path d="M111.766 129.413H117.647V123.531H111.766V129.413Z" fill="#515D61"/>
<path d="M76.4688 129.413H82.3515V123.531H76.4688V129.413Z" fill="#231F20"/>
<path d="M129.41 76.4687L135.293 76.4688V70.5859H129.41V76.4687Z" fill="#515D61"/>
<path d="M117.645 88.2344H123.527V82.3516H117.645V88.2344Z" fill="#515D61"/>
<path d="M111.766 82.3516H117.647V76.4688H111.766V82.3516Z" fill="#515D61"/>
<path d="M117.645 82.3516H123.527V76.4688H117.645V82.3516Z" fill="#515D61"/>
<path d="M105.883 82.3516H111.767V76.4688H105.883L105.883 82.3516Z" fill="#515D61"/>
<path d="M88.2344 135.295H94.1157V129.412H88.2344V135.295Z" fill="#515D61"/>
<path d="M82.3515 129.413L82.3516 135.295H88.2344V129.412L82.3515 129.413Z" fill="#231F20"/>
<path d="M76.4688 135.295H82.3516L82.3515 129.413H76.4688V135.295Z" fill="#979EA1"/>
<path d="M200 105.883H205.881V100H200V105.883Z" fill="#231F20"/>
<path d="M117.645 129.413H123.527V123.531H117.645V129.413Z" fill="#515D61"/>
<path d="M111.766 135.295H117.647V129.413H111.766V135.295Z" fill="#515D61"/>
<path d="M117.645 135.295H123.527V129.413H117.645V135.295Z" fill="#515D61"/>
<path d="M105.883 135.295H111.766V129.413L105.883 129.412V135.295Z" fill="#515D61"/>
<path d="M99.9999 135.295H105.883V129.412H99.9999V135.295Z" fill="#515D61"/>
<path d="M105.883 129.412L111.766 129.413V123.531L105.883 123.531V129.412Z" fill="#515D61"/>
<path d="M82.3516 111.766H88.2343V105.883H82.3516V111.766Z" fill="#515D61"/>
<path d="M82.3516 105.883H88.2343V100H82.3516V105.883Z" fill="#515D61"/>
<path d="M99.9999 82.3516H105.883L105.883 76.4688H100L99.9999 82.3516Z" fill="#515D61"/>
<path d="M82.3516 99.9985H88.2343V94.1172H82.3516V99.9985Z" fill="#72848B"/>
<path d="M82.3516 117.647H88.2343V111.766H82.3516V117.647Z" fill="#515D61"/>
<path d="M94.1172 99.9985H99.9999V94.1172H94.1172V99.9985Z" fill="#515D61"/>
<path d="M100 123.531L105.883 123.531L105.883 117.647H100V123.531Z" fill="#515D61"/>
<path d="M105.883 123.531L111.766 123.531V117.646L105.883 117.647L105.883 123.531Z" fill="#515D61"/>
<path d="M94.1172 123.531H100V117.647L94.1172 117.646V123.531Z" fill="#515D61"/>
<path d="M88.2344 123.531H94.1157V117.646L88.2343 117.647L88.2344 123.531Z" fill="#515D61"/>
<path d="M88.2343 117.647L94.1157 117.646V111.766L88.2343 111.766V117.647Z" fill="#515D61"/>
<path d="M94.1172 111.766L100 111.766L99.9999 105.883H94.1172V111.766Z" fill="#515D61"/>
<path d="M88.2343 111.766L94.1157 111.766V105.883H88.2343V111.766Z" fill="#515D61"/>
<path d="M88.2343 105.883H94.1157V100H88.2343V105.883Z" fill="#515D61"/>
<path d="M94.1172 105.883H99.9999V100H94.1172V105.883Z" fill="#515D61"/>
<path d="M99.9999 99.9985H105.883V94.1172H99.9999V99.9985Z" fill="#515D61"/>
<path d="M100 111.766H105.883V105.883H99.9999L100 111.766Z" fill="#515D61"/>
<path d="M94.1172 117.646L100 117.647V111.766L94.1172 111.766V117.646Z" fill="#515D61"/>
<path d="M99.9999 105.883H105.883V100H99.9999V105.883Z" fill="#515D61"/>
<path d="M117.645 164.705H123.527L123.527 158.824H117.645V164.705Z" fill="#343C3F"/>
<path d="M88.2343 99.9985H94.1157V94.1172H88.2343V99.9985Z" fill="#515D61"/>
<path d="M76.4688 117.647H82.3516V111.766L76.4688 111.766V117.647Z" fill="#231F20"/>
<path d="M82.3515 123.531L88.2344 123.531L88.2343 117.647H82.3516L82.3515 123.531Z" fill="#515D61"/>
<path d="M76.4688 123.531H82.3515L82.3516 117.647H76.4688V123.531Z" fill="#231F20"/>
<path d="M76.4688 111.766L82.3516 111.766V105.883H76.4688V111.766Z" fill="#231F20"/>
<path d="M76.4688 105.883H82.3516V100H76.4688V105.883Z" fill="#231F20"/>
<path d="M82.3515 129.413L88.2344 129.412V123.531L82.3515 123.531V129.413Z" fill="#515D61"/>
<path d="M94.1172 129.412H99.9999L100 123.531H94.1172V129.412Z" fill="#515D61"/>
<path d="M99.9999 129.412H105.883V123.531L100 123.531L99.9999 129.412Z" fill="#515D61"/>
<path d="M76.4688 99.9985H82.3516V94.1172H76.4688V99.9985Z" fill="#231F20"/>
<path d="M88.2344 129.412H94.1157V123.531H88.2344V129.412Z" fill="#515D61"/>
<path d="M94.1172 94.1172H99.9999V88.2343H94.1172V94.1172Z" fill="#515D61"/>
<path d="M105.883 94.1172L111.767 94.1171V88.2343H105.883V94.1172Z" fill="#515D61"/>
<path d="M105.883 105.883L111.766 105.883V100H105.883V105.883Z" fill="#515D61"/>
<path d="M105.883 99.9985H111.766V94.1172H105.883V99.9985Z" fill="#515D61"/>
<path d="M105.883 111.766L111.766 111.766V105.883L105.883 105.883V111.766Z" fill="#515D61"/>
<path d="M88.2343 94.1172H94.1157V88.2343H88.2343V94.1172Z" fill="#515D61"/>
<path d="M82.3516 94.1172H88.2343V88.2343H82.3515L82.3516 94.1172Z" fill="#231F20"/>
<path d="M76.4688 94.1172H82.3516L82.3515 88.2343H76.4688V94.1172Z" fill="#343C3F"/>
<path d="M99.9999 94.1172H105.883V88.2343H99.9999V94.1172Z" fill="#515D61"/>
<path d="M105.883 117.647L111.766 117.646V111.766L105.883 111.766V117.647Z" fill="#515D61"/>
<path d="M117.645 123.531H123.527V117.647H117.645V123.531Z" fill="#515D61"/>
<path d="M58.8241 129.413H64.707V123.531H58.8241V129.413Z" fill="#C7CBCD"/>
<path d="M58.8241 123.531H64.707V117.646L58.8241 117.647V123.531Z" fill="#979EA1"/>
<path d="M58.8241 135.295H64.707V129.413H58.8241V135.295Z" fill="#C7CBCD"/>
<path d="M58.8241 117.647L64.707 117.646V111.766L58.8241 111.766V117.647Z" fill="#231F20"/>
<path d="M58.8241 111.766L64.707 111.766V105.883L58.8241 105.883V111.766Z" fill="#979EA1"/>
<path d="M64.707 147.06H70.5898V141.176H64.707V147.06Z" fill="#979EA1"/>
<path d="M58.8241 141.176H64.707V135.295H58.8241V141.176Z" fill="#979EA1"/>
<path d="M58.8241 105.883L64.707 105.883V100H58.8241V105.883Z" fill="#C7CBCD"/>
<path d="M70.5898 147.06H76.4711V141.176H70.5898V147.06Z" fill="#979EA1"/>
<path d="M64.707 141.176H70.5898V135.295L64.707 135.295V141.176Z" fill="#C7CBCD"/>
<path d="M70.5898 76.4687H76.4711V70.5859H70.5898V76.4687Z" fill="#C7CBCD"/>
<path d="M76.4688 147.06L82.3516 147.06L82.3515 141.176H76.4688V147.06Z" fill="#858B8E"/>
<path d="M76.4688 76.4687H82.3515V70.5859H76.4688V76.4687Z" fill="#231F20"/>
<path d="M82.3515 76.4687H88.2343V70.5859H82.3515V76.4687Z" fill="#515D61"/>
<path d="M64.707 76.4687H70.5898V70.5859H64.707V76.4687Z" fill="#C7CBCD"/>
<path d="M58.8241 82.3515H64.707L64.707 76.4687H58.8241V82.3515Z" fill="#C7CBCD"/>
<path d="M58.8241 76.4687H64.707V70.5859H58.8241V76.4687Z" fill="#C7CBCD"/>
<path d="M58.8241 88.2344L64.707 88.2343V82.3515H58.8241V88.2344Z" fill="#231F20"/>
<path d="M58.8241 94.1171H64.707V88.2343L58.8241 88.2344V94.1171Z" fill="#C7CBCD"/>
<path d="M58.8241 99.9985H64.707V94.1171H58.8241V99.9985Z" fill="#C7CBCD"/>
<path d="M82.3515 141.176L82.3516 147.06L88.2343 147.059V141.176H82.3515Z" fill="#231F20"/>
<path d="M129.41 111.766L135.293 111.766V105.883H129.41V111.766Z" fill="#343C3F"/>
<path d="M129.41 105.883H135.293V100H129.41V105.883Z" fill="#231F20"/>
<path d="M129.41 117.647L135.293 117.646V111.766L129.41 111.766V117.647Z" fill="#343C3F"/>
<path d="M129.41 123.531L135.293 123.531V117.646L129.41 117.647V123.531Z" fill="#231F20"/>
<path d="M88.2343 76.4687H94.1157V70.5859H88.2343V76.4687Z" fill="#343C3F"/>
<path d="M129.41 94.1171L135.293 94.1172V88.2343L129.41 88.2344V94.1171Z" fill="#515D61"/>
<path d="M129.41 99.9985H135.293V94.1172L129.41 94.1171V99.9985Z" fill="#515D61"/>
<path d="M129.41 88.2344L135.293 88.2343V82.3515L129.41 82.3516V88.2344Z" fill="#515D61"/>
<path d="M129.41 82.3516L135.293 82.3515V76.4688L129.41 76.4687V82.3516Z" fill="#515D61"/>
<path d="M129.41 135.295H135.293V129.413L129.41 129.412V135.295Z" fill="#231F20"/>
<path d="M129.41 129.412L135.293 129.413V123.531L129.41 123.531V129.412Z" fill="#231F20"/>
<path d="M100 147.059H105.883V141.176H100V147.059Z" fill="#515D61"/>
<path d="M94.1172 147.059H100V141.176H94.1172V147.059Z" fill="#515D61"/>
<path d="M105.883 147.059H111.766V141.176H105.883V147.059Z" fill="#515D61"/>
<path d="M129.41 141.176H135.293V135.295H129.41V141.176Z" fill="#231F20"/>
<path d="M88.2343 147.059H94.1157V141.176H88.2343V147.059Z" fill="#515D61"/>
<path d="M123.527 147.059H129.41V141.176L123.527 141.176V147.059Z" fill="#343C3F"/>
<path d="M129.41 147.059L135.293 147.059V141.176H129.41V147.059Z" fill="#231F20"/>
<path d="M111.766 147.059H117.647V141.176H111.766V147.059Z" fill="#515D61"/>
<path d="M117.645 147.059H123.527V141.176H117.645V147.059Z" fill="#515D61"/>
<path d="M64.707 129.413H70.5898V123.531H64.707V129.413Z" fill="#C7CBCD"/>
<path d="M70.5898 135.295L76.4711 135.295V129.413H70.5898L70.5898 135.295Z" fill="#C7CBCD"/>
<path d="M94.1172 76.4687L100 76.4688L99.9999 70.5859H94.1172V76.4687Z" fill="#231F20"/>
<path d="M94.1172 82.3516H99.9999L100 76.4688L94.1172 76.4687V82.3516Z" fill="#72848B"/>
<path d="M64.707 123.531H70.5898V117.647L64.707 117.646V123.531Z" fill="#979EA1"/>
<path d="M64.707 117.646L70.5898 117.647V111.766H64.707V117.646Z" fill="#979EA1"/>
<path d="M76.4688 141.176H82.3515L82.3516 135.295H76.4688V141.176Z" fill="#979EA1"/>
<path d="M82.3516 135.295L82.3515 141.176H88.2343L88.2344 135.295H82.3516Z" fill="#231F20"/>
<path d="M88.2343 141.176H94.1157V135.295H88.2344L88.2343 141.176Z" fill="#515D61"/>
<path d="M70.5898 141.176H76.4711V135.295L70.5898 135.295V141.176Z" fill="#979EA1"/>
<path d="M64.707 111.766H70.5898V105.883L64.707 105.883V111.766Z" fill="#231F20"/>
<path d="M64.707 99.9985H70.5898V94.1171H64.707V99.9985Z" fill="#C7CBCD"/>
<path d="M64.707 105.883L70.5898 105.883V100H64.707V105.883Z" fill="#979EA1"/>
<path d="M76.4688 82.3516H82.3515V76.4687H76.4688V82.3516Z" fill="#231F20"/>
<path d="M82.3515 82.3516H88.2343V76.4687H82.3515V82.3516Z" fill="#343C3F"/>
<path d="M88.2343 82.3516H94.1157V76.4687H88.2343V82.3516Z" fill="#231F20"/>
<path d="M70.5898 82.3516H76.4711V76.4687H70.5898V82.3516Z" fill="#C7CBCD"/>
<path d="M64.707 94.1171H70.5898V88.2343H64.707V94.1171Z" fill="#C7CBCD"/>
<path d="M94.1172 141.176H100L99.9999 135.295H94.1172V141.176Z" fill="#515D61"/>
<path d="M64.707 82.3515L70.5898 82.3516V76.4687H64.707L64.707 82.3515Z" fill="#C7CBCD"/>
<path d="M64.707 88.2343H70.5898V82.3516L64.707 82.3515V88.2343Z" fill="#C7CBCD"/>
<path d="M64.707 135.295L70.5898 135.295L70.5898 129.413H64.707V135.295Z" fill="#C7CBCD"/>
<path d="M123.527 88.2344H129.41V82.3516H123.527V88.2344Z" fill="#515D61"/>
<path d="M123.527 82.3516H129.41V76.4687L123.527 76.4688V82.3516Z" fill="#515D61"/>
<path d="M123.527 99.9985H129.41V94.1171L123.527 94.1172V99.9985Z" fill="#515D61"/>
<path d="M123.527 94.1172L129.41 94.1171V88.2344H123.527V94.1172Z" fill="#515D61"/>
<path d="M123.527 76.4688L129.41 76.4687V70.5859H123.527L123.527 76.4688Z" fill="#515D61"/>
<path d="M100 141.176H105.883L105.883 135.295H99.9999L100 141.176Z" fill="#3F484C"/>
<path d="M100 76.4688H105.883L105.883 70.5859H99.9999L100 76.4688Z" fill="#231F20"/>
<path d="M105.883 76.4688H111.767V70.5859H105.883L105.883 76.4688Z" fill="#231F20"/>
<path d="M117.645 76.4688H123.527L123.527 70.5859H117.645V76.4688Z" fill="#515D61"/>
<path d="M111.766 76.4688H117.647V70.5859H111.766V76.4688Z" fill="#515D61"/>
<path d="M123.527 105.883L129.41 105.883V100H123.527V105.883Z" fill="#515D61"/>
<path d="M117.645 141.176H123.527L123.527 135.295H117.645V141.176Z" fill="#515D61"/>
<path d="M111.766 141.176H117.647V135.295H111.766L111.766 141.176Z" fill="#515D61"/>
<path d="M123.527 141.176L129.41 141.176V135.295H123.527L123.527 141.176Z" fill="#343C3F"/>
<path d="M123.527 111.766L129.41 111.766V105.883L123.527 105.883V111.766Z" fill="#231F20"/>
<path d="M105.883 141.176H111.766L111.766 135.295H105.883L105.883 141.176Z" fill="#515D61"/>
<path d="M123.527 123.531L129.41 123.531V117.647H123.527V123.531Z" fill="#343C3F"/>
<path d="M123.527 135.295H129.41V129.412L123.527 129.413V135.295Z" fill="#343C3F"/>
<path d="M123.527 117.647H129.41V111.766L123.527 111.766V117.647Z" fill="#231F20"/>
<path d="M123.527 129.413L129.41 129.412V123.531L123.527 123.531V129.413Z" fill="#343C3F"/>
<path d="M111.766 182.352H117.647V176.471H111.766L111.766 182.352Z" fill="#C7CBCD"/>
<path d="M23.5273 117.647H29.4101V111.766H23.5273V117.647Z" fill="#231F20"/>
<path d="M23.5273 147.06H29.4101V141.176H23.5273V147.06Z" fill="#515D61"/>
<path d="M23.5273 105.883H29.4101V100H23.5273V105.883Z" fill="#231F20"/>
<path d="M23.5273 99.9985H29.4101V94.1172H23.5273V99.9985Z" fill="#979EA1"/>
<path d="M23.5273 94.1172H29.4101V88.2344H23.5273V94.1172Z" fill="#C7CBCD"/>
<path d="M23.5273 135.295H29.4101V129.412H23.5273V135.295Z" fill="#515D61"/>
<path d="M23.5273 88.2344H29.4101V82.3516H23.5273V88.2344Z" fill="#231F20"/>
<path d="M23.5273 141.176H29.4101V135.295H23.5273V141.176Z" fill="#3F484C"/>
<path d="M23.5273 123.531H29.4101V117.647H23.5273V123.531Z" fill="#515D61"/>
<path d="M23.5273 129.412H29.4101V123.531H23.5273V129.412Z" fill="#515D61"/>
<path d="M23.5273 111.766H29.4101V105.883H23.5273V111.766Z" fill="#343C3F"/>
<path d="M23.5273 41.1757H29.4101V35.293H23.5273V41.1757Z" fill="#231F20"/>
<path d="M23.5273 47.0585H29.4101V41.1757H23.5273V47.0585Z" fill="#231F20"/>
<path d="M29.4141 41.1757H35.2953V35.293H29.4141V41.1757Z" fill="#DBE0E2"/>
<path d="M17.6484 182.352H23.5312V176.471L17.6484 176.471L17.6484 182.352Z" fill="#C7CBCD"/>
<path d="M35.2931 41.1757H41.1758V35.293H35.2931V41.1757Z" fill="#C7CBCD"/>
<path d="M23.5273 82.3516H29.4101V76.4688H23.5273V82.3516Z" fill="#C7CBCD"/>
<path d="M23.5273 76.4688H29.4101V70.5859H23.5273V76.4688Z" fill="#C7CBCD"/>
<path d="M23.5273 70.5878H29.4101V64.7051H23.5273V70.5878Z" fill="#C7CBCD"/>
<path d="M23.5273 58.8227H29.4101V52.9414H23.5273V58.8227Z" fill="#DBE0E2"/>
<path d="M23.5273 64.707H29.4101V58.8242H23.5273V64.707Z" fill="#C7CBCD"/>
<path d="M23.5273 164.705H29.4101V158.824H23.5273V164.705Z" fill="#515D61"/>
<path d="M23.5273 152.94H29.4101V147.059H23.5273V152.94Z" fill="#515D61"/>
<path d="M82.3516 182.352H88.2344L88.2343 176.471H82.3516V182.352Z" fill="#231F20"/>
<path d="M99.9999 182.352H105.883V176.471H100L99.9999 182.352Z" fill="#C7CBCD"/>
<path d="M88.2344 182.352H94.1157V176.471H88.2343L88.2344 182.352Z" fill="#C7CBCD"/>
<path d="M105.883 182.352H111.766L111.766 176.471H105.883V182.352Z" fill="#C7CBCD"/>
<path d="M94.1172 182.352H99.9999L100 176.471H94.1172V182.352Z" fill="#C7CBCD"/>
<path d="M23.5273 176.471H29.4101V170.588H23.5273V176.471Z" fill="#231F20"/>
<path d="M41.1758 41.1757H47.0571V35.293H41.1758V41.1757Z" fill="#C7CBCD"/>
<path d="M23.5273 170.588H29.4101V164.705H23.5273V170.588Z" fill="#343C3F"/>
<path d="M23.5273 158.824H29.4101V152.941H23.5273V158.824Z" fill="#515D61"/>
<path d="M41.1759 182.352L47.0586 182.352L47.0585 176.471H41.1758L41.1759 182.352Z" fill="#C7CBCD"/>
<path d="M35.2931 182.352H41.1759L41.1758 176.471L35.2931 176.47V182.352Z" fill="#C7CBCD"/>
<path d="M47.0586 182.352H52.9399V176.471H47.0585L47.0586 182.352Z" fill="#231F20"/>
<path d="M29.4141 182.352H35.2953V176.471H29.4141V182.352Z" fill="#C7CBCD"/>
<path d="M29.4141 176.471H35.2953V170.588H29.4141V176.471Z" fill="#231F20"/>
<path d="M23.5273 52.9414H29.4101V47.0585H23.5273V52.9414Z" fill="#231F20"/>
<path d="M158.82 82.3515H164.703V76.4688H158.82V82.3515Z" fill="#515D61"/>
<path d="M158.82 88.2343H164.703V82.3515H158.82V88.2343Z" fill="#515D61"/>
<path d="M158.82 94.1171H164.703V88.2343H158.82V94.1171Z" fill="#515D61"/>
<path d="M158.82 111.766H164.703V105.883H158.82V111.766Z" fill="#515D61"/>
<path d="M158.82 99.9985H164.703V94.1171H158.82V99.9985Z" fill="#515D61"/>
<path d="M158.82 105.883H164.703V100H158.82V105.883Z" fill="#515D61"/>
<path d="M158.82 64.707H164.703V58.8242H158.82V64.707Z" fill="#231F20"/>
<path d="M158.82 76.4688H164.703V70.5859H158.82V76.4688Z" fill="#515D61"/>
<path d="M158.82 70.5878H164.703V64.7051H158.82V70.5878Z" fill="#72848B"/>
<path d="M158.82 158.824H164.703V152.941H158.82V158.824Z" fill="#343C3F"/>
<path d="M158.82 152.941H164.703V147.059H158.82V152.941Z" fill="#2A2F31"/>
<path d="M158.82 147.059H164.703V141.176H158.82V147.059Z" fill="#231F20"/>
<path d="M158.82 164.705H164.703V158.824H158.82V164.705Z" fill="#343C3F"/>
<path d="M123.527 164.705H129.41L129.41 158.824H123.527L123.527 164.705Z" fill="#343C3F"/>
<path d="M158.82 123.531H164.703V117.646H158.82V123.531Z" fill="#515D61"/>
<path d="M158.82 129.413H164.703V123.531H158.82V129.413Z" fill="#515D61"/>
<path d="M158.82 141.176H164.703V135.295H158.82V141.176Z" fill="#343C3F"/>
<path d="M158.82 117.646H164.703V111.766H158.82V117.646Z" fill="#515D61"/>
<path d="M117.645 41.1757H123.527V35.293H117.645V41.1757Z" fill="#515D61"/>
<path d="M76.4688 41.1757H82.3515V35.293H76.4688V41.1757Z" fill="#515D61"/>
<path d="M105.883 41.1757H111.766V35.293H105.883V41.1757Z" fill="#515D61"/>
<path d="M82.3515 41.1757H88.2343V35.293H82.3515V41.1757Z" fill="#515D61"/>
<path d="M94.1172 41.1757H99.9999V35.293H94.1172V41.1757Z" fill="#231F20"/>
<path d="M99.9999 41.1757H105.883V35.293H99.9999V41.1757Z" fill="#515D61"/>
<path d="M88.2343 41.1757H94.1172V35.293H88.2343V41.1757Z" fill="#515D61"/>
<path d="M58.8242 41.1757H64.707V35.293H58.8242V41.1757Z" fill="#C7CBCD"/>
<path d="M70.5898 41.1757H76.4711V35.293H70.5898V41.1757Z" fill="#231F20"/>
<path d="M64.707 41.1757H70.5898V35.293H64.707V41.1757Z" fill="#C7CBCD"/>
<path d="M52.9414 41.1757H58.8242V35.293H52.9414V41.1757Z" fill="#C7CBCD"/>
<path d="M111.766 41.1757H117.647V35.293H111.766V41.1757Z" fill="#515D61"/>
<path d="M135.293 41.1757H141.174V35.293H135.293V41.1757Z" fill="#231F20"/>
<path d="M47.0586 41.1757H52.9414V35.293H47.0586V41.1757Z" fill="#C7CBCD"/>
<path d="M123.527 41.1757H129.41V35.293H123.527V41.1757Z" fill="#72848B"/>
<path d="M129.41 41.1757H135.293V35.293H129.41V41.1757Z" fill="#231F20"/>
<path d="M17.6484 141.176H23.5312V135.295H17.6484V141.176Z" fill="#515D61"/>
<path d="M35.2931 35.293H41.1758L41.1759 29.4122H35.2931L35.2931 35.293Z" fill="#DBE0E2"/>
<path d="M29.4141 35.293H35.2953V29.412H29.4141V35.293Z" fill="#231F20"/>
<path d="M47.0586 35.293L52.9399 35.2934V29.412H47.0585L47.0586 35.293Z" fill="#C7CBCD"/>
<path d="M23.5273 35.293H29.4101V29.412H23.5273V35.293Z" fill="#515D61"/>
<path d="M41.1758 35.293H47.0586L47.0585 29.412L41.1759 29.4122L41.1758 35.293Z" fill="#231F20"/>
<path d="M17.6484 52.9413H23.5312V47.0586H17.6484V52.9413Z" fill="#515D61"/>
<path d="M17.6484 47.0586H23.5312V41.1758L17.6484 41.1757V47.0586Z" fill="#515D61"/>
<path d="M117.645 182.352H123.527V176.471H117.645V182.352Z" fill="#C7CBCD"/>
<path d="M17.6484 35.293L23.5312 35.2934V29.412H17.6484L17.6484 35.293Z" fill="#72848B"/>
<path d="M17.6484 41.1757L23.5312 41.1758V35.2934L17.6484 35.293V41.1757Z" fill="#515D61"/>
<path d="M17.6484 58.8227H23.5312V52.9413H17.6484V58.8227Z" fill="#231F20"/>
<path d="M88.2343 35.293L94.1157 35.2934V29.412H88.2344L88.2343 35.293Z" fill="#515D61"/>
<path d="M94.1172 35.293H99.9999V29.412H94.1172V35.293Z" fill="#231F20"/>
<path d="M99.9999 35.293H105.883V29.412H99.9999V35.293Z" fill="#515D61"/>
<path d="M105.883 35.293H111.766L111.766 29.412H105.883V35.293Z" fill="#515D61"/>
<path d="M82.3555 35.2934H88.2367V29.4121H82.3555V35.2934Z" fill="#515D61"/>
<path d="M58.8242 35.293H64.707V29.412H58.8242V35.293Z" fill="#C7CBCD"/>
<path d="M64.707 35.293L70.5883 35.2934V29.4121L64.707 29.412V35.293Z" fill="#231F20"/>
<path d="M70.5898 35.293L76.4726 35.2934V29.4121L70.5898 29.412L70.5898 35.293Z" fill="#515D61"/>
<path d="M76.4726 35.2934H82.3555V29.4121H76.4726V35.2934Z" fill="#515D61"/>
<path d="M17.6484 176.471L23.5312 176.471V170.588L17.6484 170.588V176.471Z" fill="#231F20"/>
<path d="M17.6484 147.06H23.5312V141.176H17.6484V147.06Z" fill="#515D61"/>
<path d="M158.82 170.588H164.703V164.705H158.82V170.588Z" fill="#343C3F"/>
<path d="M17.6484 152.94H23.5312V147.059H17.6484V152.94Z" fill="#515D61"/>
<path d="M17.6484 123.531H23.5312V117.646H17.6484V123.531Z" fill="#515D61"/>
<path d="M17.6484 135.295H23.5312V129.412H17.6484V135.295Z" fill="#3F484C"/>
<path d="M17.6484 129.412H23.5312V123.531H17.6484V129.412Z" fill="#515D61"/>
<path d="M111.766 35.293H117.647V29.412H111.766L111.766 35.293Z" fill="#72848B"/>
<path d="M17.6484 170.588L23.5312 170.588V164.705L17.6484 164.705V170.588Z" fill="#343C3F"/>
<path d="M17.6484 64.707H23.5312V58.8242H17.6484V64.707Z" fill="#231F20"/>
<path d="M17.6484 164.705L23.5312 164.705V158.824H17.6484V164.705Z" fill="#515D61"/>
<path d="M17.6484 158.824H23.5312V152.941H17.6484V158.824Z" fill="#515D61"/>
<path d="M17.6484 88.2343H23.5312V82.3516L17.6484 82.3515V88.2343Z" fill="#C7CBCD"/>
<path d="M17.6484 82.3515L23.5312 82.3516V76.4688L17.6484 76.4687V82.3515Z" fill="#C7CBCD"/>
<path d="M17.6484 76.4687L23.5312 76.4688V70.5859H17.6484V76.4687Z" fill="#C7CBCD"/>
<path d="M17.6484 70.5878H23.5312V64.7051H17.6484V70.5878Z" fill="#DBE0E2"/>
<path d="M17.6484 94.1172L23.5312 94.1171V88.2343H17.6484V94.1172Z" fill="#979EA1"/>
<path d="M17.6484 105.883H23.5312V100H17.6484V105.883Z" fill="#343C3F"/>
<path d="M17.6484 117.646H23.5312V111.766H17.6484V117.646Z" fill="#515D61"/>
<path d="M17.6484 111.766H23.5312V105.883H17.6484V111.766Z" fill="#231F20"/>
<path d="M17.6484 99.9985H23.5312V94.1171L17.6484 94.1172V99.9985Z" fill="#231F20"/>
<path d="M52.9414 35.293H58.8242V29.412H52.9414V35.293Z" fill="#C7CBCD"/>
<path d="M164.703 147.059L170.586 147.059V141.176H164.703V147.059Z" fill="#515D61"/>
<path d="M164.703 141.176H170.586V135.295H164.703V141.176Z" fill="#515D61"/>
<path d="M164.703 152.941L170.586 152.941V147.059L164.703 147.059V152.941Z" fill="#231F20"/>
<path d="M164.703 164.705H170.586V158.824L164.703 158.824V164.705Z" fill="#231F20"/>
<path d="M164.703 158.824L170.586 158.824V152.941L164.703 152.941V158.824Z" fill="#231F20"/>
<path d="M164.703 170.588H170.586V164.705H164.703V170.588Z" fill="#2A2F31"/>
<path d="M164.703 111.766H170.586V105.883H164.703V111.766Z" fill="#515D61"/>
<path d="M164.703 123.531H170.586V117.646H164.703V123.531Z" fill="#515D61"/>
<path d="M164.703 135.295H170.586V129.412L164.703 129.413V135.295Z" fill="#515D61"/>
<path d="M164.703 129.413L170.586 129.412V123.531H164.703V129.413Z" fill="#515D61"/>
<path d="M164.703 117.646H170.586V111.766H164.703V117.646Z" fill="#515D61"/>
<path d="M164.703 176.471H170.586V170.588H164.703L164.703 176.471Z" fill="#343C3F"/>
<path d="M123.527 182.352H129.41V176.471H123.527V182.352Z" fill="#231F20"/>
<path d="M117.645 35.293H123.527V29.4121H117.645V35.293Z" fill="#231F20"/>
<path d="M164.703 182.352H170.586V176.471H164.703L164.703 182.352Z" fill="#231F20"/>
<path d="M158.82 182.352H164.703L164.703 176.471L158.82 176.471V182.352Z" fill="#231F20"/>
<path d="M152.941 182.352H158.823V176.471H152.941V182.352Z" fill="#231F20"/>
<path d="M147.059 182.352L152.941 182.352V176.471H147.059V182.352Z" fill="#231F20"/>
<path d="M123.527 35.293H129.41V29.4121H123.527V35.293Z" fill="#231F20"/>
<path d="M164.703 105.883H170.586V100H164.703V105.883Z" fill="#515D61"/>
<path d="M164.703 94.1171H170.586V88.2344L164.703 88.2343V94.1171Z" fill="#515D61"/>
<path d="M164.703 82.3515H170.586V76.4688H164.703V82.3515Z" fill="#515D61"/>
<path d="M164.703 99.9985H170.586V94.1171H164.703V99.9985Z" fill="#515D61"/>
<path d="M164.703 88.2343L170.586 88.2344V82.3515H164.703V88.2343Z" fill="#515D61"/>
<path d="M164.703 70.5878H170.586V64.7051H164.703V70.5878Z" fill="#231F20"/>
<path d="M164.703 76.4688H170.586V70.5859H164.703V76.4688Z" fill="#72848B"/>
<path d="M158.82 135.295H164.703V129.413H158.82V135.295Z" fill="#515D61"/>
<path d="M35.293 147.06H41.1758V141.176L35.293 141.176V147.06Z" fill="#515D61"/>
<path d="M35.2931 117.647H41.1758V111.766L35.2931 111.766V117.647Z" fill="#231F20"/>
<path d="M35.2931 135.295L41.1758 135.295V129.412H35.2931V135.295Z" fill="#515D61"/>
<path d="M35.2931 129.411H41.1758V123.529H35.2931V129.411Z" fill="#515D61"/>
<path d="M35.2931 123.531L41.1758 123.531V117.647H35.2931V123.531Z" fill="#231F20"/>
<path d="M35.293 141.176L41.1758 141.176V135.295L35.2931 135.295L35.293 141.176Z" fill="#515D61"/>
<path d="M41.1758 170.588H47.0585L47.0586 164.705L41.1758 164.705V170.588Z" fill="#343C3F"/>
<path d="M41.1758 164.705L47.0586 164.705V158.824L41.1758 158.824V164.705Z" fill="#343C3F"/>
<path d="M35.2931 152.942L41.1758 152.941V147.06H35.293L35.2931 152.942Z" fill="#515D61"/>
<path d="M35.2931 158.824H41.1758V152.941L35.2931 152.942V158.824Z" fill="#515D61"/>
<path d="M35.2931 164.705L41.1758 164.705V158.824H35.2931V164.705Z" fill="#515D61"/>
<path d="M35.2931 76.4706H41.1758L41.1758 70.5878L35.2931 70.5879V76.4706Z" fill="#C7CBCD"/>
<path d="M35.2931 70.5879L41.1758 70.5878V64.7051H35.2931V70.5879Z" fill="#C7CBCD"/>
<path d="M35.2931 82.3534H41.1758V76.4706H35.2931V82.3534Z" fill="#C7CBCD"/>
<path d="M35.2931 58.8227H41.1758V52.9414H35.2931V58.8227Z" fill="#231F20"/>
<path d="M35.2931 64.7051H41.1758V58.8227H35.2931V64.7051Z" fill="#231F20"/>
<path d="M35.2931 105.883L41.1758 105.883V100H35.2931V105.883Z" fill="#C7CBCD"/>
<path d="M35.2931 99.9985H41.1758V94.1171L35.2931 94.1172V99.9985Z" fill="#231F20"/>
<path d="M35.2931 88.2343H41.1758V82.3515L35.2931 82.3516V88.2343Z" fill="#231F20"/>
<path d="M35.2931 111.766L41.1758 111.766V105.883L35.2931 105.883V111.766Z" fill="#979EA1"/>
<path d="M35.2931 94.1172L41.1758 94.1171V88.2343H35.2931V94.1172Z" fill="#870E12"/>
<path d="M47.0585 170.588H52.9399V164.705H47.0586L47.0585 170.588Z" fill="#343C3F"/>
<path d="M129.41 170.588H135.293V164.705L129.41 164.705L129.41 170.588Z" fill="#231F20"/>
<path d="M123.527 170.588H129.41L129.41 164.705H123.527L123.527 170.588Z" fill="#343C3F"/>
<path d="M117.645 170.588H123.527L123.527 164.705H117.645V170.588Z" fill="#343C3F"/>
<path d="M111.766 170.588H117.647V164.705H111.766L111.766 170.588Z" fill="#343C3F"/>
<path d="M35.2969 52.9413H41.1796V47.0586H35.2969V52.9413Z" fill="#979EA1"/>
<path d="M152.941 164.705H158.823V158.824H152.941V164.705Z" fill="#343C3F"/>
<path d="M105.883 170.588H111.766L111.766 164.705H105.883V170.588Z" fill="#343C3F"/>
<path d="M152.941 170.588H158.823V164.705H152.941V170.588Z" fill="#343C3F"/>
<path d="M147.059 170.588H152.941V164.705L147.059 164.705V170.588Z" fill="#231F20"/>
<path d="M52.9414 170.588H58.8241V164.705H52.9414V170.588Z" fill="#231F20"/>
<path d="M82.3516 170.588H88.2343V164.705H82.3516V170.588Z" fill="#343C3F"/>
<path d="M88.2343 170.588H94.1157V164.705H88.2343V170.588Z" fill="#343C3F"/>
<path d="M94.1172 170.588H99.9999V164.705H94.1172V170.588Z" fill="#343C3F"/>
<path d="M76.4688 170.588H82.3516V164.705H76.4688V170.588Z" fill="#231F20"/>
<path d="M99.9999 170.588H105.883V164.705H99.9999V170.588Z" fill="#343C3F"/>
<path d="M147.059 99.9985H152.941V94.1172L147.059 94.1171V99.9985Z" fill="#515D61"/>
<path d="M152.941 158.824H158.823V152.941H152.941V158.824Z" fill="#343C3F"/>
<path d="M147.059 111.766L152.941 111.766V105.883H147.059V111.766Z" fill="#515D61"/>
<path d="M41.1758 52.9414H47.0585V47.0586H41.1758V52.9414Z" fill="#979EA1"/>
<path d="M147.059 117.646L152.941 117.647V111.766L147.059 111.766V117.646Z" fill="#515D61"/>
<path d="M147.059 129.412L152.941 129.413V123.531L147.059 123.531V129.412Z" fill="#343C3F"/>
<path d="M147.059 123.531L152.941 123.531V117.647L147.059 117.646V123.531Z" fill="#515D61"/>
<path d="M147.059 76.4687H152.941V70.5859H147.059V76.4687Z" fill="#515D61"/>
<path d="M147.059 94.1171L152.941 94.1172V88.2344L147.059 88.2343V94.1171Z" fill="#515D61"/>
<path d="M147.059 82.3516L152.941 82.3515V76.4687H147.059L147.059 82.3516Z" fill="#515D61"/>
<path d="M147.059 70.5879L152.941 70.5878V64.7051L147.059 64.705V70.5879Z" fill="#515D61"/>
<path d="M147.059 88.2343L152.941 88.2344V82.3515L147.059 82.3516V88.2343Z" fill="#515D61"/>
<path d="M141.176 164.705L147.059 164.705L147.059 158.824H141.176V164.705Z" fill="#231F20"/>
<path d="M147.059 164.705L152.941 164.705V158.824L147.059 158.824L147.059 164.705Z" fill="#343C3F"/>
<path d="M129.41 164.705L135.293 164.705V158.824H129.41L129.41 164.705Z" fill="#231F20"/>
<path d="M158.82 176.471L164.703 176.471L164.703 170.588H158.82V176.471Z" fill="#343C3F"/>
<path d="M147.059 141.176L152.941 141.176V135.295H147.059L147.059 141.176Z" fill="#979EA1"/>
<path d="M147.059 147.059L152.941 147.059V141.176L147.059 141.176L147.059 147.059Z" fill="#231F20"/>
<path d="M147.059 158.824L152.941 158.824V152.941H147.059V158.824Z" fill="#343C3F"/>
<path d="M147.059 135.295H152.941V129.413L147.059 129.412V135.295Z" fill="#231F20"/>
<path d="M147.059 105.883H152.941V100H147.059V105.883Z" fill="#515D61"/>
<path d="M76.4688 52.9414H82.3515V47.0586H76.4688V52.9414Z" fill="#231F20"/>
<path d="M70.5898 52.9414H76.4711V47.0586H70.5898L70.5898 52.9414Z" fill="#C7CBCD"/>
<path d="M82.3515 52.9414H88.2344L88.2343 47.0586H82.3515V52.9414Z" fill="#515D61"/>
<path d="M99.9999 52.9414H105.881V47.0586H100L99.9999 52.9414Z" fill="#231F20"/>
<path d="M94.1172 52.9414H99.9999L100 47.0586H94.1172V52.9414Z" fill="#C7CBCD"/>
<path d="M88.2344 52.9414H94.1157V47.0586H88.2343L88.2344 52.9414Z" fill="#231F20"/>
<path d="M52.9414 52.9414H58.8242L58.8241 47.0586H52.9414V52.9414Z" fill="#979EA1"/>
<path d="M64.707 52.9414H70.5898L70.5898 47.0586H64.707V52.9414Z" fill="#C7CBCD"/>
<path d="M47.0585 52.9414H52.9399V47.0586H47.0585V52.9414Z" fill="#979EA1"/>
<path d="M58.8242 52.9414H64.707V47.0586H58.8241L58.8242 52.9414Z" fill="#979EA1"/>
<path d="M111.766 52.9414H117.647V47.0586H111.766L111.766 52.9414Z" fill="#515D61"/>
<path d="M147.059 52.9414L152.941 52.9413V47.0586H147.059L147.059 52.9414Z" fill="#231F20"/>
<path d="M135.293 52.9414H141.174V47.0586H135.293V52.9414Z" fill="#515D61"/>
<path d="M105.883 52.9414H111.766L111.766 47.0586H105.883V52.9414Z" fill="#515D61"/>
<path d="M147.059 58.8223L152.941 58.8227V52.9413L147.059 52.9414V58.8223Z" fill="#72848B"/>
<path d="M141.176 52.9414H147.059L147.059 47.0586H141.176V52.9414Z" fill="#72848B"/>
<path d="M129.41 52.9414H135.293V47.0586H129.41L129.41 52.9414Z" fill="#515D61"/>
<path d="M147.059 64.707H152.941V58.8242H147.059V64.707Z" fill="#515D61"/>
<path d="M117.645 52.9414H123.527V47.0586H117.645V52.9414Z" fill="#515D61"/>
<path d="M123.527 52.9414H129.41L129.41 47.0586H123.527V52.9414Z" fill="#515D61"/>
<path d="M147.059 152.941H152.941L152.941 147.059L147.059 147.059V152.941Z" fill="#2A2F31"/>
<path d="M29.4141 147.06H35.2953V141.176H29.4141V147.06Z" fill="#515D61"/>
<path d="M29.4141 123.531H35.2953V117.646H29.4141V123.531Z" fill="#515D61"/>
<path d="M29.4141 129.413H35.2953V123.531H29.4141V129.413Z" fill="#515D61"/>
<path d="M29.4141 135.295H35.2953V129.413H29.4141V135.295Z" fill="#515D61"/>
<path d="M29.4141 152.94H35.2953V147.059H29.4141V152.94Z" fill="#515D61"/>
<path d="M29.4141 64.707H35.2968V58.8242H29.4141V64.707Z" fill="#C7CBCD"/>
<path d="M29.4141 170.588H35.2953V164.705H29.4141V170.588Z" fill="#343C3F"/>
<path d="M35.2931 170.588L41.1758 170.588V164.705L35.2931 164.705L35.2931 170.588Z" fill="#343C3F"/>
<path d="M29.4141 164.705H35.2953V158.824H29.4141V164.705Z" fill="#515D61"/>
<path d="M29.4141 158.824H35.2953V152.941H29.4141V158.824Z" fill="#515D61"/>
<path d="M29.4141 141.176H35.2953V135.295H29.4141V141.176Z" fill="#515D61"/>
<path d="M29.4141 117.646H35.2953V111.766H29.4141V117.646Z" fill="#231F20"/>
<path d="M29.4141 88.2343H35.2953V82.3516H29.4141V88.2343Z" fill="#C7CBCD"/>
<path d="M29.4141 76.4687H35.2953V70.5859H29.4141V76.4687Z" fill="#231F20"/>
<path d="M29.4141 70.5878H35.2953V64.7051H29.4141V70.5878Z" fill="#C7CBCD"/>
<path d="M29.4141 82.3516H35.2953V76.4687H29.4141V82.3516Z" fill="#C7CBCD"/>
<path d="M29.4141 105.883H35.2953V100H29.4141V105.883Z" fill="#979EA1"/>
<path d="M29.4141 94.1171H35.2953V88.2343H29.4141V94.1171Z" fill="#231F20"/>
<path d="M29.4141 111.766H35.2953V105.883H29.4141V111.766Z" fill="#231F20"/>
<path d="M29.4141 99.9985H35.2953V94.1171H29.4141V99.9985Z" fill="#C7CBCD"/>
<path d="M35.2931 176.47L41.1758 176.471V170.588L35.2931 170.588V176.47Z" fill="#231F20"/>
<path d="M117.645 176.471H123.527L123.527 170.588H117.645V176.471Z" fill="#231F20"/>
<path d="M123.527 176.471H129.41L129.41 170.588H123.527L123.527 176.471Z" fill="#231F20"/>
<path d="M111.766 176.471H117.647V170.588H111.766V176.471Z" fill="#231F20"/>
<path d="M105.883 176.471H111.766V170.588H105.883L105.883 176.471Z" fill="#231F20"/>
<path d="M152.941 176.471H158.823V170.588H152.941V176.471Z" fill="#231F20"/>
<path d="M100 176.471H105.883L105.883 170.588H99.9999L100 176.471Z" fill="#231F20"/>
<path d="M47.0585 176.471H52.9399V170.588H47.0585V176.471Z" fill="#231F20"/>
<path d="M88.2343 176.471H94.1157V170.588H88.2343V176.471Z" fill="#231F20"/>
<path d="M82.3516 176.471H88.2343V170.588H82.3516V176.471Z" fill="#231F20"/>
<path d="M41.1758 176.471H47.0585V170.588H41.1758V176.471Z" fill="#231F20"/>
<path d="M94.1172 176.471H100L99.9999 170.588H94.1172V176.471Z" fill="#231F20"/>
<path d="M35.2969 47.0586H41.1796V41.1758H35.2969V47.0586Z" fill="#C7CBCD"/>
<path d="M152.941 64.707H158.823V58.8242H152.941V64.707Z" fill="#72848B"/>
<path d="M152.941 70.5878H158.823V64.7051H152.941V70.5878Z" fill="#515D61"/>
<path d="M152.941 76.4687H158.823V70.5859H152.941V76.4687Z" fill="#515D61"/>
<path d="M152.941 88.2344L158.823 88.2343V82.3516L152.941 82.3515V88.2344Z" fill="#515D61"/>
<path d="M141.176 47.0586H147.059L147.059 41.1758H141.176V47.0586Z" fill="#231F20"/>
<path d="M152.941 58.8227H158.823V52.9414L152.941 52.9413V58.8227Z" fill="#231F20"/>
<path d="M152.941 94.1172L158.823 94.1171V88.2343L152.941 88.2344V94.1172Z" fill="#515D61"/>
<path d="M152.941 82.3515L158.823 82.3516V76.4687H152.941V82.3515Z" fill="#515D61"/>
<path d="M152.941 129.413H158.823V123.531H152.941V129.413Z" fill="#515D61"/>
<path d="M152.941 141.176H158.823V135.295H152.941V141.176Z" fill="#231F20"/>
<path d="M152.941 135.295H158.823V129.413H152.941V135.295Z" fill="#343C3F"/>
<path d="M152.941 147.059H158.823V141.176H152.941V147.059Z" fill="#231F20"/>
<path d="M152.941 111.766H158.823V105.883H152.941V111.766Z" fill="#515D61"/>
<path d="M152.941 105.883H158.823V100H152.941V105.883Z" fill="#515D61"/>
<path d="M152.941 99.9985H158.823V94.1171L152.941 94.1172V99.9985Z" fill="#515D61"/>
<path d="M152.941 123.531H158.823V117.646L152.941 117.647V123.531Z" fill="#515D61"/>
<path d="M152.941 117.647L158.823 117.646V111.766H152.941V117.647Z" fill="#515D61"/>
<path d="M82.3515 47.0586H88.2343V41.1757H82.3515V47.0586Z" fill="#515D61"/>
<path d="M52.9414 47.0586H58.8241L58.8242 41.1757H52.9414V47.0586Z" fill="#C7CBCD"/>
<path d="M58.8241 47.0586H64.707L64.707 41.1757H58.8242L58.8241 47.0586Z" fill="#C7CBCD"/>
<path d="M47.0585 47.0586H52.9399V41.1758L47.0586 41.1757L47.0585 47.0586Z" fill="#C7CBCD"/>
<path d="M64.707 47.0586H70.5898V41.1757H64.707L64.707 47.0586Z" fill="#C7CBCD"/>
<path d="M70.5898 47.0586H76.4711V41.1757H70.5898V47.0586Z" fill="#C7CBCD"/>
<path d="M76.4688 47.0586H82.3515V41.1757H76.4688V47.0586Z" fill="#231F20"/>
<path d="M29.4141 52.9413H35.2953V47.0586H29.4141V52.9413Z" fill="#979EA1"/>
<path d="M41.1758 47.0586H47.0585L47.0586 41.1757H41.1758L41.1758 47.0586Z" fill="#C7CBCD"/>
<path d="M29.4141 47.0586H35.2953V41.1757H29.4141V47.0586Z" fill="#C7CBCD"/>
<path d="M152.941 152.941H158.823V147.059H152.941L152.941 152.941Z" fill="#2A2F31"/>
<path d="M88.2343 47.0586H94.1157V41.1758L88.2343 41.1757V47.0586Z" fill="#515D61"/>
<path d="M111.766 47.0586H117.647V41.1757H111.766L111.766 47.0586Z" fill="#515D61"/>
<path d="M117.645 47.0586H123.527V41.1757H117.645V47.0586Z" fill="#515D61"/>
<path d="M123.527 47.0586H129.41L129.41 41.1757H123.527V47.0586Z" fill="#515D61"/>
<path d="M129.41 47.0586H135.293V41.1757H129.41L129.41 47.0586Z" fill="#515D61"/>
<path d="M135.293 47.0586H141.174V41.1757H135.293V47.0586Z" fill="#72848B"/>
<path d="M94.1172 47.0586H100L99.9999 41.1757H94.1172V47.0586Z" fill="#231F20"/>
<path d="M29.4141 58.8227H35.2968L35.2969 52.9413H29.4141V58.8227Z" fill="#C7CBCD"/>
<path d="M100 47.0586H105.883V41.1757H99.9999L100 47.0586Z" fill="#515D61"/>
<path d="M105.883 47.0586H111.766L111.766 41.1757H105.883V47.0586Z" fill="#515D61"/>
<path d="M229.41 170.588H235.293V164.705H229.41V170.588Z" fill="#231F20"/>
<path d="M229.41 176.471H235.293V170.588H229.41V176.471Z" fill="#231F20"/>
<path d="M229.41 182.352H235.293V176.471H229.41V182.352Z" fill="#231F20"/>
<path d="M200 99.9985H205.881V94.1172L200 94.1171V99.9985Z" fill="#231F20"/>
<path d="M211.766 158.824H217.648V152.941H211.766V158.824Z" fill="#72848B"/>
<path d="M211.766 170.588H217.648V164.705H211.766V170.588Z" fill="#231F20"/>
<path d="M211.766 176.471H217.648V170.588H211.766V176.471Z" fill="#C7CBCD"/>
<path d="M211.766 152.941H217.648V147.059H211.766V152.941Z" fill="#231F20"/>
<path d="M211.766 182.352H217.648V176.471H211.766V182.352Z" fill="#C7CBCD"/>
<path d="M211.766 164.705H217.648V158.824H211.766V164.705Z" fill="#515D61"/>
<path d="M211.766 188.234H217.648V182.352H211.766V188.234Z" fill="#C7CBCD"/>
<path d="M211.766 200H217.648V194.117H211.766V200Z" fill="#231F20"/>
<path d="M211.766 194.117H217.648V188.234H211.766V194.117Z" fill="#979EA1"/>
<path d="M205.883 129.413H211.766V123.531H205.883V129.413Z" fill="#231F20"/>
<path d="M200 94.1171L205.881 94.1172V88.2344H200V94.1171Z" fill="#231F20"/>
<path d="M205.883 158.824H211.766V152.941H205.883V158.824Z" fill="#515D61"/>
<path d="M205.883 164.705L211.766 164.705V158.824H205.883V164.705Z" fill="#515D61"/>
<path d="M205.883 152.941H211.766V147.059H205.883V152.941Z" fill="#72848B"/>
<path d="M205.883 176.471H211.766V170.588L205.883 170.588V176.471Z" fill="#231F20"/>
<path d="M205.883 170.588L211.766 170.588V164.705L205.883 164.705V170.588Z" fill="#515D61"/>
<path d="M205.883 147.059H211.766L211.766 141.176H205.883V147.059Z" fill="#231F20"/>
<path d="M205.883 182.352H211.766V176.471H205.883V182.352Z" fill="#C7CBCD"/>
<path d="M205.883 135.295H211.766V129.413H205.883V135.295Z" fill="#231F20"/>
<path d="M205.883 141.176H211.766V135.295H205.883V141.176Z" fill="#231F20"/>
<path d="M205.883 123.531H211.766V117.646H205.883V123.531Z" fill="#231F20"/>
<path d="M205.883 200H211.766V194.117H205.883V200Z" fill="#231F20"/>
<path d="M205.883 188.234H211.766V182.352H205.883V188.234Z" fill="#C7CBCD"/>
<path d="M205.883 194.117H211.766V188.234H205.883V194.117Z" fill="#979EA1"/>
<path d="M205.883 117.646H211.766V111.766H205.883V117.646Z" fill="#231F20"/>
<path d="M205.883 111.766H211.766V105.883H205.883V111.766Z" fill="#231F20"/>
<path d="M223.531 182.352H229.413V176.471H223.531V182.352Z" fill="#979EA1"/>
<path d="M223.531 176.471H229.413V170.588H223.531V176.471Z" fill="#C7CBCD"/>
<path d="M223.531 188.234H229.413V182.352H223.531V188.234Z" fill="#231F20"/>
<path d="M223.531 170.588H229.413V164.705H223.531V170.588Z" fill="#C7CBCD"/>
<path d="M223.531 164.705H229.413V158.824H223.531V164.705Z" fill="#231F20"/>
<path d="M217.645 158.824H223.526V152.941H217.645V158.824Z" fill="#231F20"/>
<path d="M217.645 164.705H223.526V158.824H217.645V164.705Z" fill="#231F20"/>
<path d="M217.645 176.471H223.526V170.588H217.645V176.471Z" fill="#C7CBCD"/>
<path d="M217.645 170.588H223.526V164.705H217.645V170.588Z" fill="#C7CBCD"/>
<path d="M217.645 182.352H223.526V176.471H217.645V182.352Z" fill="#C7CBCD"/>
<path d="M217.645 194.117H223.526V188.234H217.645V194.117Z" fill="#231F20"/>
<path d="M217.645 188.234H223.526V182.352H217.645V188.234Z" fill="#979EA1"/>
</svg>
