<svg width="30" height="34" viewBox="0 0 30 34" fill="none" xmlns="http://www.w3.org/2000/svg">
<rect x="6.42773" width="8.57178" height="5.23071" fill="#11A729"/>
<rect x="12.8555" y="5.23047" width="4.28589" height="7.84606" fill="#11A729"/>
<rect x="6.42773" y="13.0762" width="12.8577" height="5.23071" fill="#11A729"/>
<rect x="10.7139" y="20.9219" width="10.7147" height="5.23071" fill="#11A729"/>
<rect x="6.42773" y="26.1523" width="12.8577" height="5.23071" fill="#11A729"/>
<rect x="4.28516" y="2.61426" width="2.14295" height="10.4614" fill="#11A729"/>
<rect x="23.5713" y="10.4619" width="2.14295" height="7.84606" fill="#11A729"/>
<rect x="25.7148" y="18.3076" width="2.14294" height="5.23071" fill="#11A729"/>
<rect x="23.5713" y="20.9219" width="2.14295" height="5.23071" fill="#11A729"/>
<rect x="21.4287" y="23.5361" width="2.14295" height="5.23071" fill="#11A729"/>
<rect x="21.4287" y="18.3076" width="2.61524" height="21.4286" transform="rotate(90 21.4287 18.3076)" fill="#11A729"/>
<rect x="10.7139" y="31.3848" width="2.61535" height="6.42884" transform="rotate(90 10.7139 31.3848)" fill="#11A729"/>
<rect x="17.1426" y="7.8457" width="2.14295" height="2.61535" fill="#11A729"/>
<rect x="23.5703" y="7.84473" width="6.4285" height="2.61522" fill="#11A729"/>
<rect x="25.7148" y="15.6914" width="2.14294" height="2.61535" fill="#11A729"/>
<rect x="27.8564" y="10.4619" width="2.14295" height="2.61535" fill="#11A729"/>
<rect x="19.2852" y="26.1523" width="2.14294" height="2.61535" fill="#11A729"/>
<rect x="19.2852" y="15.6914" width="2.14294" height="2.61535" fill="#11A729"/>
<rect x="2.14258" y="7.8457" width="2.14295" height="2.61535" fill="#11A729"/>
<rect x="14.999" y="2.61426" width="2.14295" height="2.61535" fill="#11A729"/>
</svg>
